<?xml version="1.0" encoding="UTF-8" standalone="no"?>
<svg
   xmlns:dc="http://purl.org/dc/elements/1.1/"
   xmlns:cc="http://creativecommons.org/ns#"
   xmlns:rdf="http://www.w3.org/1999/02/22-rdf-syntax-ns#"
   xmlns:svg="http://www.w3.org/2000/svg"
   xmlns="http://www.w3.org/2000/svg"
   version="1.1"
   id="svg3409"
   viewBox="0 0 2160 1080"
   height="12in"
   width="24in">
  <defs
     id="defs3411" />
  <metadata
     id="metadata3414">
    <rdf:RDF>
      <cc:Work
         rdf:about="">
        <dc:format>image/svg+xml</dc:format>
        <dc:type
           rdf:resource="http://purl.org/dc/dcmitype/StillImage" />
        <dc:title></dc:title>
      </cc:Work>
    </rdf:RDF>
  </metadata>
  <g
     transform="translate(0,27.637855)"
     id="layer1">
    <path
       id="path23"
       style="fill:none;stroke:#ff0000"
       d="m 724.78221,400.99833 a 5.314961,5.314961 0 1 0 -10.62992,0 5.314961,5.314961 0 1 0 10.62992,0 z" />
    <path
       id="path25"
       style="fill:none;stroke:#ff0000"
       d="m 335.41296,472.5217 a 5.314961,5.314961 0 1 0 -10.62992,0 5.314961,5.314961 0 1 0 10.62992,0 z" />
    <path
       id="path27"
       style="fill:none;stroke:#ff0000"
       d="m 50.50979,460.45186 a 5.314961,5.314961 0 1 0 -10.62992,0 5.314961,5.314961 0 0 0 10.62992,0 z" />
    <path
       id="path31"
       style="fill:none;stroke:#ff0000"
       d="M 23,463.46855 23,22.574836" />
    <path
       id="path33"
       style="fill:none;stroke:#ff0000"
       d="m 47.742063,-2.2283142 1868.286037,0" />
    <path
       id="path37"
       style="fill:none;stroke:#ff0000"
       d="m 738.48214,412.74124 -91.9998,197.29581" />
    <path
       id="path39"
       style="fill:none;stroke:#ff0000"
       d="M 613.52256,622.03495 331.58878,490.59472" />
    <path
       id="path41"
       style="fill:none;stroke:#ff0000"
       d="m 50.5098,19.966526 a 5.314965,5.314965 0 1 0 -10.62993,0 5.314965,5.314965 0 0 0 10.62993,0 z" />
    <path
       id="path43"
       style="fill:none;stroke:#ff0000"
       d="m 387.36996,13.521686 a 5.314961,5.314961 0 1 0 -10.62992,0 5.314961,5.314961 0 1 0 10.62992,0 z" />
    <path
       id="path45"
       style="fill:none;stroke:#ff0000"
       d="m 321.10832,488.2717 -273.30517,0" />
    <path
       id="path47"
       style="fill:none;stroke:#ff0000"
       d="m 576.87763,19.966526 a 5.314965,5.314965 0 1 0 -10.62993,0 5.314965,5.314965 0 0 0 10.62993,0 z" />
    <path
       id="path49"
       style="fill:none;stroke:#ff0000"
       d="M 47.80315,-2.2283142 A 24.80315,24.80315 0 0 0 23,22.574836" />
    <path
       id="path53"
       style="fill:none;stroke:#ff0000"
       d="M 23,463.46855 A 24.80315,24.80315 0 0 0 47.80315,488.2717" />
    <path
       id="path55"
       style="fill:none;stroke:#ff0000"
       d="m 613.52256,622.03495 a 24.80315,24.80315 0 0 0 32.95978,-11.9979" />
    <path
       id="path61"
       style="fill:none;stroke:#ff0000"
       d="M 331.58878,490.59472 A 24.80315,24.80315 0 0 0 321.10832,488.2717" />
    <path
       id="path63"
       style="fill:none;stroke:#ff0000"
       d="m 646.62205,591.97715 0,0" />
    <path
       id="path65"
       style="fill:none;stroke:#ff0000"
       d="m 630.5783,603.02375 a 5.314961,5.314961 0 1 0 -10.62992,0 5.314961,5.314961 0 1 0 10.62992,0 z" />
    <path
       id="path67"
       style="fill:none;stroke:#ff0000"
       d="m 646.62205,591.97715 0,0" />
    <path
       id="path69"
       style="fill:none;stroke:#ff0000"
       d="m 505.9804,92.072559 a 5.3149665,5.3149665 0 1 0 -10.62993,0 5.3149665,5.3149665 0 0 0 10.62993,0 z" />
    <path
       id="path71"
       style="fill:none;stroke:#ff0000"
       d="m 116.21662,92.072559 a 5.314965,5.314965 0 1 0 -10.62993,0 5.314965,5.314965 0 0 0 10.62993,0 z" />
    <path
       id="path73"
       style="fill:none;stroke:#ff0000"
       d="m 612.27961,517.26939 a 5.314961,5.314961 0 1 0 -10.62992,0 5.314961,5.314961 0 1 0 10.62992,0 z" />
    <path
       id="path23-9"
       style="fill:none;stroke:#ff0000"
       d="m 1225.3278,412.74111 91.9999,197.29594" />
    <path
       id="path25-6"
       style="fill:none;stroke:#ff0000"
       d="M 1350.2874,622.03505 1632.2212,490.59461" />
    <path
       id="path27-4"
       style="fill:none;stroke:#ff0000"
       d="m 1923.9302,19.966426 a 5.314961,5.314961 0 1 0 -10.6299,0 5.314961,5.314961 0 1 0 10.6299,0 z" />
    <path
       id="path29-8"
       style="fill:none;stroke:#ff0000"
       d="m 1587.0699,13.521586 a 5.314961,5.314961 0 1 0 -10.6298,0 5.314961,5.314961 0 1 0 10.6298,0 z" />
    <path
       id="path31-6"
       style="fill:none;stroke:#ff0000"
       d="m 1642.7016,488.27161 273.3052,0" />
    <path
       id="path33-9"
       style="fill:none;stroke:#ff0000"
       d="m 1397.5624,19.966426 a 5.31505,5.31505 0 1 0 -10.6301,0 5.31505,5.31505 0 0 0 10.6301,0 z" />
    <path
       id="path35-3"
       style="fill:none;stroke:#ff0000"
       d="M 1940.81,22.574736 A 24.80315,24.80315 0 0 0 1916.0068,-2.2284142" />
    <path
       id="path39-6"
       style="fill:none;stroke:#ff0000"
       d="m 1916.0068,488.27161 a 24.80315,24.80315 0 0 0 24.8032,-24.8031" />
    <path
       id="path41-7"
       style="fill:none;stroke:#ff0000"
       d="m 1317.3276,610.03705 a 24.80315,24.80315 0 0 0 32.9598,11.998" />
    <path
       id="path45-8"
       style="fill:none;stroke:#ff0000"
       d="m 1249.6576,400.99821 a 5.314961,5.314961 0 1 0 -10.6298,0 5.314961,5.314961 0 0 0 10.6298,0 z" />
    <path
       id="path49-1"
       style="fill:none;stroke:#ff0000"
       d="m 1642.7016,488.27161 a 24.80315,24.80315 0 0 0 -10.4804,2.323" />
    <path
       id="path51-1"
       style="fill:none;stroke:#ff0000"
       d="m 1343.8616,603.02375 a 5.314965,5.314965 0 1 0 -10.6298,0 5.314965,5.314965 0 0 0 10.6298,0 z" />
    <path
       id="path53-7"
       style="fill:none;stroke:#ff0000"
       d="m 1639.027,472.52161 a 5.314961,5.314961 0 1 0 -10.6299,0 5.314961,5.314961 0 1 0 10.6299,0 z" />
    <path
       id="path55-4"
       style="fill:none;stroke:#ff0000"
       d="m 1923.9302,460.45181 a 5.314961,5.314961 0 1 0 -10.6299,0 5.314961,5.314961 0 1 0 10.6299,0 z" />
    <path
       id="path57-2"
       style="fill:none;stroke:#ff0000"
       d="m 1317.1879,591.97715 0,0" />
    <path
       id="path61-4"
       style="fill:none;stroke:#ff0000"
       d="m 1940.81,463.46851 0,-440.893774" />
    <path
       id="path67-4"
       style="fill:none;stroke:#ff0000"
       d="m 1468.4595,92.072459 a 5.314961,5.314961 0 1 0 -10.6298,0 5.314961,5.314961 0 1 0 10.6298,0 z" />
    <path
       id="path69-2"
       style="fill:none;stroke:#ff0000"
       d="m 1858.2233,92.072459 a 5.314961,5.314961 0 1 0 -10.6299,0 5.314961,5.314961 0 1 0 10.6299,0 z" />
    <path
       id="path71-4"
       style="fill:none;stroke:#ff0000"
       d="m 1362.1603,517.26931 a 5.314961,5.314961 0 1 0 -10.6298,0 5.314961,5.314961 0 1 0 10.6298,0 z" />
    <path
       id="path59-6"
       style="fill:none;stroke:#ff0000"
       d="m 760.9497,398.43789 a 24.80315,24.80315 0 0 0 -22.47963,14.32162" />
    <path
       id="path47-4-7"
       style="fill:none;stroke:#ff0000"
       d="m 1225.332,412.76616 a 24.80315,24.80315 0 0 0 -22.4797,-14.3217" />
    <path
       id="path45-9"
       style="fill:none;stroke:#ff0000"
       d="m 1202.9084,398.43476 -442.04686,0" />
  </g>
</svg>
