  0
SECTION
  2
HEADER
  9
$ACADVER
  1
AC1014
  9
$HANDSEED
  5
FFFF
  9
$MEASUREMENT
 70
     1
  0
ENDSEC
  0
SECTION
  2
TABLES
  0
TABLE
  2
VPORT
  5
8
330
0
100
AcDbSymbolTable
 70
     4
  0
VPORT
  5
2E
330
8
100
AcDbSymbolTableRecord
100
AcDbViewportTableRecord
  2
*ACTIVE
 70
     0
 10
0.0
 20
0.0
 11
1.0
 21
1.0
 12
210.0
 22
148.5
 13
0.0
 23
0.0
 14
10.0
 24
10.0
 15
10.0
 25
10.0
 16
0.0
 26
0.0
 36
1.0
 17
0.0
 27
0.0
 37
0.0
 40
341.0
 41
1.24
 42
50.0
 43
0.0
 44
0.0
 50
0.0
 51
0.0
 71
     0
 72
   100
 73
     1
 74
     3
 75
     0
 76
     0
 77
     0
 78
     0
  0
ENDTAB
  0
TABLE
  2
LTYPE
  5
5
330
0
100
AcDbSymbolTable
 70
     1
  0
LTYPE
  5
14
330
5
100
AcDbSymbolTableRecord
100
AcDbLinetypeTableRecord
  2
BYBLOCK
 70
     0
  3

 72
    65
 73
     0
 40
0.0
  0
LTYPE
  5
15
330
5
100
AcDbSymbolTableRecord
100
AcDbLinetypeTableRecord
  2
BYLAYER
 70
     0
  3

 72
    65
 73
     0
 40
0.0
  0
LTYPE
  5
16
330
5
100
AcDbSymbolTableRecord
100
AcDbLinetypeTableRecord
  2
CONTINUOUS
 70
     0
  3
Solid line
 72
    65
 73
     0
 40
0.0
  0
ENDTAB
  0
TABLE
  2
LAYER
  5
2
100
AcDbSymbolTable
 70
1
  0
LAYER
  5
50
100
AcDbSymbolTableRecord
100
AcDbLayerTableRecord
  2
0
 70
0
  6
CONTINUOUS
  0
ENDTAB
  0
TABLE
  2
STYLE
  5
3
330
0
100
AcDbSymbolTable
 70
     1
  0
STYLE
  5
11
330
3
100
AcDbSymbolTableRecord
100
AcDbTextStyleTableRecord
  2
STANDARD
 70
     0
 40
0.0
 41
1.0
 50
0.0
 71
     0
 42
2.5
  3
txt
  4

  0
ENDTAB
  0
TABLE
  2
VIEW
  5
6
330
0
100
AcDbSymbolTable
 70
     0
  0
ENDTAB
  0
TABLE
  2
UCS
  5
7
330
0
100
AcDbSymbolTable
 70
     0
  0
ENDTAB
  0
TABLE
  2
APPID
  5
9
330
0
100
AcDbSymbolTable
 70
     2
  0
APPID
  5
12
330
9
100
AcDbSymbolTableRecord
100
AcDbRegAppTableRecord
  2
ACAD
 70
     0
  0
ENDTAB
  0
TABLE
  2
DIMSTYLE
  5
A
330
0
100
AcDbSymbolTable
 70
     1
  0
DIMSTYLE
105
27
330
A
100
AcDbSymbolTableRecord
100
AcDbDimStyleTableRecord
  2
ISO-25
 70
     0
  3

  4

  5

  6

  7

 40
1.0
 41
2.5
 42
0.625
 43
3.75
 44
1.25
 45
0.0
 46
0.0
 47
0.0
 48
0.0
140
2.5
141
2.5
142
0.0
143
0.03937007874016
144
1.0
145
0.0
146
1.0
147
0.625
 71
     0
 72
     0
 73
     0
 74
     0
 75
     0
 76
     0
 77
     1
 78
     8
170
     0
171
     3
172
     1
173
     0
174
     0
175
     0
176
     0
177
     0
178
     0
270
     2
271
     2
272
     2
273
     2
274
     3
340
11
275
     0
280
     0
281
     0
282
     0
283
     0
284
     8
285
     0
286
     0
287
     3
288
     0
  0
ENDTAB
  0
TABLE
  2
BLOCK_RECORD
  5
1
330
0
100
AcDbSymbolTable
 70
     1
  0
BLOCK_RECORD
  5
1F
330
1
100
AcDbSymbolTableRecord
100
AcDbBlockTableRecord
  2
*MODEL_SPACE
  0
BLOCK_RECORD
  5
1B
330
1
100
AcDbSymbolTableRecord
100
AcDbBlockTableRecord
  2
*PAPER_SPACE
  0
ENDTAB
  0
ENDSEC
  0
SECTION
  2
BLOCKS
  0
BLOCK
  5
20
330
1F
100
AcDbEntity
  8
0
100
AcDbBlockBegin
  2
*MODEL_SPACE
 70
     0
 10
0.0
 20
0.0
 30
0.0
  3
*MODEL_SPACE
  1

  0
ENDBLK
  5
21
330
1F
100
AcDbEntity
  8
0
100
AcDbBlockEnd
  0
BLOCK
  5
1C
330
1B
100
AcDbEntity
 67
     1
  8
0
100
AcDbBlockBegin
  2
*PAPER_SPACE
  1

  0
ENDBLK
  5
1D
330
1B
100
AcDbEntity
 67
     1
  8
0
100
AcDbBlockEnd
  0
ENDSEC
  0
SECTION
  2
ENTITIES
  0
SPLINE
  5
100
100
AcDbEntity
  8
0
 62
1
100
AcDbSpline
 70
8
 71
3
 72
8
 73
4
 74
0
 40
0
 40
0
 40
0
 40
0
 40
1
 40
1
 40
1
 40
1
 10
204.549646
 20
183.829343
 30
0.0
 10
204.549975
 20
184.365461
 30
0.0
 10
204.264148
 20
184.860995
 30
0.0
 10
203.799912
 20
185.129148
 30
0.0
  0
SPLINE
  5
101
100
AcDbEntity
  8
0
 62
1
100
AcDbSpline
 70
8
 71
3
 72
8
 73
4
 74
0
 40
0
 40
0
 40
0
 40
0
 40
1
 40
1
 40
1
 40
1
 10
203.799912
 20
185.129148
 30
0.0
 10
203.335675
 20
185.397302
 30
0.0
 10
202.763617
 20
185.397302
 30
0.0
 10
202.299380
 20
185.129148
 30
0.0
  0
SPLINE
  5
102
100
AcDbEntity
  8
0
 62
1
100
AcDbSpline
 70
8
 71
3
 72
8
 73
4
 74
0
 40
0
 40
0
 40
0
 40
0
 40
1
 40
1
 40
1
 40
1
 10
202.299380
 20
185.129148
 30
0.0
 10
201.835144
 20
184.860995
 30
0.0
 10
201.549317
 20
184.365461
 30
0.0
 10
201.549646
 20
183.829343
 30
0.0
  0
SPLINE
  5
103
100
AcDbEntity
  8
0
 62
1
100
AcDbSpline
 70
8
 71
3
 72
8
 73
4
 74
0
 40
0
 40
0
 40
0
 40
0
 40
1
 40
1
 40
1
 40
1
 10
201.549646
 20
183.829343
 30
0.0
 10
201.549317
 20
183.293226
 30
0.0
 10
201.835144
 20
182.797692
 30
0.0
 10
202.299380
 20
182.529538
 30
0.0
  0
SPLINE
  5
104
100
AcDbEntity
  8
0
 62
1
100
AcDbSpline
 70
8
 71
3
 72
8
 73
4
 74
0
 40
0
 40
0
 40
0
 40
0
 40
1
 40
1
 40
1
 40
1
 10
202.299380
 20
182.529538
 30
0.0
 10
202.763617
 20
182.261385
 30
0.0
 10
203.335675
 20
182.261385
 30
0.0
 10
203.799912
 20
182.529538
 30
0.0
  0
SPLINE
  5
105
100
AcDbEntity
  8
0
 62
1
100
AcDbSpline
 70
8
 71
3
 72
8
 73
4
 74
0
 40
0
 40
0
 40
0
 40
0
 40
1
 40
1
 40
1
 40
1
 10
203.799912
 20
182.529538
 30
0.0
 10
204.264148
 20
182.797692
 30
0.0
 10
204.549975
 20
183.293226
 30
0.0
 10
204.549646
 20
183.829343
 30
0.0
  0
SPLINE
  5
106
100
AcDbEntity
  8
0
 62
1
100
AcDbSpline
 70
8
 71
3
 72
8
 73
4
 74
0
 40
0
 40
0
 40
0
 40
0
 40
1
 40
1
 40
1
 40
1
 10
94.660991
 20
163.643859
 30
0.0
 10
94.661320
 20
164.179976
 30
0.0
 10
94.375493
 20
164.675510
 30
0.0
 10
93.911257
 20
164.943664
 30
0.0
  0
SPLINE
  5
107
100
AcDbEntity
  8
0
 62
1
100
AcDbSpline
 70
8
 71
3
 72
8
 73
4
 74
0
 40
0
 40
0
 40
0
 40
0
 40
1
 40
1
 40
1
 40
1
 10
93.911257
 20
164.943664
 30
0.0
 10
93.447020
 20
165.211818
 30
0.0
 10
92.874962
 20
165.211818
 30
0.0
 10
92.410725
 20
164.943664
 30
0.0
  0
SPLINE
  5
108
100
AcDbEntity
  8
0
 62
1
100
AcDbSpline
 70
8
 71
3
 72
8
 73
4
 74
0
 40
0
 40
0
 40
0
 40
0
 40
1
 40
1
 40
1
 40
1
 10
92.410725
 20
164.943664
 30
0.0
 10
91.946489
 20
164.675510
 30
0.0
 10
91.660662
 20
164.179976
 30
0.0
 10
91.660991
 20
163.643859
 30
0.0
  0
SPLINE
  5
109
100
AcDbEntity
  8
0
 62
1
100
AcDbSpline
 70
8
 71
3
 72
8
 73
4
 74
0
 40
0
 40
0
 40
0
 40
0
 40
1
 40
1
 40
1
 40
1
 10
91.660991
 20
163.643859
 30
0.0
 10
91.660662
 20
163.107741
 30
0.0
 10
91.946489
 20
162.612208
 30
0.0
 10
92.410725
 20
162.344054
 30
0.0
  0
SPLINE
  5
10a
100
AcDbEntity
  8
0
 62
1
100
AcDbSpline
 70
8
 71
3
 72
8
 73
4
 74
0
 40
0
 40
0
 40
0
 40
0
 40
1
 40
1
 40
1
 40
1
 10
92.410725
 20
162.344054
 30
0.0
 10
92.874962
 20
162.075900
 30
0.0
 10
93.447020
 20
162.075900
 30
0.0
 10
93.911257
 20
162.344054
 30
0.0
  0
SPLINE
  5
10b
100
AcDbEntity
  8
0
 62
1
100
AcDbSpline
 70
8
 71
3
 72
8
 73
4
 74
0
 40
0
 40
0
 40
0
 40
0
 40
1
 40
1
 40
1
 40
1
 10
93.911257
 20
162.344054
 30
0.0
 10
94.375493
 20
162.612208
 30
0.0
 10
94.661320
 20
163.107741
 30
0.0
 10
94.660991
 20
163.643859
 30
0.0
  0
LWPOLYLINE
  5
10c
100
AcDbEntity
  8
0
 62
1
100
AcDbPolyline
 90
2
 70
1
 10
204.549646
 20
183.829343
 30
0.0
 10
204.549646
 20
183.829343
 30
0.0
  0
SPLINE
  5
10d
100
AcDbEntity
  8
0
 62
1
100
AcDbSpline
 70
8
 71
3
 72
8
 73
4
 74
0
 40
0
 40
0
 40
0
 40
0
 40
1
 40
1
 40
1
 40
1
 10
14.254985
 20
167.050236
 30
0.0
 10
14.255314
 20
167.586353
 30
0.0
 10
13.969488
 20
168.081887
 30
0.0
 10
13.505251
 20
168.350041
 30
0.0
  0
SPLINE
  5
10e
100
AcDbEntity
  8
0
 62
1
100
AcDbSpline
 70
8
 71
3
 72
8
 73
4
 74
0
 40
0
 40
0
 40
0
 40
0
 40
1
 40
1
 40
1
 40
1
 10
13.505251
 20
168.350041
 30
0.0
 10
13.041014
 20
168.618195
 30
0.0
 10
12.468956
 20
168.618195
 30
0.0
 10
12.004720
 20
168.350041
 30
0.0
  0
SPLINE
  5
10f
100
AcDbEntity
  8
0
 62
1
100
AcDbSpline
 70
8
 71
3
 72
8
 73
4
 74
0
 40
0
 40
0
 40
0
 40
0
 40
1
 40
1
 40
1
 40
1
 10
12.004720
 20
168.350041
 30
0.0
 10
11.540483
 20
168.081887
 30
0.0
 10
11.254657
 20
167.586353
 30
0.0
 10
11.254986
 20
167.050236
 30
0.0
  0
SPLINE
  5
110
100
AcDbEntity
  8
0
 62
1
100
AcDbSpline
 70
8
 71
3
 72
8
 73
4
 74
0
 40
0
 40
0
 40
0
 40
0
 40
1
 40
1
 40
1
 40
1
 10
11.254986
 20
167.050236
 30
0.0
 10
11.255493
 20
166.222168
 30
0.0
 10
11.926917
 20
165.551156
 30
0.0
 10
12.754985
 20
165.551156
 30
0.0
  0
SPLINE
  5
111
100
AcDbEntity
  8
0
 62
1
100
AcDbSpline
 70
8
 71
3
 72
8
 73
4
 74
0
 40
0
 40
0
 40
0
 40
0
 40
1
 40
1
 40
1
 40
1
 10
12.754985
 20
165.551156
 30
0.0
 10
13.583053
 20
165.551156
 30
0.0
 10
14.254477
 20
166.222168
 30
0.0
 10
14.254985
 20
167.050236
 30
0.0
  0
LWPOLYLINE
  5
112
100
AcDbEntity
  8
0
 62
1
100
AcDbPolyline
 90
2
 70
1
 10
94.660991
 20
163.643859
 30
0.0
 10
94.660991
 20
163.643859
 30
0.0
  0
LWPOLYLINE
  5
113
100
AcDbEntity
  8
0
 62
1
100
AcDbPolyline
 90
2
 70
1
 10
14.254985
 20
167.050236
 30
0.0
 10
14.254985
 20
167.050236
 30
0.0
  0
LWPOLYLINE
  5
114
100
AcDbEntity
  8
0
 62
1
100
AcDbPolyline
 90
2
 70
0
 10
6.491111
 20
166.198859
 30
0.0
 10
6.491111
 20
290.628863
 30
0.0
  0
LWPOLYLINE
  5
115
100
AcDbEntity
  8
0
 62
1
100
AcDbPolyline
 90
2
 70
0
 10
13.473871
 20
297.628863
 30
0.0
 10
540.745708
 20
297.628863
 30
0.0
  0
LWPOLYLINE
  5
116
100
AcDbEntity
  8
0
 62
1
100
AcDbPolyline
 90
2
 70
0
 10
208.416071
 20
180.515233
 30
0.0
 10
182.451683
 20
124.833971
 30
0.0
  0
SPLINE
  5
117
100
AcDbEntity
  8
0
 62
1
100
AcDbSpline
 70
8
 71
3
 72
8
 73
4
 74
0
 40
0
 40
0
 40
0
 40
0
 40
1
 40
1
 40
1
 40
1
 10
14.254988
 20
291.364986
 30
0.0
 10
14.254988
 20
291.900885
 30
0.0
 10
13.969089
 20
292.396076
 30
0.0
 10
13.504987
 20
292.664025
 30
0.0
  0
SPLINE
  5
118
100
AcDbEntity
  8
0
 62
1
100
AcDbSpline
 70
8
 71
3
 72
8
 73
4
 74
0
 40
0
 40
0
 40
0
 40
0
 40
1
 40
1
 40
1
 40
1
 10
13.504987
 20
292.664025
 30
0.0
 10
13.040885
 20
292.931974
 30
0.0
 10
12.469088
 20
292.931974
 30
0.0
 10
12.004986
 20
292.664025
 30
0.0
  0
SPLINE
  5
119
100
AcDbEntity
  8
0
 62
1
100
AcDbSpline
 70
8
 71
3
 72
8
 73
4
 74
0
 40
0
 40
0
 40
0
 40
0
 40
1
 40
1
 40
1
 40
1
 10
12.004986
 20
292.664025
 30
0.0
 10
11.540884
 20
292.396076
 30
0.0
 10
11.254986
 20
291.900885
 30
0.0
 10
11.254986
 20
291.364986
 30
0.0
  0
SPLINE
  5
11a
100
AcDbEntity
  8
0
 62
1
100
AcDbSpline
 70
8
 71
3
 72
8
 73
4
 74
0
 40
0
 40
0
 40
0
 40
0
 40
1
 40
1
 40
1
 40
1
 10
11.254986
 20
291.364986
 30
0.0
 10
11.254986
 20
290.829087
 30
0.0
 10
11.540884
 20
290.333896
 30
0.0
 10
12.004986
 20
290.065947
 30
0.0
  0
SPLINE
  5
11b
100
AcDbEntity
  8
0
 62
1
100
AcDbSpline
 70
8
 71
3
 72
8
 73
4
 74
0
 40
0
 40
0
 40
0
 40
0
 40
1
 40
1
 40
1
 40
1
 10
12.004986
 20
290.065947
 30
0.0
 10
12.469088
 20
289.797997
 30
0.0
 10
13.040885
 20
289.797997
 30
0.0
 10
13.504987
 20
290.065947
 30
0.0
  0
SPLINE
  5
11c
100
AcDbEntity
  8
0
 62
1
100
AcDbSpline
 70
8
 71
3
 72
8
 73
4
 74
0
 40
0
 40
0
 40
0
 40
0
 40
1
 40
1
 40
1
 40
1
 10
13.504987
 20
290.065947
 30
0.0
 10
13.969089
 20
290.333896
 30
0.0
 10
14.254988
 20
290.829087
 30
0.0
 10
14.254988
 20
291.364986
 30
0.0
  0
LWPOLYLINE
  5
11d
100
AcDbEntity
  8
0
 62
1
100
AcDbPolyline
 90
2
 70
0
 10
173.149700
 20
121.447897
 30
0.0
 10
93.581722
 20
158.543251
 30
0.0
  0
SPLINE
  5
11e
100
AcDbEntity
  8
0
 62
1
100
AcDbSpline
 70
8
 71
3
 72
8
 73
4
 74
0
 40
0
 40
0
 40
0
 40
0
 40
1
 40
1
 40
1
 40
1
 10
109.324411
 20
293.183863
 30
0.0
 10
109.324740
 20
293.719980
 30
0.0
 10
109.038913
 20
294.215514
 30
0.0
 10
108.574677
 20
294.483668
 30
0.0
  0
SPLINE
  5
11f
100
AcDbEntity
  8
0
 62
1
100
AcDbSpline
 70
8
 71
3
 72
8
 73
4
 74
0
 40
0
 40
0
 40
0
 40
0
 40
1
 40
1
 40
1
 40
1
 10
108.574677
 20
294.483668
 30
0.0
 10
108.110440
 20
294.751822
 30
0.0
 10
107.538382
 20
294.751822
 30
0.0
 10
107.074145
 20
294.483668
 30
0.0
  0
SPLINE
  5
120
100
AcDbEntity
  8
0
 62
1
100
AcDbSpline
 70
8
 71
3
 72
8
 73
4
 74
0
 40
0
 40
0
 40
0
 40
0
 40
1
 40
1
 40
1
 40
1
 10
107.074145
 20
294.483668
 30
0.0
 10
106.609909
 20
294.215514
 30
0.0
 10
106.324082
 20
293.719980
 30
0.0
 10
106.324411
 20
293.183863
 30
0.0
  0
SPLINE
  5
121
100
AcDbEntity
  8
0
 62
1
100
AcDbSpline
 70
8
 71
3
 72
8
 73
4
 74
0
 40
0
 40
0
 40
0
 40
0
 40
1
 40
1
 40
1
 40
1
 10
106.324411
 20
293.183863
 30
0.0
 10
106.324082
 20
292.647745
 30
0.0
 10
106.609909
 20
292.152212
 30
0.0
 10
107.074145
 20
291.884058
 30
0.0
  0
SPLINE
  5
122
100
AcDbEntity
  8
0
 62
1
100
AcDbSpline
 70
8
 71
3
 72
8
 73
4
 74
0
 40
0
 40
0
 40
0
 40
0
 40
1
 40
1
 40
1
 40
1
 10
107.074145
 20
291.884058
 30
0.0
 10
107.538382
 20
291.615904
 30
0.0
 10
108.110440
 20
291.615904
 30
0.0
 10
108.574677
 20
291.884058
 30
0.0
  0
SPLINE
  5
123
100
AcDbEntity
  8
0
 62
1
100
AcDbSpline
 70
8
 71
3
 72
8
 73
4
 74
0
 40
0
 40
0
 40
0
 40
0
 40
1
 40
1
 40
1
 40
1
 10
108.574677
 20
291.884058
 30
0.0
 10
109.038913
 20
292.152212
 30
0.0
 10
109.324740
 20
292.647745
 30
0.0
 10
109.324411
 20
293.183863
 30
0.0
  0
LWPOLYLINE
  5
124
100
AcDbEntity
  8
0
 62
1
100
AcDbPolyline
 90
2
 70
1
 10
14.254988
 20
291.364986
 30
0.0
 10
14.254988
 20
291.364986
 30
0.0
  0
LWPOLYLINE
  5
125
100
AcDbEntity
  8
0
 62
1
100
AcDbPolyline
 90
2
 70
1
 10
109.324411
 20
293.183863
 30
0.0
 10
109.324411
 20
293.183863
 30
0.0
  0
SPLINE
  5
126
100
AcDbEntity
  8
0
 62
1
100
AcDbSpline
 70
8
 71
3
 72
8
 73
4
 74
0
 40
0
 40
0
 40
0
 40
0
 40
1
 40
1
 40
1
 40
1
 10
162.807687
 20
291.364986
 30
0.0
 10
162.807687
 20
291.900885
 30
0.0
 10
162.521788
 20
292.396076
 30
0.0
 10
162.057686
 20
292.664025
 30
0.0
  0
SPLINE
  5
127
100
AcDbEntity
  8
0
 62
1
100
AcDbSpline
 70
8
 71
3
 72
8
 73
4
 74
0
 40
0
 40
0
 40
0
 40
0
 40
1
 40
1
 40
1
 40
1
 10
162.057686
 20
292.664025
 30
0.0
 10
161.593584
 20
292.931975
 30
0.0
 10
161.021787
 20
292.931975
 30
0.0
 10
160.557685
 20
292.664025
 30
0.0
  0
SPLINE
  5
128
100
AcDbEntity
  8
0
 62
1
100
AcDbSpline
 70
8
 71
3
 72
8
 73
4
 74
0
 40
0
 40
0
 40
0
 40
0
 40
1
 40
1
 40
1
 40
1
 10
160.557685
 20
292.664025
 30
0.0
 10
160.093583
 20
292.396076
 30
0.0
 10
159.807684
 20
291.900885
 30
0.0
 10
159.807684
 20
291.364986
 30
0.0
  0
SPLINE
  5
129
100
AcDbEntity
  8
0
 62
1
100
AcDbSpline
 70
8
 71
3
 72
8
 73
4
 74
0
 40
0
 40
0
 40
0
 40
0
 40
1
 40
1
 40
1
 40
1
 10
159.807684
 20
291.364986
 30
0.0
 10
159.807684
 20
290.536558
 30
0.0
 10
160.479258
 20
289.864985
 30
0.0
 10
161.307685
 20
289.864985
 30
0.0
  0
SPLINE
  5
12a
100
AcDbEntity
  8
0
 62
1
100
AcDbSpline
 70
8
 71
3
 72
8
 73
4
 74
0
 40
0
 40
0
 40
0
 40
0
 40
1
 40
1
 40
1
 40
1
 10
161.307685
 20
289.864985
 30
0.0
 10
162.136113
 20
289.864985
 30
0.0
 10
162.807687
 20
290.536558
 30
0.0
 10
162.807687
 20
291.364986
 30
0.0
  0
LWPOLYLINE
  5
12b
100
AcDbEntity
  8
0
 62
1
100
AcDbPolyline
 90
2
 70
0
 10
90.623904
 20
159.198859
 30
0.0
 10
13.491111
 20
159.198859
 30
0.0
  0
SPLINE
  5
12c
100
AcDbEntity
  8
0
 62
1
100
AcDbSpline
 70
8
 71
3
 72
8
 73
4
 74
0
 40
0
 40
0
 40
0
 40
0
 40
1
 40
1
 40
1
 40
1
 10
13.491111
 20
297.628863
 30
0.0
 10
11.634596
 20
297.628863
 30
0.0
 10
9.854118
 20
296.891365
 30
0.0
 10
8.541364
 20
295.578610
 30
0.0
  0
SPLINE
  5
12d
100
AcDbEntity
  8
0
 62
1
100
AcDbSpline
 70
8
 71
3
 72
8
 73
4
 74
0
 40
0
 40
0
 40
0
 40
0
 40
1
 40
1
 40
1
 40
1
 10
8.541364
 20
295.578610
 30
0.0
 10
7.228609
 20
294.265856
 30
0.0
 10
6.491111
 20
292.485378
 30
0.0
 10
6.491111
 20
290.628863
 30
0.0
  0
SPLINE
  5
12e
100
AcDbEntity
  8
0
 62
1
100
AcDbSpline
 70
8
 71
3
 72
8
 73
4
 74
0
 40
0
 40
0
 40
0
 40
0
 40
1
 40
1
 40
1
 40
1
 10
6.491111
 20
166.198859
 30
0.0
 10
6.491111
 20
164.342344
 30
0.0
 10
7.228609
 20
162.561866
 30
0.0
 10
8.541364
 20
161.249111
 30
0.0
  0
SPLINE
  5
12f
100
AcDbEntity
  8
0
 62
1
100
AcDbSpline
 70
8
 71
3
 72
8
 73
4
 74
0
 40
0
 40
0
 40
0
 40
0
 40
1
 40
1
 40
1
 40
1
 10
8.541364
 20
161.249111
 30
0.0
 10
9.854118
 20
159.936357
 30
0.0
 10
11.634596
 20
159.198859
 30
0.0
 10
13.491111
 20
159.198859
 30
0.0
  0
SPLINE
  5
130
100
AcDbEntity
  8
0
 62
1
100
AcDbSpline
 70
8
 71
3
 72
8
 73
4
 74
0
 40
0
 40
0
 40
0
 40
0
 40
1
 40
1
 40
1
 40
1
 10
173.149700
 20
121.447897
 30
0.0
 10
176.653417
 20
119.814427
 30
0.0
 10
180.817940
 20
121.330381
 30
0.0
 10
182.451683
 20
124.833971
 30
0.0
  0
SPLINE
  5
131
100
AcDbEntity
  8
0
 62
1
100
AcDbSpline
 70
8
 71
3
 72
8
 73
4
 74
0
 40
0
 40
0
 40
0
 40
0
 40
1
 40
1
 40
1
 40
1
 10
93.581722
 20
158.543251
 30
0.0
 10
92.655462
 20
158.975083
 30
0.0
 10
91.645880
 20
159.198859
 30
0.0
 10
90.623904
 20
159.198859
 30
0.0
  0
LWPOLYLINE
  5
132
100
AcDbEntity
  8
0
 62
1
100
AcDbPolyline
 90
2
 70
1
 10
162.807687
 20
291.364986
 30
0.0
 10
162.807687
 20
291.364986
 30
0.0
  0
SPLINE
  5
133
100
AcDbEntity
  8
0
 62
1
100
AcDbSpline
 70
8
 71
3
 72
8
 73
4
 74
0
 40
0
 40
0
 40
0
 40
0
 40
1
 40
1
 40
1
 40
1
 10
177.963209
 20
126.813280
 30
0.0
 10
177.963538
 20
127.349398
 30
0.0
 10
177.677712
 20
127.844932
 30
0.0
 10
177.213475
 20
128.113085
 30
0.0
  0
SPLINE
  5
134
100
AcDbEntity
  8
0
 62
1
100
AcDbSpline
 70
8
 71
3
 72
8
 73
4
 74
0
 40
0
 40
0
 40
0
 40
0
 40
1
 40
1
 40
1
 40
1
 10
177.213475
 20
128.113085
 30
0.0
 10
176.749238
 20
128.381239
 30
0.0
 10
176.177180
 20
128.381239
 30
0.0
 10
175.712944
 20
128.113085
 30
0.0
  0
SPLINE
  5
135
100
AcDbEntity
  8
0
 62
1
100
AcDbSpline
 70
8
 71
3
 72
8
 73
4
 74
0
 40
0
 40
0
 40
0
 40
0
 40
1
 40
1
 40
1
 40
1
 10
175.712944
 20
128.113085
 30
0.0
 10
175.248707
 20
127.844932
 30
0.0
 10
174.962881
 20
127.349398
 30
0.0
 10
174.963209
 20
126.813280
 30
0.0
  0
SPLINE
  5
136
100
AcDbEntity
  8
0
 62
1
100
AcDbSpline
 70
8
 71
3
 72
8
 73
4
 74
0
 40
0
 40
0
 40
0
 40
0
 40
1
 40
1
 40
1
 40
1
 10
174.963209
 20
126.813280
 30
0.0
 10
174.962881
 20
126.277163
 30
0.0
 10
175.248707
 20
125.781629
 30
0.0
 10
175.712944
 20
125.513475
 30
0.0
  0
SPLINE
  5
137
100
AcDbEntity
  8
0
 62
1
100
AcDbSpline
 70
8
 71
3
 72
8
 73
4
 74
0
 40
0
 40
0
 40
0
 40
0
 40
1
 40
1
 40
1
 40
1
 10
175.712944
 20
125.513475
 30
0.0
 10
176.177180
 20
125.245322
 30
0.0
 10
176.749238
 20
125.245322
 30
0.0
 10
177.213475
 20
125.513475
 30
0.0
  0
SPLINE
  5
138
100
AcDbEntity
  8
0
 62
1
100
AcDbSpline
 70
8
 71
3
 72
8
 73
4
 74
0
 40
0
 40
0
 40
0
 40
0
 40
1
 40
1
 40
1
 40
1
 10
177.213475
 20
125.513475
 30
0.0
 10
177.677712
 20
125.781629
 30
0.0
 10
177.963538
 20
126.277163
 30
0.0
 10
177.963209
 20
126.813280
 30
0.0
  0
LWPOLYLINE
  5
139
100
AcDbEntity
  8
0
 62
1
100
AcDbPolyline
 90
2
 70
0
 10
182.491112
 20
129.930876
 30
0.0
 10
182.491112
 20
129.930876
 30
0.0
  0
LWPOLYLINE
  5
13a
100
AcDbEntity
  8
0
 62
1
100
AcDbPolyline
 90
2
 70
1
 10
177.963209
 20
126.813280
 30
0.0
 10
177.963209
 20
126.813280
 30
0.0
  0
SPLINE
  5
13b
100
AcDbEntity
  8
0
 62
1
100
AcDbSpline
 70
8
 71
3
 72
8
 73
4
 74
0
 40
0
 40
0
 40
0
 40
0
 40
1
 40
1
 40
1
 40
1
 10
142.798913
 20
271.015061
 30
0.0
 10
142.799316
 20
271.551228
 30
0.0
 10
142.513505
 20
272.046840
 30
0.0
 10
142.049238
 20
272.315040
 30
0.0
  0
SPLINE
  5
13c
100
AcDbEntity
  8
0
 62
1
100
AcDbSpline
 70
8
 71
3
 72
8
 73
4
 74
0
 40
0
 40
0
 40
0
 40
0
 40
1
 40
1
 40
1
 40
1
 10
142.049238
 20
272.315040
 30
0.0
 10
141.584970
 20
272.583240
 30
0.0
 10
141.012853
 20
272.583240
 30
0.0
 10
140.548586
 20
272.315040
 30
0.0
  0
SPLINE
  5
13d
100
AcDbEntity
  8
0
 62
1
100
AcDbSpline
 70
8
 71
3
 72
8
 73
4
 74
0
 40
0
 40
0
 40
0
 40
0
 40
1
 40
1
 40
1
 40
1
 10
140.548586
 20
272.315040
 30
0.0
 10
140.084318
 20
272.046840
 30
0.0
 10
139.798508
 20
271.551228
 30
0.0
 10
139.798910
 20
271.015061
 30
0.0
  0
SPLINE
  5
13e
100
AcDbEntity
  8
0
 62
1
100
AcDbSpline
 70
8
 71
3
 72
8
 73
4
 74
0
 40
0
 40
0
 40
0
 40
0
 40
1
 40
1
 40
1
 40
1
 10
139.798910
 20
271.015061
 30
0.0
 10
139.799532
 20
270.187073
 30
0.0
 10
140.470924
 20
269.516186
 30
0.0
 10
141.298912
 20
269.516186
 30
0.0
  0
SPLINE
  5
13f
100
AcDbEntity
  8
0
 62
1
100
AcDbSpline
 70
8
 71
3
 72
8
 73
4
 74
0
 40
0
 40
0
 40
0
 40
0
 40
1
 40
1
 40
1
 40
1
 10
141.298912
 20
269.516186
 30
0.0
 10
142.126900
 20
269.516186
 30
0.0
 10
142.798291
 20
270.187073
 30
0.0
 10
142.798913
 20
271.015061
 30
0.0
  0
LWPOLYLINE
  5
140
100
AcDbEntity
  8
0
 62
1
100
AcDbPolyline
 90
2
 70
0
 10
182.491112
 20
129.930876
 30
0.0
 10
182.491112
 20
129.930876
 30
0.0
  0
SPLINE
  5
141
100
AcDbEntity
  8
0
 62
1
100
AcDbSpline
 70
8
 71
3
 72
8
 73
4
 74
0
 40
0
 40
0
 40
0
 40
0
 40
1
 40
1
 40
1
 40
1
 10
32.798913
 20
271.015061
 30
0.0
 10
32.798913
 20
271.550960
 30
0.0
 10
32.513014
 20
272.046151
 30
0.0
 10
32.048912
 20
272.314100
 30
0.0
  0
SPLINE
  5
142
100
AcDbEntity
  8
0
 62
1
100
AcDbSpline
 70
8
 71
3
 72
8
 73
4
 74
0
 40
0
 40
0
 40
0
 40
0
 40
1
 40
1
 40
1
 40
1
 10
32.048912
 20
272.314100
 30
0.0
 10
31.584810
 20
272.582050
 30
0.0
 10
31.013013
 20
272.582050
 30
0.0
 10
30.548911
 20
272.314100
 30
0.0
  0
SPLINE
  5
143
100
AcDbEntity
  8
0
 62
1
100
AcDbSpline
 70
8
 71
3
 72
8
 73
4
 74
0
 40
0
 40
0
 40
0
 40
0
 40
1
 40
1
 40
1
 40
1
 10
30.548911
 20
272.314100
 30
0.0
 10
30.084809
 20
272.046151
 30
0.0
 10
29.798910
 20
271.550960
 30
0.0
 10
29.798910
 20
271.015061
 30
0.0
  0
SPLINE
  5
144
100
AcDbEntity
  8
0
 62
1
100
AcDbSpline
 70
8
 71
3
 72
8
 73
4
 74
0
 40
0
 40
0
 40
0
 40
0
 40
1
 40
1
 40
1
 40
1
 10
29.798910
 20
271.015061
 30
0.0
 10
29.798910
 20
270.186633
 30
0.0
 10
30.470484
 20
269.515060
 30
0.0
 10
31.298912
 20
269.515060
 30
0.0
  0
SPLINE
  5
145
100
AcDbEntity
  8
0
 62
1
100
AcDbSpline
 70
8
 71
3
 72
8
 73
4
 74
0
 40
0
 40
0
 40
0
 40
0
 40
1
 40
1
 40
1
 40
1
 10
31.298912
 20
269.515060
 30
0.0
 10
32.127339
 20
269.515060
 30
0.0
 10
32.798913
 20
270.186633
 30
0.0
 10
32.798913
 20
271.015061
 30
0.0
  0
LWPOLYLINE
  5
146
100
AcDbEntity
  8
0
 62
1
100
AcDbPolyline
 90
2
 70
1
 10
142.798913
 20
271.015061
 30
0.0
 10
142.798913
 20
271.015061
 30
0.0
  0
SPLINE
  5
147
100
AcDbEntity
  8
0
 62
1
100
AcDbSpline
 70
8
 71
3
 72
8
 73
4
 74
0
 40
0
 40
0
 40
0
 40
0
 40
1
 40
1
 40
1
 40
1
 10
172.798912
 20
151.015066
 30
0.0
 10
172.799241
 20
151.551184
 30
0.0
 10
172.513415
 20
152.046718
 30
0.0
 10
172.049178
 20
152.314871
 30
0.0
  0
SPLINE
  5
148
100
AcDbEntity
  8
0
 62
1
100
AcDbSpline
 70
8
 71
3
 72
8
 73
4
 74
0
 40
0
 40
0
 40
0
 40
0
 40
1
 40
1
 40
1
 40
1
 10
172.049178
 20
152.314871
 30
0.0
 10
171.584941
 20
152.583025
 30
0.0
 10
171.012883
 20
152.583025
 30
0.0
 10
170.548647
 20
152.314871
 30
0.0
  0
SPLINE
  5
149
100
AcDbEntity
  8
0
 62
1
100
AcDbSpline
 70
8
 71
3
 72
8
 73
4
 74
0
 40
0
 40
0
 40
0
 40
0
 40
1
 40
1
 40
1
 40
1
 10
170.548647
 20
152.314871
 30
0.0
 10
170.084410
 20
152.046718
 30
0.0
 10
169.798584
 20
151.551184
 30
0.0
 10
169.798913
 20
151.015066
 30
0.0
  0
SPLINE
  5
14a
100
AcDbEntity
  8
0
 62
1
100
AcDbSpline
 70
8
 71
3
 72
8
 73
4
 74
0
 40
0
 40
0
 40
0
 40
0
 40
1
 40
1
 40
1
 40
1
 10
169.798913
 20
151.015066
 30
0.0
 10
169.798584
 20
150.478949
 30
0.0
 10
170.084410
 20
149.983415
 30
0.0
 10
170.548647
 20
149.715261
 30
0.0
  0
SPLINE
  5
14b
100
AcDbEntity
  8
0
 62
1
100
AcDbSpline
 70
8
 71
3
 72
8
 73
4
 74
0
 40
0
 40
0
 40
0
 40
0
 40
1
 40
1
 40
1
 40
1
 10
170.548647
 20
149.715261
 30
0.0
 10
171.012883
 20
149.447108
 30
0.0
 10
171.584941
 20
149.447108
 30
0.0
 10
172.049178
 20
149.715261
 30
0.0
  0
SPLINE
  5
14c
100
AcDbEntity
  8
0
 62
1
100
AcDbSpline
 70
8
 71
3
 72
8
 73
4
 74
0
 40
0
 40
0
 40
0
 40
0
 40
1
 40
1
 40
1
 40
1
 10
172.049178
 20
149.715261
 30
0.0
 10
172.513415
 20
149.983415
 30
0.0
 10
172.799241
 20
150.478949
 30
0.0
 10
172.798912
 20
151.015066
 30
0.0
  0
LWPOLYLINE
  5
14d
100
AcDbEntity
  8
0
 62
1
100
AcDbPolyline
 90
2
 70
1
 10
32.798913
 20
271.015061
 30
0.0
 10
32.798913
 20
271.015061
 30
0.0
  0
LWPOLYLINE
  5
14e
100
AcDbEntity
  8
0
 62
1
100
AcDbPolyline
 90
2
 70
1
 10
172.798912
 20
151.015066
 30
0.0
 10
172.798912
 20
151.015066
 30
0.0
  0
LWPOLYLINE
  5
14f
100
AcDbEntity
  8
0
 62
1
100
AcDbPolyline
 90
2
 70
0
 10
345.814735
 20
180.515270
 30
0.0
 10
371.779151
 20
124.833971
 30
0.0
  0
SPLINE
  5
150
100
AcDbEntity
  8
0
 62
1
100
AcDbSpline
 70
8
 71
3
 72
8
 73
4
 74
0
 40
0
 40
0
 40
0
 40
0
 40
1
 40
1
 40
1
 40
1
 10
542.975856
 20
291.365014
 30
0.0
 10
542.976948
 20
291.901638
 30
0.0
 10
542.691289
 20
292.397967
 30
0.0
 10
542.226740
 20
292.666595
 30
0.0
  0
SPLINE
  5
151
100
AcDbEntity
  8
0
 62
1
100
AcDbSpline
 70
8
 71
3
 72
8
 73
4
 74
0
 40
0
 40
0
 40
0
 40
0
 40
1
 40
1
 40
1
 40
1
 10
542.226740
 20
292.666595
 30
0.0
 10
541.762191
 20
292.935223
 30
0.0
 10
541.189528
 20
292.935223
 30
0.0
 10
540.724979
 20
292.666595
 30
0.0
  0
SPLINE
  5
152
100
AcDbEntity
  8
0
 62
1
100
AcDbSpline
 70
8
 71
3
 72
8
 73
4
 74
0
 40
0
 40
0
 40
0
 40
0
 40
1
 40
1
 40
1
 40
1
 10
540.724979
 20
292.666595
 30
0.0
 10
540.260429
 20
292.397967
 30
0.0
 10
539.974771
 20
291.901638
 30
0.0
 10
539.975862
 20
291.365014
 30
0.0
  0
SPLINE
  5
153
100
AcDbEntity
  8
0
 62
1
100
AcDbSpline
 70
8
 71
3
 72
8
 73
4
 74
0
 40
0
 40
0
 40
0
 40
0
 40
1
 40
1
 40
1
 40
1
 10
539.975862
 20
291.365014
 30
0.0
 10
539.974771
 20
290.828390
 30
0.0
 10
540.260429
 20
290.332061
 30
0.0
 10
540.724979
 20
290.063433
 30
0.0
  0
SPLINE
  5
154
100
AcDbEntity
  8
0
 62
1
100
AcDbSpline
 70
8
 71
3
 72
8
 73
4
 74
0
 40
0
 40
0
 40
0
 40
0
 40
1
 40
1
 40
1
 40
1
 10
540.724979
 20
290.063433
 30
0.0
 10
541.189528
 20
289.794805
 30
0.0
 10
541.762191
 20
289.794805
 30
0.0
 10
542.226740
 20
290.063433
 30
0.0
  0
SPLINE
  5
155
100
AcDbEntity
  8
0
 62
1
100
AcDbSpline
 70
8
 71
3
 72
8
 73
4
 74
0
 40
0
 40
0
 40
0
 40
0
 40
1
 40
1
 40
1
 40
1
 10
542.226740
 20
290.063433
 30
0.0
 10
542.691289
 20
290.332061
 30
0.0
 10
542.976948
 20
290.828390
 30
0.0
 10
542.975856
 20
291.365014
 30
0.0
  0
LWPOLYLINE
  5
156
100
AcDbEntity
  8
0
 62
1
100
AcDbPolyline
 90
2
 70
0
 10
381.081111
 20
121.447869
 30
0.0
 10
460.649094
 20
158.543282
 30
0.0
  0
SPLINE
  5
157
100
AcDbEntity
  8
0
 62
1
100
AcDbSpline
 70
8
 71
3
 72
8
 73
4
 74
0
 40
0
 40
0
 40
0
 40
0
 40
1
 40
1
 40
1
 40
1
 10
447.906394
 20
293.183891
 30
0.0
 10
447.908970
 20
293.721495
 30
0.0
 10
447.623639
 20
294.219368
 30
0.0
 10
447.158485
 20
294.488916
 30
0.0
  0
SPLINE
  5
158
100
AcDbEntity
  8
0
 62
1
100
AcDbSpline
 70
8
 71
3
 72
8
 73
4
 74
0
 40
0
 40
0
 40
0
 40
0
 40
1
 40
1
 40
1
 40
1
 10
447.158485
 20
294.488916
 30
0.0
 10
446.693330
 20
294.758465
 30
0.0
 10
446.119492
 20
294.758465
 30
0.0
 10
445.654337
 20
294.488916
 30
0.0
  0
SPLINE
  5
159
100
AcDbEntity
  8
0
 62
1
100
AcDbSpline
 70
8
 71
3
 72
8
 73
4
 74
0
 40
0
 40
0
 40
0
 40
0
 40
1
 40
1
 40
1
 40
1
 10
445.654337
 20
294.488916
 30
0.0
 10
445.189183
 20
294.219368
 30
0.0
 10
444.903853
 20
293.721495
 30
0.0
 10
444.906428
 20
293.183891
 30
0.0
  0
SPLINE
  5
15a
100
AcDbEntity
  8
0
 62
1
100
AcDbSpline
 70
8
 71
3
 72
8
 73
4
 74
0
 40
0
 40
0
 40
0
 40
0
 40
1
 40
1
 40
1
 40
1
 10
444.906428
 20
293.183891
 30
0.0
 10
444.903853
 20
292.646287
 30
0.0
 10
445.189183
 20
292.148414
 30
0.0
 10
445.654337
 20
291.878866
 30
0.0
  0
SPLINE
  5
15b
100
AcDbEntity
  8
0
 62
1
100
AcDbSpline
 70
8
 71
3
 72
8
 73
4
 74
0
 40
0
 40
0
 40
0
 40
0
 40
1
 40
1
 40
1
 40
1
 10
445.654337
 20
291.878866
 30
0.0
 10
446.119492
 20
291.609317
 30
0.0
 10
446.693330
 20
291.609317
 30
0.0
 10
447.158485
 20
291.878866
 30
0.0
  0
SPLINE
  5
15c
100
AcDbEntity
  8
0
 62
1
100
AcDbSpline
 70
8
 71
3
 72
8
 73
4
 74
0
 40
0
 40
0
 40
0
 40
0
 40
1
 40
1
 40
1
 40
1
 10
447.158485
 20
291.878866
 30
0.0
 10
447.623639
 20
292.148414
 30
0.0
 10
447.908970
 20
292.646287
 30
0.0
 10
447.906394
 20
293.183891
 30
0.0
  0
LWPOLYLINE
  5
15d
100
AcDbEntity
  8
0
 62
1
100
AcDbPolyline
 90
2
 70
1
 10
542.975856
 20
291.365014
 30
0.0
 10
542.975856
 20
291.365014
 30
0.0
  0
LWPOLYLINE
  5
15e
100
AcDbEntity
  8
0
 62
1
100
AcDbPolyline
 90
2
 70
1
 10
447.906394
 20
293.183891
 30
0.0
 10
447.906394
 20
293.183891
 30
0.0
  0
SPLINE
  5
15f
100
AcDbEntity
  8
0
 62
1
100
AcDbSpline
 70
8
 71
3
 72
8
 73
4
 74
0
 40
0
 40
0
 40
0
 40
0
 40
1
 40
1
 40
1
 40
1
 10
394.423166
 20
291.365014
 30
0.0
 10
394.423166
 20
291.900921
 30
0.0
 10
394.137263
 20
292.396120
 30
0.0
 10
393.673154
 20
292.664074
 30
0.0
  0
SPLINE
  5
160
100
AcDbEntity
  8
0
 62
1
100
AcDbSpline
 70
8
 71
3
 72
8
 73
4
 74
0
 40
0
 40
0
 40
0
 40
0
 40
1
 40
1
 40
1
 40
1
 10
393.673154
 20
292.664074
 30
0.0
 10
393.209044
 20
292.932028
 30
0.0
 10
392.637238
 20
292.932028
 30
0.0
 10
392.173128
 20
292.664074
 30
0.0
  0
SPLINE
  5
161
100
AcDbEntity
  8
0
 62
1
100
AcDbSpline
 70
8
 71
3
 72
8
 73
4
 74
0
 40
0
 40
0
 40
0
 40
0
 40
1
 40
1
 40
1
 40
1
 10
392.173128
 20
292.664074
 30
0.0
 10
391.709019
 20
292.396120
 30
0.0
 10
391.423116
 20
291.900921
 30
0.0
 10
391.423116
 20
291.365014
 30
0.0
  0
SPLINE
  5
162
100
AcDbEntity
  8
0
 62
1
100
AcDbSpline
 70
8
 71
3
 72
8
 73
4
 74
0
 40
0
 40
0
 40
0
 40
0
 40
1
 40
1
 40
1
 40
1
 10
391.423116
 20
291.365014
 30
0.0
 10
391.423116
 20
290.829107
 30
0.0
 10
391.709019
 20
290.333908
 30
0.0
 10
392.173128
 20
290.065954
 30
0.0
  0
SPLINE
  5
163
100
AcDbEntity
  8
0
 62
1
100
AcDbSpline
 70
8
 71
3
 72
8
 73
4
 74
0
 40
0
 40
0
 40
0
 40
0
 40
1
 40
1
 40
1
 40
1
 10
392.173128
 20
290.065954
 30
0.0
 10
392.637238
 20
289.798000
 30
0.0
 10
393.209044
 20
289.798000
 30
0.0
 10
393.673154
 20
290.065954
 30
0.0
  0
SPLINE
  5
164
100
AcDbEntity
  8
0
 62
1
100
AcDbSpline
 70
8
 71
3
 72
8
 73
4
 74
0
 40
0
 40
0
 40
0
 40
0
 40
1
 40
1
 40
1
 40
1
 10
393.673154
 20
290.065954
 30
0.0
 10
394.137263
 20
290.333908
 30
0.0
 10
394.423166
 20
290.829107
 30
0.0
 10
394.423166
 20
291.365014
 30
0.0
  0
LWPOLYLINE
  5
165
100
AcDbEntity
  8
0
 62
1
100
AcDbPolyline
 90
2
 70
0
 10
463.606896
 20
159.198884
 30
0.0
 10
540.739697
 20
159.198884
 30
0.0
  0
SPLINE
  5
166
100
AcDbEntity
  8
0
 62
1
100
AcDbSpline
 70
8
 71
3
 72
8
 73
4
 74
0
 40
0
 40
0
 40
0
 40
0
 40
1
 40
1
 40
1
 40
1
 10
547.739711
 20
290.628891
 30
0.0
 10
547.739711
 20
292.485409
 30
0.0
 10
547.002211
 20
294.265889
 30
0.0
 10
545.689454
 20
295.578644
 30
0.0
  0
SPLINE
  5
167
100
AcDbEntity
  8
0
 62
1
100
AcDbSpline
 70
8
 71
3
 72
8
 73
4
 74
0
 40
0
 40
0
 40
0
 40
0
 40
1
 40
1
 40
1
 40
1
 10
545.689454
 20
295.578644
 30
0.0
 10
544.376696
 20
296.891399
 30
0.0
 10
542.596215
 20
297.628895
 30
0.0
 10
540.739697
 20
297.628891
 30
0.0
  0
SPLINE
  5
168
100
AcDbEntity
  8
0
 62
1
100
AcDbSpline
 70
8
 71
3
 72
8
 73
4
 74
0
 40
0
 40
0
 40
0
 40
0
 40
1
 40
1
 40
1
 40
1
 10
540.739697
 20
159.198884
 30
0.0
 10
542.596212
 20
159.198881
 30
0.0
 10
544.376691
 20
159.936375
 30
0.0
 10
545.689449
 20
161.249127
 30
0.0
  0
SPLINE
  5
169
100
AcDbEntity
  8
0
 62
1
100
AcDbSpline
 70
8
 71
3
 72
8
 73
4
 74
0
 40
0
 40
0
 40
0
 40
0
 40
1
 40
1
 40
1
 40
1
 10
545.689449
 20
161.249127
 30
0.0
 10
547.002206
 20
162.561879
 30
0.0
 10
547.739707
 20
164.342355
 30
0.0
 10
547.739711
 20
166.198870
 30
0.0
  0
SPLINE
  5
16a
100
AcDbEntity
  8
0
 62
1
100
AcDbSpline
 70
8
 71
3
 72
8
 73
4
 74
0
 40
0
 40
0
 40
0
 40
0
 40
1
 40
1
 40
1
 40
1
 10
371.779123
 20
124.833971
 30
0.0
 10
373.412855
 20
121.330367
 30
0.0
 10
377.577384
 20
119.814399
 30
0.0
 10
381.081111
 20
121.447869
 30
0.0
  0
SPLINE
  5
16b
100
AcDbEntity
  8
0
 62
1
100
AcDbSpline
 70
8
 71
3
 72
8
 73
4
 74
0
 40
0
 40
0
 40
0
 40
0
 40
1
 40
1
 40
1
 40
1
 10
352.681145
 20
183.829377
 30
0.0
 10
352.683721
 20
184.366982
 30
0.0
 10
352.398390
 20
184.864854
 30
0.0
 10
351.933236
 20
185.134403
 30
0.0
  0
SPLINE
  5
16c
100
AcDbEntity
  8
0
 62
1
100
AcDbSpline
 70
8
 71
3
 72
8
 73
4
 74
0
 40
0
 40
0
 40
0
 40
0
 40
1
 40
1
 40
1
 40
1
 10
351.933236
 20
185.134403
 30
0.0
 10
351.468081
 20
185.403951
 30
0.0
 10
350.894243
 20
185.403951
 30
0.0
 10
350.429088
 20
185.134403
 30
0.0
  0
SPLINE
  5
16d
100
AcDbEntity
  8
0
 62
1
100
AcDbSpline
 70
8
 71
3
 72
8
 73
4
 74
0
 40
0
 40
0
 40
0
 40
0
 40
1
 40
1
 40
1
 40
1
 10
350.429088
 20
185.134403
 30
0.0
 10
349.963934
 20
184.864854
 30
0.0
 10
349.678603
 20
184.366982
 30
0.0
 10
349.681179
 20
183.829377
 30
0.0
  0
SPLINE
  5
16e
100
AcDbEntity
  8
0
 62
1
100
AcDbSpline
 70
8
 71
3
 72
8
 73
4
 74
0
 40
0
 40
0
 40
0
 40
0
 40
1
 40
1
 40
1
 40
1
 10
349.681179
 20
183.829377
 30
0.0
 10
349.685135
 20
183.003765
 30
0.0
 10
350.355540
 20
182.336564
 30
0.0
 10
351.181162
 20
182.336564
 30
0.0
  0
SPLINE
  5
16f
100
AcDbEntity
  8
0
 62
1
100
AcDbSpline
 70
8
 71
3
 72
8
 73
4
 74
0
 40
0
 40
0
 40
0
 40
0
 40
1
 40
1
 40
1
 40
1
 10
351.181162
 20
182.336564
 30
0.0
 10
352.006784
 20
182.336564
 30
0.0
 10
352.677189
 20
183.003765
 30
0.0
 10
352.681145
 20
183.829377
 30
0.0
  0
LWPOLYLINE
  5
170
100
AcDbEntity
  8
0
 62
1
100
AcDbPolyline
 90
2
 70
1
 10
394.423166
 20
291.365014
 30
0.0
 10
394.423166
 20
291.365014
 30
0.0
  0
SPLINE
  5
171
100
AcDbEntity
  8
0
 62
1
100
AcDbSpline
 70
8
 71
3
 72
8
 73
4
 74
0
 40
0
 40
0
 40
0
 40
0
 40
1
 40
1
 40
1
 40
1
 10
463.606896
 20
159.198884
 30
0.0
 10
462.584925
 20
159.198884
 30
0.0
 10
461.575350
 20
158.975109
 30
0.0
 10
460.649094
 20
158.543282
 30
0.0
  0
SPLINE
  5
172
100
AcDbEntity
  8
0
 62
1
100
AcDbSpline
 70
8
 71
3
 72
8
 73
4
 74
0
 40
0
 40
0
 40
0
 40
0
 40
1
 40
1
 40
1
 40
1
 10
379.267607
 20
126.813280
 30
0.0
 10
379.270266
 20
127.350940
 30
0.0
 10
378.984954
 20
127.848899
 30
0.0
 10
378.519765
 20
128.118500
 30
0.0
  0
SPLINE
  5
173
100
AcDbEntity
  8
0
 62
1
100
AcDbSpline
 70
8
 71
3
 72
8
 73
4
 74
0
 40
0
 40
0
 40
0
 40
0
 40
1
 40
1
 40
1
 40
1
 10
378.519765
 20
128.118500
 30
0.0
 10
378.054577
 20
128.388100
 30
0.0
 10
377.480672
 20
128.388100
 30
0.0
 10
377.015483
 20
128.118500
 30
0.0
  0
SPLINE
  5
174
100
AcDbEntity
  8
0
 62
1
100
AcDbSpline
 70
8
 71
3
 72
8
 73
4
 74
0
 40
0
 40
0
 40
0
 40
0
 40
1
 40
1
 40
1
 40
1
 10
377.015483
 20
128.118500
 30
0.0
 10
376.550294
 20
127.848899
 30
0.0
 10
376.264982
 20
127.350940
 30
0.0
 10
376.267641
 20
126.813280
 30
0.0
  0
SPLINE
  5
175
100
AcDbEntity
  8
0
 62
1
100
AcDbSpline
 70
8
 71
3
 72
8
 73
4
 74
0
 40
0
 40
0
 40
0
 40
0
 40
1
 40
1
 40
1
 40
1
 10
376.267641
 20
126.813280
 30
0.0
 10
376.271724
 20
125.987758
 30
0.0
 10
376.942092
 20
125.320698
 30
0.0
 10
377.767624
 20
125.320698
 30
0.0
  0
SPLINE
  5
176
100
AcDbEntity
  8
0
 62
1
100
AcDbSpline
 70
8
 71
3
 72
8
 73
4
 74
0
 40
0
 40
0
 40
0
 40
0
 40
1
 40
1
 40
1
 40
1
 10
377.767624
 20
125.320698
 30
0.0
 10
378.593156
 20
125.320698
 30
0.0
 10
379.263524
 20
125.987758
 30
0.0
 10
379.267607
 20
126.813280
 30
0.0
  0
LWPOLYLINE
  5
177
100
AcDbEntity
  8
0
 62
1
100
AcDbPolyline
 90
2
 70
1
 10
352.681145
 20
183.829377
 30
0.0
 10
352.681145
 20
183.829377
 30
0.0
  0
SPLINE
  5
178
100
AcDbEntity
  8
0
 62
1
100
AcDbSpline
 70
8
 71
3
 72
8
 73
4
 74
0
 40
0
 40
0
 40
0
 40
0
 40
1
 40
1
 40
1
 40
1
 10
462.569842
 20
163.643884
 30
0.0
 10
462.570934
 20
164.180509
 30
0.0
 10
462.285275
 20
164.676838
 30
0.0
 10
461.820726
 20
164.945465
 30
0.0
  0
SPLINE
  5
179
100
AcDbEntity
  8
0
 62
1
100
AcDbSpline
 70
8
 71
3
 72
8
 73
4
 74
0
 40
0
 40
0
 40
0
 40
0
 40
1
 40
1
 40
1
 40
1
 10
461.820726
 20
164.945465
 30
0.0
 10
461.356177
 20
165.214093
 30
0.0
 10
460.783513
 20
165.214093
 30
0.0
 10
460.318964
 20
164.945465
 30
0.0
  0
SPLINE
  5
17a
100
AcDbEntity
  8
0
 62
1
100
AcDbSpline
 70
8
 71
3
 72
8
 73
4
 74
0
 40
0
 40
0
 40
0
 40
0
 40
1
 40
1
 40
1
 40
1
 10
460.318964
 20
164.945465
 30
0.0
 10
459.854415
 20
164.676838
 30
0.0
 10
459.568756
 20
164.180509
 30
0.0
 10
459.569848
 20
163.643884
 30
0.0
  0
SPLINE
  5
17b
100
AcDbEntity
  8
0
 62
1
100
AcDbSpline
 70
8
 71
3
 72
8
 73
4
 74
0
 40
0
 40
0
 40
0
 40
0
 40
1
 40
1
 40
1
 40
1
 10
459.569848
 20
163.643884
 30
0.0
 10
459.568756
 20
163.107260
 30
0.0
 10
459.854415
 20
162.610931
 30
0.0
 10
460.318964
 20
162.342303
 30
0.0
  0
SPLINE
  5
17c
100
AcDbEntity
  8
0
 62
1
100
AcDbSpline
 70
8
 71
3
 72
8
 73
4
 74
0
 40
0
 40
0
 40
0
 40
0
 40
1
 40
1
 40
1
 40
1
 10
460.318964
 20
162.342303
 30
0.0
 10
460.783513
 20
162.073675
 30
0.0
 10
461.356177
 20
162.073675
 30
0.0
 10
461.820726
 20
162.342303
 30
0.0
  0
SPLINE
  5
17d
100
AcDbEntity
  8
0
 62
1
100
AcDbSpline
 70
8
 71
3
 72
8
 73
4
 74
0
 40
0
 40
0
 40
0
 40
0
 40
1
 40
1
 40
1
 40
1
 10
461.820726
 20
162.342303
 30
0.0
 10
462.285275
 20
162.610931
 30
0.0
 10
462.570934
 20
163.107260
 30
0.0
 10
462.569842
 20
163.643884
 30
0.0
  0
LWPOLYLINE
  5
17e
100
AcDbEntity
  8
0
 62
1
100
AcDbPolyline
 90
2
 70
1
 10
379.267607
 20
126.813280
 30
0.0
 10
379.267607
 20
126.813280
 30
0.0
  0
SPLINE
  5
17f
100
AcDbEntity
  8
0
 62
1
100
AcDbSpline
 70
8
 71
3
 72
8
 73
4
 74
0
 40
0
 40
0
 40
0
 40
0
 40
1
 40
1
 40
1
 40
1
 10
542.975856
 20
167.050250
 30
0.0
 10
542.976948
 20
167.586874
 30
0.0
 10
542.691289
 20
168.083203
 30
0.0
 10
542.226740
 20
168.351831
 30
0.0
  0
SPLINE
  5
180
100
AcDbEntity
  8
0
 62
1
100
AcDbSpline
 70
8
 71
3
 72
8
 73
4
 74
0
 40
0
 40
0
 40
0
 40
0
 40
1
 40
1
 40
1
 40
1
 10
542.226740
 20
168.351831
 30
0.0
 10
541.762191
 20
168.620459
 30
0.0
 10
541.189528
 20
168.620459
 30
0.0
 10
540.724979
 20
168.351831
 30
0.0
  0
SPLINE
  5
181
100
AcDbEntity
  8
0
 62
1
100
AcDbSpline
 70
8
 71
3
 72
8
 73
4
 74
0
 40
0
 40
0
 40
0
 40
0
 40
1
 40
1
 40
1
 40
1
 10
540.724979
 20
168.351831
 30
0.0
 10
540.260429
 20
168.083203
 30
0.0
 10
539.974771
 20
167.586874
 30
0.0
 10
539.975862
 20
167.050250
 30
0.0
  0
SPLINE
  5
182
100
AcDbEntity
  8
0
 62
1
100
AcDbSpline
 70
8
 71
3
 72
8
 73
4
 74
0
 40
0
 40
0
 40
0
 40
0
 40
1
 40
1
 40
1
 40
1
 10
539.975862
 20
167.050250
 30
0.0
 10
539.974771
 20
166.513626
 30
0.0
 10
540.260429
 20
166.017297
 30
0.0
 10
540.724979
 20
165.748669
 30
0.0
  0
SPLINE
  5
183
100
AcDbEntity
  8
0
 62
1
100
AcDbSpline
 70
8
 71
3
 72
8
 73
4
 74
0
 40
0
 40
0
 40
0
 40
0
 40
1
 40
1
 40
1
 40
1
 10
540.724979
 20
165.748669
 30
0.0
 10
541.189528
 20
165.480041
 30
0.0
 10
541.762191
 20
165.480041
 30
0.0
 10
542.226740
 20
165.748669
 30
0.0
  0
SPLINE
  5
184
100
AcDbEntity
  8
0
 62
1
100
AcDbSpline
 70
8
 71
3
 72
8
 73
4
 74
0
 40
0
 40
0
 40
0
 40
0
 40
1
 40
1
 40
1
 40
1
 10
542.226740
 20
165.748669
 30
0.0
 10
542.691289
 20
166.017297
 30
0.0
 10
542.976948
 20
166.513626
 30
0.0
 10
542.975856
 20
167.050250
 30
0.0
  0
LWPOLYLINE
  5
185
100
AcDbEntity
  8
0
 62
1
100
AcDbPolyline
 90
2
 70
1
 10
462.569842
 20
163.643884
 30
0.0
 10
462.569842
 20
163.643884
 30
0.0
  0
LWPOLYLINE
  5
186
100
AcDbEntity
  8
0
 62
1
100
AcDbPolyline
 90
2
 70
1
 10
542.975856
 20
167.050250
 30
0.0
 10
542.975856
 20
167.050250
 30
0.0
  0
LWPOLYLINE
  5
187
100
AcDbEntity
  8
0
 62
1
100
AcDbPolyline
 90
2
 70
0
 10
371.739696
 20
129.930876
 30
0.0
 10
371.739696
 20
129.930876
 30
0.0
  0
SPLINE
  5
188
100
AcDbEntity
  8
0
 62
1
100
AcDbSpline
 70
8
 71
3
 72
8
 73
4
 74
0
 40
0
 40
0
 40
0
 40
0
 40
1
 40
1
 40
1
 40
1
 10
414.431903
 20
271.015089
 30
0.0
 10
414.434479
 20
271.552693
 30
0.0
 10
414.149149
 20
272.050566
 30
0.0
 10
413.683994
 20
272.320114
 30
0.0
  0
SPLINE
  5
189
100
AcDbEntity
  8
0
 62
1
100
AcDbSpline
 70
8
 71
3
 72
8
 73
4
 74
0
 40
0
 40
0
 40
0
 40
0
 40
1
 40
1
 40
1
 40
1
 10
413.683994
 20
272.320114
 30
0.0
 10
413.218840
 20
272.589663
 30
0.0
 10
412.645001
 20
272.589663
 30
0.0
 10
412.179847
 20
272.320114
 30
0.0
  0
SPLINE
  5
18a
100
AcDbEntity
  8
0
 62
1
100
AcDbSpline
 70
8
 71
3
 72
8
 73
4
 74
0
 40
0
 40
0
 40
0
 40
0
 40
1
 40
1
 40
1
 40
1
 10
412.179847
 20
272.320114
 30
0.0
 10
411.714692
 20
272.050566
 30
0.0
 10
411.429362
 20
271.552693
 30
0.0
 10
411.431938
 20
271.015089
 30
0.0
  0
SPLINE
  5
18b
100
AcDbEntity
  8
0
 62
1
100
AcDbSpline
 70
8
 71
3
 72
8
 73
4
 74
0
 40
0
 40
0
 40
0
 40
0
 40
1
 40
1
 40
1
 40
1
 10
411.431938
 20
271.015089
 30
0.0
 10
411.429362
 20
270.477485
 30
0.0
 10
411.714692
 20
269.979612
 30
0.0
 10
412.179847
 20
269.710064
 30
0.0
  0
SPLINE
  5
18c
100
AcDbEntity
  8
0
 62
1
100
AcDbSpline
 70
8
 71
3
 72
8
 73
4
 74
0
 40
0
 40
0
 40
0
 40
0
 40
1
 40
1
 40
1
 40
1
 10
412.179847
 20
269.710064
 30
0.0
 10
412.645001
 20
269.440515
 30
0.0
 10
413.218840
 20
269.440515
 30
0.0
 10
413.683994
 20
269.710064
 30
0.0
  0
SPLINE
  5
18d
100
AcDbEntity
  8
0
 62
1
100
AcDbSpline
 70
8
 71
3
 72
8
 73
4
 74
0
 40
0
 40
0
 40
0
 40
0
 40
1
 40
1
 40
1
 40
1
 10
413.683994
 20
269.710064
 30
0.0
 10
414.149149
 20
269.979612
 30
0.0
 10
414.434479
 20
270.477485
 30
0.0
 10
414.431903
 20
271.015089
 30
0.0
  0
LWPOLYLINE
  5
18e
100
AcDbEntity
  8
0
 62
1
100
AcDbPolyline
 90
2
 70
0
 10
547.739711
 20
166.198870
 30
0.0
 10
547.739711
 20
290.628891
 30
0.0
  0
SPLINE
  5
18f
100
AcDbEntity
  8
0
 62
1
100
AcDbSpline
 70
8
 71
3
 72
8
 73
4
 74
0
 40
0
 40
0
 40
0
 40
0
 40
1
 40
1
 40
1
 40
1
 10
524.431909
 20
271.015089
 30
0.0
 10
524.433001
 20
271.551713
 30
0.0
 10
524.147342
 20
272.048042
 30
0.0
 10
523.682793
 20
272.316670
 30
0.0
  0
SPLINE
  5
190
100
AcDbEntity
  8
0
 62
1
100
AcDbSpline
 70
8
 71
3
 72
8
 73
4
 74
0
 40
0
 40
0
 40
0
 40
0
 40
1
 40
1
 40
1
 40
1
 10
523.682793
 20
272.316670
 30
0.0
 10
523.218244
 20
272.585298
 30
0.0
 10
522.645580
 20
272.585298
 30
0.0
 10
522.181031
 20
272.316670
 30
0.0
  0
SPLINE
  5
191
100
AcDbEntity
  8
0
 62
1
100
AcDbSpline
 70
8
 71
3
 72
8
 73
4
 74
0
 40
0
 40
0
 40
0
 40
0
 40
1
 40
1
 40
1
 40
1
 10
522.181031
 20
272.316670
 30
0.0
 10
521.716482
 20
272.048042
 30
0.0
 10
521.430823
 20
271.551713
 30
0.0
 10
521.431915
 20
271.015089
 30
0.0
  0
SPLINE
  5
192
100
AcDbEntity
  8
0
 62
1
100
AcDbSpline
 70
8
 71
3
 72
8
 73
4
 74
0
 40
0
 40
0
 40
0
 40
0
 40
1
 40
1
 40
1
 40
1
 10
521.431915
 20
271.015089
 30
0.0
 10
521.430823
 20
270.478465
 30
0.0
 10
521.716482
 20
269.982136
 30
0.0
 10
522.181031
 20
269.713508
 30
0.0
  0
SPLINE
  5
193
100
AcDbEntity
  8
0
 62
1
100
AcDbSpline
 70
8
 71
3
 72
8
 73
4
 74
0
 40
0
 40
0
 40
0
 40
0
 40
1
 40
1
 40
1
 40
1
 10
522.181031
 20
269.713508
 30
0.0
 10
522.645580
 20
269.444880
 30
0.0
 10
523.218244
 20
269.444880
 30
0.0
 10
523.682793
 20
269.713508
 30
0.0
  0
SPLINE
  5
194
100
AcDbEntity
  8
0
 62
1
100
AcDbSpline
 70
8
 71
3
 72
8
 73
4
 74
0
 40
0
 40
0
 40
0
 40
0
 40
1
 40
1
 40
1
 40
1
 10
523.682793
 20
269.713508
 30
0.0
 10
524.147342
 20
269.982136
 30
0.0
 10
524.433001
 20
270.478465
 30
0.0
 10
524.431909
 20
271.015089
 30
0.0
  0
LWPOLYLINE
  5
195
100
AcDbEntity
  8
0
 62
1
100
AcDbPolyline
 90
2
 70
1
 10
414.431903
 20
271.015089
 30
0.0
 10
414.431903
 20
271.015089
 30
0.0
  0
SPLINE
  5
196
100
AcDbEntity
  8
0
 62
1
100
AcDbSpline
 70
8
 71
3
 72
8
 73
4
 74
0
 40
0
 40
0
 40
0
 40
0
 40
1
 40
1
 40
1
 40
1
 10
384.431907
 20
151.015089
 30
0.0
 10
384.434483
 20
151.552693
 30
0.0
 10
384.149152
 20
152.050566
 30
0.0
 10
383.683998
 20
152.320114
 30
0.0
  0
SPLINE
  5
197
100
AcDbEntity
  8
0
 62
1
100
AcDbSpline
 70
8
 71
3
 72
8
 73
4
 74
0
 40
0
 40
0
 40
0
 40
0
 40
1
 40
1
 40
1
 40
1
 10
383.683998
 20
152.320114
 30
0.0
 10
383.218843
 20
152.589663
 30
0.0
 10
382.645005
 20
152.589663
 30
0.0
 10
382.179850
 20
152.320114
 30
0.0
  0
SPLINE
  5
198
100
AcDbEntity
  8
0
 62
1
100
AcDbSpline
 70
8
 71
3
 72
8
 73
4
 74
0
 40
0
 40
0
 40
0
 40
0
 40
1
 40
1
 40
1
 40
1
 10
382.179850
 20
152.320114
 30
0.0
 10
381.714696
 20
152.050566
 30
0.0
 10
381.429365
 20
151.552693
 30
0.0
 10
381.431941
 20
151.015089
 30
0.0
  0
SPLINE
  5
199
100
AcDbEntity
  8
0
 62
1
100
AcDbSpline
 70
8
 71
3
 72
8
 73
4
 74
0
 40
0
 40
0
 40
0
 40
0
 40
1
 40
1
 40
1
 40
1
 10
381.431941
 20
151.015089
 30
0.0
 10
381.429365
 20
150.477485
 30
0.0
 10
381.714696
 20
149.979612
 30
0.0
 10
382.179850
 20
149.710064
 30
0.0
  0
SPLINE
  5
19a
100
AcDbEntity
  8
0
 62
1
100
AcDbSpline
 70
8
 71
3
 72
8
 73
4
 74
0
 40
0
 40
0
 40
0
 40
0
 40
1
 40
1
 40
1
 40
1
 10
382.179850
 20
149.710064
 30
0.0
 10
382.645005
 20
149.440515
 30
0.0
 10
383.218843
 20
149.440515
 30
0.0
 10
383.683998
 20
149.710064
 30
0.0
  0
SPLINE
  5
19b
100
AcDbEntity
  8
0
 62
1
100
AcDbSpline
 70
8
 71
3
 72
8
 73
4
 74
0
 40
0
 40
0
 40
0
 40
0
 40
1
 40
1
 40
1
 40
1
 10
383.683998
 20
149.710064
 30
0.0
 10
384.149152
 20
149.979612
 30
0.0
 10
384.434483
 20
150.477485
 30
0.0
 10
384.431907
 20
151.015089
 30
0.0
  0
LWPOLYLINE
  5
19c
100
AcDbEntity
  8
0
 62
1
100
AcDbPolyline
 90
2
 70
1
 10
524.431909
 20
271.015089
 30
0.0
 10
524.431909
 20
271.015089
 30
0.0
  0
SPLINE
  5
19d
100
AcDbEntity
  8
0
 62
1
100
AcDbSpline
 70
8
 71
3
 72
8
 73
4
 74
0
 40
0
 40
0
 40
0
 40
0
 40
1
 40
1
 40
1
 40
1
 10
214.756915
 20
184.551956
 30
0.0
 10
212.036414
 20
184.551956
 30
0.0
 10
209.562317
 20
182.975726
 30
0.0
 10
208.412664
 20
180.510077
 30
0.0
  0
SPLINE
  5
19e
100
AcDbEntity
  8
0
 62
1
100
AcDbSpline
 70
8
 71
3
 72
8
 73
4
 74
0
 40
0
 40
0
 40
0
 40
0
 40
1
 40
1
 40
1
 40
1
 10
345.815920
 20
180.508200
 30
0.0
 10
344.666271
 20
182.973865
 30
0.0
 10
342.192163
 20
184.550106
 30
0.0
 10
339.471649
 20
184.550102
 30
0.0
  0
LWPOLYLINE
  5
19f
100
AcDbEntity
  8
0
 62
1
100
AcDbPolyline
 90
2
 70
1
 10
384.431907
 20
151.015089
 30
0.0
 10
384.431907
 20
151.015089
 30
0.0
  0
LWPOLYLINE
  5
1a0
100
AcDbEntity
  8
0
 62
1
100
AcDbPolyline
 90
2
 70
0
 10
339.487482
 20
184.552840
 30
0.0
 10
214.732035
 20
184.552840
 30
0.0
  0
ENDSEC
  0
SECTION
  2
OBJECTS
  0
DICTIONARY
  5
C
330
0
100
AcDbDictionary
  3
ACAD_GROUP
350
D
  3
ACAD_MLINESTYLE
350
17
  0
DICTIONARY
  5
D
330
C
100
AcDbDictionary
  0
DICTIONARY
  5
1A
330
C
100
AcDbDictionary
  0
DICTIONARY
  5
17
330
C
100
AcDbDictionary
  3
STANDARD
350
18
  0
DICTIONARY
  5
19
330
C
100
AcDbDictionary
  0
ENDSEC
  0
EOF
