  0
SECTION
  2
HEADER
  9
$ACADVER
  1
AC1014
  9
$HANDSEED
  5
FFFF
  9
$MEASUREMENT
 70
     1
  0
ENDSEC
  0
SECTION
  2
TABLES
  0
TABLE
  2
VPORT
  5
8
330
0
100
AcDbSymbolTable
 70
     4
  0
VPORT
  5
2E
330
8
100
AcDbSymbolTableRecord
100
AcDbViewportTableRecord
  2
*ACTIVE
 70
     0
 10
0.0
 20
0.0
 11
1.0
 21
1.0
 12
210.0
 22
148.5
 13
0.0
 23
0.0
 14
10.0
 24
10.0
 15
10.0
 25
10.0
 16
0.0
 26
0.0
 36
1.0
 17
0.0
 27
0.0
 37
0.0
 40
341.0
 41
1.24
 42
50.0
 43
0.0
 44
0.0
 50
0.0
 51
0.0
 71
     0
 72
   100
 73
     1
 74
     3
 75
     0
 76
     0
 77
     0
 78
     0
  0
ENDTAB
  0
TABLE
  2
LTYPE
  5
5
330
0
100
AcDbSymbolTable
 70
     1
  0
LTYPE
  5
14
330
5
100
AcDbSymbolTableRecord
100
AcDbLinetypeTableRecord
  2
BYBLOCK
 70
     0
  3

 72
    65
 73
     0
 40
0.0
  0
LTYPE
  5
15
330
5
100
AcDbSymbolTableRecord
100
AcDbLinetypeTableRecord
  2
BYLAYER
 70
     0
  3

 72
    65
 73
     0
 40
0.0
  0
LTYPE
  5
16
330
5
100
AcDbSymbolTableRecord
100
AcDbLinetypeTableRecord
  2
CONTINUOUS
 70
     0
  3
Solid line
 72
    65
 73
     0
 40
0.0
  0
ENDTAB
  0
TABLE
  2
LAYER
  5
2
100
AcDbSymbolTable
 70
1
  0
LAYER
  5
50
100
AcDbSymbolTableRecord
100
AcDbLayerTableRecord
  2
0
 70
0
  6
CONTINUOUS
  0
ENDTAB
  0
TABLE
  2
STYLE
  5
3
330
0
100
AcDbSymbolTable
 70
     1
  0
STYLE
  5
11
330
3
100
AcDbSymbolTableRecord
100
AcDbTextStyleTableRecord
  2
STANDARD
 70
     0
 40
0.0
 41
1.0
 50
0.0
 71
     0
 42
2.5
  3
txt
  4

  0
ENDTAB
  0
TABLE
  2
VIEW
  5
6
330
0
100
AcDbSymbolTable
 70
     0
  0
ENDTAB
  0
TABLE
  2
UCS
  5
7
330
0
100
AcDbSymbolTable
 70
     0
  0
ENDTAB
  0
TABLE
  2
APPID
  5
9
330
0
100
AcDbSymbolTable
 70
     2
  0
APPID
  5
12
330
9
100
AcDbSymbolTableRecord
100
AcDbRegAppTableRecord
  2
ACAD
 70
     0
  0
ENDTAB
  0
TABLE
  2
DIMSTYLE
  5
A
330
0
100
AcDbSymbolTable
 70
     1
  0
DIMSTYLE
105
27
330
A
100
AcDbSymbolTableRecord
100
AcDbDimStyleTableRecord
  2
ISO-25
 70
     0
  3

  4

  5

  6

  7

 40
1.0
 41
2.5
 42
0.625
 43
3.75
 44
1.25
 45
0.0
 46
0.0
 47
0.0
 48
0.0
140
2.5
141
2.5
142
0.0
143
0.03937007874016
144
1.0
145
0.0
146
1.0
147
0.625
 71
     0
 72
     0
 73
     0
 74
     0
 75
     0
 76
     0
 77
     1
 78
     8
170
     0
171
     3
172
     1
173
     0
174
     0
175
     0
176
     0
177
     0
178
     0
270
     2
271
     2
272
     2
273
     2
274
     3
340
11
275
     0
280
     0
281
     0
282
     0
283
     0
284
     8
285
     0
286
     0
287
     3
288
     0
  0
ENDTAB
  0
TABLE
  2
BLOCK_RECORD
  5
1
330
0
100
AcDbSymbolTable
 70
     1
  0
BLOCK_RECORD
  5
1F
330
1
100
AcDbSymbolTableRecord
100
AcDbBlockTableRecord
  2
*MODEL_SPACE
  0
BLOCK_RECORD
  5
1B
330
1
100
AcDbSymbolTableRecord
100
AcDbBlockTableRecord
  2
*PAPER_SPACE
  0
ENDTAB
  0
ENDSEC
  0
SECTION
  2
BLOCKS
  0
BLOCK
  5
20
330
1F
100
AcDbEntity
  8
0
100
AcDbBlockBegin
  2
*MODEL_SPACE
 70
     0
 10
0.0
 20
0.0
 30
0.0
  3
*MODEL_SPACE
  1

  0
ENDBLK
  5
21
330
1F
100
AcDbEntity
  8
0
100
AcDbBlockEnd
  0
BLOCK
  5
1C
330
1B
100
AcDbEntity
 67
     1
  8
0
100
AcDbBlockBegin
  2
*PAPER_SPACE
  1

  0
ENDBLK
  5
1D
330
1B
100
AcDbEntity
 67
     1
  8
0
100
AcDbBlockEnd
  0
ENDSEC
  0
SECTION
  2
ENTITIES
  0
SPLINE
  5
100
100
AcDbEntity
  8
0
 62
1
100
AcDbSpline
 70
8
 71
3
 72
8
 73
4
 74
0
 40
0
 40
0
 40
0
 40
0
 40
1
 40
1
 40
1
 40
1
 10
204.549646
 20
183.829321
 30
0.0
 10
204.549928
 20
184.365439
 30
0.0
 10
204.264147
 20
184.860973
 30
0.0
 10
203.799911
 20
185.129127
 30
0.0
  0
SPLINE
  5
101
100
AcDbEntity
  8
0
 62
1
100
AcDbSpline
 70
8
 71
3
 72
8
 73
4
 74
0
 40
0
 40
0
 40
0
 40
0
 40
1
 40
1
 40
1
 40
1
 10
203.799911
 20
185.129127
 30
0.0
 10
203.335676
 20
185.397280
 30
0.0
 10
202.763617
 20
185.397280
 30
0.0
 10
202.299381
 20
185.129127
 30
0.0
  0
SPLINE
  5
102
100
AcDbEntity
  8
0
 62
1
100
AcDbSpline
 70
8
 71
3
 72
8
 73
4
 74
0
 40
0
 40
0
 40
0
 40
0
 40
1
 40
1
 40
1
 40
1
 10
202.299381
 20
185.129127
 30
0.0
 10
201.835145
 20
184.860973
 30
0.0
 10
201.549316
 20
184.365439
 30
0.0
 10
201.549646
 20
183.829321
 30
0.0
  0
SPLINE
  5
103
100
AcDbEntity
  8
0
 62
1
100
AcDbSpline
 70
8
 71
3
 72
8
 73
4
 74
0
 40
0
 40
0
 40
0
 40
0
 40
1
 40
1
 40
1
 40
1
 10
201.549646
 20
183.829321
 30
0.0
 10
201.549364
 20
183.293204
 30
0.0
 10
201.835145
 20
182.797669
 30
0.0
 10
202.299381
 20
182.529516
 30
0.0
  0
SPLINE
  5
104
100
AcDbEntity
  8
0
 62
1
100
AcDbSpline
 70
8
 71
3
 72
8
 73
4
 74
0
 40
0
 40
0
 40
0
 40
0
 40
1
 40
1
 40
1
 40
1
 10
202.299381
 20
182.529516
 30
0.0
 10
202.763617
 20
182.261362
 30
0.0
 10
203.335676
 20
182.261362
 30
0.0
 10
203.799911
 20
182.529516
 30
0.0
  0
SPLINE
  5
105
100
AcDbEntity
  8
0
 62
1
100
AcDbSpline
 70
8
 71
3
 72
8
 73
4
 74
0
 40
0
 40
0
 40
0
 40
0
 40
1
 40
1
 40
1
 40
1
 10
203.799911
 20
182.529516
 30
0.0
 10
204.264147
 20
182.797669
 30
0.0
 10
204.549976
 20
183.293204
 30
0.0
 10
204.549646
 20
183.829321
 30
0.0
  0
SPLINE
  5
106
100
AcDbEntity
  8
0
 62
1
100
AcDbSpline
 70
8
 71
3
 72
8
 73
4
 74
0
 40
0
 40
0
 40
0
 40
0
 40
1
 40
1
 40
1
 40
1
 10
94.660991
 20
163.643837
 30
0.0
 10
94.661273
 20
164.179955
 30
0.0
 10
94.375492
 20
164.675489
 30
0.0
 10
93.911256
 20
164.943642
 30
0.0
  0
SPLINE
  5
107
100
AcDbEntity
  8
0
 62
1
100
AcDbSpline
 70
8
 71
3
 72
8
 73
4
 74
0
 40
0
 40
0
 40
0
 40
0
 40
1
 40
1
 40
1
 40
1
 10
93.911256
 20
164.943642
 30
0.0
 10
93.447021
 20
165.211796
 30
0.0
 10
92.874962
 20
165.211796
 30
0.0
 10
92.410726
 20
164.943642
 30
0.0
  0
SPLINE
  5
108
100
AcDbEntity
  8
0
 62
1
100
AcDbSpline
 70
8
 71
3
 72
8
 73
4
 74
0
 40
0
 40
0
 40
0
 40
0
 40
1
 40
1
 40
1
 40
1
 10
92.410726
 20
164.943642
 30
0.0
 10
91.946490
 20
164.675489
 30
0.0
 10
91.660661
 20
164.179955
 30
0.0
 10
91.660991
 20
163.643837
 30
0.0
  0
SPLINE
  5
109
100
AcDbEntity
  8
0
 62
1
100
AcDbSpline
 70
8
 71
3
 72
8
 73
4
 74
0
 40
0
 40
0
 40
0
 40
0
 40
1
 40
1
 40
1
 40
1
 10
91.660991
 20
163.643837
 30
0.0
 10
91.660709
 20
163.107719
 30
0.0
 10
91.946490
 20
162.612185
 30
0.0
 10
92.410726
 20
162.344031
 30
0.0
  0
SPLINE
  5
10a
100
AcDbEntity
  8
0
 62
1
100
AcDbSpline
 70
8
 71
3
 72
8
 73
4
 74
0
 40
0
 40
0
 40
0
 40
0
 40
1
 40
1
 40
1
 40
1
 10
92.410726
 20
162.344031
 30
0.0
 10
92.874962
 20
162.075878
 30
0.0
 10
93.447021
 20
162.075878
 30
0.0
 10
93.911256
 20
162.344031
 30
0.0
  0
SPLINE
  5
10b
100
AcDbEntity
  8
0
 62
1
100
AcDbSpline
 70
8
 71
3
 72
8
 73
4
 74
0
 40
0
 40
0
 40
0
 40
0
 40
1
 40
1
 40
1
 40
1
 10
93.911256
 20
162.344031
 30
0.0
 10
94.375492
 20
162.612185
 30
0.0
 10
94.661321
 20
163.107719
 30
0.0
 10
94.660991
 20
163.643837
 30
0.0
  0
SPLINE
  5
10c
100
AcDbEntity
  8
0
 62
1
100
AcDbSpline
 70
8
 71
3
 72
8
 73
4
 74
0
 40
0
 40
0
 40
0
 40
0
 40
1
 40
1
 40
1
 40
1
 10
14.254985
 20
167.050214
 30
0.0
 10
14.255324
 20
167.586332
 30
0.0
 10
13.969488
 20
168.081866
 30
0.0
 10
13.505251
 20
168.350019
 30
0.0
  0
SPLINE
  5
10d
100
AcDbEntity
  8
0
 62
1
100
AcDbSpline
 70
8
 71
3
 72
8
 73
4
 74
0
 40
0
 40
0
 40
0
 40
0
 40
1
 40
1
 40
1
 40
1
 10
13.505251
 20
168.350019
 30
0.0
 10
13.041014
 20
168.618173
 30
0.0
 10
12.468956
 20
168.618173
 30
0.0
 10
12.004720
 20
168.350019
 30
0.0
  0
SPLINE
  5
10e
100
AcDbEntity
  8
0
 62
1
100
AcDbSpline
 70
8
 71
3
 72
8
 73
4
 74
0
 40
0
 40
0
 40
0
 40
0
 40
1
 40
1
 40
1
 40
1
 10
12.004720
 20
168.350019
 30
0.0
 10
11.540483
 20
168.081866
 30
0.0
 10
11.254657
 20
167.586332
 30
0.0
 10
11.254986
 20
167.050214
 30
0.0
  0
SPLINE
  5
10f
100
AcDbEntity
  8
0
 62
1
100
AcDbSpline
 70
8
 71
3
 72
8
 73
4
 74
0
 40
0
 40
0
 40
0
 40
0
 40
1
 40
1
 40
1
 40
1
 10
11.254986
 20
167.050214
 30
0.0
 10
11.255494
 20
166.222146
 30
0.0
 10
11.926917
 20
165.551134
 30
0.0
 10
12.754985
 20
165.551134
 30
0.0
  0
SPLINE
  5
110
100
AcDbEntity
  8
0
 62
1
100
AcDbSpline
 70
8
 71
3
 72
8
 73
4
 74
0
 40
0
 40
0
 40
0
 40
0
 40
1
 40
1
 40
1
 40
1
 10
12.754985
 20
165.551134
 30
0.0
 10
13.583053
 20
165.551134
 30
0.0
 10
14.254477
 20
166.222146
 30
0.0
 10
14.254985
 20
167.050214
 30
0.0
  0
LWPOLYLINE
  5
111
100
AcDbEntity
  8
0
 62
1
100
AcDbPolyline
 90
6
 70
1
 10
204.549646
 20
183.829321
 30
0.0
 10
204.549646
 20
183.829321
 30
0.0
 10
204.549646
 20
183.829321
 30
0.0
 10
204.549646
 20
183.829321
 30
0.0
 10
204.549646
 20
183.829321
 30
0.0
 10
204.549646
 20
183.829321
 30
0.0
  0
LWPOLYLINE
  5
112
100
AcDbEntity
  8
0
 62
1
100
AcDbPolyline
 90
6
 70
1
 10
94.660991
 20
163.643837
 30
0.0
 10
94.660991
 20
163.643837
 30
0.0
 10
94.660991
 20
163.643837
 30
0.0
 10
94.660991
 20
163.643837
 30
0.0
 10
94.660991
 20
163.643837
 30
0.0
 10
94.660991
 20
163.643837
 30
0.0
  0
LWPOLYLINE
  5
113
100
AcDbEntity
  8
0
 62
1
100
AcDbPolyline
 90
6
 70
1
 10
14.254985
 20
167.050214
 30
0.0
 10
14.254985
 20
167.050214
 30
0.0
 10
14.254985
 20
167.050214
 30
0.0
 10
14.254985
 20
167.050214
 30
0.0
 10
14.254985
 20
167.050214
 30
0.0
 10
14.254985
 20
167.050214
 30
0.0
  0
LWPOLYLINE
  5
114
100
AcDbEntity
  8
0
 62
1
100
AcDbPolyline
 90
2
 70
0
 10
6.491111
 20
166.198837
 30
0.0
 10
6.491111
 20
290.628841
 30
0.0
  0
SPLINE
  5
115
100
AcDbEntity
  8
0
 62
1
100
AcDbSpline
 70
8
 71
3
 72
8
 73
4
 74
0
 40
0
 40
0
 40
0
 40
0
 40
1
 40
1
 40
1
 40
1
 10
14.254988
 20
291.364964
 30
0.0
 10
14.254988
 20
291.900863
 30
0.0
 10
13.969089
 20
292.396054
 30
0.0
 10
13.504987
 20
292.664003
 30
0.0
  0
SPLINE
  5
116
100
AcDbEntity
  8
0
 62
1
100
AcDbSpline
 70
8
 71
3
 72
8
 73
4
 74
0
 40
0
 40
0
 40
0
 40
0
 40
1
 40
1
 40
1
 40
1
 10
13.504987
 20
292.664003
 30
0.0
 10
13.040885
 20
292.931952
 30
0.0
 10
12.469088
 20
292.931952
 30
0.0
 10
12.004986
 20
292.664003
 30
0.0
  0
SPLINE
  5
117
100
AcDbEntity
  8
0
 62
1
100
AcDbSpline
 70
8
 71
3
 72
8
 73
4
 74
0
 40
0
 40
0
 40
0
 40
0
 40
1
 40
1
 40
1
 40
1
 10
12.004986
 20
292.664003
 30
0.0
 10
11.540884
 20
292.396054
 30
0.0
 10
11.254986
 20
291.900863
 30
0.0
 10
11.254986
 20
291.364964
 30
0.0
  0
SPLINE
  5
118
100
AcDbEntity
  8
0
 62
1
100
AcDbSpline
 70
8
 71
3
 72
8
 73
4
 74
0
 40
0
 40
0
 40
0
 40
0
 40
1
 40
1
 40
1
 40
1
 10
11.254986
 20
291.364964
 30
0.0
 10
11.254986
 20
290.829065
 30
0.0
 10
11.540884
 20
290.333874
 30
0.0
 10
12.004986
 20
290.065925
 30
0.0
  0
SPLINE
  5
119
100
AcDbEntity
  8
0
 62
1
100
AcDbSpline
 70
8
 71
3
 72
8
 73
4
 74
0
 40
0
 40
0
 40
0
 40
0
 40
1
 40
1
 40
1
 40
1
 10
12.004986
 20
290.065925
 30
0.0
 10
12.469088
 20
289.797975
 30
0.0
 10
13.040885
 20
289.797975
 30
0.0
 10
13.504987
 20
290.065925
 30
0.0
  0
SPLINE
  5
11a
100
AcDbEntity
  8
0
 62
1
100
AcDbSpline
 70
8
 71
3
 72
8
 73
4
 74
0
 40
0
 40
0
 40
0
 40
0
 40
1
 40
1
 40
1
 40
1
 10
13.504987
 20
290.065925
 30
0.0
 10
13.969089
 20
290.333874
 30
0.0
 10
14.254988
 20
290.829065
 30
0.0
 10
14.254988
 20
291.364964
 30
0.0
  0
LWPOLYLINE
  5
11b
100
AcDbEntity
  8
0
 62
1
100
AcDbPolyline
 90
2
 70
0
 10
13.473871
 20
297.628841
 30
0.0
 10
597.770345
 20
297.628841
 30
0.0
  0
SPLINE
  5
11c
100
AcDbEntity
  8
0
 62
1
100
AcDbSpline
 70
8
 71
3
 72
8
 73
4
 74
0
 40
0
 40
0
 40
0
 40
0
 40
1
 40
1
 40
1
 40
1
 10
109.324411
 20
293.183841
 30
0.0
 10
109.324693
 20
293.719958
 30
0.0
 10
109.038912
 20
294.215492
 30
0.0
 10
108.574676
 20
294.483646
 30
0.0
  0
SPLINE
  5
11d
100
AcDbEntity
  8
0
 62
1
100
AcDbSpline
 70
8
 71
3
 72
8
 73
4
 74
0
 40
0
 40
0
 40
0
 40
0
 40
1
 40
1
 40
1
 40
1
 10
108.574676
 20
294.483646
 30
0.0
 10
108.110441
 20
294.751800
 30
0.0
 10
107.538382
 20
294.751800
 30
0.0
 10
107.074146
 20
294.483646
 30
0.0
  0
SPLINE
  5
11e
100
AcDbEntity
  8
0
 62
1
100
AcDbSpline
 70
8
 71
3
 72
8
 73
4
 74
0
 40
0
 40
0
 40
0
 40
0
 40
1
 40
1
 40
1
 40
1
 10
107.074146
 20
294.483646
 30
0.0
 10
106.609910
 20
294.215492
 30
0.0
 10
106.324081
 20
293.719958
 30
0.0
 10
106.324411
 20
293.183841
 30
0.0
  0
SPLINE
  5
11f
100
AcDbEntity
  8
0
 62
1
100
AcDbSpline
 70
8
 71
3
 72
8
 73
4
 74
0
 40
0
 40
0
 40
0
 40
0
 40
1
 40
1
 40
1
 40
1
 10
106.324411
 20
293.183841
 30
0.0
 10
106.324129
 20
292.647723
 30
0.0
 10
106.609910
 20
292.152190
 30
0.0
 10
107.074146
 20
291.884036
 30
0.0
  0
SPLINE
  5
120
100
AcDbEntity
  8
0
 62
1
100
AcDbSpline
 70
8
 71
3
 72
8
 73
4
 74
0
 40
0
 40
0
 40
0
 40
0
 40
1
 40
1
 40
1
 40
1
 10
107.074146
 20
291.884036
 30
0.0
 10
107.538382
 20
291.615882
 30
0.0
 10
108.110441
 20
291.615882
 30
0.0
 10
108.574676
 20
291.884036
 30
0.0
  0
SPLINE
  5
121
100
AcDbEntity
  8
0
 62
1
100
AcDbSpline
 70
8
 71
3
 72
8
 73
4
 74
0
 40
0
 40
0
 40
0
 40
0
 40
1
 40
1
 40
1
 40
1
 10
108.574676
 20
291.884036
 30
0.0
 10
109.038912
 20
292.152190
 30
0.0
 10
109.324741
 20
292.647723
 30
0.0
 10
109.324411
 20
293.183841
 30
0.0
  0
LWPOLYLINE
  5
122
100
AcDbEntity
  8
0
 62
1
100
AcDbPolyline
 90
2
 70
0
 10
208.416071
 20
180.515211
 30
0.0
 10
182.451683
 20
124.833949
 30
0.0
  0
LWPOLYLINE
  5
123
100
AcDbEntity
  8
0
 62
1
100
AcDbPolyline
 90
2
 70
0
 10
173.149700
 20
121.447875
 30
0.0
 10
93.581722
 20
158.543229
 30
0.0
  0
SPLINE
  5
124
100
AcDbEntity
  8
0
 62
1
100
AcDbSpline
 70
8
 71
3
 72
8
 73
4
 74
0
 40
0
 40
0
 40
0
 40
0
 40
1
 40
1
 40
1
 40
1
 10
162.807687
 20
291.364964
 30
0.0
 10
162.807687
 20
291.900863
 30
0.0
 10
162.521787
 20
292.396054
 30
0.0
 10
162.057687
 20
292.664003
 30
0.0
  0
SPLINE
  5
125
100
AcDbEntity
  8
0
 62
1
100
AcDbSpline
 70
8
 71
3
 72
8
 73
4
 74
0
 40
0
 40
0
 40
0
 40
0
 40
1
 40
1
 40
1
 40
1
 10
162.057687
 20
292.664003
 30
0.0
 10
161.593584
 20
292.931953
 30
0.0
 10
161.021787
 20
292.931953
 30
0.0
 10
160.557684
 20
292.664003
 30
0.0
  0
SPLINE
  5
126
100
AcDbEntity
  8
0
 62
1
100
AcDbSpline
 70
8
 71
3
 72
8
 73
4
 74
0
 40
0
 40
0
 40
0
 40
0
 40
1
 40
1
 40
1
 40
1
 10
160.557684
 20
292.664003
 30
0.0
 10
160.093584
 20
292.396054
 30
0.0
 10
159.807684
 20
291.900863
 30
0.0
 10
159.807684
 20
291.364964
 30
0.0
  0
SPLINE
  5
127
100
AcDbEntity
  8
0
 62
1
100
AcDbSpline
 70
8
 71
3
 72
8
 73
4
 74
0
 40
0
 40
0
 40
0
 40
0
 40
1
 40
1
 40
1
 40
1
 10
159.807684
 20
291.364964
 30
0.0
 10
159.807684
 20
290.536536
 30
0.0
 10
160.479257
 20
289.864963
 30
0.0
 10
161.307684
 20
289.864963
 30
0.0
  0
SPLINE
  5
128
100
AcDbEntity
  8
0
 62
1
100
AcDbSpline
 70
8
 71
3
 72
8
 73
4
 74
0
 40
0
 40
0
 40
0
 40
0
 40
1
 40
1
 40
1
 40
1
 10
161.307684
 20
289.864963
 30
0.0
 10
162.136114
 20
289.864963
 30
0.0
 10
162.807687
 20
290.536536
 30
0.0
 10
162.807687
 20
291.364964
 30
0.0
  0
LWPOLYLINE
  5
129
100
AcDbEntity
  8
0
 62
1
100
AcDbPolyline
 90
6
 70
1
 10
14.254988
 20
291.364964
 30
0.0
 10
14.254988
 20
291.364964
 30
0.0
 10
14.254988
 20
291.364964
 30
0.0
 10
14.254988
 20
291.364964
 30
0.0
 10
14.254988
 20
291.364964
 30
0.0
 10
14.254988
 20
291.364964
 30
0.0
  0
SPLINE
  5
12a
100
AcDbEntity
  8
0
 62
1
100
AcDbSpline
 70
8
 71
3
 72
8
 73
4
 74
0
 40
0
 40
0
 40
0
 40
0
 40
1
 40
1
 40
1
 40
1
 10
13.491111
 20
297.628841
 30
0.0
 10
11.634596
 20
297.628841
 30
0.0
 10
9.854118
 20
296.891343
 30
0.0
 10
8.541364
 20
295.578588
 30
0.0
  0
SPLINE
  5
12b
100
AcDbEntity
  8
0
 62
1
100
AcDbSpline
 70
8
 71
3
 72
8
 73
4
 74
0
 40
0
 40
0
 40
0
 40
0
 40
1
 40
1
 40
1
 40
1
 10
8.541364
 20
295.578588
 30
0.0
 10
7.228609
 20
294.265834
 30
0.0
 10
6.491111
 20
292.485356
 30
0.0
 10
6.491111
 20
290.628841
 30
0.0
  0
SPLINE
  5
12c
100
AcDbEntity
  8
0
 62
1
100
AcDbSpline
 70
8
 71
3
 72
8
 73
4
 74
0
 40
0
 40
0
 40
0
 40
0
 40
1
 40
1
 40
1
 40
1
 10
6.491111
 20
166.198837
 30
0.0
 10
6.491111
 20
164.342323
 30
0.0
 10
7.228609
 20
162.561845
 30
0.0
 10
8.541364
 20
161.249088
 30
0.0
  0
SPLINE
  5
12d
100
AcDbEntity
  8
0
 62
1
100
AcDbSpline
 70
8
 71
3
 72
8
 73
4
 74
0
 40
0
 40
0
 40
0
 40
0
 40
1
 40
1
 40
1
 40
1
 10
8.541364
 20
161.249088
 30
0.0
 10
9.854118
 20
159.936334
 30
0.0
 10
11.634596
 20
159.198837
 30
0.0
 10
13.491111
 20
159.198837
 30
0.0
  0
SPLINE
  5
12e
100
AcDbEntity
  8
0
 62
1
100
AcDbSpline
 70
8
 71
3
 72
8
 73
4
 74
0
 40
0
 40
0
 40
0
 40
0
 40
1
 40
1
 40
1
 40
1
 10
173.149700
 20
121.447875
 30
0.0
 10
176.653416
 20
119.814404
 30
0.0
 10
180.817941
 20
121.330358
 30
0.0
 10
182.451683
 20
124.833949
 30
0.0
  0
SPLINE
  5
12f
100
AcDbEntity
  8
0
 62
1
100
AcDbSpline
 70
8
 71
3
 72
8
 73
4
 74
0
 40
0
 40
0
 40
0
 40
0
 40
1
 40
1
 40
1
 40
1
 10
93.581722
 20
158.543229
 30
0.0
 10
92.655461
 20
158.975060
 30
0.0
 10
91.645881
 20
159.198837
 30
0.0
 10
90.623904
 20
159.198837
 30
0.0
  0
LWPOLYLINE
  5
130
100
AcDbEntity
  8
0
 62
1
100
AcDbPolyline
 90
6
 70
1
 10
109.324411
 20
293.183841
 30
0.0
 10
109.324411
 20
293.183841
 30
0.0
 10
109.324411
 20
293.183841
 30
0.0
 10
109.324411
 20
293.183841
 30
0.0
 10
109.324411
 20
293.183841
 30
0.0
 10
109.324411
 20
293.183841
 30
0.0
  0
SPLINE
  5
131
100
AcDbEntity
  8
0
 62
1
100
AcDbSpline
 70
8
 71
3
 72
8
 73
4
 74
0
 40
0
 40
0
 40
0
 40
0
 40
1
 40
1
 40
1
 40
1
 10
177.963209
 20
126.813258
 30
0.0
 10
177.963491
 20
127.349376
 30
0.0
 10
177.677713
 20
127.844910
 30
0.0
 10
177.213474
 20
128.113064
 30
0.0
  0
SPLINE
  5
132
100
AcDbEntity
  8
0
 62
1
100
AcDbSpline
 70
8
 71
3
 72
8
 73
4
 74
0
 40
0
 40
0
 40
0
 40
0
 40
1
 40
1
 40
1
 40
1
 10
177.213474
 20
128.113064
 30
0.0
 10
176.749239
 20
128.381217
 30
0.0
 10
176.177180
 20
128.381217
 30
0.0
 10
175.712944
 20
128.113064
 30
0.0
  0
SPLINE
  5
133
100
AcDbEntity
  8
0
 62
1
100
AcDbSpline
 70
8
 71
3
 72
8
 73
4
 74
0
 40
0
 40
0
 40
0
 40
0
 40
1
 40
1
 40
1
 40
1
 10
175.712944
 20
128.113064
 30
0.0
 10
175.248705
 20
127.844910
 30
0.0
 10
174.962882
 20
127.349376
 30
0.0
 10
174.963209
 20
126.813258
 30
0.0
  0
SPLINE
  5
134
100
AcDbEntity
  8
0
 62
1
100
AcDbSpline
 70
8
 71
3
 72
8
 73
4
 74
0
 40
0
 40
0
 40
0
 40
0
 40
1
 40
1
 40
1
 40
1
 10
174.963209
 20
126.813258
 30
0.0
 10
174.962927
 20
126.277141
 30
0.0
 10
175.248705
 20
125.781606
 30
0.0
 10
175.712944
 20
125.513453
 30
0.0
  0
SPLINE
  5
135
100
AcDbEntity
  8
0
 62
1
100
AcDbSpline
 70
8
 71
3
 72
8
 73
4
 74
0
 40
0
 40
0
 40
0
 40
0
 40
1
 40
1
 40
1
 40
1
 10
175.712944
 20
125.513453
 30
0.0
 10
176.177180
 20
125.245299
 30
0.0
 10
176.749239
 20
125.245299
 30
0.0
 10
177.213474
 20
125.513453
 30
0.0
  0
SPLINE
  5
136
100
AcDbEntity
  8
0
 62
1
100
AcDbSpline
 70
8
 71
3
 72
8
 73
4
 74
0
 40
0
 40
0
 40
0
 40
0
 40
1
 40
1
 40
1
 40
1
 10
177.213474
 20
125.513453
 30
0.0
 10
177.677713
 20
125.781606
 30
0.0
 10
177.963539
 20
126.277141
 30
0.0
 10
177.963209
 20
126.813258
 30
0.0
  0
LWPOLYLINE
  5
137
100
AcDbEntity
  8
0
 62
1
100
AcDbPolyline
 90
2
 70
0
 10
90.623904
 20
159.198837
 30
0.0
 10
13.491111
 20
159.198837
 30
0.0
  0
LWPOLYLINE
  5
138
100
AcDbEntity
  8
0
 62
1
100
AcDbPolyline
 90
6
 70
1
 10
162.807687
 20
291.364964
 30
0.0
 10
162.807687
 20
291.364964
 30
0.0
 10
162.807687
 20
291.364964
 30
0.0
 10
162.807687
 20
291.364964
 30
0.0
 10
162.807687
 20
291.364964
 30
0.0
 10
162.807687
 20
291.364964
 30
0.0
  0
LWPOLYLINE
  5
139
100
AcDbEntity
  8
0
 62
1
100
AcDbPolyline
 90
2
 70
0
 10
182.491112
 20
129.930854
 30
0.0
 10
182.491112
 20
129.930854
 30
0.0
  0
LWPOLYLINE
  5
13a
100
AcDbEntity
  8
0
 62
1
100
AcDbPolyline
 90
6
 70
1
 10
177.963209
 20
126.813258
 30
0.0
 10
177.963209
 20
126.813258
 30
0.0
 10
177.963209
 20
126.813258
 30
0.0
 10
177.963209
 20
126.813258
 30
0.0
 10
177.963209
 20
126.813258
 30
0.0
 10
177.963209
 20
126.813258
 30
0.0
  0
SPLINE
  5
13b
100
AcDbEntity
  8
0
 62
1
100
AcDbSpline
 70
8
 71
3
 72
8
 73
4
 74
0
 40
0
 40
0
 40
0
 40
0
 40
1
 40
1
 40
1
 40
1
 10
599.984745
 20
291.364992
 30
0.0
 10
599.984745
 20
291.901616
 30
0.0
 10
599.700181
 20
292.397945
 30
0.0
 10
599.235643
 20
292.666573
 30
0.0
  0
SPLINE
  5
13c
100
AcDbEntity
  8
0
 62
1
100
AcDbSpline
 70
8
 71
3
 72
8
 73
4
 74
0
 40
0
 40
0
 40
0
 40
0
 40
1
 40
1
 40
1
 40
1
 10
599.235643
 20
292.666573
 30
0.0
 10
598.771077
 20
292.935201
 30
0.0
 10
598.198420
 20
292.935201
 30
0.0
 10
597.733882
 20
292.666573
 30
0.0
  0
SPLINE
  5
13d
100
AcDbEntity
  8
0
 62
1
100
AcDbSpline
 70
8
 71
3
 72
8
 73
4
 74
0
 40
0
 40
0
 40
0
 40
0
 40
1
 40
1
 40
1
 40
1
 10
597.733882
 20
292.666573
 30
0.0
 10
597.269316
 20
292.397945
 30
0.0
 10
596.983651
 20
291.901616
 30
0.0
 10
596.984751
 20
291.364992
 30
0.0
  0
SPLINE
  5
13e
100
AcDbEntity
  8
0
 62
1
100
AcDbSpline
 70
8
 71
3
 72
8
 73
4
 74
0
 40
0
 40
0
 40
0
 40
0
 40
1
 40
1
 40
1
 40
1
 10
596.984751
 20
291.364992
 30
0.0
 10
596.984751
 20
290.828368
 30
0.0
 10
597.269316
 20
290.332039
 30
0.0
 10
597.733882
 20
290.063411
 30
0.0
  0
SPLINE
  5
13f
100
AcDbEntity
  8
0
 62
1
100
AcDbSpline
 70
8
 71
3
 72
8
 73
4
 74
0
 40
0
 40
0
 40
0
 40
0
 40
1
 40
1
 40
1
 40
1
 10
597.733882
 20
290.063411
 30
0.0
 10
598.198420
 20
289.794783
 30
0.0
 10
598.771077
 20
289.794783
 30
0.0
 10
599.235643
 20
290.063411
 30
0.0
  0
SPLINE
  5
140
100
AcDbEntity
  8
0
 62
1
100
AcDbSpline
 70
8
 71
3
 72
8
 73
4
 74
0
 40
0
 40
0
 40
0
 40
0
 40
1
 40
1
 40
1
 40
1
 10
599.235643
 20
290.063411
 30
0.0
 10
599.700181
 20
290.332039
 30
0.0
 10
599.985846
 20
290.828368
 30
0.0
 10
599.984745
 20
291.364992
 30
0.0
  0
LWPOLYLINE
  5
141
100
AcDbEntity
  8
0
 62
1
100
AcDbPolyline
 90
2
 70
0
 10
182.491112
 20
129.930854
 30
0.0
 10
182.491112
 20
129.930854
 30
0.0
  0
SPLINE
  5
142
100
AcDbEntity
  8
0
 62
1
100
AcDbSpline
 70
8
 71
3
 72
8
 73
4
 74
0
 40
0
 40
0
 40
0
 40
0
 40
1
 40
1
 40
1
 40
1
 10
504.915283
 20
293.183869
 30
0.0
 10
504.918105
 20
293.721473
 30
0.0
 10
504.632524
 20
294.219346
 30
0.0
 10
504.167366
 20
294.488894
 30
0.0
  0
SPLINE
  5
143
100
AcDbEntity
  8
0
 62
1
100
AcDbSpline
 70
8
 71
3
 72
8
 73
4
 74
0
 40
0
 40
0
 40
0
 40
0
 40
1
 40
1
 40
1
 40
1
 10
504.167366
 20
294.488894
 30
0.0
 10
503.702207
 20
294.758443
 30
0.0
 10
503.128393
 20
294.758443
 30
0.0
 10
502.663234
 20
294.488894
 30
0.0
  0
SPLINE
  5
144
100
AcDbEntity
  8
0
 62
1
100
AcDbSpline
 70
8
 71
3
 72
8
 73
4
 74
0
 40
0
 40
0
 40
0
 40
0
 40
1
 40
1
 40
1
 40
1
 10
502.663234
 20
294.488894
 30
0.0
 10
502.198076
 20
294.219346
 30
0.0
 10
501.912749
 20
293.721473
 30
0.0
 10
501.915317
 20
293.183869
 30
0.0
  0
SPLINE
  5
145
100
AcDbEntity
  8
0
 62
1
100
AcDbSpline
 70
8
 71
3
 72
8
 73
4
 74
0
 40
0
 40
0
 40
0
 40
0
 40
1
 40
1
 40
1
 40
1
 10
501.915317
 20
293.183869
 30
0.0
 10
501.912495
 20
292.646265
 30
0.0
 10
502.198076
 20
292.148392
 30
0.0
 10
502.663234
 20
291.878844
 30
0.0
  0
SPLINE
  5
146
100
AcDbEntity
  8
0
 62
1
100
AcDbSpline
 70
8
 71
3
 72
8
 73
4
 74
0
 40
0
 40
0
 40
0
 40
0
 40
1
 40
1
 40
1
 40
1
 10
502.663234
 20
291.878844
 30
0.0
 10
503.128393
 20
291.609295
 30
0.0
 10
503.702207
 20
291.609295
 30
0.0
 10
504.167366
 20
291.878844
 30
0.0
  0
SPLINE
  5
147
100
AcDbEntity
  8
0
 62
1
100
AcDbSpline
 70
8
 71
3
 72
8
 73
4
 74
0
 40
0
 40
0
 40
0
 40
0
 40
1
 40
1
 40
1
 40
1
 10
504.167366
 20
291.878844
 30
0.0
 10
504.632524
 20
292.148392
 30
0.0
 10
504.917851
 20
292.646265
 30
0.0
 10
504.915283
 20
293.183869
 30
0.0
  0
LWPOLYLINE
  5
148
100
AcDbEntity
  8
0
 62
1
100
AcDbPolyline
 90
2
 70
0
 10
402.823624
 20
180.515248
 30
0.0
 10
428.788040
 20
124.833949
 30
0.0
  0
LWPOLYLINE
  5
149
100
AcDbEntity
  8
0
 62
1
100
AcDbPolyline
 90
2
 70
0
 10
438.090000
 20
121.447847
 30
0.0
 10
517.657983
 20
158.543260
 30
0.0
  0
SPLINE
  5
14a
100
AcDbEntity
  8
0
 62
1
100
AcDbSpline
 70
8
 71
3
 72
8
 73
4
 74
0
 40
0
 40
0
 40
0
 40
0
 40
1
 40
1
 40
1
 40
1
 10
451.432055
 20
291.364992
 30
0.0
 10
451.432055
 20
291.900899
 30
0.0
 10
451.146164
 20
292.396098
 30
0.0
 10
450.682050
 20
292.664052
 30
0.0
  0
SPLINE
  5
14b
100
AcDbEntity
  8
0
 62
1
100
AcDbSpline
 70
8
 71
3
 72
8
 73
4
 74
0
 40
0
 40
0
 40
0
 40
0
 40
1
 40
1
 40
1
 40
1
 10
450.682050
 20
292.664052
 30
0.0
 10
450.217935
 20
292.932006
 30
0.0
 10
449.646125
 20
292.932006
 30
0.0
 10
449.182010
 20
292.664052
 30
0.0
  0
SPLINE
  5
14c
100
AcDbEntity
  8
0
 62
1
100
AcDbSpline
 70
8
 71
3
 72
8
 73
4
 74
0
 40
0
 40
0
 40
0
 40
0
 40
1
 40
1
 40
1
 40
1
 10
449.182010
 20
292.664052
 30
0.0
 10
448.717896
 20
292.396098
 30
0.0
 10
448.432005
 20
291.900899
 30
0.0
 10
448.432005
 20
291.364992
 30
0.0
  0
SPLINE
  5
14d
100
AcDbEntity
  8
0
 62
1
100
AcDbSpline
 70
8
 71
3
 72
8
 73
4
 74
0
 40
0
 40
0
 40
0
 40
0
 40
1
 40
1
 40
1
 40
1
 10
448.432005
 20
291.364992
 30
0.0
 10
448.432005
 20
290.829085
 30
0.0
 10
448.717896
 20
290.333886
 30
0.0
 10
449.182010
 20
290.065932
 30
0.0
  0
SPLINE
  5
14e
100
AcDbEntity
  8
0
 62
1
100
AcDbSpline
 70
8
 71
3
 72
8
 73
4
 74
0
 40
0
 40
0
 40
0
 40
0
 40
1
 40
1
 40
1
 40
1
 10
449.182010
 20
290.065932
 30
0.0
 10
449.646125
 20
289.797978
 30
0.0
 10
450.217935
 20
289.797978
 30
0.0
 10
450.682050
 20
290.065932
 30
0.0
  0
SPLINE
  5
14f
100
AcDbEntity
  8
0
 62
1
100
AcDbSpline
 70
8
 71
3
 72
8
 73
4
 74
0
 40
0
 40
0
 40
0
 40
0
 40
1
 40
1
 40
1
 40
1
 10
450.682050
 20
290.065932
 30
0.0
 10
451.146164
 20
290.333886
 30
0.0
 10
451.432055
 20
290.829085
 30
0.0
 10
451.432055
 20
291.364992
 30
0.0
  0
LWPOLYLINE
  5
150
100
AcDbEntity
  8
0
 62
1
100
AcDbPolyline
 90
6
 70
1
 10
599.984745
 20
291.364992
 30
0.0
 10
599.984745
 20
291.364992
 30
0.0
 10
599.984745
 20
291.364992
 30
0.0
 10
599.984745
 20
291.364992
 30
0.0
 10
599.984745
 20
291.364992
 30
0.0
 10
599.984745
 20
291.364992
 30
0.0
  0
SPLINE
  5
151
100
AcDbEntity
  8
0
 62
1
100
AcDbSpline
 70
8
 71
3
 72
8
 73
4
 74
0
 40
0
 40
0
 40
0
 40
0
 40
1
 40
1
 40
1
 40
1
 10
604.748600
 20
290.628869
 30
0.0
 10
604.748600
 20
292.485387
 30
0.0
 10
604.011097
 20
294.265867
 30
0.0
 10
602.698340
 20
295.578622
 30
0.0
  0
SPLINE
  5
152
100
AcDbEntity
  8
0
 62
1
100
AcDbSpline
 70
8
 71
3
 72
8
 73
4
 74
0
 40
0
 40
0
 40
0
 40
0
 40
1
 40
1
 40
1
 40
1
 10
602.698340
 20
295.578622
 30
0.0
 10
601.385584
 20
296.891377
 30
0.0
 10
599.605100
 20
297.628873
 30
0.0
 10
597.748586
 20
297.628869
 30
0.0
  0
SPLINE
  5
153
100
AcDbEntity
  8
0
 62
1
100
AcDbSpline
 70
8
 71
3
 72
8
 73
4
 74
0
 40
0
 40
0
 40
0
 40
0
 40
1
 40
1
 40
1
 40
1
 10
597.748586
 20
159.198862
 30
0.0
 10
599.605100
 20
159.198859
 30
0.0
 10
601.385584
 20
159.936354
 30
0.0
 10
602.698340
 20
161.249105
 30
0.0
  0
SPLINE
  5
154
100
AcDbEntity
  8
0
 62
1
100
AcDbSpline
 70
8
 71
3
 72
8
 73
4
 74
0
 40
0
 40
0
 40
0
 40
0
 40
1
 40
1
 40
1
 40
1
 10
602.698340
 20
161.249105
 30
0.0
 10
604.011097
 20
162.561856
 30
0.0
 10
604.748600
 20
164.342334
 30
0.0
 10
604.748600
 20
166.198848
 30
0.0
  0
SPLINE
  5
155
100
AcDbEntity
  8
0
 62
1
100
AcDbSpline
 70
8
 71
3
 72
8
 73
4
 74
0
 40
0
 40
0
 40
0
 40
0
 40
1
 40
1
 40
1
 40
1
 10
428.788012
 20
124.833949
 30
0.0
 10
430.421740
 20
121.330344
 30
0.0
 10
434.586267
 20
119.814376
 30
0.0
 10
438.090000
 20
121.447847
 30
0.0
  0
SPLINE
  5
156
100
AcDbEntity
  8
0
 62
1
100
AcDbSpline
 70
8
 71
3
 72
8
 73
4
 74
0
 40
0
 40
0
 40
0
 40
0
 40
1
 40
1
 40
1
 40
1
 10
409.690034
 20
183.829355
 30
0.0
 10
409.692856
 20
184.366960
 30
0.0
 10
409.407275
 20
184.864831
 30
0.0
 10
408.942117
 20
185.134382
 30
0.0
  0
SPLINE
  5
157
100
AcDbEntity
  8
0
 62
1
100
AcDbSpline
 70
8
 71
3
 72
8
 73
4
 74
0
 40
0
 40
0
 40
0
 40
0
 40
1
 40
1
 40
1
 40
1
 10
408.942117
 20
185.134382
 30
0.0
 10
408.476958
 20
185.403929
 30
0.0
 10
407.903144
 20
185.403929
 30
0.0
 10
407.437985
 20
185.134382
 30
0.0
  0
SPLINE
  5
158
100
AcDbEntity
  8
0
 62
1
100
AcDbSpline
 70
8
 71
3
 72
8
 73
4
 74
0
 40
0
 40
0
 40
0
 40
0
 40
1
 40
1
 40
1
 40
1
 10
407.437985
 20
185.134382
 30
0.0
 10
406.972826
 20
184.864831
 30
0.0
 10
406.687500
 20
184.366960
 30
0.0
 10
406.690068
 20
183.829355
 30
0.0
  0
SPLINE
  5
159
100
AcDbEntity
  8
0
 62
1
100
AcDbSpline
 70
8
 71
3
 72
8
 73
4
 74
0
 40
0
 40
0
 40
0
 40
0
 40
1
 40
1
 40
1
 40
1
 10
406.690068
 20
183.829355
 30
0.0
 10
406.694019
 20
183.003742
 30
0.0
 10
407.364438
 20
182.336544
 30
0.0
 10
408.190051
 20
182.336544
 30
0.0
  0
SPLINE
  5
15a
100
AcDbEntity
  8
0
 62
1
100
AcDbSpline
 70
8
 71
3
 72
8
 73
4
 74
0
 40
0
 40
0
 40
0
 40
0
 40
1
 40
1
 40
1
 40
1
 10
408.190051
 20
182.336544
 30
0.0
 10
409.015664
 20
182.336544
 30
0.0
 10
409.686083
 20
183.003742
 30
0.0
 10
409.690034
 20
183.829355
 30
0.0
  0
LWPOLYLINE
  5
15b
100
AcDbEntity
  8
0
 62
1
100
AcDbPolyline
 90
6
 70
1
 10
504.915283
 20
293.183869
 30
0.0
 10
504.915283
 20
293.183869
 30
0.0
 10
504.915283
 20
293.183869
 30
0.0
 10
504.915283
 20
293.183869
 30
0.0
 10
504.915283
 20
293.183869
 30
0.0
 10
504.915283
 20
293.183869
 30
0.0
  0
SPLINE
  5
15c
100
AcDbEntity
  8
0
 62
1
100
AcDbSpline
 70
8
 71
3
 72
8
 73
4
 74
0
 40
0
 40
0
 40
0
 40
0
 40
1
 40
1
 40
1
 40
1
 10
520.615785
 20
159.198862
 30
0.0
 10
519.593802
 20
159.198862
 30
0.0
 10
518.584236
 20
158.975088
 30
0.0
 10
517.657983
 20
158.543260
 30
0.0
  0
SPLINE
  5
15d
100
AcDbEntity
  8
0
 62
1
100
AcDbSpline
 70
8
 71
3
 72
8
 73
4
 74
0
 40
0
 40
0
 40
0
 40
0
 40
1
 40
1
 40
1
 40
1
 10
436.276496
 20
126.813258
 30
0.0
 10
436.279318
 20
127.350917
 30
0.0
 10
435.993850
 20
127.848878
 30
0.0
 10
435.528664
 20
128.118477
 30
0.0
  0
SPLINE
  5
15e
100
AcDbEntity
  8
0
 62
1
100
AcDbSpline
 70
8
 71
3
 72
8
 73
4
 74
0
 40
0
 40
0
 40
0
 40
0
 40
1
 40
1
 40
1
 40
1
 10
435.528664
 20
128.118477
 30
0.0
 10
435.063477
 20
128.388078
 30
0.0
 10
434.489550
 20
128.388078
 30
0.0
 10
434.024363
 20
128.118477
 30
0.0
  0
SPLINE
  5
15f
100
AcDbEntity
  8
0
 62
1
100
AcDbSpline
 70
8
 71
3
 72
8
 73
4
 74
0
 40
0
 40
0
 40
0
 40
0
 40
1
 40
1
 40
1
 40
1
 10
434.024363
 20
128.118477
 30
0.0
 10
433.559176
 20
127.848878
 30
0.0
 10
433.273877
 20
127.350917
 30
0.0
 10
433.276530
 20
126.813258
 30
0.0
  0
SPLINE
  5
160
100
AcDbEntity
  8
0
 62
1
100
AcDbSpline
 70
8
 71
3
 72
8
 73
4
 74
0
 40
0
 40
0
 40
0
 40
0
 40
1
 40
1
 40
1
 40
1
 10
433.276530
 20
126.813258
 30
0.0
 10
433.280481
 20
125.987736
 30
0.0
 10
433.950985
 20
125.320675
 30
0.0
 10
434.776513
 20
125.320675
 30
0.0
  0
SPLINE
  5
161
100
AcDbEntity
  8
0
 62
1
100
AcDbSpline
 70
8
 71
3
 72
8
 73
4
 74
0
 40
0
 40
0
 40
0
 40
0
 40
1
 40
1
 40
1
 40
1
 10
434.776513
 20
125.320675
 30
0.0
 10
435.602041
 20
125.320675
 30
0.0
 10
436.272404
 20
125.987736
 30
0.0
 10
436.276496
 20
126.813258
 30
0.0
  0
LWPOLYLINE
  5
162
100
AcDbEntity
  8
0
 62
1
100
AcDbPolyline
 90
2
 70
0
 10
520.615785
 20
159.198862
 30
0.0
 10
597.748586
 20
159.198862
 30
0.0
  0
SPLINE
  5
163
100
AcDbEntity
  8
0
 62
1
100
AcDbSpline
 70
8
 71
3
 72
8
 73
4
 74
0
 40
0
 40
0
 40
0
 40
0
 40
1
 40
1
 40
1
 40
1
 10
519.578731
 20
163.643862
 30
0.0
 10
519.578731
 20
164.180488
 30
0.0
 10
519.294166
 20
164.676815
 30
0.0
 10
518.829629
 20
164.945443
 30
0.0
  0
SPLINE
  5
164
100
AcDbEntity
  8
0
 62
1
100
AcDbSpline
 70
8
 71
3
 72
8
 73
4
 74
0
 40
0
 40
0
 40
0
 40
0
 40
1
 40
1
 40
1
 40
1
 10
518.829629
 20
164.945443
 30
0.0
 10
518.365063
 20
165.214071
 30
0.0
 10
517.792406
 20
165.214071
 30
0.0
 10
517.327840
 20
164.945443
 30
0.0
  0
SPLINE
  5
165
100
AcDbEntity
  8
0
 62
1
100
AcDbSpline
 70
8
 71
3
 72
8
 73
4
 74
0
 40
0
 40
0
 40
0
 40
0
 40
1
 40
1
 40
1
 40
1
 10
517.327840
 20
164.945443
 30
0.0
 10
516.863302
 20
164.676815
 30
0.0
 10
516.577636
 20
164.180488
 30
0.0
 10
516.578737
 20
163.643862
 30
0.0
  0
SPLINE
  5
166
100
AcDbEntity
  8
0
 62
1
100
AcDbSpline
 70
8
 71
3
 72
8
 73
4
 74
0
 40
0
 40
0
 40
0
 40
0
 40
1
 40
1
 40
1
 40
1
 10
516.578737
 20
163.643862
 30
0.0
 10
516.578737
 20
163.107239
 30
0.0
 10
516.863302
 20
162.610909
 30
0.0
 10
517.327840
 20
162.342282
 30
0.0
  0
SPLINE
  5
167
100
AcDbEntity
  8
0
 62
1
100
AcDbSpline
 70
8
 71
3
 72
8
 73
4
 74
0
 40
0
 40
0
 40
0
 40
0
 40
1
 40
1
 40
1
 40
1
 10
517.327840
 20
162.342282
 30
0.0
 10
517.792406
 20
162.073654
 30
0.0
 10
518.365063
 20
162.073654
 30
0.0
 10
518.829629
 20
162.342282
 30
0.0
  0
SPLINE
  5
168
100
AcDbEntity
  8
0
 62
1
100
AcDbSpline
 70
8
 71
3
 72
8
 73
4
 74
0
 40
0
 40
0
 40
0
 40
0
 40
1
 40
1
 40
1
 40
1
 10
518.829629
 20
162.342282
 30
0.0
 10
519.294166
 20
162.610909
 30
0.0
 10
519.579832
 20
163.107239
 30
0.0
 10
519.578731
 20
163.643862
 30
0.0
  0
LWPOLYLINE
  5
169
100
AcDbEntity
  8
0
 62
1
100
AcDbPolyline
 90
6
 70
1
 10
451.432055
 20
291.364992
 30
0.0
 10
451.432055
 20
291.364992
 30
0.0
 10
451.432055
 20
291.364992
 30
0.0
 10
451.432055
 20
291.364992
 30
0.0
 10
451.432055
 20
291.364992
 30
0.0
 10
451.432055
 20
291.364992
 30
0.0
  0
SPLINE
  5
16a
100
AcDbEntity
  8
0
 62
1
100
AcDbSpline
 70
8
 71
3
 72
8
 73
4
 74
0
 40
0
 40
0
 40
0
 40
0
 40
1
 40
1
 40
1
 40
1
 10
599.984745
 20
167.050228
 30
0.0
 10
599.984745
 20
167.586851
 30
0.0
 10
599.700181
 20
168.083181
 30
0.0
 10
599.235643
 20
168.351809
 30
0.0
  0
SPLINE
  5
16b
100
AcDbEntity
  8
0
 62
1
100
AcDbSpline
 70
8
 71
3
 72
8
 73
4
 74
0
 40
0
 40
0
 40
0
 40
0
 40
1
 40
1
 40
1
 40
1
 10
599.235643
 20
168.351809
 30
0.0
 10
598.771077
 20
168.620436
 30
0.0
 10
598.198420
 20
168.620436
 30
0.0
 10
597.733882
 20
168.351809
 30
0.0
  0
SPLINE
  5
16c
100
AcDbEntity
  8
0
 62
1
100
AcDbSpline
 70
8
 71
3
 72
8
 73
4
 74
0
 40
0
 40
0
 40
0
 40
0
 40
1
 40
1
 40
1
 40
1
 10
597.733882
 20
168.351809
 30
0.0
 10
597.269316
 20
168.083181
 30
0.0
 10
596.983651
 20
167.586851
 30
0.0
 10
596.984751
 20
167.050228
 30
0.0
  0
SPLINE
  5
16d
100
AcDbEntity
  8
0
 62
1
100
AcDbSpline
 70
8
 71
3
 72
8
 73
4
 74
0
 40
0
 40
0
 40
0
 40
0
 40
1
 40
1
 40
1
 40
1
 10
596.984751
 20
167.050228
 30
0.0
 10
596.984751
 20
166.513605
 30
0.0
 10
597.269316
 20
166.017275
 30
0.0
 10
597.733882
 20
165.748647
 30
0.0
  0
SPLINE
  5
16e
100
AcDbEntity
  8
0
 62
1
100
AcDbSpline
 70
8
 71
3
 72
8
 73
4
 74
0
 40
0
 40
0
 40
0
 40
0
 40
1
 40
1
 40
1
 40
1
 10
597.733882
 20
165.748647
 30
0.0
 10
598.198420
 20
165.480020
 30
0.0
 10
598.771077
 20
165.480020
 30
0.0
 10
599.235643
 20
165.748647
 30
0.0
  0
SPLINE
  5
16f
100
AcDbEntity
  8
0
 62
1
100
AcDbSpline
 70
8
 71
3
 72
8
 73
4
 74
0
 40
0
 40
0
 40
0
 40
0
 40
1
 40
1
 40
1
 40
1
 10
599.235643
 20
165.748647
 30
0.0
 10
599.700181
 20
166.017275
 30
0.0
 10
599.985846
 20
166.513605
 30
0.0
 10
599.984745
 20
167.050228
 30
0.0
  0
LWPOLYLINE
  5
170
100
AcDbEntity
  8
0
 62
1
100
AcDbPolyline
 90
6
 70
1
 10
409.690034
 20
183.829355
 30
0.0
 10
409.690034
 20
183.829355
 30
0.0
 10
409.690034
 20
183.829355
 30
0.0
 10
409.690034
 20
183.829355
 30
0.0
 10
409.690034
 20
183.829355
 30
0.0
 10
409.690034
 20
183.829355
 30
0.0
  0
LWPOLYLINE
  5
171
100
AcDbEntity
  8
0
 62
1
100
AcDbPolyline
 90
6
 70
1
 10
436.276496
 20
126.813258
 30
0.0
 10
436.276496
 20
126.813258
 30
0.0
 10
436.276496
 20
126.813258
 30
0.0
 10
436.276496
 20
126.813258
 30
0.0
 10
436.276496
 20
126.813258
 30
0.0
 10
436.276496
 20
126.813258
 30
0.0
  0
LWPOLYLINE
  5
172
100
AcDbEntity
  8
0
 62
1
100
AcDbPolyline
 90
6
 70
1
 10
519.578731
 20
163.643862
 30
0.0
 10
519.578731
 20
163.643862
 30
0.0
 10
519.578731
 20
163.643862
 30
0.0
 10
519.578731
 20
163.643862
 30
0.0
 10
519.578731
 20
163.643862
 30
0.0
 10
519.578731
 20
163.643862
 30
0.0
  0
SPLINE
  5
173
100
AcDbEntity
  8
0
 62
1
100
AcDbSpline
 70
8
 71
3
 72
8
 73
4
 74
0
 40
0
 40
0
 40
0
 40
0
 40
1
 40
1
 40
1
 40
1
 10
214.756915
 20
184.551934
 30
0.0
 10
212.036414
 20
184.551934
 30
0.0
 10
209.562316
 20
182.975704
 30
0.0
 10
208.412664
 20
180.510055
 30
0.0
  0
SPLINE
  5
174
100
AcDbEntity
  8
0
 62
1
100
AcDbSpline
 70
8
 71
3
 72
8
 73
4
 74
0
 40
0
 40
0
 40
0
 40
0
 40
1
 40
1
 40
1
 40
1
 10
402.824809
 20
180.508178
 30
0.0
 10
401.675148
 20
182.973844
 30
0.0
 10
399.201047
 20
184.550083
 30
0.0
 10
396.480538
 20
184.550080
 30
0.0
  0
LWPOLYLINE
  5
175
100
AcDbEntity
  8
0
 62
1
100
AcDbPolyline
 90
6
 70
1
 10
599.984745
 20
167.050228
 30
0.0
 10
599.984745
 20
167.050228
 30
0.0
 10
599.984745
 20
167.050228
 30
0.0
 10
599.984745
 20
167.050228
 30
0.0
 10
599.984745
 20
167.050228
 30
0.0
 10
599.984745
 20
167.050228
 30
0.0
  0
LWPOLYLINE
  5
176
100
AcDbEntity
  8
0
 62
1
100
AcDbPolyline
 90
2
 70
0
 10
428.748585
 20
129.930854
 30
0.0
 10
428.748585
 20
129.930854
 30
0.0
  0
LWPOLYLINE
  5
177
100
AcDbEntity
  8
0
 62
1
100
AcDbPolyline
 90
2
 70
0
 10
604.748600
 20
166.198848
 30
0.0
 10
604.748600
 20
290.628869
 30
0.0
  0
LWPOLYLINE
  5
178
100
AcDbEntity
  8
0
 62
1
100
AcDbPolyline
 90
2
 70
0
 10
396.590746
 20
184.552818
 30
0.0
 10
214.732035
 20
184.552806
 30
0.0
  0
ENDSEC
  0
SECTION
  2
OBJECTS
  0
DICTIONARY
  5
C
330
0
100
AcDbDictionary
  3
ACAD_GROUP
350
D
  3
ACAD_MLINESTYLE
350
17
  0
DICTIONARY
  5
D
330
C
100
AcDbDictionary
  0
DICTIONARY
  5
1A
330
C
100
AcDbDictionary
  0
DICTIONARY
  5
17
330
C
100
AcDbDictionary
  3
STANDARD
350
18
  0
DICTIONARY
  5
19
330
C
100
AcDbDictionary
  0
ENDSEC
  0
EOF
