  0
SECTION
  2
HEADER
  9
$ACADVER
  1
AC1014
  9
$HANDSEED
  5
FFFF
  9
$MEASUREMENT
 70
     1
  0
ENDSEC
  0
SECTION
  2
TABLES
  0
TABLE
  2
VPORT
  5
8
330
0
100
AcDbSymbolTable
 70
     4
  0
VPORT
  5
2E
330
8
100
AcDbSymbolTableRecord
100
AcDbViewportTableRecord
  2
*ACTIVE
 70
     0
 10
0.0
 20
0.0
 11
1.0
 21
1.0
 12
210.0
 22
148.5
 13
0.0
 23
0.0
 14
10.0
 24
10.0
 15
10.0
 25
10.0
 16
0.0
 26
0.0
 36
1.0
 17
0.0
 27
0.0
 37
0.0
 40
341.0
 41
1.24
 42
50.0
 43
0.0
 44
0.0
 50
0.0
 51
0.0
 71
     0
 72
   100
 73
     1
 74
     3
 75
     0
 76
     0
 77
     0
 78
     0
  0
ENDTAB
  0
TABLE
  2
LTYPE
  5
5
330
0
100
AcDbSymbolTable
 70
     1
  0
LTYPE
  5
14
330
5
100
AcDbSymbolTableRecord
100
AcDbLinetypeTableRecord
  2
BYBLOCK
 70
     0
  3

 72
    65
 73
     0
 40
0.0
  0
LTYPE
  5
15
330
5
100
AcDbSymbolTableRecord
100
AcDbLinetypeTableRecord
  2
BYLAYER
 70
     0
  3

 72
    65
 73
     0
 40
0.0
  0
LTYPE
  5
16
330
5
100
AcDbSymbolTableRecord
100
AcDbLinetypeTableRecord
  2
CONTINUOUS
 70
     0
  3
Solid line
 72
    65
 73
     0
 40
0.0
  0
ENDTAB
  0
TABLE
  2
LAYER
  5
2
100
AcDbSymbolTable
 70
2
  0
LAYER
  5
50
100
AcDbSymbolTableRecord
100
AcDbLayerTableRecord
  2
0
 70
0
  6
CONTINUOUS
  0
LAYER
  5
51
100
AcDbSymbolTableRecord
100
AcDbLayerTableRecord
  2
Layer_1
 70
0
  6
CONTINUOUS
  0
ENDTAB
  0
TABLE
  2
STYLE
  5
3
330
0
100
AcDbSymbolTable
 70
     1
  0
STYLE
  5
11
330
3
100
AcDbSymbolTableRecord
100
AcDbTextStyleTableRecord
  2
STANDARD
 70
     0
 40
0.0
 41
1.0
 50
0.0
 71
     0
 42
2.5
  3
txt
  4

  0
ENDTAB
  0
TABLE
  2
VIEW
  5
6
330
0
100
AcDbSymbolTable
 70
     0
  0
ENDTAB
  0
TABLE
  2
UCS
  5
7
330
0
100
AcDbSymbolTable
 70
     0
  0
ENDTAB
  0
TABLE
  2
APPID
  5
9
330
0
100
AcDbSymbolTable
 70
     2
  0
APPID
  5
12
330
9
100
AcDbSymbolTableRecord
100
AcDbRegAppTableRecord
  2
ACAD
 70
     0
  0
ENDTAB
  0
TABLE
  2
DIMSTYLE
  5
A
330
0
100
AcDbSymbolTable
 70
     1
  0
DIMSTYLE
105
27
330
A
100
AcDbSymbolTableRecord
100
AcDbDimStyleTableRecord
  2
ISO-25
 70
     0
  3

  4

  5

  6

  7

 40
1.0
 41
2.5
 42
0.625
 43
3.75
 44
1.25
 45
0.0
 46
0.0
 47
0.0
 48
0.0
140
2.5
141
2.5
142
0.0
143
0.03937007874016
144
1.0
145
0.0
146
1.0
147
0.625
 71
     0
 72
     0
 73
     0
 74
     0
 75
     0
 76
     0
 77
     1
 78
     8
170
     0
171
     3
172
     1
173
     0
174
     0
175
     0
176
     0
177
     0
178
     0
270
     2
271
     2
272
     2
273
     2
274
     3
340
11
275
     0
280
     0
281
     0
282
     0
283
     0
284
     8
285
     0
286
     0
287
     3
288
     0
  0
ENDTAB
  0
TABLE
  2
BLOCK_RECORD
  5
1
330
0
100
AcDbSymbolTable
 70
     1
  0
BLOCK_RECORD
  5
1F
330
1
100
AcDbSymbolTableRecord
100
AcDbBlockTableRecord
  2
*MODEL_SPACE
  0
BLOCK_RECORD
  5
1B
330
1
100
AcDbSymbolTableRecord
100
AcDbBlockTableRecord
  2
*PAPER_SPACE
  0
ENDTAB
  0
ENDSEC
  0
SECTION
  2
BLOCKS
  0
BLOCK
  5
20
330
1F
100
AcDbEntity
  8
0
100
AcDbBlockBegin
  2
*MODEL_SPACE
 70
     0
 10
0.0
 20
0.0
 30
0.0
  3
*MODEL_SPACE
  1

  0
ENDBLK
  5
21
330
1F
100
AcDbEntity
  8
0
100
AcDbBlockEnd
  0
BLOCK
  5
1C
330
1B
100
AcDbEntity
 67
     1
  8
0
100
AcDbBlockBegin
  2
*PAPER_SPACE
  1

  0
ENDBLK
  5
1D
330
1B
100
AcDbEntity
 67
     1
  8
0
100
AcDbBlockEnd
  0
ENDSEC
  0
SECTION
  2
ENTITIES
  0
SPLINE
  5
100
100
AcDbEntity
  8
Layer_1
 62
1
100
AcDbSpline
 70
8
 71
3
 72
8
 73
4
 74
0
 40
0
 40
0
 40
0
 40
0
 40
1
 40
1
 40
1
 40
1
 10
8.053136
 20
7.237376
 30
0.0
 10
8.053149
 20
7.258483
 30
0.0
 10
8.041896
 20
7.277992
 30
0.0
 10
8.023619
 20
7.288549
 30
0.0
  0
SPLINE
  5
101
100
AcDbEntity
  8
Layer_1
 62
1
100
AcDbSpline
 70
8
 71
3
 72
8
 73
4
 74
0
 40
0
 40
0
 40
0
 40
0
 40
1
 40
1
 40
1
 40
1
 10
8.023619
 20
7.288549
 30
0.0
 10
8.005342
 20
7.299106
 30
0.0
 10
7.982820
 20
7.299106
 30
0.0
 10
7.964543
 20
7.288549
 30
0.0
  0
SPLINE
  5
102
100
AcDbEntity
  8
Layer_1
 62
1
100
AcDbSpline
 70
8
 71
3
 72
8
 73
4
 74
0
 40
0
 40
0
 40
0
 40
0
 40
1
 40
1
 40
1
 40
1
 10
7.964543
 20
7.288549
 30
0.0
 10
7.946266
 20
7.277992
 30
0.0
 10
7.935012
 20
7.258483
 30
0.0
 10
7.935025
 20
7.237376
 30
0.0
  0
SPLINE
  5
103
100
AcDbEntity
  8
Layer_1
 62
1
100
AcDbSpline
 70
8
 71
3
 72
8
 73
4
 74
0
 40
0
 40
0
 40
0
 40
0
 40
1
 40
1
 40
1
 40
1
 10
7.935025
 20
7.237376
 30
0.0
 10
7.935012
 20
7.216269
 30
0.0
 10
7.946266
 20
7.196760
 30
0.0
 10
7.964543
 20
7.186202
 30
0.0
  0
SPLINE
  5
104
100
AcDbEntity
  8
Layer_1
 62
1
100
AcDbSpline
 70
8
 71
3
 72
8
 73
4
 74
0
 40
0
 40
0
 40
0
 40
0
 40
1
 40
1
 40
1
 40
1
 10
7.964543
 20
7.186202
 30
0.0
 10
7.982820
 20
7.175645
 30
0.0
 10
8.005342
 20
7.175645
 30
0.0
 10
8.023619
 20
7.186202
 30
0.0
  0
SPLINE
  5
105
100
AcDbEntity
  8
Layer_1
 62
1
100
AcDbSpline
 70
8
 71
3
 72
8
 73
4
 74
0
 40
0
 40
0
 40
0
 40
0
 40
1
 40
1
 40
1
 40
1
 10
8.023619
 20
7.186202
 30
0.0
 10
8.041896
 20
7.196760
 30
0.0
 10
8.053149
 20
7.216269
 30
0.0
 10
8.053136
 20
7.237376
 30
0.0
  0
SPLINE
  5
106
100
AcDbEntity
  8
Layer_1
 62
1
100
AcDbSpline
 70
8
 71
3
 72
8
 73
4
 74
0
 40
0
 40
0
 40
0
 40
0
 40
1
 40
1
 40
1
 40
1
 10
3.726811
 20
6.442672
 30
0.0
 10
3.726824
 20
6.463779
 30
0.0
 10
3.715571
 20
6.483288
 30
0.0
 10
3.697294
 20
6.493845
 30
0.0
  0
SPLINE
  5
107
100
AcDbEntity
  8
Layer_1
 62
1
100
AcDbSpline
 70
8
 71
3
 72
8
 73
4
 74
0
 40
0
 40
0
 40
0
 40
0
 40
1
 40
1
 40
1
 40
1
 10
3.697294
 20
6.493845
 30
0.0
 10
3.679017
 20
6.504402
 30
0.0
 10
3.656495
 20
6.504402
 30
0.0
 10
3.638218
 20
6.493845
 30
0.0
  0
SPLINE
  5
108
100
AcDbEntity
  8
Layer_1
 62
1
100
AcDbSpline
 70
8
 71
3
 72
8
 73
4
 74
0
 40
0
 40
0
 40
0
 40
0
 40
1
 40
1
 40
1
 40
1
 10
3.638218
 20
6.493845
 30
0.0
 10
3.619941
 20
6.483288
 30
0.0
 10
3.608687
 20
6.463779
 30
0.0
 10
3.608700
 20
6.442672
 30
0.0
  0
SPLINE
  5
109
100
AcDbEntity
  8
Layer_1
 62
1
100
AcDbSpline
 70
8
 71
3
 72
8
 73
4
 74
0
 40
0
 40
0
 40
0
 40
0
 40
1
 40
1
 40
1
 40
1
 10
3.608700
 20
6.442672
 30
0.0
 10
3.608687
 20
6.421565
 30
0.0
 10
3.619941
 20
6.402055
 30
0.0
 10
3.638218
 20
6.391498
 30
0.0
  0
SPLINE
  5
10a
100
AcDbEntity
  8
Layer_1
 62
1
100
AcDbSpline
 70
8
 71
3
 72
8
 73
4
 74
0
 40
0
 40
0
 40
0
 40
0
 40
1
 40
1
 40
1
 40
1
 10
3.638218
 20
6.391498
 30
0.0
 10
3.656495
 20
6.380941
 30
0.0
 10
3.679017
 20
6.380941
 30
0.0
 10
3.697294
 20
6.391498
 30
0.0
  0
SPLINE
  5
10b
100
AcDbEntity
  8
Layer_1
 62
1
100
AcDbSpline
 70
8
 71
3
 72
8
 73
4
 74
0
 40
0
 40
0
 40
0
 40
0
 40
1
 40
1
 40
1
 40
1
 10
3.697294
 20
6.391498
 30
0.0
 10
3.715571
 20
6.402055
 30
0.0
 10
3.726824
 20
6.421565
 30
0.0
 10
3.726811
 20
6.442672
 30
0.0
  0
LWPOLYLINE
  5
10c
100
AcDbEntity
  8
Layer_1
 62
1
100
AcDbPolyline
 90
2
 70
1
 10
8.053136
 20
7.237376
 30
0.0
 10
8.053136
 20
7.237376
 30
0.0
  0
SPLINE
  5
10d
100
AcDbEntity
  8
Layer_1
 62
1
100
AcDbSpline
 70
8
 71
3
 72
8
 73
4
 74
0
 40
0
 40
0
 40
0
 40
0
 40
1
 40
1
 40
1
 40
1
 10
0.561220
 20
6.576781
 30
0.0
 10
0.561233
 20
6.597888
 30
0.0
 10
0.549980
 20
6.617397
 30
0.0
 10
0.531703
 20
6.627954
 30
0.0
  0
SPLINE
  5
10e
100
AcDbEntity
  8
Layer_1
 62
1
100
AcDbSpline
 70
8
 71
3
 72
8
 73
4
 74
0
 40
0
 40
0
 40
0
 40
0
 40
1
 40
1
 40
1
 40
1
 10
0.531703
 20
6.627954
 30
0.0
 10
0.513426
 20
6.638512
 30
0.0
 10
0.490904
 20
6.638512
 30
0.0
 10
0.472627
 20
6.627954
 30
0.0
  0
SPLINE
  5
10f
100
AcDbEntity
  8
Layer_1
 62
1
100
AcDbSpline
 70
8
 71
3
 72
8
 73
4
 74
0
 40
0
 40
0
 40
0
 40
0
 40
1
 40
1
 40
1
 40
1
 10
0.472627
 20
6.627954
 30
0.0
 10
0.454350
 20
6.617397
 30
0.0
 10
0.443097
 20
6.597888
 30
0.0
 10
0.443110
 20
6.576781
 30
0.0
  0
SPLINE
  5
110
100
AcDbEntity
  8
Layer_1
 62
1
100
AcDbSpline
 70
8
 71
3
 72
8
 73
4
 74
0
 40
0
 40
0
 40
0
 40
0
 40
1
 40
1
 40
1
 40
1
 10
0.443110
 20
6.576781
 30
0.0
 10
0.443130
 20
6.544180
 30
0.0
 10
0.469564
 20
6.517762
 30
0.0
 10
0.502165
 20
6.517762
 30
0.0
  0
SPLINE
  5
111
100
AcDbEntity
  8
Layer_1
 62
1
100
AcDbSpline
 70
8
 71
3
 72
8
 73
4
 74
0
 40
0
 40
0
 40
0
 40
0
 40
1
 40
1
 40
1
 40
1
 10
0.502165
 20
6.517762
 30
0.0
 10
0.534766
 20
6.517762
 30
0.0
 10
0.561200
 20
6.544180
 30
0.0
 10
0.561220
 20
6.576781
 30
0.0
  0
LWPOLYLINE
  5
112
100
AcDbEntity
  8
Layer_1
 62
1
100
AcDbPolyline
 90
2
 70
1
 10
3.726811
 20
6.442672
 30
0.0
 10
3.726811
 20
6.442672
 30
0.0
  0
LWPOLYLINE
  5
113
100
AcDbEntity
  8
Layer_1
 62
1
100
AcDbPolyline
 90
2
 70
1
 10
0.561220
 20
6.576781
 30
0.0
 10
0.561220
 20
6.576781
 30
0.0
  0
LWPOLYLINE
  5
114
100
AcDbEntity
  8
Layer_1
 62
1
100
AcDbPolyline
 90
2
 70
0
 10
0.255556
 20
6.543262
 30
0.0
 10
0.255556
 20
11.442081
 30
0.0
  0
LWPOLYLINE
  5
115
100
AcDbEntity
  8
Layer_1
 62
1
100
AcDbPolyline
 90
2
 70
0
 10
0.530467
 20
11.717672
 30
0.0
 10
21.289201
 20
11.717672
 30
0.0
  0
LWPOLYLINE
  5
116
100
AcDbEntity
  8
Layer_1
 62
1
100
AcDbPolyline
 90
2
 70
0
 10
8.205357
 20
7.106899
 30
0.0
 10
7.183137
 20
4.914723
 30
0.0
  0
SPLINE
  5
117
100
AcDbEntity
  8
Layer_1
 62
1
100
AcDbSpline
 70
8
 71
3
 72
8
 73
4
 74
0
 40
0
 40
0
 40
0
 40
0
 40
1
 40
1
 40
1
 40
1
 10
0.561220
 20
11.471062
 30
0.0
 10
0.561220
 20
11.492161
 30
0.0
 10
0.549964
 20
11.511657
 30
0.0
 10
0.531692
 20
11.522206
 30
0.0
  0
SPLINE
  5
118
100
AcDbEntity
  8
Layer_1
 62
1
100
AcDbSpline
 70
8
 71
3
 72
8
 73
4
 74
0
 40
0
 40
0
 40
0
 40
0
 40
1
 40
1
 40
1
 40
1
 10
0.531692
 20
11.522206
 30
0.0
 10
0.513421
 20
11.532755
 30
0.0
 10
0.490909
 20
11.532755
 30
0.0
 10
0.472637
 20
11.522206
 30
0.0
  0
SPLINE
  5
119
100
AcDbEntity
  8
Layer_1
 62
1
100
AcDbSpline
 70
8
 71
3
 72
8
 73
4
 74
0
 40
0
 40
0
 40
0
 40
0
 40
1
 40
1
 40
1
 40
1
 10
0.472637
 20
11.522206
 30
0.0
 10
0.454366
 20
11.511657
 30
0.0
 10
0.443110
 20
11.492161
 30
0.0
 10
0.443110
 20
11.471062
 30
0.0
  0
SPLINE
  5
11a
100
AcDbEntity
  8
Layer_1
 62
1
100
AcDbSpline
 70
8
 71
3
 72
8
 73
4
 74
0
 40
0
 40
0
 40
0
 40
0
 40
1
 40
1
 40
1
 40
1
 10
0.443110
 20
11.471062
 30
0.0
 10
0.443110
 20
11.449964
 30
0.0
 10
0.454366
 20
11.430468
 30
0.0
 10
0.472637
 20
11.419919
 30
0.0
  0
SPLINE
  5
11b
100
AcDbEntity
  8
Layer_1
 62
1
100
AcDbSpline
 70
8
 71
3
 72
8
 73
4
 74
0
 40
0
 40
0
 40
0
 40
0
 40
1
 40
1
 40
1
 40
1
 10
0.472637
 20
11.419919
 30
0.0
 10
0.490909
 20
11.409370
 30
0.0
 10
0.513421
 20
11.409370
 30
0.0
 10
0.531692
 20
11.419919
 30
0.0
  0
SPLINE
  5
11c
100
AcDbEntity
  8
Layer_1
 62
1
100
AcDbSpline
 70
8
 71
3
 72
8
 73
4
 74
0
 40
0
 40
0
 40
0
 40
0
 40
1
 40
1
 40
1
 40
1
 10
0.531692
 20
11.419919
 30
0.0
 10
0.549964
 20
11.430468
 30
0.0
 10
0.561220
 20
11.449964
 30
0.0
 10
0.561220
 20
11.471062
 30
0.0
  0
LWPOLYLINE
  5
11d
100
AcDbEntity
  8
Layer_1
 62
1
100
AcDbPolyline
 90
2
 70
0
 10
6.816917
 20
4.781413
 30
0.0
 10
3.684320
 20
6.241860
 30
0.0
  0
SPLINE
  5
11e
100
AcDbEntity
  8
Layer_1
 62
1
100
AcDbSpline
 70
8
 71
3
 72
8
 73
4
 74
0
 40
0
 40
0
 40
0
 40
0
 40
1
 40
1
 40
1
 40
1
 10
4.304111
 20
11.542672
 30
0.0
 10
4.304124
 20
11.563779
 30
0.0
 10
4.292871
 20
11.583288
 30
0.0
 10
4.274594
 20
11.593845
 30
0.0
  0
SPLINE
  5
11f
100
AcDbEntity
  8
Layer_1
 62
1
100
AcDbSpline
 70
8
 71
3
 72
8
 73
4
 74
0
 40
0
 40
0
 40
0
 40
0
 40
1
 40
1
 40
1
 40
1
 10
4.274594
 20
11.593845
 30
0.0
 10
4.256317
 20
11.604402
 30
0.0
 10
4.233795
 20
11.604402
 30
0.0
 10
4.215518
 20
11.593845
 30
0.0
  0
SPLINE
  5
120
100
AcDbEntity
  8
Layer_1
 62
1
100
AcDbSpline
 70
8
 71
3
 72
8
 73
4
 74
0
 40
0
 40
0
 40
0
 40
0
 40
1
 40
1
 40
1
 40
1
 10
4.215518
 20
11.593845
 30
0.0
 10
4.197241
 20
11.583288
 30
0.0
 10
4.185987
 20
11.563779
 30
0.0
 10
4.186000
 20
11.542672
 30
0.0
  0
SPLINE
  5
121
100
AcDbEntity
  8
Layer_1
 62
1
100
AcDbSpline
 70
8
 71
3
 72
8
 73
4
 74
0
 40
0
 40
0
 40
0
 40
0
 40
1
 40
1
 40
1
 40
1
 10
4.186000
 20
11.542672
 30
0.0
 10
4.185987
 20
11.521565
 30
0.0
 10
4.197241
 20
11.502056
 30
0.0
 10
4.215518
 20
11.491498
 30
0.0
  0
SPLINE
  5
122
100
AcDbEntity
  8
Layer_1
 62
1
100
AcDbSpline
 70
8
 71
3
 72
8
 73
4
 74
0
 40
0
 40
0
 40
0
 40
0
 40
1
 40
1
 40
1
 40
1
 10
4.215518
 20
11.491498
 30
0.0
 10
4.233795
 20
11.480941
 30
0.0
 10
4.256317
 20
11.480941
 30
0.0
 10
4.274594
 20
11.491498
 30
0.0
  0
SPLINE
  5
123
100
AcDbEntity
  8
Layer_1
 62
1
100
AcDbSpline
 70
8
 71
3
 72
8
 73
4
 74
0
 40
0
 40
0
 40
0
 40
0
 40
1
 40
1
 40
1
 40
1
 10
4.274594
 20
11.491498
 30
0.0
 10
4.292871
 20
11.502056
 30
0.0
 10
4.304124
 20
11.521565
 30
0.0
 10
4.304111
 20
11.542672
 30
0.0
  0
LWPOLYLINE
  5
124
100
AcDbEntity
  8
Layer_1
 62
1
100
AcDbPolyline
 90
2
 70
1
 10
0.561220
 20
11.471062
 30
0.0
 10
0.561220
 20
11.471062
 30
0.0
  0
LWPOLYLINE
  5
125
100
AcDbEntity
  8
Layer_1
 62
1
100
AcDbPolyline
 90
2
 70
1
 10
4.304111
 20
11.542672
 30
0.0
 10
4.304111
 20
11.542672
 30
0.0
  0
SPLINE
  5
126
100
AcDbEntity
  8
Layer_1
 62
1
100
AcDbSpline
 70
8
 71
3
 72
8
 73
4
 74
0
 40
0
 40
0
 40
0
 40
0
 40
1
 40
1
 40
1
 40
1
 10
6.409751
 20
11.471062
 30
0.0
 10
6.409751
 20
11.492161
 30
0.0
 10
6.398496
 20
11.511657
 30
0.0
 10
6.380224
 20
11.522206
 30
0.0
  0
SPLINE
  5
127
100
AcDbEntity
  8
Layer_1
 62
1
100
AcDbSpline
 70
8
 71
3
 72
8
 73
4
 74
0
 40
0
 40
0
 40
0
 40
0
 40
1
 40
1
 40
1
 40
1
 10
6.380224
 20
11.522206
 30
0.0
 10
6.361952
 20
11.532755
 30
0.0
 10
6.339440
 20
11.532755
 30
0.0
 10
6.321169
 20
11.522206
 30
0.0
  0
SPLINE
  5
128
100
AcDbEntity
  8
Layer_1
 62
1
100
AcDbSpline
 70
8
 71
3
 72
8
 73
4
 74
0
 40
0
 40
0
 40
0
 40
0
 40
1
 40
1
 40
1
 40
1
 10
6.321169
 20
11.522206
 30
0.0
 10
6.302897
 20
11.511657
 30
0.0
 10
6.291641
 20
11.492161
 30
0.0
 10
6.291641
 20
11.471062
 30
0.0
  0
SPLINE
  5
129
100
AcDbEntity
  8
Layer_1
 62
1
100
AcDbSpline
 70
8
 71
3
 72
8
 73
4
 74
0
 40
0
 40
0
 40
0
 40
0
 40
1
 40
1
 40
1
 40
1
 10
6.291641
 20
11.471062
 30
0.0
 10
6.291641
 20
11.438447
 30
0.0
 10
6.318081
 20
11.412007
 30
0.0
 10
6.350696
 20
11.412007
 30
0.0
  0
SPLINE
  5
12a
100
AcDbEntity
  8
Layer_1
 62
1
100
AcDbSpline
 70
8
 71
3
 72
8
 73
4
 74
0
 40
0
 40
0
 40
0
 40
0
 40
1
 40
1
 40
1
 40
1
 10
6.350696
 20
11.412007
 30
0.0
 10
6.383312
 20
11.412007
 30
0.0
 10
6.409751
 20
11.438447
 30
0.0
 10
6.409751
 20
11.471062
 30
0.0
  0
LWPOLYLINE
  5
12b
100
AcDbEntity
  8
Layer_1
 62
1
100
AcDbPolyline
 90
2
 70
0
 10
3.567870
 20
6.267672
 30
0.0
 10
0.531146
 20
6.267672
 30
0.0
  0
SPLINE
  5
12c
100
AcDbEntity
  8
Layer_1
 62
1
100
AcDbSpline
 70
8
 71
3
 72
8
 73
4
 74
0
 40
0
 40
0
 40
0
 40
0
 40
1
 40
1
 40
1
 40
1
 10
0.531146
 20
11.717672
 30
0.0
 10
0.458055
 20
11.717672
 30
0.0
 10
0.387957
 20
11.688636
 30
0.0
 10
0.336274
 20
11.636953
 30
0.0
  0
SPLINE
  5
12d
100
AcDbEntity
  8
Layer_1
 62
1
100
AcDbSpline
 70
8
 71
3
 72
8
 73
4
 74
0
 40
0
 40
0
 40
0
 40
0
 40
1
 40
1
 40
1
 40
1
 10
0.336274
 20
11.636953
 30
0.0
 10
0.284591
 20
11.585270
 30
0.0
 10
0.255556
 20
11.515172
 30
0.0
 10
0.255556
 20
11.442081
 30
0.0
  0
SPLINE
  5
12e
100
AcDbEntity
  8
Layer_1
 62
1
100
AcDbSpline
 70
8
 71
3
 72
8
 73
4
 74
0
 40
0
 40
0
 40
0
 40
0
 40
1
 40
1
 40
1
 40
1
 10
0.255556
 20
6.543262
 30
0.0
 10
0.255556
 20
6.470171
 30
0.0
 10
0.284591
 20
6.400073
 30
0.0
 10
0.336274
 20
6.348390
 30
0.0
  0
SPLINE
  5
12f
100
AcDbEntity
  8
Layer_1
 62
1
100
AcDbSpline
 70
8
 71
3
 72
8
 73
4
 74
0
 40
0
 40
0
 40
0
 40
0
 40
1
 40
1
 40
1
 40
1
 10
0.336274
 20
6.348390
 30
0.0
 10
0.387957
 20
6.296707
 30
0.0
 10
0.458055
 20
6.267672
 30
0.0
 10
0.531146
 20
6.267672
 30
0.0
  0
SPLINE
  5
130
100
AcDbEntity
  8
Layer_1
 62
1
100
AcDbSpline
 70
8
 71
3
 72
8
 73
4
 74
0
 40
0
 40
0
 40
0
 40
0
 40
1
 40
1
 40
1
 40
1
 10
6.816917
 20
4.781413
 30
0.0
 10
6.954859
 20
4.717103
 30
0.0
 10
7.118817
 20
4.776787
 30
0.0
 10
7.183137
 20
4.914723
 30
0.0
  0
SPLINE
  5
131
100
AcDbEntity
  8
Layer_1
 62
1
100
AcDbSpline
 70
8
 71
3
 72
8
 73
4
 74
0
 40
0
 40
0
 40
0
 40
0
 40
1
 40
1
 40
1
 40
1
 10
3.684320
 20
6.241860
 30
0.0
 10
3.647853
 20
6.258862
 30
0.0
 10
3.608106
 20
6.267672
 30
0.0
 10
3.567870
 20
6.267672
 30
0.0
  0
LWPOLYLINE
  5
132
100
AcDbEntity
  8
Layer_1
 62
1
100
AcDbPolyline
 90
2
 70
1
 10
6.409751
 20
11.471062
 30
0.0
 10
6.409751
 20
11.471062
 30
0.0
  0
SPLINE
  5
133
100
AcDbEntity
  8
Layer_1
 62
1
100
AcDbSpline
 70
8
 71
3
 72
8
 73
4
 74
0
 40
0
 40
0
 40
0
 40
0
 40
1
 40
1
 40
1
 40
1
 10
7.006426
 20
4.992649
 30
0.0
 10
7.006439
 20
5.013756
 30
0.0
 10
6.995185
 20
5.033265
 30
0.0
 10
6.976908
 20
5.043822
 30
0.0
  0
SPLINE
  5
134
100
AcDbEntity
  8
Layer_1
 62
1
100
AcDbSpline
 70
8
 71
3
 72
8
 73
4
 74
0
 40
0
 40
0
 40
0
 40
0
 40
1
 40
1
 40
1
 40
1
 10
6.976908
 20
5.043822
 30
0.0
 10
6.958631
 20
5.054379
 30
0.0
 10
6.936109
 20
5.054379
 30
0.0
 10
6.917832
 20
5.043822
 30
0.0
  0
SPLINE
  5
135
100
AcDbEntity
  8
Layer_1
 62
1
100
AcDbSpline
 70
8
 71
3
 72
8
 73
4
 74
0
 40
0
 40
0
 40
0
 40
0
 40
1
 40
1
 40
1
 40
1
 10
6.917832
 20
5.043822
 30
0.0
 10
6.899555
 20
5.033265
 30
0.0
 10
6.888302
 20
5.013756
 30
0.0
 10
6.888315
 20
4.992649
 30
0.0
  0
SPLINE
  5
136
100
AcDbEntity
  8
Layer_1
 62
1
100
AcDbSpline
 70
8
 71
3
 72
8
 73
4
 74
0
 40
0
 40
0
 40
0
 40
0
 40
1
 40
1
 40
1
 40
1
 10
6.888315
 20
4.992649
 30
0.0
 10
6.888302
 20
4.971542
 30
0.0
 10
6.899555
 20
4.952033
 30
0.0
 10
6.917832
 20
4.941475
 30
0.0
  0
SPLINE
  5
137
100
AcDbEntity
  8
Layer_1
 62
1
100
AcDbSpline
 70
8
 71
3
 72
8
 73
4
 74
0
 40
0
 40
0
 40
0
 40
0
 40
1
 40
1
 40
1
 40
1
 10
6.917832
 20
4.941475
 30
0.0
 10
6.936109
 20
4.930918
 30
0.0
 10
6.958631
 20
4.930918
 30
0.0
 10
6.976908
 20
4.941475
 30
0.0
  0
SPLINE
  5
138
100
AcDbEntity
  8
Layer_1
 62
1
100
AcDbSpline
 70
8
 71
3
 72
8
 73
4
 74
0
 40
0
 40
0
 40
0
 40
0
 40
1
 40
1
 40
1
 40
1
 10
6.976908
 20
4.941475
 30
0.0
 10
6.995185
 20
4.952033
 30
0.0
 10
7.006439
 20
4.971542
 30
0.0
 10
7.006426
 20
4.992649
 30
0.0
  0
LWPOLYLINE
  5
139
100
AcDbEntity
  8
Layer_1
 62
1
100
AcDbPolyline
 90
2
 70
0
 10
7.184689
 20
5.115389
 30
0.0
 10
7.184689
 20
5.115389
 30
0.0
  0
LWPOLYLINE
  5
13a
100
AcDbEntity
  8
Layer_1
 62
1
100
AcDbPolyline
 90
2
 70
1
 10
7.006426
 20
4.992649
 30
0.0
 10
7.006426
 20
4.992649
 30
0.0
  0
SPLINE
  5
13b
100
AcDbEntity
  8
Layer_1
 62
1
100
AcDbSpline
 70
8
 71
3
 72
8
 73
4
 74
0
 40
0
 40
0
 40
0
 40
0
 40
1
 40
1
 40
1
 40
1
 10
5.622004
 20
10.669884
 30
0.0
 10
5.622020
 20
10.690993
 30
0.0
 10
5.610768
 20
10.710505
 30
0.0
 10
5.592490
 20
10.721065
 30
0.0
  0
SPLINE
  5
13c
100
AcDbEntity
  8
Layer_1
 62
1
100
AcDbSpline
 70
8
 71
3
 72
8
 73
4
 74
0
 40
0
 40
0
 40
0
 40
0
 40
1
 40
1
 40
1
 40
1
 10
5.592490
 20
10.721065
 30
0.0
 10
5.574211
 20
10.731624
 30
0.0
 10
5.551687
 20
10.731624
 30
0.0
 10
5.533409
 20
10.721065
 30
0.0
  0
SPLINE
  5
13d
100
AcDbEntity
  8
Layer_1
 62
1
100
AcDbSpline
 70
8
 71
3
 72
8
 73
4
 74
0
 40
0
 40
0
 40
0
 40
0
 40
1
 40
1
 40
1
 40
1
 10
5.533409
 20
10.721065
 30
0.0
 10
5.515131
 20
10.710505
 30
0.0
 10
5.503878
 20
10.690993
 30
0.0
 10
5.503894
 20
10.669884
 30
0.0
  0
SPLINE
  5
13e
100
AcDbEntity
  8
Layer_1
 62
1
100
AcDbSpline
 70
8
 71
3
 72
8
 73
4
 74
0
 40
0
 40
0
 40
0
 40
0
 40
1
 40
1
 40
1
 40
1
 10
5.503894
 20
10.669884
 30
0.0
 10
5.503919
 20
10.637286
 30
0.0
 10
5.530351
 20
10.610873
 30
0.0
 10
5.562949
 20
10.610873
 30
0.0
  0
SPLINE
  5
13f
100
AcDbEntity
  8
Layer_1
 62
1
100
AcDbSpline
 70
8
 71
3
 72
8
 73
4
 74
0
 40
0
 40
0
 40
0
 40
0
 40
1
 40
1
 40
1
 40
1
 10
5.562949
 20
10.610873
 30
0.0
 10
5.595547
 20
10.610873
 30
0.0
 10
5.621980
 20
10.637286
 30
0.0
 10
5.622004
 20
10.669884
 30
0.0
  0
LWPOLYLINE
  5
140
100
AcDbEntity
  8
Layer_1
 62
1
100
AcDbPolyline
 90
2
 70
0
 10
7.184689
 20
5.115389
 30
0.0
 10
7.184689
 20
5.115389
 30
0.0
  0
SPLINE
  5
141
100
AcDbEntity
  8
Layer_1
 62
1
100
AcDbSpline
 70
8
 71
3
 72
8
 73
4
 74
0
 40
0
 40
0
 40
0
 40
0
 40
1
 40
1
 40
1
 40
1
 10
1.291296
 20
10.669884
 30
0.0
 10
1.291296
 20
10.690983
 30
0.0
 10
1.280040
 20
10.710478
 30
0.0
 10
1.261768
 20
10.721028
 30
0.0
  0
SPLINE
  5
142
100
AcDbEntity
  8
Layer_1
 62
1
100
AcDbSpline
 70
8
 71
3
 72
8
 73
4
 74
0
 40
0
 40
0
 40
0
 40
0
 40
1
 40
1
 40
1
 40
1
 10
1.261768
 20
10.721028
 30
0.0
 10
1.243496
 20
10.731577
 30
0.0
 10
1.220985
 20
10.731577
 30
0.0
 10
1.202713
 20
10.721028
 30
0.0
  0
SPLINE
  5
143
100
AcDbEntity
  8
Layer_1
 62
1
100
AcDbSpline
 70
8
 71
3
 72
8
 73
4
 74
0
 40
0
 40
0
 40
0
 40
0
 40
1
 40
1
 40
1
 40
1
 10
1.202713
 20
10.721028
 30
0.0
 10
1.184441
 20
10.710478
 30
0.0
 10
1.173185
 20
10.690983
 30
0.0
 10
1.173185
 20
10.669884
 30
0.0
  0
SPLINE
  5
144
100
AcDbEntity
  8
Layer_1
 62
1
100
AcDbSpline
 70
8
 71
3
 72
8
 73
4
 74
0
 40
0
 40
0
 40
0
 40
0
 40
1
 40
1
 40
1
 40
1
 10
1.173185
 20
10.669884
 30
0.0
 10
1.173185
 20
10.637269
 30
0.0
 10
1.199625
 20
10.610829
 30
0.0
 10
1.232241
 20
10.610829
 30
0.0
  0
SPLINE
  5
145
100
AcDbEntity
  8
Layer_1
 62
1
100
AcDbSpline
 70
8
 71
3
 72
8
 73
4
 74
0
 40
0
 40
0
 40
0
 40
0
 40
1
 40
1
 40
1
 40
1
 10
1.232241
 20
10.610829
 30
0.0
 10
1.264856
 20
10.610829
 30
0.0
 10
1.291296
 20
10.637269
 30
0.0
 10
1.291296
 20
10.669884
 30
0.0
  0
LWPOLYLINE
  5
146
100
AcDbEntity
  8
Layer_1
 62
1
100
AcDbPolyline
 90
2
 70
1
 10
5.622004
 20
10.669884
 30
0.0
 10
5.622004
 20
10.669884
 30
0.0
  0
SPLINE
  5
147
100
AcDbEntity
  8
Layer_1
 62
1
100
AcDbSpline
 70
8
 71
3
 72
8
 73
4
 74
0
 40
0
 40
0
 40
0
 40
0
 40
1
 40
1
 40
1
 40
1
 10
6.803107
 20
5.945475
 30
0.0
 10
6.803120
 20
5.966582
 30
0.0
 10
6.791867
 20
5.986091
 30
0.0
 10
6.773590
 20
5.996648
 30
0.0
  0
SPLINE
  5
148
100
AcDbEntity
  8
Layer_1
 62
1
100
AcDbSpline
 70
8
 71
3
 72
8
 73
4
 74
0
 40
0
 40
0
 40
0
 40
0
 40
1
 40
1
 40
1
 40
1
 10
6.773590
 20
5.996648
 30
0.0
 10
6.755313
 20
6.007206
 30
0.0
 10
6.732791
 20
6.007206
 30
0.0
 10
6.714514
 20
5.996648
 30
0.0
  0
SPLINE
  5
149
100
AcDbEntity
  8
Layer_1
 62
1
100
AcDbSpline
 70
8
 71
3
 72
8
 73
4
 74
0
 40
0
 40
0
 40
0
 40
0
 40
1
 40
1
 40
1
 40
1
 10
6.714514
 20
5.996648
 30
0.0
 10
6.696237
 20
5.986091
 30
0.0
 10
6.684984
 20
5.966582
 30
0.0
 10
6.684997
 20
5.945475
 30
0.0
  0
SPLINE
  5
14a
100
AcDbEntity
  8
Layer_1
 62
1
100
AcDbSpline
 70
8
 71
3
 72
8
 73
4
 74
0
 40
0
 40
0
 40
0
 40
0
 40
1
 40
1
 40
1
 40
1
 10
6.684997
 20
5.945475
 30
0.0
 10
6.684984
 20
5.924368
 30
0.0
 10
6.696237
 20
5.904859
 30
0.0
 10
6.714514
 20
5.894302
 30
0.0
  0
SPLINE
  5
14b
100
AcDbEntity
  8
Layer_1
 62
1
100
AcDbSpline
 70
8
 71
3
 72
8
 73
4
 74
0
 40
0
 40
0
 40
0
 40
0
 40
1
 40
1
 40
1
 40
1
 10
6.714514
 20
5.894302
 30
0.0
 10
6.732791
 20
5.883744
 30
0.0
 10
6.755313
 20
5.883744
 30
0.0
 10
6.773590
 20
5.894302
 30
0.0
  0
SPLINE
  5
14c
100
AcDbEntity
  8
Layer_1
 62
1
100
AcDbSpline
 70
8
 71
3
 72
8
 73
4
 74
0
 40
0
 40
0
 40
0
 40
0
 40
1
 40
1
 40
1
 40
1
 10
6.773590
 20
5.894302
 30
0.0
 10
6.791867
 20
5.904859
 30
0.0
 10
6.803120
 20
5.924368
 30
0.0
 10
6.803107
 20
5.945475
 30
0.0
  0
LWPOLYLINE
  5
14d
100
AcDbEntity
  8
Layer_1
 62
1
100
AcDbPolyline
 90
2
 70
1
 10
1.291296
 20
10.669884
 30
0.0
 10
1.291296
 20
10.669884
 30
0.0
  0
LWPOLYLINE
  5
14e
100
AcDbEntity
  8
Layer_1
 62
1
100
AcDbPolyline
 90
2
 70
1
 10
6.803107
 20
5.945475
 30
0.0
 10
6.803107
 20
5.945475
 30
0.0
  0
LWPOLYLINE
  5
14f
100
AcDbEntity
  8
Layer_1
 62
1
100
AcDbPolyline
 90
2
 70
0
 10
13.614753
 20
7.106900
 30
0.0
 10
14.636974
 20
4.914723
 30
0.0
  0
SPLINE
  5
150
100
AcDbEntity
  8
Layer_1
 62
1
100
AcDbSpline
 70
8
 71
3
 72
8
 73
4
 74
0
 40
0
 40
0
 40
0
 40
0
 40
1
 40
1
 40
1
 40
1
 10
21.377002
 20
11.471064
 30
0.0
 10
21.377045
 20
11.492190
 30
0.0
 10
21.365799
 20
11.511731
 30
0.0
 10
21.347509
 20
11.522307
 30
0.0
  0
SPLINE
  5
151
100
AcDbEntity
  8
Layer_1
 62
1
100
AcDbSpline
 70
8
 71
3
 72
8
 73
4
 74
0
 40
0
 40
0
 40
0
 40
0
 40
1
 40
1
 40
1
 40
1
 10
21.347509
 20
11.522307
 30
0.0
 10
21.329220
 20
11.532883
 30
0.0
 10
21.306674
 20
11.532883
 30
0.0
 10
21.288385
 20
11.522307
 30
0.0
  0
SPLINE
  5
152
100
AcDbEntity
  8
Layer_1
 62
1
100
AcDbSpline
 70
8
 71
3
 72
8
 73
4
 74
0
 40
0
 40
0
 40
0
 40
0
 40
1
 40
1
 40
1
 40
1
 10
21.288385
 20
11.522307
 30
0.0
 10
21.270096
 20
11.511731
 30
0.0
 10
21.258849
 20
11.492190
 30
0.0
 10
21.258892
 20
11.471064
 30
0.0
  0
SPLINE
  5
153
100
AcDbEntity
  8
Layer_1
 62
1
100
AcDbSpline
 70
8
 71
3
 72
8
 73
4
 74
0
 40
0
 40
0
 40
0
 40
0
 40
1
 40
1
 40
1
 40
1
 10
21.258892
 20
11.471064
 30
0.0
 10
21.258849
 20
11.449937
 30
0.0
 10
21.270096
 20
11.430396
 30
0.0
 10
21.288385
 20
11.419820
 30
0.0
  0
SPLINE
  5
154
100
AcDbEntity
  8
Layer_1
 62
1
100
AcDbSpline
 70
8
 71
3
 72
8
 73
4
 74
0
 40
0
 40
0
 40
0
 40
0
 40
1
 40
1
 40
1
 40
1
 10
21.288385
 20
11.419820
 30
0.0
 10
21.306674
 20
11.409244
 30
0.0
 10
21.329220
 20
11.409244
 30
0.0
 10
21.347509
 20
11.419820
 30
0.0
  0
SPLINE
  5
155
100
AcDbEntity
  8
Layer_1
 62
1
100
AcDbSpline
 70
8
 71
3
 72
8
 73
4
 74
0
 40
0
 40
0
 40
0
 40
0
 40
1
 40
1
 40
1
 40
1
 10
21.347509
 20
11.419820
 30
0.0
 10
21.365799
 20
11.430396
 30
0.0
 10
21.377045
 20
11.449937
 30
0.0
 10
21.377002
 20
11.471064
 30
0.0
  0
LWPOLYLINE
  5
156
100
AcDbEntity
  8
Layer_1
 62
1
100
AcDbPolyline
 90
2
 70
0
 10
15.003193
 20
4.781412
 30
0.0
 10
18.135791
 20
6.241861
 30
0.0
  0
SPLINE
  5
157
100
AcDbEntity
  8
Layer_1
 62
1
100
AcDbSpline
 70
8
 71
3
 72
8
 73
4
 74
0
 40
0
 40
0
 40
0
 40
0
 40
1
 40
1
 40
1
 40
1
 10
17.634110
 20
11.542673
 30
0.0
 10
17.634211
 20
11.563838
 30
0.0
 10
17.622978
 20
11.583440
 30
0.0
 10
17.604665
 20
11.594052
 30
0.0
  0
SPLINE
  5
158
100
AcDbEntity
  8
Layer_1
 62
1
100
AcDbSpline
 70
8
 71
3
 72
8
 73
4
 74
0
 40
0
 40
0
 40
0
 40
0
 40
1
 40
1
 40
1
 40
1
 10
17.604665
 20
11.594052
 30
0.0
 10
17.586352
 20
11.604664
 30
0.0
 10
17.563760
 20
11.604664
 30
0.0
 10
17.545446
 20
11.594052
 30
0.0
  0
SPLINE
  5
159
100
AcDbEntity
  8
Layer_1
 62
1
100
AcDbSpline
 70
8
 71
3
 72
8
 73
4
 74
0
 40
0
 40
0
 40
0
 40
0
 40
1
 40
1
 40
1
 40
1
 10
17.545446
 20
11.594052
 30
0.0
 10
17.527133
 20
11.583440
 30
0.0
 10
17.515900
 20
11.563838
 30
0.0
 10
17.516001
 20
11.542673
 30
0.0
  0
SPLINE
  5
15a
100
AcDbEntity
  8
Layer_1
 62
1
100
AcDbSpline
 70
8
 71
3
 72
8
 73
4
 74
0
 40
0
 40
0
 40
0
 40
0
 40
1
 40
1
 40
1
 40
1
 10
17.516001
 20
11.542673
 30
0.0
 10
17.515900
 20
11.521507
 30
0.0
 10
17.527133
 20
11.501906
 30
0.0
 10
17.545446
 20
11.491294
 30
0.0
  0
SPLINE
  5
15b
100
AcDbEntity
  8
Layer_1
 62
1
100
AcDbSpline
 70
8
 71
3
 72
8
 73
4
 74
0
 40
0
 40
0
 40
0
 40
0
 40
1
 40
1
 40
1
 40
1
 10
17.545446
 20
11.491294
 30
0.0
 10
17.563760
 20
11.480682
 30
0.0
 10
17.586352
 20
11.480682
 30
0.0
 10
17.604665
 20
11.491294
 30
0.0
  0
SPLINE
  5
15c
100
AcDbEntity
  8
Layer_1
 62
1
100
AcDbSpline
 70
8
 71
3
 72
8
 73
4
 74
0
 40
0
 40
0
 40
0
 40
0
 40
1
 40
1
 40
1
 40
1
 10
17.604665
 20
11.491294
 30
0.0
 10
17.622978
 20
11.501906
 30
0.0
 10
17.634211
 20
11.521507
 30
0.0
 10
17.634110
 20
11.542673
 30
0.0
  0
LWPOLYLINE
  5
15d
100
AcDbEntity
  8
Layer_1
 62
1
100
AcDbPolyline
 90
2
 70
1
 10
21.377002
 20
11.471064
 30
0.0
 10
21.377002
 20
11.471064
 30
0.0
  0
LWPOLYLINE
  5
15e
100
AcDbEntity
  8
Layer_1
 62
1
100
AcDbPolyline
 90
2
 70
1
 10
17.634110
 20
11.542673
 30
0.0
 10
17.634110
 20
11.542673
 30
0.0
  0
SPLINE
  5
15f
100
AcDbEntity
  8
Layer_1
 62
1
100
AcDbSpline
 70
8
 71
3
 72
8
 73
4
 74
0
 40
0
 40
0
 40
0
 40
0
 40
1
 40
1
 40
1
 40
1
 10
15.528471
 20
11.471064
 30
0.0
 10
15.528471
 20
11.492162
 30
0.0
 10
15.517215
 20
11.511658
 30
0.0
 10
15.498943
 20
11.522208
 30
0.0
  0
SPLINE
  5
160
100
AcDbEntity
  8
Layer_1
 62
1
100
AcDbSpline
 70
8
 71
3
 72
8
 73
4
 74
0
 40
0
 40
0
 40
0
 40
0
 40
1
 40
1
 40
1
 40
1
 10
15.498943
 20
11.522208
 30
0.0
 10
15.480671
 20
11.532757
 30
0.0
 10
15.458159
 20
11.532757
 30
0.0
 10
15.439887
 20
11.522208
 30
0.0
  0
SPLINE
  5
161
100
AcDbEntity
  8
Layer_1
 62
1
100
AcDbSpline
 70
8
 71
3
 72
8
 73
4
 74
0
 40
0
 40
0
 40
0
 40
0
 40
1
 40
1
 40
1
 40
1
 10
15.439887
 20
11.522208
 30
0.0
 10
15.421615
 20
11.511658
 30
0.0
 10
15.410359
 20
11.492162
 30
0.0
 10
15.410359
 20
11.471064
 30
0.0
  0
SPLINE
  5
162
100
AcDbEntity
  8
Layer_1
 62
1
100
AcDbSpline
 70
8
 71
3
 72
8
 73
4
 74
0
 40
0
 40
0
 40
0
 40
0
 40
1
 40
1
 40
1
 40
1
 10
15.410359
 20
11.471064
 30
0.0
 10
15.410359
 20
11.449965
 30
0.0
 10
15.421615
 20
11.430469
 30
0.0
 10
15.439887
 20
11.419919
 30
0.0
  0
SPLINE
  5
163
100
AcDbEntity
  8
Layer_1
 62
1
100
AcDbSpline
 70
8
 71
3
 72
8
 73
4
 74
0
 40
0
 40
0
 40
0
 40
0
 40
1
 40
1
 40
1
 40
1
 10
15.439887
 20
11.419919
 30
0.0
 10
15.458159
 20
11.409370
 30
0.0
 10
15.480671
 20
11.409370
 30
0.0
 10
15.498943
 20
11.419919
 30
0.0
  0
SPLINE
  5
164
100
AcDbEntity
  8
Layer_1
 62
1
100
AcDbSpline
 70
8
 71
3
 72
8
 73
4
 74
0
 40
0
 40
0
 40
0
 40
0
 40
1
 40
1
 40
1
 40
1
 10
15.498943
 20
11.419919
 30
0.0
 10
15.517215
 20
11.430469
 30
0.0
 10
15.528471
 20
11.449965
 30
0.0
 10
15.528471
 20
11.471064
 30
0.0
  0
LWPOLYLINE
  5
165
100
AcDbEntity
  8
Layer_1
 62
1
100
AcDbPolyline
 90
2
 70
0
 10
18.252240
 20
6.267673
 30
0.0
 10
21.288964
 20
6.267673
 30
0.0
  0
SPLINE
  5
166
100
AcDbEntity
  8
Layer_1
 62
1
100
AcDbSpline
 70
8
 71
3
 72
8
 73
4
 74
0
 40
0
 40
0
 40
0
 40
0
 40
1
 40
1
 40
1
 40
1
 10
21.564556
 20
11.442082
 30
0.0
 10
21.564556
 20
11.515174
 30
0.0
 10
21.535520
 20
11.585271
 30
0.0
 10
21.483837
 20
11.636954
 30
0.0
  0
SPLINE
  5
167
100
AcDbEntity
  8
Layer_1
 62
1
100
AcDbSpline
 70
8
 71
3
 72
8
 73
4
 74
0
 40
0
 40
0
 40
0
 40
0
 40
1
 40
1
 40
1
 40
1
 10
21.483837
 20
11.636954
 30
0.0
 10
21.432153
 20
11.688638
 30
0.0
 10
21.362056
 20
11.717673
 30
0.0
 10
21.288964
 20
11.717673
 30
0.0
  0
SPLINE
  5
168
100
AcDbEntity
  8
Layer_1
 62
1
100
AcDbSpline
 70
8
 71
3
 72
8
 73
4
 74
0
 40
0
 40
0
 40
0
 40
0
 40
1
 40
1
 40
1
 40
1
 10
21.288964
 20
6.267673
 30
0.0
 10
21.362056
 20
6.267672
 30
0.0
 10
21.432153
 20
6.296708
 30
0.0
 10
21.483837
 20
6.348391
 30
0.0
  0
SPLINE
  5
169
100
AcDbEntity
  8
Layer_1
 62
1
100
AcDbSpline
 70
8
 71
3
 72
8
 73
4
 74
0
 40
0
 40
0
 40
0
 40
0
 40
1
 40
1
 40
1
 40
1
 10
21.483837
 20
6.348391
 30
0.0
 10
21.535520
 20
6.400074
 30
0.0
 10
21.564555
 20
6.470171
 30
0.0
 10
21.564556
 20
6.543263
 30
0.0
  0
SPLINE
  5
16a
100
AcDbEntity
  8
Layer_1
 62
1
100
AcDbSpline
 70
8
 71
3
 72
8
 73
4
 74
0
 40
0
 40
0
 40
0
 40
0
 40
1
 40
1
 40
1
 40
1
 10
14.636973
 20
4.914723
 30
0.0
 10
14.701294
 20
4.776786
 30
0.0
 10
14.865251
 20
4.717102
 30
0.0
 10
15.003193
 20
4.781412
 30
0.0
  0
SPLINE
  5
16b
100
AcDbEntity
  8
Layer_1
 62
1
100
AcDbSpline
 70
8
 71
3
 72
8
 73
4
 74
0
 40
0
 40
0
 40
0
 40
0
 40
1
 40
1
 40
1
 40
1
 10
13.885084
 20
7.237377
 30
0.0
 10
13.885186
 20
7.258543
 30
0.0
 10
13.873952
 20
7.278144
 30
0.0
 10
13.855639
 20
7.288756
 30
0.0
  0
SPLINE
  5
16c
100
AcDbEntity
  8
Layer_1
 62
1
100
AcDbSpline
 70
8
 71
3
 72
8
 73
4
 74
0
 40
0
 40
0
 40
0
 40
0
 40
1
 40
1
 40
1
 40
1
 10
13.855639
 20
7.288756
 30
0.0
 10
13.837326
 20
7.299368
 30
0.0
 10
13.814734
 20
7.299368
 30
0.0
 10
13.796421
 20
7.288756
 30
0.0
  0
SPLINE
  5
16d
100
AcDbEntity
  8
Layer_1
 62
1
100
AcDbSpline
 70
8
 71
3
 72
8
 73
4
 74
0
 40
0
 40
0
 40
0
 40
0
 40
1
 40
1
 40
1
 40
1
 10
13.796421
 20
7.288756
 30
0.0
 10
13.778108
 20
7.278144
 30
0.0
 10
13.766874
 20
7.258543
 30
0.0
 10
13.766976
 20
7.237377
 30
0.0
  0
SPLINE
  5
16e
100
AcDbEntity
  8
Layer_1
 62
1
100
AcDbSpline
 70
8
 71
3
 72
8
 73
4
 74
0
 40
0
 40
0
 40
0
 40
0
 40
1
 40
1
 40
1
 40
1
 10
13.766976
 20
7.237377
 30
0.0
 10
13.767131
 20
7.204873
 30
0.0
 10
13.793525
 20
7.178605
 30
0.0
 10
13.826030
 20
7.178605
 30
0.0
  0
SPLINE
  5
16f
100
AcDbEntity
  8
Layer_1
 62
1
100
AcDbSpline
 70
8
 71
3
 72
8
 73
4
 74
0
 40
0
 40
0
 40
0
 40
0
 40
1
 40
1
 40
1
 40
1
 10
13.826030
 20
7.178605
 30
0.0
 10
13.858535
 20
7.178605
 30
0.0
 10
13.884929
 20
7.204873
 30
0.0
 10
13.885084
 20
7.237377
 30
0.0
  0
LWPOLYLINE
  5
170
100
AcDbEntity
  8
Layer_1
 62
1
100
AcDbPolyline
 90
2
 70
1
 10
15.528471
 20
11.471064
 30
0.0
 10
15.528471
 20
11.471064
 30
0.0
  0
SPLINE
  5
171
100
AcDbEntity
  8
Layer_1
 62
1
100
AcDbSpline
 70
8
 71
3
 72
8
 73
4
 74
0
 40
0
 40
0
 40
0
 40
0
 40
1
 40
1
 40
1
 40
1
 10
18.252240
 20
6.267673
 30
0.0
 10
18.212005
 20
6.267673
 30
0.0
 10
18.172258
 20
6.258863
 30
0.0
 10
18.135791
 20
6.241861
 30
0.0
  0
SPLINE
  5
172
100
AcDbEntity
  8
Layer_1
 62
1
100
AcDbSpline
 70
8
 71
3
 72
8
 73
4
 74
0
 40
0
 40
0
 40
0
 40
0
 40
1
 40
1
 40
1
 40
1
 10
14.931796
 20
4.992649
 30
0.0
 10
14.931900
 20
5.013817
 30
0.0
 10
14.920667
 20
5.033421
 30
0.0
 10
14.902353
 20
5.044035
 30
0.0
  0
SPLINE
  5
173
100
AcDbEntity
  8
Layer_1
 62
1
100
AcDbSpline
 70
8
 71
3
 72
8
 73
4
 74
0
 40
0
 40
0
 40
0
 40
0
 40
1
 40
1
 40
1
 40
1
 10
14.902353
 20
5.044035
 30
0.0
 10
14.884038
 20
5.054650
 30
0.0
 10
14.861444
 20
5.054650
 30
0.0
 10
14.843129
 20
5.044035
 30
0.0
  0
SPLINE
  5
174
100
AcDbEntity
  8
Layer_1
 62
1
100
AcDbSpline
 70
8
 71
3
 72
8
 73
4
 74
0
 40
0
 40
0
 40
0
 40
0
 40
1
 40
1
 40
1
 40
1
 10
14.843129
 20
5.044035
 30
0.0
 10
14.824815
 20
5.033421
 30
0.0
 10
14.813582
 20
5.013817
 30
0.0
 10
14.813687
 20
4.992649
 30
0.0
  0
SPLINE
  5
175
100
AcDbEntity
  8
Layer_1
 62
1
100
AcDbSpline
 70
8
 71
3
 72
8
 73
4
 74
0
 40
0
 40
0
 40
0
 40
0
 40
1
 40
1
 40
1
 40
1
 10
14.813687
 20
4.992649
 30
0.0
 10
14.813847
 20
4.960148
 30
0.0
 10
14.840240
 20
4.933886
 30
0.0
 10
14.872741
 20
4.933886
 30
0.0
  0
SPLINE
  5
176
100
AcDbEntity
  8
Layer_1
 62
1
100
AcDbSpline
 70
8
 71
3
 72
8
 73
4
 74
0
 40
0
 40
0
 40
0
 40
0
 40
1
 40
1
 40
1
 40
1
 10
14.872741
 20
4.933886
 30
0.0
 10
14.905242
 20
4.933886
 30
0.0
 10
14.931635
 20
4.960148
 30
0.0
 10
14.931796
 20
4.992649
 30
0.0
  0
LWPOLYLINE
  5
177
100
AcDbEntity
  8
Layer_1
 62
1
100
AcDbPolyline
 90
2
 70
1
 10
13.885084
 20
7.237377
 30
0.0
 10
13.885084
 20
7.237377
 30
0.0
  0
SPLINE
  5
178
100
AcDbEntity
  8
Layer_1
 62
1
100
AcDbSpline
 70
8
 71
3
 72
8
 73
4
 74
0
 40
0
 40
0
 40
0
 40
0
 40
1
 40
1
 40
1
 40
1
 10
18.211411
 20
6.442673
 30
0.0
 10
18.211454
 20
6.463800
 30
0.0
 10
18.200208
 20
6.483340
 30
0.0
 10
18.181918
 20
6.493916
 30
0.0
  0
SPLINE
  5
179
100
AcDbEntity
  8
Layer_1
 62
1
100
AcDbSpline
 70
8
 71
3
 72
8
 73
4
 74
0
 40
0
 40
0
 40
0
 40
0
 40
1
 40
1
 40
1
 40
1
 10
18.181918
 20
6.493916
 30
0.0
 10
18.163629
 20
6.504492
 30
0.0
 10
18.141083
 20
6.504492
 30
0.0
 10
18.122794
 20
6.493916
 30
0.0
  0
SPLINE
  5
17a
100
AcDbEntity
  8
Layer_1
 62
1
100
AcDbSpline
 70
8
 71
3
 72
8
 73
4
 74
0
 40
0
 40
0
 40
0
 40
0
 40
1
 40
1
 40
1
 40
1
 10
18.122794
 20
6.493916
 30
0.0
 10
18.104505
 20
6.483340
 30
0.0
 10
18.093258
 20
6.463800
 30
0.0
 10
18.093301
 20
6.442673
 30
0.0
  0
SPLINE
  5
17b
100
AcDbEntity
  8
Layer_1
 62
1
100
AcDbSpline
 70
8
 71
3
 72
8
 73
4
 74
0
 40
0
 40
0
 40
0
 40
0
 40
1
 40
1
 40
1
 40
1
 10
18.093301
 20
6.442673
 30
0.0
 10
18.093258
 20
6.421546
 30
0.0
 10
18.104505
 20
6.402005
 30
0.0
 10
18.122794
 20
6.391429
 30
0.0
  0
SPLINE
  5
17c
100
AcDbEntity
  8
Layer_1
 62
1
100
AcDbSpline
 70
8
 71
3
 72
8
 73
4
 74
0
 40
0
 40
0
 40
0
 40
0
 40
1
 40
1
 40
1
 40
1
 10
18.122794
 20
6.391429
 30
0.0
 10
18.141083
 20
6.380853
 30
0.0
 10
18.163629
 20
6.380853
 30
0.0
 10
18.181918
 20
6.391429
 30
0.0
  0
SPLINE
  5
17d
100
AcDbEntity
  8
Layer_1
 62
1
100
AcDbSpline
 70
8
 71
3
 72
8
 73
4
 74
0
 40
0
 40
0
 40
0
 40
0
 40
1
 40
1
 40
1
 40
1
 10
18.181918
 20
6.391429
 30
0.0
 10
18.200208
 20
6.402005
 30
0.0
 10
18.211454
 20
6.421546
 30
0.0
 10
18.211411
 20
6.442673
 30
0.0
  0
LWPOLYLINE
  5
17e
100
AcDbEntity
  8
Layer_1
 62
1
100
AcDbPolyline
 90
2
 70
1
 10
14.931796
 20
4.992649
 30
0.0
 10
14.931796
 20
4.992649
 30
0.0
  0
SPLINE
  5
17f
100
AcDbEntity
  8
Layer_1
 62
1
100
AcDbSpline
 70
8
 71
3
 72
8
 73
4
 74
0
 40
0
 40
0
 40
0
 40
0
 40
1
 40
1
 40
1
 40
1
 10
21.377002
 20
6.576782
 30
0.0
 10
21.377045
 20
6.597908
 30
0.0
 10
21.365799
 20
6.617449
 30
0.0
 10
21.347509
 20
6.628025
 30
0.0
  0
SPLINE
  5
180
100
AcDbEntity
  8
Layer_1
 62
1
100
AcDbSpline
 70
8
 71
3
 72
8
 73
4
 74
0
 40
0
 40
0
 40
0
 40
0
 40
1
 40
1
 40
1
 40
1
 10
21.347509
 20
6.628025
 30
0.0
 10
21.329220
 20
6.638601
 30
0.0
 10
21.306674
 20
6.638601
 30
0.0
 10
21.288385
 20
6.628025
 30
0.0
  0
SPLINE
  5
181
100
AcDbEntity
  8
Layer_1
 62
1
100
AcDbSpline
 70
8
 71
3
 72
8
 73
4
 74
0
 40
0
 40
0
 40
0
 40
0
 40
1
 40
1
 40
1
 40
1
 10
21.288385
 20
6.628025
 30
0.0
 10
21.270096
 20
6.617449
 30
0.0
 10
21.258849
 20
6.597908
 30
0.0
 10
21.258892
 20
6.576781
 30
0.0
  0
SPLINE
  5
182
100
AcDbEntity
  8
Layer_1
 62
1
100
AcDbSpline
 70
8
 71
3
 72
8
 73
4
 74
0
 40
0
 40
0
 40
0
 40
0
 40
1
 40
1
 40
1
 40
1
 10
21.258892
 20
6.576781
 30
0.0
 10
21.258849
 20
6.555655
 30
0.0
 10
21.270096
 20
6.536114
 30
0.0
 10
21.288385
 20
6.525538
 30
0.0
  0
SPLINE
  5
183
100
AcDbEntity
  8
Layer_1
 62
1
100
AcDbSpline
 70
8
 71
3
 72
8
 73
4
 74
0
 40
0
 40
0
 40
0
 40
0
 40
1
 40
1
 40
1
 40
1
 10
21.288385
 20
6.525538
 30
0.0
 10
21.306674
 20
6.514962
 30
0.0
 10
21.329220
 20
6.514962
 30
0.0
 10
21.347509
 20
6.525538
 30
0.0
  0
SPLINE
  5
184
100
AcDbEntity
  8
Layer_1
 62
1
100
AcDbSpline
 70
8
 71
3
 72
8
 73
4
 74
0
 40
0
 40
0
 40
0
 40
0
 40
1
 40
1
 40
1
 40
1
 10
21.347509
 20
6.525538
 30
0.0
 10
21.365799
 20
6.536114
 30
0.0
 10
21.377045
 20
6.555655
 30
0.0
 10
21.377002
 20
6.576781
 30
0.0
  0
LWPOLYLINE
  5
185
100
AcDbEntity
  8
Layer_1
 62
1
100
AcDbPolyline
 90
2
 70
1
 10
18.211411
 20
6.442673
 30
0.0
 10
18.211411
 20
6.442673
 30
0.0
  0
LWPOLYLINE
  5
186
100
AcDbEntity
  8
Layer_1
 62
1
100
AcDbPolyline
 90
2
 70
1
 10
21.377002
 20
6.576781
 30
0.0
 10
21.377002
 20
6.576781
 30
0.0
  0
LWPOLYLINE
  5
187
100
AcDbEntity
  8
Layer_1
 62
1
100
AcDbPolyline
 90
2
 70
0
 10
14.635421
 20
5.115389
 30
0.0
 10
14.635421
 20
5.115389
 30
0.0
  0
SPLINE
  5
188
100
AcDbEntity
  8
Layer_1
 62
1
100
AcDbSpline
 70
8
 71
3
 72
8
 73
4
 74
0
 40
0
 40
0
 40
0
 40
0
 40
1
 40
1
 40
1
 40
1
 10
16.316217
 20
10.669885
 30
0.0
 10
16.316318
 20
10.691051
 30
0.0
 10
16.305085
 20
10.710652
 30
0.0
 10
16.286771
 20
10.721264
 30
0.0
  0
SPLINE
  5
189
100
AcDbEntity
  8
Layer_1
 62
1
100
AcDbSpline
 70
8
 71
3
 72
8
 73
4
 74
0
 40
0
 40
0
 40
0
 40
0
 40
1
 40
1
 40
1
 40
1
 10
16.286771
 20
10.721264
 30
0.0
 10
16.268458
 20
10.731876
 30
0.0
 10
16.245866
 20
10.731876
 30
0.0
 10
16.227553
 20
10.721264
 30
0.0
  0
SPLINE
  5
18a
100
AcDbEntity
  8
Layer_1
 62
1
100
AcDbSpline
 70
8
 71
3
 72
8
 73
4
 74
0
 40
0
 40
0
 40
0
 40
0
 40
1
 40
1
 40
1
 40
1
 10
16.227553
 20
10.721264
 30
0.0
 10
16.209240
 20
10.710652
 30
0.0
 10
16.198006
 20
10.691051
 30
0.0
 10
16.198108
 20
10.669885
 30
0.0
  0
SPLINE
  5
18b
100
AcDbEntity
  8
Layer_1
 62
1
100
AcDbSpline
 70
8
 71
3
 72
8
 73
4
 74
0
 40
0
 40
0
 40
0
 40
0
 40
1
 40
1
 40
1
 40
1
 10
16.198108
 20
10.669885
 30
0.0
 10
16.198006
 20
10.648720
 30
0.0
 10
16.209240
 20
10.629119
 30
0.0
 10
16.227553
 20
10.618506
 30
0.0
  0
SPLINE
  5
18c
100
AcDbEntity
  8
Layer_1
 62
1
100
AcDbSpline
 70
8
 71
3
 72
8
 73
4
 74
0
 40
0
 40
0
 40
0
 40
0
 40
1
 40
1
 40
1
 40
1
 10
16.227553
 20
10.618506
 30
0.0
 10
16.245866
 20
10.607894
 30
0.0
 10
16.268458
 20
10.607894
 30
0.0
 10
16.286771
 20
10.618506
 30
0.0
  0
SPLINE
  5
18d
100
AcDbEntity
  8
Layer_1
 62
1
100
AcDbSpline
 70
8
 71
3
 72
8
 73
4
 74
0
 40
0
 40
0
 40
0
 40
0
 40
1
 40
1
 40
1
 40
1
 10
16.286771
 20
10.618506
 30
0.0
 10
16.305085
 20
10.629119
 30
0.0
 10
16.316318
 20
10.648720
 30
0.0
 10
16.316217
 20
10.669885
 30
0.0
  0
LWPOLYLINE
  5
18e
100
AcDbEntity
  8
Layer_1
 62
1
100
AcDbPolyline
 90
2
 70
0
 10
21.564556
 20
6.543263
 30
0.0
 10
21.564556
 20
11.442082
 30
0.0
  0
SPLINE
  5
18f
100
AcDbEntity
  8
Layer_1
 62
1
100
AcDbSpline
 70
8
 71
3
 72
8
 73
4
 74
0
 40
0
 40
0
 40
0
 40
0
 40
1
 40
1
 40
1
 40
1
 10
20.646926
 20
10.669885
 30
0.0
 10
20.646969
 20
10.691012
 30
0.0
 10
20.635722
 20
10.710553
 30
0.0
 10
20.617433
 20
10.721129
 30
0.0
  0
SPLINE
  5
190
100
AcDbEntity
  8
Layer_1
 62
1
100
AcDbSpline
 70
8
 71
3
 72
8
 73
4
 74
0
 40
0
 40
0
 40
0
 40
0
 40
1
 40
1
 40
1
 40
1
 10
20.617433
 20
10.721129
 30
0.0
 10
20.599143
 20
10.731705
 30
0.0
 10
20.576598
 20
10.731705
 30
0.0
 10
20.558308
 20
10.721129
 30
0.0
  0
SPLINE
  5
191
100
AcDbEntity
  8
Layer_1
 62
1
100
AcDbSpline
 70
8
 71
3
 72
8
 73
4
 74
0
 40
0
 40
0
 40
0
 40
0
 40
1
 40
1
 40
1
 40
1
 10
20.558308
 20
10.721129
 30
0.0
 10
20.540019
 20
10.710553
 30
0.0
 10
20.528773
 20
10.691012
 30
0.0
 10
20.528816
 20
10.669885
 30
0.0
  0
SPLINE
  5
192
100
AcDbEntity
  8
Layer_1
 62
1
100
AcDbSpline
 70
8
 71
3
 72
8
 73
4
 74
0
 40
0
 40
0
 40
0
 40
0
 40
1
 40
1
 40
1
 40
1
 10
20.528816
 20
10.669885
 30
0.0
 10
20.528773
 20
10.648758
 30
0.0
 10
20.540019
 20
10.629218
 30
0.0
 10
20.558308
 20
10.618642
 30
0.0
  0
SPLINE
  5
193
100
AcDbEntity
  8
Layer_1
 62
1
100
AcDbSpline
 70
8
 71
3
 72
8
 73
4
 74
0
 40
0
 40
0
 40
0
 40
0
 40
1
 40
1
 40
1
 40
1
 10
20.558308
 20
10.618642
 30
0.0
 10
20.576598
 20
10.608066
 30
0.0
 10
20.599143
 20
10.608066
 30
0.0
 10
20.617433
 20
10.618642
 30
0.0
  0
SPLINE
  5
194
100
AcDbEntity
  8
Layer_1
 62
1
100
AcDbSpline
 70
8
 71
3
 72
8
 73
4
 74
0
 40
0
 40
0
 40
0
 40
0
 40
1
 40
1
 40
1
 40
1
 10
20.617433
 20
10.618642
 30
0.0
 10
20.635722
 20
10.629218
 30
0.0
 10
20.646969
 20
10.648758
 30
0.0
 10
20.646926
 20
10.669885
 30
0.0
  0
LWPOLYLINE
  5
195
100
AcDbEntity
  8
Layer_1
 62
1
100
AcDbPolyline
 90
2
 70
1
 10
16.316217
 20
10.669885
 30
0.0
 10
16.316217
 20
10.669885
 30
0.0
  0
SPLINE
  5
196
100
AcDbEntity
  8
Layer_1
 62
1
100
AcDbSpline
 70
8
 71
3
 72
8
 73
4
 74
0
 40
0
 40
0
 40
0
 40
0
 40
1
 40
1
 40
1
 40
1
 10
15.135114
 20
5.945476
 30
0.0
 10
15.135216
 20
5.966641
 30
0.0
 10
15.123982
 20
5.986243
 30
0.0
 10
15.105669
 20
5.996855
 30
0.0
  0
SPLINE
  5
197
100
AcDbEntity
  8
Layer_1
 62
1
100
AcDbSpline
 70
8
 71
3
 72
8
 73
4
 74
0
 40
0
 40
0
 40
0
 40
0
 40
1
 40
1
 40
1
 40
1
 10
15.105669
 20
5.996855
 30
0.0
 10
15.087356
 20
6.007467
 30
0.0
 10
15.064764
 20
6.007467
 30
0.0
 10
15.046451
 20
5.996855
 30
0.0
  0
SPLINE
  5
198
100
AcDbEntity
  8
Layer_1
 62
1
100
AcDbSpline
 70
8
 71
3
 72
8
 73
4
 74
0
 40
0
 40
0
 40
0
 40
0
 40
1
 40
1
 40
1
 40
1
 10
15.046451
 20
5.996855
 30
0.0
 10
15.028138
 20
5.986243
 30
0.0
 10
15.016904
 20
5.966641
 30
0.0
 10
15.017006
 20
5.945476
 30
0.0
  0
SPLINE
  5
199
100
AcDbEntity
  8
Layer_1
 62
1
100
AcDbSpline
 70
8
 71
3
 72
8
 73
4
 74
0
 40
0
 40
0
 40
0
 40
0
 40
1
 40
1
 40
1
 40
1
 10
15.017006
 20
5.945476
 30
0.0
 10
15.016904
 20
5.924310
 30
0.0
 10
15.028138
 20
5.904709
 30
0.0
 10
15.046451
 20
5.894097
 30
0.0
  0
SPLINE
  5
19a
100
AcDbEntity
  8
Layer_1
 62
1
100
AcDbSpline
 70
8
 71
3
 72
8
 73
4
 74
0
 40
0
 40
0
 40
0
 40
0
 40
1
 40
1
 40
1
 40
1
 10
15.046451
 20
5.894097
 30
0.0
 10
15.064764
 20
5.883485
 30
0.0
 10
15.087356
 20
5.883485
 30
0.0
 10
15.105669
 20
5.894097
 30
0.0
  0
SPLINE
  5
19b
100
AcDbEntity
  8
Layer_1
 62
1
100
AcDbSpline
 70
8
 71
3
 72
8
 73
4
 74
0
 40
0
 40
0
 40
0
 40
0
 40
1
 40
1
 40
1
 40
1
 10
15.105669
 20
5.894097
 30
0.0
 10
15.123982
 20
5.904709
 30
0.0
 10
15.135216
 20
5.924310
 30
0.0
 10
15.135114
 20
5.945476
 30
0.0
  0
LWPOLYLINE
  5
19c
100
AcDbEntity
  8
Layer_1
 62
1
100
AcDbPolyline
 90
2
 70
1
 10
20.646926
 20
10.669885
 30
0.0
 10
20.646926
 20
10.669885
 30
0.0
  0
SPLINE
  5
19d
100
AcDbEntity
  8
Layer_1
 62
1
100
AcDbSpline
 70
8
 71
3
 72
8
 73
4
 74
0
 40
0
 40
0
 40
0
 40
0
 40
1
 40
1
 40
1
 40
1
 10
8.454997
 20
7.265825
 30
0.0
 10
8.347890
 20
7.265825
 30
0.0
 10
8.250485
 20
7.203769
 30
0.0
 10
8.205223
 20
7.106696
 30
0.0
  0
SPLINE
  5
19e
100
AcDbEntity
  8
Layer_1
 62
1
100
AcDbSpline
 70
8
 71
3
 72
8
 73
4
 74
0
 40
0
 40
0
 40
0
 40
0
 40
1
 40
1
 40
1
 40
1
 10
13.614800
 20
7.106622
 30
0.0
 10
13.569538
 20
7.203695
 30
0.0
 10
13.472132
 20
7.265752
 30
0.0
 10
13.365026
 20
7.265752
 30
0.0
  0
LWPOLYLINE
  5
19f
100
AcDbEntity
  8
Layer_1
 62
1
100
AcDbPolyline
 90
2
 70
1
 10
15.135114
 20
5.945476
 30
0.0
 10
15.135114
 20
5.945476
 30
0.0
  0
LWPOLYLINE
  5
1a0
100
AcDbEntity
  8
Layer_1
 62
1
100
AcDbPolyline
 90
2
 70
0
 10
13.365649
 20
7.265860
 30
0.0
 10
8.454017
 20
7.265860
 30
0.0
  0
ENDSEC
  0
SECTION
  2
OBJECTS
  0
DICTIONARY
  5
C
330
0
100
AcDbDictionary
  3
ACAD_GROUP
350
D
  3
ACAD_MLINESTYLE
350
17
  0
DICTIONARY
  5
D
330
C
100
AcDbDictionary
  0
DICTIONARY
  5
1A
330
C
100
AcDbDictionary
  0
DICTIONARY
  5
17
330
C
100
AcDbDictionary
  3
STANDARD
350
18
  0
DICTIONARY
  5
19
330
C
100
AcDbDictionary
  0
ENDSEC
  0
EOF
