  0
SECTION
  2
HEADER
  9
$ACADVER
  1
AC1014
  9
$HANDSEED
  5
FFFF
  9
$MEASUREMENT
 70
     1
  0
ENDSEC
  0
SECTION
  2
TABLES
  0
TABLE
  2
VPORT
  5
8
330
0
100
AcDbSymbolTable
 70
     4
  0
VPORT
  5
2E
330
8
100
AcDbSymbolTableRecord
100
AcDbViewportTableRecord
  2
*ACTIVE
 70
     0
 10
0.0
 20
0.0
 11
1.0
 21
1.0
 12
210.0
 22
148.5
 13
0.0
 23
0.0
 14
10.0
 24
10.0
 15
10.0
 25
10.0
 16
0.0
 26
0.0
 36
1.0
 17
0.0
 27
0.0
 37
0.0
 40
341.0
 41
1.24
 42
50.0
 43
0.0
 44
0.0
 50
0.0
 51
0.0
 71
     0
 72
   100
 73
     1
 74
     3
 75
     0
 76
     0
 77
     0
 78
     0
  0
ENDTAB
  0
TABLE
  2
LTYPE
  5
5
330
0
100
AcDbSymbolTable
 70
     1
  0
LTYPE
  5
14
330
5
100
AcDbSymbolTableRecord
100
AcDbLinetypeTableRecord
  2
BYBLOCK
 70
     0
  3

 72
    65
 73
     0
 40
0.0
  0
LTYPE
  5
15
330
5
100
AcDbSymbolTableRecord
100
AcDbLinetypeTableRecord
  2
BYLAYER
 70
     0
  3

 72
    65
 73
     0
 40
0.0
  0
LTYPE
  5
16
330
5
100
AcDbSymbolTableRecord
100
AcDbLinetypeTableRecord
  2
CONTINUOUS
 70
     0
  3
Solid line
 72
    65
 73
     0
 40
0.0
  0
ENDTAB
  0
TABLE
  2
LAYER
  5
2
100
AcDbSymbolTable
 70
1
  0
LAYER
  5
50
100
AcDbSymbolTableRecord
100
AcDbLayerTableRecord
  2
0
 70
0
  6
CONTINUOUS
  0
ENDTAB
  0
TABLE
  2
STYLE
  5
3
330
0
100
AcDbSymbolTable
 70
     1
  0
STYLE
  5
11
330
3
100
AcDbSymbolTableRecord
100
AcDbTextStyleTableRecord
  2
STANDARD
 70
     0
 40
0.0
 41
1.0
 50
0.0
 71
     0
 42
2.5
  3
txt
  4

  0
ENDTAB
  0
TABLE
  2
VIEW
  5
6
330
0
100
AcDbSymbolTable
 70
     0
  0
ENDTAB
  0
TABLE
  2
UCS
  5
7
330
0
100
AcDbSymbolTable
 70
     0
  0
ENDTAB
  0
TABLE
  2
APPID
  5
9
330
0
100
AcDbSymbolTable
 70
     2
  0
APPID
  5
12
330
9
100
AcDbSymbolTableRecord
100
AcDbRegAppTableRecord
  2
ACAD
 70
     0
  0
ENDTAB
  0
TABLE
  2
DIMSTYLE
  5
A
330
0
100
AcDbSymbolTable
 70
     1
  0
DIMSTYLE
105
27
330
A
100
AcDbSymbolTableRecord
100
AcDbDimStyleTableRecord
  2
ISO-25
 70
     0
  3

  4

  5

  6

  7

 40
1.0
 41
2.5
 42
0.625
 43
3.75
 44
1.25
 45
0.0
 46
0.0
 47
0.0
 48
0.0
140
2.5
141
2.5
142
0.0
143
0.03937007874016
144
1.0
145
0.0
146
1.0
147
0.625
 71
     0
 72
     0
 73
     0
 74
     0
 75
     0
 76
     0
 77
     1
 78
     8
170
     0
171
     3
172
     1
173
     0
174
     0
175
     0
176
     0
177
     0
178
     0
270
     2
271
     2
272
     2
273
     2
274
     3
340
11
275
     0
280
     0
281
     0
282
     0
283
     0
284
     8
285
     0
286
     0
287
     3
288
     0
  0
ENDTAB
  0
TABLE
  2
BLOCK_RECORD
  5
1
330
0
100
AcDbSymbolTable
 70
     1
  0
BLOCK_RECORD
  5
1F
330
1
100
AcDbSymbolTableRecord
100
AcDbBlockTableRecord
  2
*MODEL_SPACE
  0
BLOCK_RECORD
  5
1B
330
1
100
AcDbSymbolTableRecord
100
AcDbBlockTableRecord
  2
*PAPER_SPACE
  0
ENDTAB
  0
ENDSEC
  0
SECTION
  2
BLOCKS
  0
BLOCK
  5
20
330
1F
100
AcDbEntity
  8
0
100
AcDbBlockBegin
  2
*MODEL_SPACE
 70
     0
 10
0.0
 20
0.0
 30
0.0
  3
*MODEL_SPACE
  1

  0
ENDBLK
  5
21
330
1F
100
AcDbEntity
  8
0
100
AcDbBlockEnd
  0
BLOCK
  5
1C
330
1B
100
AcDbEntity
 67
     1
  8
0
100
AcDbBlockBegin
  2
*PAPER_SPACE
  1

  0
ENDBLK
  5
1D
330
1B
100
AcDbEntity
 67
     1
  8
0
100
AcDbBlockEnd
  0
ENDSEC
  0
SECTION
  2
ENTITIES
  0
SPLINE
  5
100
100
AcDbEntity
  8
0
 62
1
100
AcDbSpline
 70
8
 71
3
 72
8
 73
4
 74
0
 40
0
 40
0
 40
0
 40
0
 40
1
 40
1
 40
1
 40
1
 10
204.549646
 20
183.829321
 30
0.0
 10
204.549928
 20
184.365439
 30
0.0
 10
204.264147
 20
184.860973
 30
0.0
 10
203.799911
 20
185.129127
 30
0.0
  0
SPLINE
  5
101
100
AcDbEntity
  8
0
 62
1
100
AcDbSpline
 70
8
 71
3
 72
8
 73
4
 74
0
 40
0
 40
0
 40
0
 40
0
 40
1
 40
1
 40
1
 40
1
 10
203.799911
 20
185.129127
 30
0.0
 10
203.335676
 20
185.397280
 30
0.0
 10
202.763617
 20
185.397280
 30
0.0
 10
202.299381
 20
185.129127
 30
0.0
  0
SPLINE
  5
102
100
AcDbEntity
  8
0
 62
1
100
AcDbSpline
 70
8
 71
3
 72
8
 73
4
 74
0
 40
0
 40
0
 40
0
 40
0
 40
1
 40
1
 40
1
 40
1
 10
202.299381
 20
185.129127
 30
0.0
 10
201.835145
 20
184.860973
 30
0.0
 10
201.549316
 20
184.365439
 30
0.0
 10
201.549646
 20
183.829321
 30
0.0
  0
SPLINE
  5
103
100
AcDbEntity
  8
0
 62
1
100
AcDbSpline
 70
8
 71
3
 72
8
 73
4
 74
0
 40
0
 40
0
 40
0
 40
0
 40
1
 40
1
 40
1
 40
1
 10
201.549646
 20
183.829321
 30
0.0
 10
201.549364
 20
183.293204
 30
0.0
 10
201.835145
 20
182.797669
 30
0.0
 10
202.299381
 20
182.529516
 30
0.0
  0
SPLINE
  5
104
100
AcDbEntity
  8
0
 62
1
100
AcDbSpline
 70
8
 71
3
 72
8
 73
4
 74
0
 40
0
 40
0
 40
0
 40
0
 40
1
 40
1
 40
1
 40
1
 10
202.299381
 20
182.529516
 30
0.0
 10
202.763617
 20
182.261362
 30
0.0
 10
203.335676
 20
182.261362
 30
0.0
 10
203.799911
 20
182.529516
 30
0.0
  0
SPLINE
  5
105
100
AcDbEntity
  8
0
 62
1
100
AcDbSpline
 70
8
 71
3
 72
8
 73
4
 74
0
 40
0
 40
0
 40
0
 40
0
 40
1
 40
1
 40
1
 40
1
 10
203.799911
 20
182.529516
 30
0.0
 10
204.264147
 20
182.797669
 30
0.0
 10
204.549976
 20
183.293204
 30
0.0
 10
204.549646
 20
183.829321
 30
0.0
  0
SPLINE
  5
106
100
AcDbEntity
  8
0
 62
1
100
AcDbSpline
 70
8
 71
3
 72
8
 73
4
 74
0
 40
0
 40
0
 40
0
 40
0
 40
1
 40
1
 40
1
 40
1
 10
94.660991
 20
163.643837
 30
0.0
 10
94.661273
 20
164.179955
 30
0.0
 10
94.375492
 20
164.675489
 30
0.0
 10
93.911256
 20
164.943642
 30
0.0
  0
SPLINE
  5
107
100
AcDbEntity
  8
0
 62
1
100
AcDbSpline
 70
8
 71
3
 72
8
 73
4
 74
0
 40
0
 40
0
 40
0
 40
0
 40
1
 40
1
 40
1
 40
1
 10
93.911256
 20
164.943642
 30
0.0
 10
93.447021
 20
165.211796
 30
0.0
 10
92.874962
 20
165.211796
 30
0.0
 10
92.410726
 20
164.943642
 30
0.0
  0
SPLINE
  5
108
100
AcDbEntity
  8
0
 62
1
100
AcDbSpline
 70
8
 71
3
 72
8
 73
4
 74
0
 40
0
 40
0
 40
0
 40
0
 40
1
 40
1
 40
1
 40
1
 10
92.410726
 20
164.943642
 30
0.0
 10
91.946490
 20
164.675489
 30
0.0
 10
91.660661
 20
164.179955
 30
0.0
 10
91.660991
 20
163.643837
 30
0.0
  0
SPLINE
  5
109
100
AcDbEntity
  8
0
 62
1
100
AcDbSpline
 70
8
 71
3
 72
8
 73
4
 74
0
 40
0
 40
0
 40
0
 40
0
 40
1
 40
1
 40
1
 40
1
 10
91.660991
 20
163.643837
 30
0.0
 10
91.660709
 20
163.107719
 30
0.0
 10
91.946490
 20
162.612185
 30
0.0
 10
92.410726
 20
162.344031
 30
0.0
  0
SPLINE
  5
10a
100
AcDbEntity
  8
0
 62
1
100
AcDbSpline
 70
8
 71
3
 72
8
 73
4
 74
0
 40
0
 40
0
 40
0
 40
0
 40
1
 40
1
 40
1
 40
1
 10
92.410726
 20
162.344031
 30
0.0
 10
92.874962
 20
162.075878
 30
0.0
 10
93.447021
 20
162.075878
 30
0.0
 10
93.911256
 20
162.344031
 30
0.0
  0
SPLINE
  5
10b
100
AcDbEntity
  8
0
 62
1
100
AcDbSpline
 70
8
 71
3
 72
8
 73
4
 74
0
 40
0
 40
0
 40
0
 40
0
 40
1
 40
1
 40
1
 40
1
 10
93.911256
 20
162.344031
 30
0.0
 10
94.375492
 20
162.612185
 30
0.0
 10
94.661321
 20
163.107719
 30
0.0
 10
94.660991
 20
163.643837
 30
0.0
  0
SPLINE
  5
10c
100
AcDbEntity
  8
0
 62
1
100
AcDbSpline
 70
8
 71
3
 72
8
 73
4
 74
0
 40
0
 40
0
 40
0
 40
0
 40
1
 40
1
 40
1
 40
1
 10
14.254985
 20
167.050214
 30
0.0
 10
14.255324
 20
167.586332
 30
0.0
 10
13.969488
 20
168.081866
 30
0.0
 10
13.505251
 20
168.350019
 30
0.0
  0
SPLINE
  5
10d
100
AcDbEntity
  8
0
 62
1
100
AcDbSpline
 70
8
 71
3
 72
8
 73
4
 74
0
 40
0
 40
0
 40
0
 40
0
 40
1
 40
1
 40
1
 40
1
 10
13.505251
 20
168.350019
 30
0.0
 10
13.041014
 20
168.618173
 30
0.0
 10
12.468956
 20
168.618173
 30
0.0
 10
12.004720
 20
168.350019
 30
0.0
  0
SPLINE
  5
10e
100
AcDbEntity
  8
0
 62
1
100
AcDbSpline
 70
8
 71
3
 72
8
 73
4
 74
0
 40
0
 40
0
 40
0
 40
0
 40
1
 40
1
 40
1
 40
1
 10
12.004720
 20
168.350019
 30
0.0
 10
11.540483
 20
168.081866
 30
0.0
 10
11.254657
 20
167.586332
 30
0.0
 10
11.254986
 20
167.050214
 30
0.0
  0
SPLINE
  5
10f
100
AcDbEntity
  8
0
 62
1
100
AcDbSpline
 70
8
 71
3
 72
8
 73
4
 74
0
 40
0
 40
0
 40
0
 40
0
 40
1
 40
1
 40
1
 40
1
 10
11.254986
 20
167.050214
 30
0.0
 10
11.255494
 20
166.222146
 30
0.0
 10
11.926917
 20
165.551134
 30
0.0
 10
12.754985
 20
165.551134
 30
0.0
  0
SPLINE
  5
110
100
AcDbEntity
  8
0
 62
1
100
AcDbSpline
 70
8
 71
3
 72
8
 73
4
 74
0
 40
0
 40
0
 40
0
 40
0
 40
1
 40
1
 40
1
 40
1
 10
12.754985
 20
165.551134
 30
0.0
 10
13.583053
 20
165.551134
 30
0.0
 10
14.254477
 20
166.222146
 30
0.0
 10
14.254985
 20
167.050214
 30
0.0
  0
LWPOLYLINE
  5
111
100
AcDbEntity
  8
0
 62
1
100
AcDbPolyline
 90
6
 70
1
 10
204.549646
 20
183.829321
 30
0.0
 10
204.549646
 20
183.829321
 30
0.0
 10
204.549646
 20
183.829321
 30
0.0
 10
204.549646
 20
183.829321
 30
0.0
 10
204.549646
 20
183.829321
 30
0.0
 10
204.549646
 20
183.829321
 30
0.0
  0
LWPOLYLINE
  5
112
100
AcDbEntity
  8
0
 62
1
100
AcDbPolyline
 90
6
 70
1
 10
94.660991
 20
163.643837
 30
0.0
 10
94.660991
 20
163.643837
 30
0.0
 10
94.660991
 20
163.643837
 30
0.0
 10
94.660991
 20
163.643837
 30
0.0
 10
94.660991
 20
163.643837
 30
0.0
 10
94.660991
 20
163.643837
 30
0.0
  0
LWPOLYLINE
  5
113
100
AcDbEntity
  8
0
 62
1
100
AcDbPolyline
 90
6
 70
1
 10
14.254985
 20
167.050214
 30
0.0
 10
14.254985
 20
167.050214
 30
0.0
 10
14.254985
 20
167.050214
 30
0.0
 10
14.254985
 20
167.050214
 30
0.0
 10
14.254985
 20
167.050214
 30
0.0
 10
14.254985
 20
167.050214
 30
0.0
  0
LWPOLYLINE
  5
114
100
AcDbEntity
  8
0
 62
1
100
AcDbPolyline
 90
2
 70
0
 10
6.491111
 20
166.198837
 30
0.0
 10
6.491111
 20
290.628841
 30
0.0
  0
SPLINE
  5
115
100
AcDbEntity
  8
0
 62
1
100
AcDbSpline
 70
8
 71
3
 72
8
 73
4
 74
0
 40
0
 40
0
 40
0
 40
0
 40
1
 40
1
 40
1
 40
1
 10
14.254988
 20
291.364964
 30
0.0
 10
14.254988
 20
291.900863
 30
0.0
 10
13.969089
 20
292.396054
 30
0.0
 10
13.504987
 20
292.664003
 30
0.0
  0
SPLINE
  5
116
100
AcDbEntity
  8
0
 62
1
100
AcDbSpline
 70
8
 71
3
 72
8
 73
4
 74
0
 40
0
 40
0
 40
0
 40
0
 40
1
 40
1
 40
1
 40
1
 10
13.504987
 20
292.664003
 30
0.0
 10
13.040885
 20
292.931952
 30
0.0
 10
12.469088
 20
292.931952
 30
0.0
 10
12.004986
 20
292.664003
 30
0.0
  0
SPLINE
  5
117
100
AcDbEntity
  8
0
 62
1
100
AcDbSpline
 70
8
 71
3
 72
8
 73
4
 74
0
 40
0
 40
0
 40
0
 40
0
 40
1
 40
1
 40
1
 40
1
 10
12.004986
 20
292.664003
 30
0.0
 10
11.540884
 20
292.396054
 30
0.0
 10
11.254986
 20
291.900863
 30
0.0
 10
11.254986
 20
291.364964
 30
0.0
  0
SPLINE
  5
118
100
AcDbEntity
  8
0
 62
1
100
AcDbSpline
 70
8
 71
3
 72
8
 73
4
 74
0
 40
0
 40
0
 40
0
 40
0
 40
1
 40
1
 40
1
 40
1
 10
11.254986
 20
291.364964
 30
0.0
 10
11.254986
 20
290.829065
 30
0.0
 10
11.540884
 20
290.333874
 30
0.0
 10
12.004986
 20
290.065925
 30
0.0
  0
SPLINE
  5
119
100
AcDbEntity
  8
0
 62
1
100
AcDbSpline
 70
8
 71
3
 72
8
 73
4
 74
0
 40
0
 40
0
 40
0
 40
0
 40
1
 40
1
 40
1
 40
1
 10
12.004986
 20
290.065925
 30
0.0
 10
12.469088
 20
289.797975
 30
0.0
 10
13.040885
 20
289.797975
 30
0.0
 10
13.504987
 20
290.065925
 30
0.0
  0
SPLINE
  5
11a
100
AcDbEntity
  8
0
 62
1
100
AcDbSpline
 70
8
 71
3
 72
8
 73
4
 74
0
 40
0
 40
0
 40
0
 40
0
 40
1
 40
1
 40
1
 40
1
 10
13.504987
 20
290.065925
 30
0.0
 10
13.969089
 20
290.333874
 30
0.0
 10
14.254988
 20
290.829065
 30
0.0
 10
14.254988
 20
291.364964
 30
0.0
  0
LWPOLYLINE
  5
11b
100
AcDbEntity
  8
0
 62
1
100
AcDbPolyline
 90
2
 70
0
 10
13.473871
 20
297.628841
 30
0.0
 10
597.770345
 20
297.628841
 30
0.0
  0
SPLINE
  5
11c
100
AcDbEntity
  8
0
 62
1
100
AcDbSpline
 70
8
 71
3
 72
8
 73
4
 74
0
 40
0
 40
0
 40
0
 40
0
 40
1
 40
1
 40
1
 40
1
 10
109.324411
 20
293.183841
 30
0.0
 10
109.324693
 20
293.719958
 30
0.0
 10
109.038912
 20
294.215492
 30
0.0
 10
108.574676
 20
294.483646
 30
0.0
  0
SPLINE
  5
11d
100
AcDbEntity
  8
0
 62
1
100
AcDbSpline
 70
8
 71
3
 72
8
 73
4
 74
0
 40
0
 40
0
 40
0
 40
0
 40
1
 40
1
 40
1
 40
1
 10
108.574676
 20
294.483646
 30
0.0
 10
108.110441
 20
294.751800
 30
0.0
 10
107.538382
 20
294.751800
 30
0.0
 10
107.074146
 20
294.483646
 30
0.0
  0
SPLINE
  5
11e
100
AcDbEntity
  8
0
 62
1
100
AcDbSpline
 70
8
 71
3
 72
8
 73
4
 74
0
 40
0
 40
0
 40
0
 40
0
 40
1
 40
1
 40
1
 40
1
 10
107.074146
 20
294.483646
 30
0.0
 10
106.609910
 20
294.215492
 30
0.0
 10
106.324081
 20
293.719958
 30
0.0
 10
106.324411
 20
293.183841
 30
0.0
  0
SPLINE
  5
11f
100
AcDbEntity
  8
0
 62
1
100
AcDbSpline
 70
8
 71
3
 72
8
 73
4
 74
0
 40
0
 40
0
 40
0
 40
0
 40
1
 40
1
 40
1
 40
1
 10
106.324411
 20
293.183841
 30
0.0
 10
106.324129
 20
292.647723
 30
0.0
 10
106.609910
 20
292.152190
 30
0.0
 10
107.074146
 20
291.884036
 30
0.0
  0
SPLINE
  5
120
100
AcDbEntity
  8
0
 62
1
100
AcDbSpline
 70
8
 71
3
 72
8
 73
4
 74
0
 40
0
 40
0
 40
0
 40
0
 40
1
 40
1
 40
1
 40
1
 10
107.074146
 20
291.884036
 30
0.0
 10
107.538382
 20
291.615882
 30
0.0
 10
108.110441
 20
291.615882
 30
0.0
 10
108.574676
 20
291.884036
 30
0.0
  0
SPLINE
  5
121
100
AcDbEntity
  8
0
 62
1
100
AcDbSpline
 70
8
 71
3
 72
8
 73
4
 74
0
 40
0
 40
0
 40
0
 40
0
 40
1
 40
1
 40
1
 40
1
 10
108.574676
 20
291.884036
 30
0.0
 10
109.038912
 20
292.152190
 30
0.0
 10
109.324741
 20
292.647723
 30
0.0
 10
109.324411
 20
293.183841
 30
0.0
  0
LWPOLYLINE
  5
122
100
AcDbEntity
  8
0
 62
1
100
AcDbPolyline
 90
2
 70
0
 10
208.416071
 20
180.515211
 30
0.0
 10
182.451683
 20
124.833949
 30
0.0
  0
LWPOLYLINE
  5
123
100
AcDbEntity
  8
0
 62
1
100
AcDbPolyline
 90
2
 70
0
 10
173.149700
 20
121.447875
 30
0.0
 10
93.581722
 20
158.543229
 30
0.0
  0
SPLINE
  5
124
100
AcDbEntity
  8
0
 62
1
100
AcDbSpline
 70
8
 71
3
 72
8
 73
4
 74
0
 40
0
 40
0
 40
0
 40
0
 40
1
 40
1
 40
1
 40
1
 10
162.807687
 20
291.364964
 30
0.0
 10
162.807687
 20
291.900863
 30
0.0
 10
162.521787
 20
292.396054
 30
0.0
 10
162.057687
 20
292.664003
 30
0.0
  0
SPLINE
  5
125
100
AcDbEntity
  8
0
 62
1
100
AcDbSpline
 70
8
 71
3
 72
8
 73
4
 74
0
 40
0
 40
0
 40
0
 40
0
 40
1
 40
1
 40
1
 40
1
 10
162.057687
 20
292.664003
 30
0.0
 10
161.593584
 20
292.931953
 30
0.0
 10
161.021787
 20
292.931953
 30
0.0
 10
160.557684
 20
292.664003
 30
0.0
  0
SPLINE
  5
126
100
AcDbEntity
  8
0
 62
1
100
AcDbSpline
 70
8
 71
3
 72
8
 73
4
 74
0
 40
0
 40
0
 40
0
 40
0
 40
1
 40
1
 40
1
 40
1
 10
160.557684
 20
292.664003
 30
0.0
 10
160.093584
 20
292.396054
 30
0.0
 10
159.807684
 20
291.900863
 30
0.0
 10
159.807684
 20
291.364964
 30
0.0
  0
SPLINE
  5
127
100
AcDbEntity
  8
0
 62
1
100
AcDbSpline
 70
8
 71
3
 72
8
 73
4
 74
0
 40
0
 40
0
 40
0
 40
0
 40
1
 40
1
 40
1
 40
1
 10
159.807684
 20
291.364964
 30
0.0
 10
159.807684
 20
290.536536
 30
0.0
 10
160.479257
 20
289.864963
 30
0.0
 10
161.307684
 20
289.864963
 30
0.0
  0
SPLINE
  5
128
100
AcDbEntity
  8
0
 62
1
100
AcDbSpline
 70
8
 71
3
 72
8
 73
4
 74
0
 40
0
 40
0
 40
0
 40
0
 40
1
 40
1
 40
1
 40
1
 10
161.307684
 20
289.864963
 30
0.0
 10
162.136114
 20
289.864963
 30
0.0
 10
162.807687
 20
290.536536
 30
0.0
 10
162.807687
 20
291.364964
 30
0.0
  0
LWPOLYLINE
  5
129
100
AcDbEntity
  8
0
 62
1
100
AcDbPolyline
 90
6
 70
1
 10
14.254988
 20
291.364964
 30
0.0
 10
14.254988
 20
291.364964
 30
0.0
 10
14.254988
 20
291.364964
 30
0.0
 10
14.254988
 20
291.364964
 30
0.0
 10
14.254988
 20
291.364964
 30
0.0
 10
14.254988
 20
291.364964
 30
0.0
  0
SPLINE
  5
12a
100
AcDbEntity
  8
0
 62
1
100
AcDbSpline
 70
8
 71
3
 72
8
 73
4
 74
0
 40
0
 40
0
 40
0
 40
0
 40
1
 40
1
 40
1
 40
1
 10
13.491111
 20
297.628841
 30
0.0
 10
11.634596
 20
297.628841
 30
0.0
 10
9.854118
 20
296.891343
 30
0.0
 10
8.541364
 20
295.578588
 30
0.0
  0
SPLINE
  5
12b
100
AcDbEntity
  8
0
 62
1
100
AcDbSpline
 70
8
 71
3
 72
8
 73
4
 74
0
 40
0
 40
0
 40
0
 40
0
 40
1
 40
1
 40
1
 40
1
 10
8.541364
 20
295.578588
 30
0.0
 10
7.228609
 20
294.265834
 30
0.0
 10
6.491111
 20
292.485356
 30
0.0
 10
6.491111
 20
290.628841
 30
0.0
  0
SPLINE
  5
12c
100
AcDbEntity
  8
0
 62
1
100
AcDbSpline
 70
8
 71
3
 72
8
 73
4
 74
0
 40
0
 40
0
 40
0
 40
0
 40
1
 40
1
 40
1
 40
1
 10
6.491111
 20
166.198837
 30
0.0
 10
6.491111
 20
164.342323
 30
0.0
 10
7.228609
 20
162.561845
 30
0.0
 10
8.541364
 20
161.249088
 30
0.0
  0
SPLINE
  5
12d
100
AcDbEntity
  8
0
 62
1
100
AcDbSpline
 70
8
 71
3
 72
8
 73
4
 74
0
 40
0
 40
0
 40
0
 40
0
 40
1
 40
1
 40
1
 40
1
 10
8.541364
 20
161.249088
 30
0.0
 10
9.854118
 20
159.936334
 30
0.0
 10
11.634596
 20
159.198837
 30
0.0
 10
13.491111
 20
159.198837
 30
0.0
  0
SPLINE
  5
12e
100
AcDbEntity
  8
0
 62
1
100
AcDbSpline
 70
8
 71
3
 72
8
 73
4
 74
0
 40
0
 40
0
 40
0
 40
0
 40
1
 40
1
 40
1
 40
1
 10
173.149700
 20
121.447875
 30
0.0
 10
176.653416
 20
119.814404
 30
0.0
 10
180.817941
 20
121.330358
 30
0.0
 10
182.451683
 20
124.833949
 30
0.0
  0
SPLINE
  5
12f
100
AcDbEntity
  8
0
 62
1
100
AcDbSpline
 70
8
 71
3
 72
8
 73
4
 74
0
 40
0
 40
0
 40
0
 40
0
 40
1
 40
1
 40
1
 40
1
 10
93.581722
 20
158.543229
 30
0.0
 10
92.655461
 20
158.975060
 30
0.0
 10
91.645881
 20
159.198837
 30
0.0
 10
90.623904
 20
159.198837
 30
0.0
  0
LWPOLYLINE
  5
130
100
AcDbEntity
  8
0
 62
1
100
AcDbPolyline
 90
6
 70
1
 10
109.324411
 20
293.183841
 30
0.0
 10
109.324411
 20
293.183841
 30
0.0
 10
109.324411
 20
293.183841
 30
0.0
 10
109.324411
 20
293.183841
 30
0.0
 10
109.324411
 20
293.183841
 30
0.0
 10
109.324411
 20
293.183841
 30
0.0
  0
SPLINE
  5
131
100
AcDbEntity
  8
0
 62
1
100
AcDbSpline
 70
8
 71
3
 72
8
 73
4
 74
0
 40
0
 40
0
 40
0
 40
0
 40
1
 40
1
 40
1
 40
1
 10
177.963209
 20
126.813258
 30
0.0
 10
177.963491
 20
127.349376
 30
0.0
 10
177.677713
 20
127.844910
 30
0.0
 10
177.213474
 20
128.113064
 30
0.0
  0
SPLINE
  5
132
100
AcDbEntity
  8
0
 62
1
100
AcDbSpline
 70
8
 71
3
 72
8
 73
4
 74
0
 40
0
 40
0
 40
0
 40
0
 40
1
 40
1
 40
1
 40
1
 10
177.213474
 20
128.113064
 30
0.0
 10
176.749239
 20
128.381217
 30
0.0
 10
176.177180
 20
128.381217
 30
0.0
 10
175.712944
 20
128.113064
 30
0.0
  0
SPLINE
  5
133
100
AcDbEntity
  8
0
 62
1
100
AcDbSpline
 70
8
 71
3
 72
8
 73
4
 74
0
 40
0
 40
0
 40
0
 40
0
 40
1
 40
1
 40
1
 40
1
 10
175.712944
 20
128.113064
 30
0.0
 10
175.248705
 20
127.844910
 30
0.0
 10
174.962882
 20
127.349376
 30
0.0
 10
174.963209
 20
126.813258
 30
0.0
  0
SPLINE
  5
134
100
AcDbEntity
  8
0
 62
1
100
AcDbSpline
 70
8
 71
3
 72
8
 73
4
 74
0
 40
0
 40
0
 40
0
 40
0
 40
1
 40
1
 40
1
 40
1
 10
174.963209
 20
126.813258
 30
0.0
 10
174.962927
 20
126.277141
 30
0.0
 10
175.248705
 20
125.781606
 30
0.0
 10
175.712944
 20
125.513453
 30
0.0
  0
SPLINE
  5
135
100
AcDbEntity
  8
0
 62
1
100
AcDbSpline
 70
8
 71
3
 72
8
 73
4
 74
0
 40
0
 40
0
 40
0
 40
0
 40
1
 40
1
 40
1
 40
1
 10
175.712944
 20
125.513453
 30
0.0
 10
176.177180
 20
125.245299
 30
0.0
 10
176.749239
 20
125.245299
 30
0.0
 10
177.213474
 20
125.513453
 30
0.0
  0
SPLINE
  5
136
100
AcDbEntity
  8
0
 62
1
100
AcDbSpline
 70
8
 71
3
 72
8
 73
4
 74
0
 40
0
 40
0
 40
0
 40
0
 40
1
 40
1
 40
1
 40
1
 10
177.213474
 20
125.513453
 30
0.0
 10
177.677713
 20
125.781606
 30
0.0
 10
177.963539
 20
126.277141
 30
0.0
 10
177.963209
 20
126.813258
 30
0.0
  0
LWPOLYLINE
  5
137
100
AcDbEntity
  8
0
 62
1
100
AcDbPolyline
 90
2
 70
0
 10
90.623904
 20
159.198837
 30
0.0
 10
13.491111
 20
159.198837
 30
0.0
  0
LWPOLYLINE
  5
138
100
AcDbEntity
  8
0
 62
1
100
AcDbPolyline
 90
6
 70
1
 10
162.807687
 20
291.364964
 30
0.0
 10
162.807687
 20
291.364964
 30
0.0
 10
162.807687
 20
291.364964
 30
0.0
 10
162.807687
 20
291.364964
 30
0.0
 10
162.807687
 20
291.364964
 30
0.0
 10
162.807687
 20
291.364964
 30
0.0
  0
LWPOLYLINE
  5
139
100
AcDbEntity
  8
0
 62
1
100
AcDbPolyline
 90
2
 70
0
 10
182.491112
 20
129.930854
 30
0.0
 10
182.491112
 20
129.930854
 30
0.0
  0
LWPOLYLINE
  5
13a
100
AcDbEntity
  8
0
 62
1
100
AcDbPolyline
 90
6
 70
1
 10
177.963209
 20
126.813258
 30
0.0
 10
177.963209
 20
126.813258
 30
0.0
 10
177.963209
 20
126.813258
 30
0.0
 10
177.963209
 20
126.813258
 30
0.0
 10
177.963209
 20
126.813258
 30
0.0
 10
177.963209
 20
126.813258
 30
0.0
  0
SPLINE
  5
13b
100
AcDbEntity
  8
0
 62
1
100
AcDbSpline
 70
8
 71
3
 72
8
 73
4
 74
0
 40
0
 40
0
 40
0
 40
0
 40
1
 40
1
 40
1
 40
1
 10
599.984745
 20
291.364992
 30
0.0
 10
599.984745
 20
291.901616
 30
0.0
 10
599.700181
 20
292.397945
 30
0.0
 10
599.235643
 20
292.666573
 30
0.0
  0
SPLINE
  5
13c
100
AcDbEntity
  8
0
 62
1
100
AcDbSpline
 70
8
 71
3
 72
8
 73
4
 74
0
 40
0
 40
0
 40
0
 40
0
 40
1
 40
1
 40
1
 40
1
 10
599.235643
 20
292.666573
 30
0.0
 10
598.771077
 20
292.935201
 30
0.0
 10
598.198420
 20
292.935201
 30
0.0
 10
597.733882
 20
292.666573
 30
0.0
  0
SPLINE
  5
13d
100
AcDbEntity
  8
0
 62
1
100
AcDbSpline
 70
8
 71
3
 72
8
 73
4
 74
0
 40
0
 40
0
 40
0
 40
0
 40
1
 40
1
 40
1
 40
1
 10
597.733882
 20
292.666573
 30
0.0
 10
597.269316
 20
292.397945
 30
0.0
 10
596.983651
 20
291.901616
 30
0.0
 10
596.984751
 20
291.364992
 30
0.0
  0
SPLINE
  5
13e
100
AcDbEntity
  8
0
 62
1
100
AcDbSpline
 70
8
 71
3
 72
8
 73
4
 74
0
 40
0
 40
0
 40
0
 40
0
 40
1
 40
1
 40
1
 40
1
 10
596.984751
 20
291.364992
 30
0.0
 10
596.984751
 20
290.828368
 30
0.0
 10
597.269316
 20
290.332039
 30
0.0
 10
597.733882
 20
290.063411
 30
0.0
  0
SPLINE
  5
13f
100
AcDbEntity
  8
0
 62
1
100
AcDbSpline
 70
8
 71
3
 72
8
 73
4
 74
0
 40
0
 40
0
 40
0
 40
0
 40
1
 40
1
 40
1
 40
1
 10
597.733882
 20
290.063411
 30
0.0
 10
598.198420
 20
289.794783
 30
0.0
 10
598.771077
 20
289.794783
 30
0.0
 10
599.235643
 20
290.063411
 30
0.0
  0
SPLINE
  5
140
100
AcDbEntity
  8
0
 62
1
100
AcDbSpline
 70
8
 71
3
 72
8
 73
4
 74
0
 40
0
 40
0
 40
0
 40
0
 40
1
 40
1
 40
1
 40
1
 10
599.235643
 20
290.063411
 30
0.0
 10
599.700181
 20
290.332039
 30
0.0
 10
599.985846
 20
290.828368
 30
0.0
 10
599.984745
 20
291.364992
 30
0.0
  0
LWPOLYLINE
  5
141
100
AcDbEntity
  8
0
 62
1
100
AcDbPolyline
 90
2
 70
0
 10
182.491112
 20
129.930854
 30
0.0
 10
182.491112
 20
129.930854
 30
0.0
  0
SPLINE
  5
142
100
AcDbEntity
  8
0
 62
1
100
AcDbSpline
 70
8
 71
3
 72
8
 73
4
 74
0
 40
0
 40
0
 40
0
 40
0
 40
1
 40
1
 40
1
 40
1
 10
504.915283
 20
293.183869
 30
0.0
 10
504.918105
 20
293.721473
 30
0.0
 10
504.632524
 20
294.219346
 30
0.0
 10
504.167366
 20
294.488894
 30
0.0
  0
SPLINE
  5
143
100
AcDbEntity
  8
0
 62
1
100
AcDbSpline
 70
8
 71
3
 72
8
 73
4
 74
0
 40
0
 40
0
 40
0
 40
0
 40
1
 40
1
 40
1
 40
1
 10
504.167366
 20
294.488894
 30
0.0
 10
503.702207
 20
294.758443
 30
0.0
 10
503.128393
 20
294.758443
 30
0.0
 10
502.663234
 20
294.488894
 30
0.0
  0
SPLINE
  5
144
100
AcDbEntity
  8
0
 62
1
100
AcDbSpline
 70
8
 71
3
 72
8
 73
4
 74
0
 40
0
 40
0
 40
0
 40
0
 40
1
 40
1
 40
1
 40
1
 10
502.663234
 20
294.488894
 30
0.0
 10
502.198076
 20
294.219346
 30
0.0
 10
501.912749
 20
293.721473
 30
0.0
 10
501.915317
 20
293.183869
 30
0.0
  0
SPLINE
  5
145
100
AcDbEntity
  8
0
 62
1
100
AcDbSpline
 70
8
 71
3
 72
8
 73
4
 74
0
 40
0
 40
0
 40
0
 40
0
 40
1
 40
1
 40
1
 40
1
 10
501.915317
 20
293.183869
 30
0.0
 10
501.912495
 20
292.646265
 30
0.0
 10
502.198076
 20
292.148392
 30
0.0
 10
502.663234
 20
291.878844
 30
0.0
  0
SPLINE
  5
146
100
AcDbEntity
  8
0
 62
1
100
AcDbSpline
 70
8
 71
3
 72
8
 73
4
 74
0
 40
0
 40
0
 40
0
 40
0
 40
1
 40
1
 40
1
 40
1
 10
502.663234
 20
291.878844
 30
0.0
 10
503.128393
 20
291.609295
 30
0.0
 10
503.702207
 20
291.609295
 30
0.0
 10
504.167366
 20
291.878844
 30
0.0
  0
SPLINE
  5
147
100
AcDbEntity
  8
0
 62
1
100
AcDbSpline
 70
8
 71
3
 72
8
 73
4
 74
0
 40
0
 40
0
 40
0
 40
0
 40
1
 40
1
 40
1
 40
1
 10
504.167366
 20
291.878844
 30
0.0
 10
504.632524
 20
292.148392
 30
0.0
 10
504.917851
 20
292.646265
 30
0.0
 10
504.915283
 20
293.183869
 30
0.0
  0
LWPOLYLINE
  5
148
100
AcDbEntity
  8
0
 62
1
100
AcDbPolyline
 90
2
 70
0
 10
402.823624
 20
180.515248
 30
0.0
 10
428.788040
 20
124.833949
 30
0.0
  0
LWPOLYLINE
  5
149
100
AcDbEntity
  8
0
 62
1
100
AcDbPolyline
 90
2
 70
0
 10
438.090000
 20
121.447847
 30
0.0
 10
517.657983
 20
158.543260
 30
0.0
  0
SPLINE
  5
14a
100
AcDbEntity
  8
0
 62
1
100
AcDbSpline
 70
8
 71
3
 72
8
 73
4
 74
0
 40
0
 40
0
 40
0
 40
0
 40
1
 40
1
 40
1
 40
1
 10
451.432055
 20
291.364992
 30
0.0
 10
451.432055
 20
291.900899
 30
0.0
 10
451.146164
 20
292.396098
 30
0.0
 10
450.682050
 20
292.664052
 30
0.0
  0
SPLINE
  5
14b
100
AcDbEntity
  8
0
 62
1
100
AcDbSpline
 70
8
 71
3
 72
8
 73
4
 74
0
 40
0
 40
0
 40
0
 40
0
 40
1
 40
1
 40
1
 40
1
 10
450.682050
 20
292.664052
 30
0.0
 10
450.217935
 20
292.932006
 30
0.0
 10
449.646125
 20
292.932006
 30
0.0
 10
449.182010
 20
292.664052
 30
0.0
  0
SPLINE
  5
14c
100
AcDbEntity
  8
0
 62
1
100
AcDbSpline
 70
8
 71
3
 72
8
 73
4
 74
0
 40
0
 40
0
 40
0
 40
0
 40
1
 40
1
 40
1
 40
1
 10
449.182010
 20
292.664052
 30
0.0
 10
448.717896
 20
292.396098
 30
0.0
 10
448.432005
 20
291.900899
 30
0.0
 10
448.432005
 20
291.364992
 30
0.0
  0
SPLINE
  5
14d
100
AcDbEntity
  8
0
 62
1
100
AcDbSpline
 70
8
 71
3
 72
8
 73
4
 74
0
 40
0
 40
0
 40
0
 40
0
 40
1
 40
1
 40
1
 40
1
 10
448.432005
 20
291.364992
 30
0.0
 10
448.432005
 20
290.829085
 30
0.0
 10
448.717896
 20
290.333886
 30
0.0
 10
449.182010
 20
290.065932
 30
0.0
  0
SPLINE
  5
14e
100
AcDbEntity
  8
0
 62
1
100
AcDbSpline
 70
8
 71
3
 72
8
 73
4
 74
0
 40
0
 40
0
 40
0
 40
0
 40
1
 40
1
 40
1
 40
1
 10
449.182010
 20
290.065932
 30
0.0
 10
449.646125
 20
289.797978
 30
0.0
 10
450.217935
 20
289.797978
 30
0.0
 10
450.682050
 20
290.065932
 30
0.0
  0
SPLINE
  5
14f
100
AcDbEntity
  8
0
 62
1
100
AcDbSpline
 70
8
 71
3
 72
8
 73
4
 74
0
 40
0
 40
0
 40
0
 40
0
 40
1
 40
1
 40
1
 40
1
 10
450.682050
 20
290.065932
 30
0.0
 10
451.146164
 20
290.333886
 30
0.0
 10
451.432055
 20
290.829085
 30
0.0
 10
451.432055
 20
291.364992
 30
0.0
  0
LWPOLYLINE
  5
150
100
AcDbEntity
  8
0
 62
1
100
AcDbPolyline
 90
6
 70
1
 10
599.984745
 20
291.364992
 30
0.0
 10
599.984745
 20
291.364992
 30
0.0
 10
599.984745
 20
291.364992
 30
0.0
 10
599.984745
 20
291.364992
 30
0.0
 10
599.984745
 20
291.364992
 30
0.0
 10
599.984745
 20
291.364992
 30
0.0
  0
SPLINE
  5
151
100
AcDbEntity
  8
0
 62
1
100
AcDbSpline
 70
8
 71
3
 72
8
 73
4
 74
0
 40
0
 40
0
 40
0
 40
0
 40
1
 40
1
 40
1
 40
1
 10
604.748600
 20
290.628869
 30
0.0
 10
604.748600
 20
292.485387
 30
0.0
 10
604.011097
 20
294.265867
 30
0.0
 10
602.698340
 20
295.578622
 30
0.0
  0
SPLINE
  5
152
100
AcDbEntity
  8
0
 62
1
100
AcDbSpline
 70
8
 71
3
 72
8
 73
4
 74
0
 40
0
 40
0
 40
0
 40
0
 40
1
 40
1
 40
1
 40
1
 10
602.698340
 20
295.578622
 30
0.0
 10
601.385584
 20
296.891377
 30
0.0
 10
599.605100
 20
297.628873
 30
0.0
 10
597.748586
 20
297.628869
 30
0.0
  0
SPLINE
  5
153
100
AcDbEntity
  8
0
 62
1
100
AcDbSpline
 70
8
 71
3
 72
8
 73
4
 74
0
 40
0
 40
0
 40
0
 40
0
 40
1
 40
1
 40
1
 40
1
 10
597.748586
 20
159.198862
 30
0.0
 10
599.605100
 20
159.198859
 30
0.0
 10
601.385584
 20
159.936354
 30
0.0
 10
602.698340
 20
161.249105
 30
0.0
  0
SPLINE
  5
154
100
AcDbEntity
  8
0
 62
1
100
AcDbSpline
 70
8
 71
3
 72
8
 73
4
 74
0
 40
0
 40
0
 40
0
 40
0
 40
1
 40
1
 40
1
 40
1
 10
602.698340
 20
161.249105
 30
0.0
 10
604.011097
 20
162.561856
 30
0.0
 10
604.748600
 20
164.342334
 30
0.0
 10
604.748600
 20
166.198848
 30
0.0
  0
SPLINE
  5
155
100
AcDbEntity
  8
0
 62
1
100
AcDbSpline
 70
8
 71
3
 72
8
 73
4
 74
0
 40
0
 40
0
 40
0
 40
0
 40
1
 40
1
 40
1
 40
1
 10
428.788012
 20
124.833949
 30
0.0
 10
430.421740
 20
121.330344
 30
0.0
 10
434.586267
 20
119.814376
 30
0.0
 10
438.090000
 20
121.447847
 30
0.0
  0
SPLINE
  5
156
100
AcDbEntity
  8
0
 62
1
100
AcDbSpline
 70
8
 71
3
 72
8
 73
4
 74
0
 40
0
 40
0
 40
0
 40
0
 40
1
 40
1
 40
1
 40
1
 10
409.690034
 20
183.829355
 30
0.0
 10
409.692856
 20
184.366960
 30
0.0
 10
409.407275
 20
184.864831
 30
0.0
 10
408.942117
 20
185.134382
 30
0.0
  0
SPLINE
  5
157
100
AcDbEntity
  8
0
 62
1
100
AcDbSpline
 70
8
 71
3
 72
8
 73
4
 74
0
 40
0
 40
0
 40
0
 40
0
 40
1
 40
1
 40
1
 40
1
 10
408.942117
 20
185.134382
 30
0.0
 10
408.476958
 20
185.403929
 30
0.0
 10
407.903144
 20
185.403929
 30
0.0
 10
407.437985
 20
185.134382
 30
0.0
  0
SPLINE
  5
158
100
AcDbEntity
  8
0
 62
1
100
AcDbSpline
 70
8
 71
3
 72
8
 73
4
 74
0
 40
0
 40
0
 40
0
 40
0
 40
1
 40
1
 40
1
 40
1
 10
407.437985
 20
185.134382
 30
0.0
 10
406.972826
 20
184.864831
 30
0.0
 10
406.687500
 20
184.366960
 30
0.0
 10
406.690068
 20
183.829355
 30
0.0
  0
SPLINE
  5
159
100
AcDbEntity
  8
0
 62
1
100
AcDbSpline
 70
8
 71
3
 72
8
 73
4
 74
0
 40
0
 40
0
 40
0
 40
0
 40
1
 40
1
 40
1
 40
1
 10
406.690068
 20
183.829355
 30
0.0
 10
406.694019
 20
183.003742
 30
0.0
 10
407.364438
 20
182.336544
 30
0.0
 10
408.190051
 20
182.336544
 30
0.0
  0
SPLINE
  5
15a
100
AcDbEntity
  8
0
 62
1
100
AcDbSpline
 70
8
 71
3
 72
8
 73
4
 74
0
 40
0
 40
0
 40
0
 40
0
 40
1
 40
1
 40
1
 40
1
 10
408.190051
 20
182.336544
 30
0.0
 10
409.015664
 20
182.336544
 30
0.0
 10
409.686083
 20
183.003742
 30
0.0
 10
409.690034
 20
183.829355
 30
0.0
  0
LWPOLYLINE
  5
15b
100
AcDbEntity
  8
0
 62
1
100
AcDbPolyline
 90
6
 70
1
 10
504.915283
 20
293.183869
 30
0.0
 10
504.915283
 20
293.183869
 30
0.0
 10
504.915283
 20
293.183869
 30
0.0
 10
504.915283
 20
293.183869
 30
0.0
 10
504.915283
 20
293.183869
 30
0.0
 10
504.915283
 20
293.183869
 30
0.0
  0
SPLINE
  5
15c
100
AcDbEntity
  8
0
 62
1
100
AcDbSpline
 70
8
 71
3
 72
8
 73
4
 74
0
 40
0
 40
0
 40
0
 40
0
 40
1
 40
1
 40
1
 40
1
 10
520.615785
 20
159.198862
 30
0.0
 10
519.593802
 20
159.198862
 30
0.0
 10
518.584236
 20
158.975088
 30
0.0
 10
517.657983
 20
158.543260
 30
0.0
  0
SPLINE
  5
15d
100
AcDbEntity
  8
0
 62
1
100
AcDbSpline
 70
8
 71
3
 72
8
 73
4
 74
0
 40
0
 40
0
 40
0
 40
0
 40
1
 40
1
 40
1
 40
1
 10
436.276496
 20
126.813258
 30
0.0
 10
436.279318
 20
127.350917
 30
0.0
 10
435.993850
 20
127.848878
 30
0.0
 10
435.528664
 20
128.118477
 30
0.0
  0
SPLINE
  5
15e
100
AcDbEntity
  8
0
 62
1
100
AcDbSpline
 70
8
 71
3
 72
8
 73
4
 74
0
 40
0
 40
0
 40
0
 40
0
 40
1
 40
1
 40
1
 40
1
 10
435.528664
 20
128.118477
 30
0.0
 10
435.063477
 20
128.388078
 30
0.0
 10
434.489550
 20
128.388078
 30
0.0
 10
434.024363
 20
128.118477
 30
0.0
  0
SPLINE
  5
15f
100
AcDbEntity
  8
0
 62
1
100
AcDbSpline
 70
8
 71
3
 72
8
 73
4
 74
0
 40
0
 40
0
 40
0
 40
0
 40
1
 40
1
 40
1
 40
1
 10
434.024363
 20
128.118477
 30
0.0
 10
433.559176
 20
127.848878
 30
0.0
 10
433.273877
 20
127.350917
 30
0.0
 10
433.276530
 20
126.813258
 30
0.0
  0
SPLINE
  5
160
100
AcDbEntity
  8
0
 62
1
100
AcDbSpline
 70
8
 71
3
 72
8
 73
4
 74
0
 40
0
 40
0
 40
0
 40
0
 40
1
 40
1
 40
1
 40
1
 10
433.276530
 20
126.813258
 30
0.0
 10
433.280481
 20
125.987736
 30
0.0
 10
433.950985
 20
125.320675
 30
0.0
 10
434.776513
 20
125.320675
 30
0.0
  0
SPLINE
  5
161
100
AcDbEntity
  8
0
 62
1
100
AcDbSpline
 70
8
 71
3
 72
8
 73
4
 74
0
 40
0
 40
0
 40
0
 40
0
 40
1
 40
1
 40
1
 40
1
 10
434.776513
 20
125.320675
 30
0.0
 10
435.602041
 20
125.320675
 30
0.0
 10
436.272404
 20
125.987736
 30
0.0
 10
436.276496
 20
126.813258
 30
0.0
  0
LWPOLYLINE
  5
162
100
AcDbEntity
  8
0
 62
1
100
AcDbPolyline
 90
2
 70
0
 10
520.615785
 20
159.198862
 30
0.0
 10
597.748586
 20
159.198862
 30
0.0
  0
SPLINE
  5
163
100
AcDbEntity
  8
0
 62
1
100
AcDbSpline
 70
8
 71
3
 72
8
 73
4
 74
0
 40
0
 40
0
 40
0
 40
0
 40
1
 40
1
 40
1
 40
1
 10
519.578731
 20
163.643862
 30
0.0
 10
519.578731
 20
164.180488
 30
0.0
 10
519.294166
 20
164.676815
 30
0.0
 10
518.829629
 20
164.945443
 30
0.0
  0
SPLINE
  5
164
100
AcDbEntity
  8
0
 62
1
100
AcDbSpline
 70
8
 71
3
 72
8
 73
4
 74
0
 40
0
 40
0
 40
0
 40
0
 40
1
 40
1
 40
1
 40
1
 10
518.829629
 20
164.945443
 30
0.0
 10
518.365063
 20
165.214071
 30
0.0
 10
517.792406
 20
165.214071
 30
0.0
 10
517.327840
 20
164.945443
 30
0.0
  0
SPLINE
  5
165
100
AcDbEntity
  8
0
 62
1
100
AcDbSpline
 70
8
 71
3
 72
8
 73
4
 74
0
 40
0
 40
0
 40
0
 40
0
 40
1
 40
1
 40
1
 40
1
 10
517.327840
 20
164.945443
 30
0.0
 10
516.863302
 20
164.676815
 30
0.0
 10
516.577636
 20
164.180488
 30
0.0
 10
516.578737
 20
163.643862
 30
0.0
  0
SPLINE
  5
166
100
AcDbEntity
  8
0
 62
1
100
AcDbSpline
 70
8
 71
3
 72
8
 73
4
 74
0
 40
0
 40
0
 40
0
 40
0
 40
1
 40
1
 40
1
 40
1
 10
516.578737
 20
163.643862
 30
0.0
 10
516.578737
 20
163.107239
 30
0.0
 10
516.863302
 20
162.610909
 30
0.0
 10
517.327840
 20
162.342282
 30
0.0
  0
SPLINE
  5
167
100
AcDbEntity
  8
0
 62
1
100
AcDbSpline
 70
8
 71
3
 72
8
 73
4
 74
0
 40
0
 40
0
 40
0
 40
0
 40
1
 40
1
 40
1
 40
1
 10
517.327840
 20
162.342282
 30
0.0
 10
517.792406
 20
162.073654
 30
0.0
 10
518.365063
 20
162.073654
 30
0.0
 10
518.829629
 20
162.342282
 30
0.0
  0
SPLINE
  5
168
100
AcDbEntity
  8
0
 62
1
100
AcDbSpline
 70
8
 71
3
 72
8
 73
4
 74
0
 40
0
 40
0
 40
0
 40
0
 40
1
 40
1
 40
1
 40
1
 10
518.829629
 20
162.342282
 30
0.0
 10
519.294166
 20
162.610909
 30
0.0
 10
519.579832
 20
163.107239
 30
0.0
 10
519.578731
 20
163.643862
 30
0.0
  0
LWPOLYLINE
  5
169
100
AcDbEntity
  8
0
 62
1
100
AcDbPolyline
 90
6
 70
1
 10
451.432055
 20
291.364992
 30
0.0
 10
451.432055
 20
291.364992
 30
0.0
 10
451.432055
 20
291.364992
 30
0.0
 10
451.432055
 20
291.364992
 30
0.0
 10
451.432055
 20
291.364992
 30
0.0
 10
451.432055
 20
291.364992
 30
0.0
  0
SPLINE
  5
16a
100
AcDbEntity
  8
0
 62
1
100
AcDbSpline
 70
8
 71
3
 72
8
 73
4
 74
0
 40
0
 40
0
 40
0
 40
0
 40
1
 40
1
 40
1
 40
1
 10
599.984745
 20
167.050228
 30
0.0
 10
599.984745
 20
167.586851
 30
0.0
 10
599.700181
 20
168.083181
 30
0.0
 10
599.235643
 20
168.351809
 30
0.0
  0
SPLINE
  5
16b
100
AcDbEntity
  8
0
 62
1
100
AcDbSpline
 70
8
 71
3
 72
8
 73
4
 74
0
 40
0
 40
0
 40
0
 40
0
 40
1
 40
1
 40
1
 40
1
 10
599.235643
 20
168.351809
 30
0.0
 10
598.771077
 20
168.620436
 30
0.0
 10
598.198420
 20
168.620436
 30
0.0
 10
597.733882
 20
168.351809
 30
0.0
  0
SPLINE
  5
16c
100
AcDbEntity
  8
0
 62
1
100
AcDbSpline
 70
8
 71
3
 72
8
 73
4
 74
0
 40
0
 40
0
 40
0
 40
0
 40
1
 40
1
 40
1
 40
1
 10
597.733882
 20
168.351809
 30
0.0
 10
597.269316
 20
168.083181
 30
0.0
 10
596.983651
 20
167.586851
 30
0.0
 10
596.984751
 20
167.050228
 30
0.0
  0
SPLINE
  5
16d
100
AcDbEntity
  8
0
 62
1
100
AcDbSpline
 70
8
 71
3
 72
8
 73
4
 74
0
 40
0
 40
0
 40
0
 40
0
 40
1
 40
1
 40
1
 40
1
 10
596.984751
 20
167.050228
 30
0.0
 10
596.984751
 20
166.513605
 30
0.0
 10
597.269316
 20
166.017275
 30
0.0
 10
597.733882
 20
165.748647
 30
0.0
  0
SPLINE
  5
16e
100
AcDbEntity
  8
0
 62
1
100
AcDbSpline
 70
8
 71
3
 72
8
 73
4
 74
0
 40
0
 40
0
 40
0
 40
0
 40
1
 40
1
 40
1
 40
1
 10
597.733882
 20
165.748647
 30
0.0
 10
598.198420
 20
165.480020
 30
0.0
 10
598.771077
 20
165.480020
 30
0.0
 10
599.235643
 20
165.748647
 30
0.0
  0
SPLINE
  5
16f
100
AcDbEntity
  8
0
 62
1
100
AcDbSpline
 70
8
 71
3
 72
8
 73
4
 74
0
 40
0
 40
0
 40
0
 40
0
 40
1
 40
1
 40
1
 40
1
 10
599.235643
 20
165.748647
 30
0.0
 10
599.700181
 20
166.017275
 30
0.0
 10
599.985846
 20
166.513605
 30
0.0
 10
599.984745
 20
167.050228
 30
0.0
  0
LWPOLYLINE
  5
170
100
AcDbEntity
  8
0
 62
1
100
AcDbPolyline
 90
6
 70
1
 10
409.690034
 20
183.829355
 30
0.0
 10
409.690034
 20
183.829355
 30
0.0
 10
409.690034
 20
183.829355
 30
0.0
 10
409.690034
 20
183.829355
 30
0.0
 10
409.690034
 20
183.829355
 30
0.0
 10
409.690034
 20
183.829355
 30
0.0
  0
LWPOLYLINE
  5
171
100
AcDbEntity
  8
0
 62
1
100
AcDbPolyline
 90
6
 70
1
 10
436.276496
 20
126.813258
 30
0.0
 10
436.276496
 20
126.813258
 30
0.0
 10
436.276496
 20
126.813258
 30
0.0
 10
436.276496
 20
126.813258
 30
0.0
 10
436.276496
 20
126.813258
 30
0.0
 10
436.276496
 20
126.813258
 30
0.0
  0
LWPOLYLINE
  5
172
100
AcDbEntity
  8
0
 62
1
100
AcDbPolyline
 90
6
 70
1
 10
519.578731
 20
163.643862
 30
0.0
 10
519.578731
 20
163.643862
 30
0.0
 10
519.578731
 20
163.643862
 30
0.0
 10
519.578731
 20
163.643862
 30
0.0
 10
519.578731
 20
163.643862
 30
0.0
 10
519.578731
 20
163.643862
 30
0.0
  0
SPLINE
  5
173
100
AcDbEntity
  8
0
 62
1
100
AcDbSpline
 70
8
 71
3
 72
8
 73
4
 74
0
 40
0
 40
0
 40
0
 40
0
 40
1
 40
1
 40
1
 40
1
 10
214.756915
 20
184.551934
 30
0.0
 10
212.036414
 20
184.551934
 30
0.0
 10
209.562316
 20
182.975704
 30
0.0
 10
208.412664
 20
180.510055
 30
0.0
  0
SPLINE
  5
174
100
AcDbEntity
  8
0
 62
1
100
AcDbSpline
 70
8
 71
3
 72
8
 73
4
 74
0
 40
0
 40
0
 40
0
 40
0
 40
1
 40
1
 40
1
 40
1
 10
402.824809
 20
180.508178
 30
0.0
 10
401.675148
 20
182.973844
 30
0.0
 10
399.201047
 20
184.550083
 30
0.0
 10
396.480538
 20
184.550080
 30
0.0
  0
LWPOLYLINE
  5
175
100
AcDbEntity
  8
0
 62
1
100
AcDbPolyline
 90
6
 70
1
 10
599.984745
 20
167.050228
 30
0.0
 10
599.984745
 20
167.050228
 30
0.0
 10
599.984745
 20
167.050228
 30
0.0
 10
599.984745
 20
167.050228
 30
0.0
 10
599.984745
 20
167.050228
 30
0.0
 10
599.984745
 20
167.050228
 30
0.0
  0
SPLINE
  5
176
100
AcDbEntity
  8
0
 62
1
100
AcDbSpline
 70
8
 71
3
 72
8
 73
4
 74
0
 40
0
 40
0
 40
0
 40
0
 40
1
 40
1
 40
1
 40
1
 10
16.381125
 20
263.711432
 30
0.0
 10
15.828841
 20
263.711432
 30
0.0
 10
15.381126
 20
263.263718
 30
0.0
 10
15.381125
 20
262.711434
 30
0.0
  0
SPLINE
  5
177
100
AcDbEntity
  8
0
 62
1
100
AcDbSpline
 70
8
 71
3
 72
8
 73
4
 74
0
 40
0
 40
0
 40
0
 40
0
 40
1
 40
1
 40
1
 40
1
 10
15.381125
 20
188.003433
 30
0.0
 10
15.381124
 20
187.738215
 30
0.0
 10
15.486481
 20
187.483862
 30
0.0
 10
15.674018
 20
187.296325
 30
0.0
  0
SPLINE
  5
178
100
AcDbEntity
  8
0
 62
1
100
AcDbSpline
 70
8
 71
3
 72
8
 73
4
 74
0
 40
0
 40
0
 40
0
 40
0
 40
1
 40
1
 40
1
 40
1
 10
15.674018
 20
187.296325
 30
0.0
 10
15.861554
 20
187.108789
 30
0.0
 10
16.115909
 20
187.003432
 30
0.0
 10
16.381125
 20
187.003432
 30
0.0
  0
LWPOLYLINE
  5
179
100
AcDbEntity
  8
0
 62
1
100
AcDbPolyline
 90
2
 70
0
 10
428.748585
 20
129.930854
 30
0.0
 10
428.748585
 20
129.930854
 30
0.0
  0
LWPOLYLINE
  5
17a
100
AcDbEntity
  8
0
 62
1
100
AcDbPolyline
 90
2
 70
0
 10
604.748600
 20
166.198848
 30
0.0
 10
604.748600
 20
290.628869
 30
0.0
  0
SPLINE
  5
17b
100
AcDbEntity
  8
0
 62
1
100
AcDbSpline
 70
8
 71
3
 72
8
 73
4
 74
0
 40
0
 40
0
 40
0
 40
0
 40
1
 40
1
 40
1
 40
1
 10
145.099868
 20
188.908432
 30
0.0
 10
144.623480
 20
188.908430
 30
0.0
 10
144.211063
 20
188.577431
 30
0.0
 10
144.107956
 20
188.112334
 30
0.0
  0
SPLINE
  5
17c
100
AcDbEntity
  8
0
 62
1
100
AcDbSpline
 70
8
 71
3
 72
8
 73
4
 74
0
 40
0
 40
0
 40
0
 40
0
 40
1
 40
1
 40
1
 40
1
 10
144.107956
 20
188.112334
 30
0.0
 10
144.004846
 20
187.647240
 30
0.0
 10
144.238734
 20
187.172958
 30
0.0
 10
144.670486
 20
186.971623
 30
0.0
  0
LWPOLYLINE
  5
17d
100
AcDbEntity
  8
0
 62
1
100
AcDbPolyline
 90
2
 70
0
 10
396.590746
 20
184.552818
 30
0.0
 10
214.732035
 20
184.552806
 30
0.0
  0
SPLINE
  5
17e
100
AcDbEntity
  8
0
 62
1
100
AcDbSpline
 70
8
 71
3
 72
8
 73
4
 74
0
 40
0
 40
0
 40
0
 40
0
 40
1
 40
1
 40
1
 40
1
 10
155.132360
 20
182.093172
 30
0.0
 10
155.498679
 20
181.922354
 30
0.0
 10
155.917855
 20
181.904052
 30
0.0
 10
156.297670
 20
182.042293
 30
0.0
  0
SPLINE
  5
17f
100
AcDbEntity
  8
0
 62
1
100
AcDbSpline
 70
8
 71
3
 72
8
 73
4
 74
0
 40
0
 40
0
 40
0
 40
0
 40
1
 40
1
 40
1
 40
1
 10
156.297670
 20
182.042293
 30
0.0
 10
156.677484
 20
182.180534
 30
0.0
 10
156.986825
 20
182.463995
 30
0.0
 10
157.157643
 20
182.830314
 30
0.0
  0
LWPOLYLINE
  5
180
100
AcDbEntity
  8
0
 62
1
100
AcDbPolyline
 90
2
 70
0
 10
15.381125
 20
188.003433
 30
0.0
 10
15.381125
 20
262.711434
 30
0.0
  0
SPLINE
  5
181
100
AcDbEntity
  8
0
 62
1
100
AcDbSpline
 70
8
 71
3
 72
8
 73
4
 74
0
 40
0
 40
0
 40
0
 40
0
 40
1
 40
1
 40
1
 40
1
 10
165.485259
 20
198.284885
 30
0.0
 10
164.976708
 20
198.522025
 30
0.0
 10
164.372211
 20
198.302016
 30
0.0
 10
164.135071
 20
197.793454
 30
0.0
  0
LWPOLYLINE
  5
182
100
AcDbEntity
  8
0
 62
1
100
AcDbPolyline
 90
2
 70
0
 10
158.675268
 20
264.600432
 30
0.0
 10
158.687911
 20
199.284242
 30
0.0
  0
SPLINE
  5
183
100
AcDbEntity
  8
0
 62
1
100
AcDbSpline
 70
8
 71
3
 72
8
 73
4
 74
0
 40
0
 40
0
 40
0
 40
0
 40
1
 40
1
 40
1
 40
1
 10
199.125800
 20
181.477010
 30
0.0
 10
199.239680
 20
181.721223
 30
0.0
 10
199.251880
 20
182.000674
 30
0.0
 10
199.159721
 20
182.253884
 30
0.0
  0
SPLINE
  5
184
100
AcDbEntity
  8
0
 62
1
100
AcDbSpline
 70
8
 71
3
 72
8
 73
4
 74
0
 40
0
 40
0
 40
0
 40
0
 40
1
 40
1
 40
1
 40
1
 10
199.159721
 20
182.253884
 30
0.0
 10
199.067558
 20
182.507093
 30
0.0
 10
198.878585
 20
182.713322
 30
0.0
 10
198.634373
 20
182.827201
 30
0.0
  0
LWPOLYLINE
  5
185
100
AcDbEntity
  8
0
 62
1
100
AcDbPolyline
 90
2
 70
0
 10
144.670486
 20
186.971623
 30
0.0
 10
155.132360
 20
182.093172
 30
0.0
  0
SPLINE
  5
186
100
AcDbEntity
  8
0
 62
1
100
AcDbSpline
 70
8
 71
3
 72
8
 73
4
 74
0
 40
0
 40
0
 40
0
 40
0
 40
1
 40
1
 40
1
 40
1
 10
174.267049
 20
130.571304
 30
0.0
 10
174.511262
 20
130.457427
 30
0.0
 10
174.790712
 20
130.445224
 30
0.0
 10
175.043922
 20
130.537387
 30
0.0
  0
SPLINE
  5
187
100
AcDbEntity
  8
0
 62
1
100
AcDbSpline
 70
8
 71
3
 72
8
 73
4
 74
0
 40
0
 40
0
 40
0
 40
0
 40
1
 40
1
 40
1
 40
1
 10
175.043922
 20
130.537387
 30
0.0
 10
175.297132
 20
130.629546
 30
0.0
 10
175.503360
 20
130.818519
 30
0.0
 10
175.617240
 20
131.062732
 30
0.0
  0
LWPOLYLINE
  5
188
100
AcDbEntity
  8
0
 62
1
100
AcDbPolyline
 90
2
 70
0
 10
157.157643
 20
182.830314
 30
0.0
 10
164.135071
 20
197.793454
 30
0.0
  0
SPLINE
  5
189
100
AcDbEntity
  8
0
 62
1
100
AcDbSpline
 70
8
 71
3
 72
8
 73
4
 74
0
 40
0
 40
0
 40
0
 40
0
 40
1
 40
1
 40
1
 40
1
 10
123.361343
 20
155.430058
 30
0.0
 10
123.124203
 20
154.921508
 30
0.0
 10
123.344212
 20
154.317008
 30
0.0
 10
123.852773
 20
154.079870
 30
0.0
  0
LWPOLYLINE
  5
18a
100
AcDbEntity
  8
0
 62
1
100
AcDbPolyline
 90
2
 70
0
 10
165.485259
 20
198.284885
 30
0.0
 10
198.634373
 20
182.827201
 30
0.0
  0
SPLINE
  5
18b
100
AcDbEntity
  8
0
 62
1
100
AcDbSpline
 70
8
 71
3
 72
8
 73
4
 74
0
 40
0
 40
0
 40
0
 40
0
 40
1
 40
1
 40
1
 40
1
 10
137.961579
 20
186.740365
 30
0.0
 10
138.181670
 20
187.212353
 30
0.0
 10
138.145509
 20
187.764052
 30
0.0
 10
137.865691
 20
188.203275
 30
0.0
  0
SPLINE
  5
18c
100
AcDbEntity
  8
0
 62
1
100
AcDbSpline
 70
8
 71
3
 72
8
 73
4
 74
0
 40
0
 40
0
 40
0
 40
0
 40
1
 40
1
 40
1
 40
1
 10
137.865691
 20
188.203275
 30
0.0
 10
137.585876
 20
188.642500
 30
0.0
 10
137.101148
 20
188.908430
 30
0.0
 10
136.580366
 20
188.908432
 30
0.0
  0
LWPOLYLINE
  5
18d
100
AcDbEntity
  8
0
 62
1
100
AcDbPolyline
 90
2
 70
0
 10
199.125800
 20
181.477010
 30
0.0
 10
175.617240
 20
131.062732
 30
0.0
  0
SPLINE
  5
18e
100
AcDbEntity
  8
0
 62
1
100
AcDbSpline
 70
8
 71
3
 72
8
 73
4
 74
0
 40
0
 40
0
 40
0
 40
0
 40
1
 40
1
 40
1
 40
1
 10
122.099268
 20
188.908432
 30
0.0
 10
121.695077
 20
188.908432
 30
0.0
 10
121.307442
 20
188.747868
 30
0.0
 10
121.021636
 20
188.462061
 30
0.0
  0
SPLINE
  5
18f
100
AcDbEntity
  8
0
 62
1
100
AcDbSpline
 70
8
 71
3
 72
8
 73
4
 74
0
 40
0
 40
0
 40
0
 40
0
 40
1
 40
1
 40
1
 40
1
 10
121.021636
 20
188.462061
 30
0.0
 10
120.735832
 20
188.176258
 30
0.0
 10
120.575268
 20
187.788620
 30
0.0
 10
120.575268
 20
187.384432
 30
0.0
  0
LWPOLYLINE
  5
190
100
AcDbEntity
  8
0
 62
1
100
AcDbPolyline
 90
2
 70
0
 10
174.267049
 20
130.571304
 30
0.0
 10
123.852773
 20
154.079870
 30
0.0
  0
SPLINE
  5
191
100
AcDbEntity
  8
0
 62
1
100
AcDbSpline
 70
8
 71
3
 72
8
 73
4
 74
0
 40
0
 40
0
 40
0
 40
0
 40
1
 40
1
 40
1
 40
1
 10
119.559268
 20
171.128432
 30
0.0
 10
119.828728
 20
171.128432
 30
0.0
 10
120.087150
 20
171.235474
 30
0.0
 10
120.277687
 20
171.426010
 30
0.0
  0
SPLINE
  5
192
100
AcDbEntity
  8
0
 62
1
100
AcDbSpline
 70
8
 71
3
 72
8
 73
4
 74
0
 40
0
 40
0
 40
0
 40
0
 40
1
 40
1
 40
1
 40
1
 10
120.277687
 20
171.426010
 30
0.0
 10
120.468223
 20
171.616547
 30
0.0
 10
120.575268
 20
171.874972
 30
0.0
 10
120.575268
 20
172.144432
 30
0.0
  0
LWPOLYLINE
  5
193
100
AcDbEntity
  8
0
 62
1
100
AcDbPolyline
 90
2
 70
0
 10
123.361343
 20
155.430058
 30
0.0
 10
137.961579
 20
186.740365
 30
0.0
  0
SPLINE
  5
194
100
AcDbEntity
  8
0
 62
1
100
AcDbSpline
 70
8
 71
3
 72
8
 73
4
 74
0
 40
0
 40
0
 40
0
 40
0
 40
1
 40
1
 40
1
 40
1
 10
100.906052
 20
171.763432
 30
0.0
 10
101.061303
 20
171.379638
 30
0.0
 10
101.433904
 20
171.128432
 30
0.0
 10
101.847910
 20
171.128432
 30
0.0
  0
SPLINE
  5
195
100
AcDbEntity
  8
0
 62
1
100
AcDbSpline
 70
8
 71
3
 72
8
 73
4
 74
0
 40
0
 40
0
 40
0
 40
0
 40
1
 40
1
 40
1
 40
1
 10
100.906052
 20
171.763432
 30
0.0
 10
100.673174
 20
172.339121
 30
0.0
 10
100.114275
 20
172.715930
 30
0.0
 10
99.493268
 20
172.715932
 30
0.0
  0
LWPOLYLINE
  5
196
100
AcDbEntity
  8
0
 62
1
100
AcDbPolyline
 90
2
 70
0
 10
136.580366
 20
188.908432
 30
0.0
 10
122.099268
 20
188.908432
 30
0.0
  0
SPLINE
  5
197
100
AcDbEntity
  8
0
 62
1
100
AcDbSpline
 70
8
 71
3
 72
8
 73
4
 74
0
 40
0
 40
0
 40
0
 40
0
 40
1
 40
1
 40
1
 40
1
 10
83.999268
 20
172.715932
 30
0.0
 10
83.378257
 20
172.715932
 30
0.0
 10
82.819359
 20
172.339123
 30
0.0
 10
82.586480
 20
171.763432
 30
0.0
  0
SPLINE
  5
198
100
AcDbEntity
  8
0
 62
1
100
AcDbSpline
 70
8
 71
3
 72
8
 73
4
 74
0
 40
0
 40
0
 40
0
 40
0
 40
1
 40
1
 40
1
 40
1
 10
81.644625
 20
171.128432
 30
0.0
 10
82.058629
 20
171.128432
 30
0.0
 10
82.431227
 20
171.379638
 30
0.0
 10
82.586480
 20
171.763432
 30
0.0
  0
LWPOLYLINE
  5
199
100
AcDbEntity
  8
0
 62
1
100
AcDbPolyline
 90
2
 70
0
 10
120.575268
 20
187.384432
 30
0.0
 10
120.575268
 20
172.144432
 30
0.0
  0
SPLINE
  5
19a
100
AcDbEntity
  8
0
 62
1
100
AcDbSpline
 70
8
 71
3
 72
8
 73
4
 74
0
 40
0
 40
0
 40
0
 40
0
 40
1
 40
1
 40
1
 40
1
 10
64.949268
 20
171.128432
 30
0.0
 10
64.107585
 20
171.128432
 30
0.0
 10
63.425268
 20
170.446112
 30
0.0
 10
63.425268
 20
169.604432
 30
0.0
  0
LWPOLYLINE
  5
19b
100
AcDbEntity
  8
0
 62
1
100
AcDbPolyline
 90
2
 70
0
 10
119.559268
 20
171.128432
 30
0.0
 10
101.847910
 20
171.128432
 30
0.0
  0
SPLINE
  5
19c
100
AcDbEntity
  8
0
 62
1
100
AcDbSpline
 70
8
 71
3
 72
8
 73
4
 74
0
 40
0
 40
0
 40
0
 40
0
 40
1
 40
1
 40
1
 40
1
 10
62.409268
 20
167.953432
 30
0.0
 10
62.678728
 20
167.953432
 30
0.0
 10
62.937150
 20
168.060474
 30
0.0
 10
63.127687
 20
168.251010
 30
0.0
  0
SPLINE
  5
19d
100
AcDbEntity
  8
0
 62
1
100
AcDbSpline
 70
8
 71
3
 72
8
 73
4
 74
0
 40
0
 40
0
 40
0
 40
0
 40
1
 40
1
 40
1
 40
1
 10
63.127687
 20
168.251010
 30
0.0
 10
63.318223
 20
168.441547
 30
0.0
 10
63.425268
 20
168.699972
 30
0.0
 10
63.425268
 20
168.969432
 30
0.0
  0
LWPOLYLINE
  5
19e
100
AcDbEntity
  8
0
 62
1
100
AcDbPolyline
 90
2
 70
0
 10
99.493268
 20
172.715932
 30
0.0
 10
83.999268
 20
172.715932
 30
0.0
  0
SPLINE
  5
19f
100
AcDbEntity
  8
0
 62
1
100
AcDbSpline
 70
8
 71
3
 72
8
 73
4
 74
0
 40
0
 40
0
 40
0
 40
0
 40
1
 40
1
 40
1
 40
1
 10
24.817267
 20
168.969432
 30
0.0
 10
24.817267
 20
168.699972
 30
0.0
 10
24.924310
 20
168.441547
 30
0.0
 10
25.114847
 20
168.251010
 30
0.0
  0
SPLINE
  5
1a0
100
AcDbEntity
  8
0
 62
1
100
AcDbSpline
 70
8
 71
3
 72
8
 73
4
 74
0
 40
0
 40
0
 40
0
 40
0
 40
1
 40
1
 40
1
 40
1
 10
25.114847
 20
168.251010
 30
0.0
 10
25.305383
 20
168.060474
 30
0.0
 10
25.563807
 20
167.953432
 30
0.0
 10
25.833267
 20
167.953432
 30
0.0
  0
LWPOLYLINE
  5
1a1
100
AcDbEntity
  8
0
 62
1
100
AcDbPolyline
 90
2
 70
0
 10
81.644625
 20
171.128432
 30
0.0
 10
64.949268
 20
171.128432
 30
0.0
  0
SPLINE
  5
1a2
100
AcDbEntity
  8
0
 62
1
100
AcDbSpline
 70
8
 71
3
 72
8
 73
4
 74
0
 40
0
 40
0
 40
0
 40
0
 40
1
 40
1
 40
1
 40
1
 10
24.817267
 20
185.479432
 30
0.0
 10
24.817267
 20
185.883620
 30
0.0
 10
24.656703
 20
186.271258
 30
0.0
 10
24.370898
 20
186.557061
 30
0.0
  0
SPLINE
  5
1a3
100
AcDbEntity
  8
0
 62
1
100
AcDbSpline
 70
8
 71
3
 72
8
 73
4
 74
0
 40
0
 40
0
 40
0
 40
0
 40
1
 40
1
 40
1
 40
1
 10
24.370898
 20
186.557061
 30
0.0
 10
24.085092
 20
186.842868
 30
0.0
 10
23.697457
 20
187.003432
 30
0.0
 10
23.293267
 20
187.003432
 30
0.0
  0
LWPOLYLINE
  5
1a4
100
AcDbEntity
  8
0
 62
1
100
AcDbPolyline
 90
2
 70
0
 10
63.425268
 20
169.604432
 30
0.0
 10
63.425268
 20
168.969432
 30
0.0
  0
LWPOLYLINE
  5
1a5
100
AcDbEntity
  8
0
 62
1
100
AcDbPolyline
 90
2
 70
0
 10
62.409268
 20
167.953432
 30
0.0
 10
25.833267
 20
167.953432
 30
0.0
  0
SPLINE
  5
1a6
100
AcDbEntity
  8
0
 62
1
100
AcDbSpline
 70
8
 71
3
 72
8
 73
4
 74
0
 40
0
 40
0
 40
0
 40
0
 40
1
 40
1
 40
1
 40
1
 10
61.393268
 20
263.711432
 30
0.0
 10
61.797458
 20
263.711432
 30
0.0
 10
62.185093
 20
263.871994
 30
0.0
 10
62.470899
 20
264.157801
 30
0.0
  0
SPLINE
  5
1a7
100
AcDbEntity
  8
0
 62
1
100
AcDbSpline
 70
8
 71
3
 72
8
 73
4
 74
0
 40
0
 40
0
 40
0
 40
0
 40
1
 40
1
 40
1
 40
1
 10
62.470899
 20
264.157801
 30
0.0
 10
62.756703
 20
264.443607
 30
0.0
 10
62.917268
 20
264.831242
 30
0.0
 10
62.917268
 20
265.235432
 30
0.0
  0
LWPOLYLINE
  5
1a8
100
AcDbEntity
  8
0
 62
1
100
AcDbPolyline
 90
2
 70
0
 10
24.817267
 20
168.969432
 30
0.0
 10
24.817267
 20
185.479432
 30
0.0
  0
SPLINE
  5
1a9
100
AcDbEntity
  8
0
 62
1
100
AcDbSpline
 70
8
 71
3
 72
8
 73
4
 74
0
 40
0
 40
0
 40
0
 40
0
 40
1
 40
1
 40
1
 40
1
 10
63.933268
 20
266.886432
 30
0.0
 10
63.663807
 20
266.886432
 30
0.0
 10
63.405382
 20
266.779388
 30
0.0
 10
63.214845
 20
266.588852
 30
0.0
  0
SPLINE
  5
1aa
100
AcDbEntity
  8
0
 62
1
100
AcDbSpline
 70
8
 71
3
 72
8
 73
4
 74
0
 40
0
 40
0
 40
0
 40
0
 40
1
 40
1
 40
1
 40
1
 10
63.214845
 20
266.588852
 30
0.0
 10
63.024309
 20
266.398315
 30
0.0
 10
62.917268
 20
266.139890
 30
0.0
 10
62.917268
 20
265.870432
 30
0.0
  0
LWPOLYLINE
  5
1ab
100
AcDbEntity
  8
0
 62
1
100
AcDbPolyline
 90
2
 70
0
 10
23.293267
 20
187.003432
 30
0.0
 10
16.381125
 20
187.003432
 30
0.0
  0
SPLINE
  5
1ac
100
AcDbEntity
  8
0
 62
1
100
AcDbSpline
 70
8
 71
3
 72
8
 73
4
 74
0
 40
0
 40
0
 40
0
 40
0
 40
1
 40
1
 40
1
 40
1
 10
80.443268
 20
266.886432
 30
0.0
 10
81.064275
 20
266.886432
 30
0.0
 10
81.623174
 20
267.263241
 30
0.0
 10
81.856052
 20
267.838932
 30
0.0
  0
SPLINE
  5
1ad
100
AcDbEntity
  8
0
 62
1
100
AcDbSpline
 70
8
 71
3
 72
8
 73
4
 74
0
 40
0
 40
0
 40
0
 40
0
 40
1
 40
1
 40
1
 40
1
 10
82.797910
 20
268.473932
 30
0.0
 10
82.383904
 20
268.473932
 30
0.0
 10
82.011303
 20
268.222726
 30
0.0
 10
81.856052
 20
267.838932
 30
0.0
  0
LWPOLYLINE
  5
1ae
100
AcDbEntity
  8
0
 62
1
100
AcDbPolyline
 90
2
 70
0
 10
16.381125
 20
263.711432
 30
0.0
 10
61.393268
 20
263.711432
 30
0.0
  0
SPLINE
  5
1af
100
AcDbEntity
  8
0
 62
1
100
AcDbSpline
 70
8
 71
3
 72
8
 73
4
 74
0
 40
0
 40
0
 40
0
 40
0
 40
1
 40
1
 40
1
 40
1
 10
101.636480
 20
267.838932
 30
0.0
 10
101.481227
 20
268.222724
 30
0.0
 10
101.108629
 20
268.473930
 30
0.0
 10
100.694625
 20
268.473932
 30
0.0
  0
SPLINE
  5
1b0
100
AcDbEntity
  8
0
 62
1
100
AcDbSpline
 70
8
 71
3
 72
8
 73
4
 74
0
 40
0
 40
0
 40
0
 40
0
 40
1
 40
1
 40
1
 40
1
 10
101.636480
 20
267.838932
 30
0.0
 10
101.869359
 20
267.263241
 30
0.0
 10
102.428257
 20
266.886430
 30
0.0
 10
103.049268
 20
266.886432
 30
0.0
  0
LWPOLYLINE
  5
1b1
100
AcDbEntity
  8
0
 62
1
100
AcDbPolyline
 90
2
 70
0
 10
62.917268
 20
265.235432
 30
0.0
 10
62.917268
 20
265.870432
 30
0.0
  0
SPLINE
  5
1b2
100
AcDbEntity
  8
0
 62
1
100
AcDbSpline
 70
8
 71
3
 72
8
 73
4
 74
0
 40
0
 40
0
 40
0
 40
0
 40
1
 40
1
 40
1
 40
1
 10
120.779444
 20
266.378432
 30
0.0
 10
120.597953
 20
266.692783
 30
0.0
 10
120.262543
 20
266.886432
 30
0.0
 10
119.899563
 20
266.886432
 30
0.0
  0
SPLINE
  5
1b3
100
AcDbEntity
  8
0
 62
1
100
AcDbSpline
 70
8
 71
3
 72
8
 73
4
 74
0
 40
0
 40
0
 40
0
 40
0
 40
1
 40
1
 40
1
 40
1
 10
120.779444
 20
266.378432
 30
0.0
 10
121.051681
 20
265.906904
 30
0.0
 10
121.554793
 20
265.616432
 30
0.0
 10
122.099268
 20
265.616432
 30
0.0
  0
LWPOLYLINE
  5
1b4
100
AcDbEntity
  8
0
 62
1
100
AcDbPolyline
 90
2
 70
0
 10
63.933268
 20
266.886432
 30
0.0
 10
80.443268
 20
266.886432
 30
0.0
  0
SPLINE
  5
1b5
100
AcDbEntity
  8
0
 62
1
100
AcDbSpline
 70
8
 71
3
 72
8
 73
4
 74
0
 40
0
 40
0
 40
0
 40
0
 40
1
 40
1
 40
1
 40
1
 10
158.675268
 20
264.600432
 30
0.0
 10
158.675268
 20
264.869890
 30
0.0
 10
158.568223
 20
265.128315
 30
0.0
 10
158.377687
 20
265.318852
 30
0.0
  0
SPLINE
  5
1b6
100
AcDbEntity
  8
0
 62
1
100
AcDbSpline
 70
8
 71
3
 72
8
 73
4
 74
0
 40
0
 40
0
 40
0
 40
0
 40
1
 40
1
 40
1
 40
1
 10
158.377687
 20
265.318852
 30
0.0
 10
158.187150
 20
265.509388
 30
0.0
 10
157.928728
 20
265.616432
 30
0.0
 10
157.659268
 20
265.616432
 30
0.0
  0
LWPOLYLINE
  5
1b7
100
AcDbEntity
  8
0
 62
1
100
AcDbPolyline
 90
2
 70
0
 10
82.797910
 20
268.473932
 30
0.0
 10
100.694625
 20
268.473932
 30
0.0
  0
SPLINE
  5
1b8
100
AcDbEntity
  8
0
 62
1
100
AcDbSpline
 70
8
 71
3
 72
8
 73
4
 74
0
 40
0
 40
0
 40
0
 40
0
 40
1
 40
1
 40
1
 40
1
 10
157.659268
 20
188.908432
 30
0.0
 10
157.928728
 20
188.908432
 30
0.0
 10
158.187150
 20
189.015474
 30
0.0
 10
158.377687
 20
189.206010
 30
0.0
  0
SPLINE
  5
1b9
100
AcDbEntity
  8
0
 62
1
100
AcDbSpline
 70
8
 71
3
 72
8
 73
4
 74
0
 40
0
 40
0
 40
0
 40
0
 40
1
 40
1
 40
1
 40
1
 10
158.377687
 20
189.206010
 30
0.0
 10
158.568223
 20
189.396547
 30
0.0
 10
158.675268
 20
189.654972
 30
0.0
 10
158.675268
 20
189.924432
 30
0.0
  0
LWPOLYLINE
  5
1ba
100
AcDbEntity
  8
0
 62
1
100
AcDbPolyline
 90
2
 70
0
 10
103.049268
 20
266.886432
 30
0.0
 10
119.899563
 20
266.886432
 30
0.0
  0
LWPOLYLINE
  5
1bb
100
AcDbEntity
  8
0
 62
1
100
AcDbPolyline
 90
2
 70
0
 10
122.099268
 20
265.616432
 30
0.0
 10
157.659268
 20
265.616432
 30
0.0
  0
LWPOLYLINE
  5
1bc
100
AcDbEntity
  8
0
 62
1
100
AcDbPolyline
 90
2
 70
0
 10
158.675268
 20
264.600432
 30
0.0
 10
158.675268
 20
189.924432
 30
0.0
  0
SPLINE
  5
1bd
100
AcDbEntity
  8
0
 62
1
100
AcDbSpline
 70
8
 71
3
 72
8
 73
4
 74
0
 40
0
 40
0
 40
0
 40
0
 40
1
 40
1
 40
1
 40
1
 10
466.569242
 20
187.018232
 30
0.0
 10
467.000985
 20
187.219561
 30
0.0
 10
467.234891
 20
187.693847
 30
0.0
 10
467.131767
 20
188.158943
 30
0.0
  0
SPLINE
  5
1be
100
AcDbEntity
  8
0
 62
1
100
AcDbSpline
 70
8
 71
3
 72
8
 73
4
 74
0
 40
0
 40
0
 40
0
 40
0
 40
1
 40
1
 40
1
 40
1
 10
467.131767
 20
188.158943
 30
0.0
 10
467.028671
 20
188.624040
 30
0.0
 10
466.616260
 20
188.955041
 30
0.0
 10
466.139869
 20
188.955041
 30
0.0
  0
LWPOLYLINE
  5
1bf
100
AcDbEntity
  8
0
 62
1
100
AcDbPolyline
 90
2
 70
0
 10
157.659268
 20
188.908432
 30
0.0
 10
145.099868
 20
188.908432
 30
0.0
  0
SPLINE
  5
1c0
100
AcDbEntity
  8
0
 62
1
100
AcDbSpline
 70
8
 71
3
 72
8
 73
4
 74
0
 40
0
 40
0
 40
0
 40
0
 40
1
 40
1
 40
1
 40
1
 10
454.082094
 20
182.876923
 30
0.0
 10
454.437806
 20
182.114099
 30
0.0
 10
455.344530
 20
181.784068
 30
0.0
 10
456.107377
 20
182.139781
 30
0.0
  0
LWPOLYLINE
  5
1c1
100
AcDbEntity
  8
0
 62
1
100
AcDbPolyline
 90
2
 70
0
 10
595.858600
 20
188.050042
 30
0.0
 10
595.858600
 20
262.758038
 30
0.0
  0
SPLINE
  5
1c2
100
AcDbEntity
  8
0
 62
1
100
AcDbSpline
 70
8
 71
3
 72
8
 73
4
 74
0
 40
0
 40
0
 40
0
 40
0
 40
1
 40
1
 40
1
 40
1
 10
447.104657
 20
197.840063
 30
0.0
 10
446.867506
 20
198.348613
 30
0.0
 10
446.263014
 20
198.568631
 30
0.0
 10
445.754478
 20
198.331491
 30
0.0
  0
LWPOLYLINE
  5
1c3
100
AcDbEntity
  8
0
 62
1
100
AcDbPolyline
 90
2
 70
0
 10
452.564472
 20
264.647041
 30
0.0
 10
452.551772
 20
199.330851
 30
0.0
  0
SPLINE
  5
1c4
100
AcDbEntity
  8
0
 62
1
100
AcDbSpline
 70
8
 71
3
 72
8
 73
4
 74
0
 40
0
 40
0
 40
0
 40
0
 40
1
 40
1
 40
1
 40
1
 10
412.605361
 20
182.873807
 30
0.0
 10
412.096797
 20
182.636667
 30
0.0
 10
411.876776
 20
182.032167
 30
0.0
 10
412.113928
 20
181.523619
 30
0.0
  0
LWPOLYLINE
  5
1c5
100
AcDbEntity
  8
0
 62
1
100
AcDbPolyline
 90
2
 70
0
 10
466.569242
 20
187.018232
 30
0.0
 10
456.107377
 20
182.139781
 30
0.0
  0
SPLINE
  5
1c6
100
AcDbEntity
  8
0
 62
1
100
AcDbSpline
 70
8
 71
3
 72
8
 73
4
 74
0
 40
0
 40
0
 40
0
 40
0
 40
1
 40
1
 40
1
 40
1
 10
435.622474
 20
131.109341
 30
0.0
 10
435.859626
 20
130.600791
 30
0.0
 10
436.464117
 20
130.380773
 30
0.0
 10
436.972682
 20
130.617913
 30
0.0
  0
LWPOLYLINE
  5
1c7
100
AcDbEntity
  8
0
 62
1
100
AcDbPolyline
 90
2
 70
0
 10
454.082094
 20
182.876923
 30
0.0
 10
447.104657
 20
197.840063
 30
0.0
  0
SPLINE
  5
1c8
100
AcDbEntity
  8
0
 62
1
100
AcDbSpline
 70
8
 71
3
 72
8
 73
4
 74
0
 40
0
 40
0
 40
0
 40
0
 40
1
 40
1
 40
1
 40
1
 10
487.386969
 20
154.126474
 30
0.0
 10
487.895505
 20
154.363617
 30
0.0
 10
488.115525
 20
154.968114
 30
0.0
 10
487.878374
 20
155.476664
 30
0.0
  0
LWPOLYLINE
  5
1c9
100
AcDbEntity
  8
0
 62
1
100
AcDbPolyline
 90
2
 70
0
 10
445.754478
 20
198.331491
 30
0.0
 10
412.605361
 20
182.873807
 30
0.0
  0
SPLINE
  5
1ca
100
AcDbEntity
  8
0
 62
1
100
AcDbSpline
 70
8
 71
3
 72
8
 73
4
 74
0
 40
0
 40
0
 40
0
 40
0
 40
1
 40
1
 40
1
 40
1
 10
474.659367
 20
188.955041
 30
0.0
 10
474.138583
 20
188.955041
 30
0.0
 10
473.653838
 20
188.689109
 30
0.0
 10
473.374043
 20
188.249884
 30
0.0
  0
SPLINE
  5
1cb
100
AcDbEntity
  8
0
 62
1
100
AcDbSpline
 70
8
 71
3
 72
8
 73
4
 74
0
 40
0
 40
0
 40
0
 40
0
 40
1
 40
1
 40
1
 40
1
 10
473.374043
 20
188.249884
 30
0.0
 10
473.094219
 20
187.810658
 30
0.0
 10
473.058067
 20
187.258959
 30
0.0
 10
473.278144
 20
186.786968
 30
0.0
  0
LWPOLYLINE
  5
1cc
100
AcDbEntity
  8
0
 62
1
100
AcDbPolyline
 90
2
 70
0
 10
412.113928
 20
181.523619
 30
0.0
 10
435.622474
 20
131.109341
 30
0.0
  0
SPLINE
  5
1cd
100
AcDbEntity
  8
0
 62
1
100
AcDbSpline
 70
8
 71
3
 72
8
 73
4
 74
0
 40
0
 40
0
 40
0
 40
0
 40
1
 40
1
 40
1
 40
1
 10
490.664472
 20
187.431041
 30
0.0
 10
490.664472
 20
187.835232
 30
0.0
 10
490.503887
 20
188.222864
 30
0.0
 10
490.218081
 20
188.508670
 30
0.0
  0
SPLINE
  5
1ce
100
AcDbEntity
  8
0
 62
1
100
AcDbSpline
 70
8
 71
3
 72
8
 73
4
 74
0
 40
0
 40
0
 40
0
 40
0
 40
1
 40
1
 40
1
 40
1
 10
490.218081
 20
188.508670
 30
0.0
 10
489.932274
 20
188.794477
 30
0.0
 10
489.544642
 20
188.955041
 30
0.0
 10
489.140472
 20
188.955041
 30
0.0
  0
LWPOLYLINE
  5
1cf
100
AcDbEntity
  8
0
 62
1
100
AcDbPolyline
 90
2
 70
0
 10
436.972682
 20
130.617913
 30
0.0
 10
487.386969
 20
154.126474
 30
0.0
  0
SPLINE
  5
1d0
100
AcDbEntity
  8
0
 62
1
100
AcDbSpline
 70
8
 71
3
 72
8
 73
4
 74
0
 40
0
 40
0
 40
0
 40
0
 40
1
 40
1
 40
1
 40
1
 10
490.664472
 20
172.191041
 30
0.0
 10
490.664472
 20
171.921581
 30
0.0
 10
490.771490
 20
171.663156
 30
0.0
 10
490.962047
 20
171.472619
 30
0.0
  0
SPLINE
  5
1d1
100
AcDbEntity
  8
0
 62
1
100
AcDbSpline
 70
8
 71
3
 72
8
 73
4
 74
0
 40
0
 40
0
 40
0
 40
0
 40
1
 40
1
 40
1
 40
1
 10
490.962047
 20
171.472619
 30
0.0
 10
491.152575
 20
171.282083
 30
0.0
 10
491.411006
 20
171.175041
 30
0.0
 10
491.680472
 20
171.175041
 30
0.0
  0
LWPOLYLINE
  5
1d2
100
AcDbEntity
  8
0
 62
1
100
AcDbPolyline
 90
2
 70
0
 10
487.878374
 20
155.476664
 30
0.0
 10
473.278144
 20
186.786968
 30
0.0
  0
SPLINE
  5
1d3
100
AcDbEntity
  8
0
 62
1
100
AcDbSpline
 70
8
 71
3
 72
8
 73
4
 74
0
 40
0
 40
0
 40
0
 40
0
 40
1
 40
1
 40
1
 40
1
 10
509.391807
 20
171.175041
 30
0.0
 10
509.805827
 20
171.175041
 30
0.0
 10
510.178417
 20
171.426247
 30
0.0
 10
510.333667
 20
171.810041
 30
0.0
  0
SPLINE
  5
1d4
100
AcDbEntity
  8
0
 62
1
100
AcDbSpline
 70
8
 71
3
 72
8
 73
4
 74
0
 40
0
 40
0
 40
0
 40
0
 40
1
 40
1
 40
1
 40
1
 10
511.746472
 20
172.762541
 30
0.0
 10
511.125442
 20
172.762539
 30
0.0
 10
510.566557
 20
172.385730
 30
0.0
 10
510.333667
 20
171.810041
 30
0.0
  0
LWPOLYLINE
  5
1d5
100
AcDbEntity
  8
0
 62
1
100
AcDbPolyline
 90
2
 70
0
 10
474.659367
 20
188.955041
 30
0.0
 10
489.140472
 20
188.955041
 30
0.0
  0
SPLINE
  5
1d6
100
AcDbEntity
  8
0
 62
1
100
AcDbSpline
 70
8
 71
3
 72
8
 73
4
 74
0
 40
0
 40
0
 40
0
 40
0
 40
1
 40
1
 40
1
 40
1
 10
528.653248
 20
171.810041
 30
0.0
 10
528.420358
 20
172.385732
 30
0.0
 10
527.861474
 20
172.762541
 30
0.0
 10
527.240472
 20
172.762541
 30
0.0
  0
SPLINE
  5
1d7
100
AcDbEntity
  8
0
 62
1
100
AcDbSpline
 70
8
 71
3
 72
8
 73
4
 74
0
 40
0
 40
0
 40
0
 40
0
 40
1
 40
1
 40
1
 40
1
 10
528.653248
 20
171.810041
 30
0.0
 10
528.808498
 20
171.426247
 30
0.0
 10
529.181088
 20
171.175041
 30
0.0
 10
529.595108
 20
171.175041
 30
0.0
  0
LWPOLYLINE
  5
1d8
100
AcDbEntity
  8
0
 62
1
100
AcDbPolyline
 90
2
 70
0
 10
490.664472
 20
187.431041
 30
0.0
 10
490.664472
 20
172.191041
 30
0.0
  0
SPLINE
  5
1d9
100
AcDbEntity
  8
0
 62
1
100
AcDbSpline
 70
8
 71
3
 72
8
 73
4
 74
0
 40
0
 40
0
 40
0
 40
0
 40
1
 40
1
 40
1
 40
1
 10
547.814472
 20
169.651041
 30
0.0
 10
547.814472
 20
170.055232
 30
0.0
 10
547.653887
 20
170.442864
 30
0.0
 10
547.368081
 20
170.728670
 30
0.0
  0
SPLINE
  5
1da
100
AcDbEntity
  8
0
 62
1
100
AcDbSpline
 70
8
 71
3
 72
8
 73
4
 74
0
 40
0
 40
0
 40
0
 40
0
 40
1
 40
1
 40
1
 40
1
 10
547.368081
 20
170.728670
 30
0.0
 10
547.082274
 20
171.014477
 30
0.0
 10
546.694642
 20
171.175041
 30
0.0
 10
546.290472
 20
171.175041
 30
0.0
  0
LWPOLYLINE
  5
1db
100
AcDbEntity
  8
0
 62
1
100
AcDbPolyline
 90
2
 70
0
 10
491.680472
 20
171.175041
 30
0.0
 10
509.391807
 20
171.175041
 30
0.0
  0
SPLINE
  5
1dc
100
AcDbEntity
  8
0
 62
1
100
AcDbSpline
 70
8
 71
3
 72
8
 73
4
 74
0
 40
0
 40
0
 40
0
 40
0
 40
1
 40
1
 40
1
 40
1
 10
547.814472
 20
169.016041
 30
0.0
 10
547.814472
 20
168.746581
 30
0.0
 10
547.921490
 20
168.488156
 30
0.0
 10
548.112047
 20
168.297619
 30
0.0
  0
SPLINE
  5
1dd
100
AcDbEntity
  8
0
 62
1
100
AcDbSpline
 70
8
 71
3
 72
8
 73
4
 74
0
 40
0
 40
0
 40
0
 40
0
 40
1
 40
1
 40
1
 40
1
 10
548.112047
 20
168.297619
 30
0.0
 10
548.302575
 20
168.107083
 30
0.0
 10
548.561006
 20
168.000041
 30
0.0
 10
548.830472
 20
168.000041
 30
0.0
  0
LWPOLYLINE
  5
1de
100
AcDbEntity
  8
0
 62
1
100
AcDbPolyline
 90
2
 70
0
 10
511.746472
 20
172.762541
 30
0.0
 10
527.240472
 20
172.762541
 30
0.0
  0
SPLINE
  5
1df
100
AcDbEntity
  8
0
 62
1
100
AcDbSpline
 70
8
 71
3
 72
8
 73
4
 74
0
 40
0
 40
0
 40
0
 40
0
 40
1
 40
1
 40
1
 40
1
 10
585.406472
 20
168.000041
 30
0.0
 10
585.675909
 20
168.000041
 30
0.0
 10
585.934340
 20
168.107083
 30
0.0
 10
586.124868
 20
168.297619
 30
0.0
  0
SPLINE
  5
1e0
100
AcDbEntity
  8
0
 62
1
100
AcDbSpline
 70
8
 71
3
 72
8
 73
4
 74
0
 40
0
 40
0
 40
0
 40
0
 40
1
 40
1
 40
1
 40
1
 10
586.124868
 20
168.297619
 30
0.0
 10
586.315425
 20
168.488156
 30
0.0
 10
586.422472
 20
168.746581
 30
0.0
 10
586.422472
 20
169.016041
 30
0.0
  0
LWPOLYLINE
  5
1e1
100
AcDbEntity
  8
0
 62
1
100
AcDbPolyline
 90
2
 70
0
 10
529.595108
 20
171.175041
 30
0.0
 10
546.290472
 20
171.175041
 30
0.0
  0
SPLINE
  5
1e2
100
AcDbEntity
  8
0
 62
1
100
AcDbSpline
 70
8
 71
3
 72
8
 73
4
 74
0
 40
0
 40
0
 40
0
 40
0
 40
1
 40
1
 40
1
 40
1
 10
587.946472
 20
187.050041
 30
0.0
 10
587.542273
 20
187.050041
 30
0.0
 10
587.154641
 20
186.889477
 30
0.0
 10
586.868834
 20
186.603670
 30
0.0
  0
SPLINE
  5
1e3
100
AcDbEntity
  8
0
 62
1
100
AcDbSpline
 70
8
 71
3
 72
8
 73
4
 74
0
 40
0
 40
0
 40
0
 40
0
 40
1
 40
1
 40
1
 40
1
 10
586.868834
 20
186.603670
 30
0.0
 10
586.583028
 20
186.317864
 30
0.0
 10
586.422472
 20
185.930232
 30
0.0
 10
586.422472
 20
185.526041
 30
0.0
  0
LWPOLYLINE
  5
1e4
100
AcDbEntity
  8
0
 62
1
100
AcDbPolyline
 90
2
 70
0
 10
547.814472
 20
169.651041
 30
0.0
 10
547.814472
 20
169.016041
 30
0.0
  0
LWPOLYLINE
  5
1e5
100
AcDbEntity
  8
0
 62
1
100
AcDbPolyline
 90
2
 70
0
 10
548.830472
 20
168.000041
 30
0.0
 10
585.406472
 20
168.000041
 30
0.0
  0
SPLINE
  5
1e6
100
AcDbEntity
  8
0
 62
1
100
AcDbSpline
 70
8
 71
3
 72
8
 73
4
 74
0
 40
0
 40
0
 40
0
 40
0
 40
1
 40
1
 40
1
 40
1
 10
548.322472
 20
265.282041
 30
0.0
 10
548.322472
 20
264.877851
 30
0.0
 10
548.483028
 20
264.490216
 30
0.0
 10
548.768834
 20
264.204410
 30
0.0
  0
SPLINE
  5
1e7
100
AcDbEntity
  8
0
 62
1
100
AcDbSpline
 70
8
 71
3
 72
8
 73
4
 74
0
 40
0
 40
0
 40
0
 40
0
 40
1
 40
1
 40
1
 40
1
 10
548.768834
 20
264.204410
 30
0.0
 10
549.054641
 20
263.918603
 30
0.0
 10
549.442273
 20
263.758041
 30
0.0
 10
549.846472
 20
263.758041
 30
0.0
  0
LWPOLYLINE
  5
1e8
100
AcDbEntity
  8
0
 62
1
100
AcDbPolyline
 90
2
 70
0
 10
586.422472
 20
169.016041
 30
0.0
 10
586.422472
 20
185.526041
 30
0.0
  0
SPLINE
  5
1e9
100
AcDbEntity
  8
0
 62
1
100
AcDbSpline
 70
8
 71
3
 72
8
 73
4
 74
0
 40
0
 40
0
 40
0
 40
0
 40
1
 40
1
 40
1
 40
1
 10
548.322472
 20
265.917041
 30
0.0
 10
548.322472
 20
266.186501
 30
0.0
 10
548.215425
 20
266.444924
 30
0.0
 10
548.024868
 20
266.635461
 30
0.0
  0
SPLINE
  5
1ea
100
AcDbEntity
  8
0
 62
1
100
AcDbSpline
 70
8
 71
3
 72
8
 73
4
 74
0
 40
0
 40
0
 40
0
 40
0
 40
1
 40
1
 40
1
 40
1
 10
548.024868
 20
266.635461
 30
0.0
 10
547.834340
 20
266.825997
 30
0.0
 10
547.575909
 20
266.933041
 30
0.0
 10
547.306472
 20
266.933041
 30
0.0
  0
LWPOLYLINE
  5
1eb
100
AcDbEntity
  8
0
 62
1
100
AcDbPolyline
 90
2
 70
0
 10
587.946472
 20
187.050041
 30
0.0
 10
594.858602
 20
187.050041
 30
0.0
  0
SPLINE
  5
1ec
100
AcDbEntity
  8
0
 62
1
100
AcDbSpline
 70
8
 71
3
 72
8
 73
4
 74
0
 40
0
 40
0
 40
0
 40
0
 40
1
 40
1
 40
1
 40
1
 10
529.383667
 20
267.885541
 30
0.0
 10
529.616557
 20
267.309850
 30
0.0
 10
530.175442
 20
266.933041
 30
0.0
 10
530.796472
 20
266.933041
 30
0.0
  0
SPLINE
  5
1ed
100
AcDbEntity
  8
0
 62
1
100
AcDbSpline
 70
8
 71
3
 72
8
 73
4
 74
0
 40
0
 40
0
 40
0
 40
0
 40
1
 40
1
 40
1
 40
1
 10
529.383667
 20
267.885541
 30
0.0
 10
529.228417
 20
268.269335
 30
0.0
 10
528.855827
 20
268.520541
 30
0.0
 10
528.441807
 20
268.520541
 30
0.0
  0
LWPOLYLINE
  5
1ee
100
AcDbEntity
  8
0
 62
1
100
AcDbPolyline
 90
2
 70
0
 10
594.858602
 20
263.758041
 30
0.0
 10
549.846472
 20
263.758041
 30
0.0
  0
SPLINE
  5
1ef
100
AcDbEntity
  8
0
 62
1
100
AcDbSpline
 70
8
 71
3
 72
8
 73
4
 74
0
 40
0
 40
0
 40
0
 40
0
 40
1
 40
1
 40
1
 40
1
 10
510.545108
 20
268.520541
 30
0.0
 10
510.131088
 20
268.520541
 30
0.0
 10
509.758498
 20
268.269335
 30
0.0
 10
509.603248
 20
267.885541
 30
0.0
  0
SPLINE
  5
1f0
100
AcDbEntity
  8
0
 62
1
100
AcDbSpline
 70
8
 71
3
 72
8
 73
4
 74
0
 40
0
 40
0
 40
0
 40
0
 40
1
 40
1
 40
1
 40
1
 10
508.190472
 20
266.933041
 30
0.0
 10
508.811474
 20
266.933039
 30
0.0
 10
509.370358
 20
267.309850
 30
0.0
 10
509.603248
 20
267.885541
 30
0.0
  0
LWPOLYLINE
  5
1f1
100
AcDbEntity
  8
0
 62
1
100
AcDbPolyline
 90
2
 70
0
 10
548.322472
 20
265.282041
 30
0.0
 10
548.322472
 20
265.917041
 30
0.0
  0
SPLINE
  5
1f2
100
AcDbEntity
  8
0
 62
1
100
AcDbSpline
 70
8
 71
3
 72
8
 73
4
 74
0
 40
0
 40
0
 40
0
 40
0
 40
1
 40
1
 40
1
 40
1
 10
491.340168
 20
266.933041
 30
0.0
 10
490.977174
 20
266.933041
 30
0.0
 10
490.641781
 20
266.739392
 30
0.0
 10
490.460284
 20
266.425041
 30
0.0
  0
SPLINE
  5
1f3
100
AcDbEntity
  8
0
 62
1
100
AcDbSpline
 70
8
 71
3
 72
8
 73
4
 74
0
 40
0
 40
0
 40
0
 40
0
 40
1
 40
1
 40
1
 40
1
 10
489.140472
 20
265.663041
 30
0.0
 10
489.684935
 20
265.663041
 30
0.0
 10
490.188052
 20
265.953513
 30
0.0
 10
490.460284
 20
266.425041
 30
0.0
  0
LWPOLYLINE
  5
1f4
100
AcDbEntity
  8
0
 62
1
100
AcDbPolyline
 90
2
 70
0
 10
547.306472
 20
266.933041
 30
0.0
 10
530.796472
 20
266.933041
 30
0.0
  0
SPLINE
  5
1f5
100
AcDbEntity
  8
0
 62
1
100
AcDbSpline
 70
8
 71
3
 72
8
 73
4
 74
0
 40
0
 40
0
 40
0
 40
0
 40
1
 40
1
 40
1
 40
1
 10
453.580472
 20
265.663041
 30
0.0
 10
453.311006
 20
265.663041
 30
0.0
 10
453.052575
 20
265.555997
 30
0.0
 10
452.862047
 20
265.365461
 30
0.0
  0
SPLINE
  5
1f6
100
AcDbEntity
  8
0
 62
1
100
AcDbSpline
 70
8
 71
3
 72
8
 73
4
 74
0
 40
0
 40
0
 40
0
 40
0
 40
1
 40
1
 40
1
 40
1
 10
452.862047
 20
265.365461
 30
0.0
 10
452.671490
 20
265.174924
 30
0.0
 10
452.564472
 20
264.916501
 30
0.0
 10
452.564472
 20
264.647041
 30
0.0
  0
LWPOLYLINE
  5
1f7
100
AcDbEntity
  8
0
 62
1
100
AcDbPolyline
 90
2
 70
0
 10
528.441807
 20
268.520541
 30
0.0
 10
510.545108
 20
268.520541
 30
0.0
  0
SPLINE
  5
1f8
100
AcDbEntity
  8
0
 62
1
100
AcDbSpline
 70
8
 71
3
 72
8
 73
4
 74
0
 40
0
 40
0
 40
0
 40
0
 40
1
 40
1
 40
1
 40
1
 10
452.564472
 20
189.971041
 30
0.0
 10
452.564472
 20
189.701581
 30
0.0
 10
452.671490
 20
189.443156
 30
0.0
 10
452.862047
 20
189.252619
 30
0.0
  0
SPLINE
  5
1f9
100
AcDbEntity
  8
0
 62
1
100
AcDbSpline
 70
8
 71
3
 72
8
 73
4
 74
0
 40
0
 40
0
 40
0
 40
0
 40
1
 40
1
 40
1
 40
1
 10
452.862047
 20
189.252619
 30
0.0
 10
453.052575
 20
189.062083
 30
0.0
 10
453.311006
 20
188.955041
 30
0.0
 10
453.580472
 20
188.955041
 30
0.0
  0
LWPOLYLINE
  5
1fa
100
AcDbEntity
  8
0
 62
1
100
AcDbPolyline
 90
2
 70
0
 10
508.190472
 20
266.933041
 30
0.0
 10
491.340168
 20
266.933041
 30
0.0
  0
SPLINE
  5
1fb
100
AcDbEntity
  8
0
 62
1
100
AcDbSpline
 70
8
 71
3
 72
8
 73
4
 74
0
 40
0
 40
0
 40
0
 40
0
 40
1
 40
1
 40
1
 40
1
 10
595.858600
 20
262.758038
 30
0.0
 10
595.858600
 20
263.023256
 30
0.0
 10
595.753246
 20
263.277609
 30
0.0
 10
595.565710
 20
263.465148
 30
0.0
  0
SPLINE
  5
1fc
100
AcDbEntity
  8
0
 62
1
100
AcDbSpline
 70
8
 71
3
 72
8
 73
4
 74
0
 40
0
 40
0
 40
0
 40
0
 40
1
 40
1
 40
1
 40
1
 10
595.565710
 20
263.465148
 30
0.0
 10
595.378173
 20
263.652682
 30
0.0
 10
595.123806
 20
263.758041
 30
0.0
 10
594.858602
 20
263.758041
 30
0.0
  0
SPLINE
  5
1fd
100
AcDbEntity
  8
0
 62
1
100
AcDbSpline
 70
8
 71
3
 72
8
 73
4
 74
0
 40
0
 40
0
 40
0
 40
0
 40
1
 40
1
 40
1
 40
1
 10
594.858602
 20
187.050041
 30
0.0
 10
595.123806
 20
187.050041
 30
0.0
 10
595.378173
 20
187.155398
 30
0.0
 10
595.565710
 20
187.342934
 30
0.0
  0
SPLINE
  5
1fe
100
AcDbEntity
  8
0
 62
1
100
AcDbSpline
 70
8
 71
3
 72
8
 73
4
 74
0
 40
0
 40
0
 40
0
 40
0
 40
1
 40
1
 40
1
 40
1
 10
595.565710
 20
187.342934
 30
0.0
 10
595.753246
 20
187.530471
 30
0.0
 10
595.858600
 20
187.784824
 30
0.0
 10
595.858600
 20
188.050042
 30
0.0
  0
SPLINE
  5
1ff
100
AcDbEntity
  8
0
 62
1
100
AcDbSpline
 70
8
 71
3
 72
8
 73
4
 74
0
 40
0
 40
0
 40
0
 40
0
 40
1
 40
1
 40
1
 40
1
 10
578.648604
 20
279.628849
 30
0.0
 10
578.648604
 20
280.164966
 30
0.0
 10
578.363108
 20
280.660500
 30
0.0
 10
577.898853
 20
280.928654
 30
0.0
  0
SPLINE
  5
200
100
AcDbEntity
  8
0
 62
1
100
AcDbSpline
 70
8
 71
3
 72
8
 73
4
 74
0
 40
0
 40
0
 40
0
 40
0
 40
1
 40
1
 40
1
 40
1
 10
577.898853
 20
280.928654
 30
0.0
 10
577.434625
 20
281.196808
 30
0.0
 10
576.862561
 20
281.196808
 30
0.0
 10
576.398334
 20
280.928654
 30
0.0
  0
SPLINE
  5
201
100
AcDbEntity
  8
0
 62
1
100
AcDbSpline
 70
8
 71
3
 72
8
 73
4
 74
0
 40
0
 40
0
 40
0
 40
0
 40
1
 40
1
 40
1
 40
1
 10
576.398334
 20
280.928654
 30
0.0
 10
575.934106
 20
280.660500
 30
0.0
 10
575.648272
 20
280.164966
 30
0.0
 10
575.648610
 20
279.628849
 30
0.0
  0
SPLINE
  5
202
100
AcDbEntity
  8
0
 62
1
100
AcDbSpline
 70
8
 71
3
 72
8
 73
4
 74
0
 40
0
 40
0
 40
0
 40
0
 40
1
 40
1
 40
1
 40
1
 10
575.648610
 20
279.628849
 30
0.0
 10
575.648610
 20
279.092731
 30
0.0
 10
575.934106
 20
278.597198
 30
0.0
 10
576.398334
 20
278.329044
 30
0.0
  0
SPLINE
  5
203
100
AcDbEntity
  8
0
 62
1
100
AcDbSpline
 70
8
 71
3
 72
8
 73
4
 74
0
 40
0
 40
0
 40
0
 40
0
 40
1
 40
1
 40
1
 40
1
 10
576.398334
 20
278.329044
 30
0.0
 10
576.862561
 20
278.060890
 30
0.0
 10
577.434625
 20
278.060890
 30
0.0
 10
577.898853
 20
278.329044
 30
0.0
  0
SPLINE
  5
204
100
AcDbEntity
  8
0
 62
1
100
AcDbSpline
 70
8
 71
3
 72
8
 73
4
 74
0
 40
0
 40
0
 40
0
 40
0
 40
1
 40
1
 40
1
 40
1
 10
577.898853
 20
278.329044
 30
0.0
 10
578.363108
 20
278.597198
 30
0.0
 10
578.648915
 20
279.092731
 30
0.0
 10
578.648604
 20
279.628849
 30
0.0
  0
LWPOLYLINE
  5
205
100
AcDbEntity
  8
0
 62
1
100
AcDbPolyline
 90
2
 70
0
 10
489.140472
 20
265.663041
 30
0.0
 10
453.580472
 20
265.663041
 30
0.0
  0
LWPOLYLINE
  5
206
100
AcDbEntity
  8
0
 62
1
100
AcDbPolyline
 90
2
 70
0
 10
452.564472
 20
264.647041
 30
0.0
 10
452.564472
 20
189.971041
 30
0.0
  0
LWPOLYLINE
  5
207
100
AcDbEntity
  8
0
 62
1
100
AcDbPolyline
 90
2
 70
0
 10
453.580472
 20
188.955041
 30
0.0
 10
466.139869
 20
188.955041
 30
0.0
  0
LWPOLYLINE
  5
208
100
AcDbEntity
  8
0
 62
1
100
AcDbPolyline
 90
6
 70
1
 10
578.648604
 20
279.628849
 30
0.0
 10
578.648604
 20
279.628849
 30
0.0
 10
578.648604
 20
279.628849
 30
0.0
 10
578.648604
 20
279.628849
 30
0.0
 10
578.648604
 20
279.628849
 30
0.0
 10
578.648604
 20
279.628849
 30
0.0
  0
ENDSEC
  0
SECTION
  2
OBJECTS
  0
DICTIONARY
  5
C
330
0
100
AcDbDictionary
  3
ACAD_GROUP
350
D
  3
ACAD_MLINESTYLE
350
17
  0
DICTIONARY
  5
D
330
C
100
AcDbDictionary
  0
DICTIONARY
  5
1A
330
C
100
AcDbDictionary
  0
DICTIONARY
  5
17
330
C
100
AcDbDictionary
  3
STANDARD
350
18
  0
DICTIONARY
  5
19
330
C
100
AcDbDictionary
  0
ENDSEC
  0
EOF
