  0
SECTION
  2
HEADER
  9
$ACADVER
  1
AC1014
  9
$HANDSEED
  5
FFFF
  9
$MEASUREMENT
 70
     1
  0
ENDSEC
  0
SECTION
  2
TABLES
  0
TABLE
  2
VPORT
  5
8
330
0
100
AcDbSymbolTable
 70
     4
  0
VPORT
  5
2E
330
8
100
AcDbSymbolTableRecord
100
AcDbViewportTableRecord
  2
*ACTIVE
 70
     0
 10
0.0
 20
0.0
 11
1.0
 21
1.0
 12
210.0
 22
148.5
 13
0.0
 23
0.0
 14
10.0
 24
10.0
 15
10.0
 25
10.0
 16
0.0
 26
0.0
 36
1.0
 17
0.0
 27
0.0
 37
0.0
 40
341.0
 41
1.24
 42
50.0
 43
0.0
 44
0.0
 50
0.0
 51
0.0
 71
     0
 72
   100
 73
     1
 74
     3
 75
     0
 76
     0
 77
     0
 78
     0
  0
ENDTAB
  0
TABLE
  2
LTYPE
  5
5
330
0
100
AcDbSymbolTable
 70
     1
  0
LTYPE
  5
14
330
5
100
AcDbSymbolTableRecord
100
AcDbLinetypeTableRecord
  2
BYBLOCK
 70
     0
  3

 72
    65
 73
     0
 40
0.0
  0
LTYPE
  5
15
330
5
100
AcDbSymbolTableRecord
100
AcDbLinetypeTableRecord
  2
BYLAYER
 70
     0
  3

 72
    65
 73
     0
 40
0.0
  0
LTYPE
  5
16
330
5
100
AcDbSymbolTableRecord
100
AcDbLinetypeTableRecord
  2
CONTINUOUS
 70
     0
  3
Solid line
 72
    65
 73
     0
 40
0.0
  0
ENDTAB
  0
TABLE
  2
LAYER
  5
2
100
AcDbSymbolTable
 70
1
  0
LAYER
  5
50
100
AcDbSymbolTableRecord
100
AcDbLayerTableRecord
  2
0
 70
0
  6
CONTINUOUS
  0
ENDTAB
  0
TABLE
  2
STYLE
  5
3
330
0
100
AcDbSymbolTable
 70
     1
  0
STYLE
  5
11
330
3
100
AcDbSymbolTableRecord
100
AcDbTextStyleTableRecord
  2
STANDARD
 70
     0
 40
0.0
 41
1.0
 50
0.0
 71
     0
 42
2.5
  3
txt
  4

  0
ENDTAB
  0
TABLE
  2
VIEW
  5
6
330
0
100
AcDbSymbolTable
 70
     0
  0
ENDTAB
  0
TABLE
  2
UCS
  5
7
330
0
100
AcDbSymbolTable
 70
     0
  0
ENDTAB
  0
TABLE
  2
APPID
  5
9
330
0
100
AcDbSymbolTable
 70
     2
  0
APPID
  5
12
330
9
100
AcDbSymbolTableRecord
100
AcDbRegAppTableRecord
  2
ACAD
 70
     0
  0
ENDTAB
  0
TABLE
  2
DIMSTYLE
  5
A
330
0
100
AcDbSymbolTable
 70
     1
  0
DIMSTYLE
105
27
330
A
100
AcDbSymbolTableRecord
100
AcDbDimStyleTableRecord
  2
ISO-25
 70
     0
  3

  4

  5

  6

  7

 40
1.0
 41
2.5
 42
0.625
 43
3.75
 44
1.25
 45
0.0
 46
0.0
 47
0.0
 48
0.0
140
2.5
141
2.5
142
0.0
143
0.03937007874016
144
1.0
145
0.0
146
1.0
147
0.625
 71
     0
 72
     0
 73
     0
 74
     0
 75
     0
 76
     0
 77
     1
 78
     8
170
     0
171
     3
172
     1
173
     0
174
     0
175
     0
176
     0
177
     0
178
     0
270
     2
271
     2
272
     2
273
     2
274
     3
340
11
275
     0
280
     0
281
     0
282
     0
283
     0
284
     8
285
     0
286
     0
287
     3
288
     0
  0
ENDTAB
  0
TABLE
  2
BLOCK_RECORD
  5
1
330
0
100
AcDbSymbolTable
 70
     1
  0
BLOCK_RECORD
  5
1F
330
1
100
AcDbSymbolTableRecord
100
AcDbBlockTableRecord
  2
*MODEL_SPACE
  0
BLOCK_RECORD
  5
1B
330
1
100
AcDbSymbolTableRecord
100
AcDbBlockTableRecord
  2
*PAPER_SPACE
  0
ENDTAB
  0
ENDSEC
  0
SECTION
  2
BLOCKS
  0
BLOCK
  5
20
330
1F
100
AcDbEntity
  8
0
100
AcDbBlockBegin
  2
*MODEL_SPACE
 70
     0
 10
0.0
 20
0.0
 30
0.0
  3
*MODEL_SPACE
  1

  0
ENDBLK
  5
21
330
1F
100
AcDbEntity
  8
0
100
AcDbBlockEnd
  0
BLOCK
  5
1C
330
1B
100
AcDbEntity
 67
     1
  8
0
100
AcDbBlockBegin
  2
*PAPER_SPACE
  1

  0
ENDBLK
  5
1D
330
1B
100
AcDbEntity
 67
     1
  8
0
100
AcDbBlockEnd
  0
ENDSEC
  0
SECTION
  2
ENTITIES
  0
SPLINE
  5
100
100
AcDbEntity
  8
0
 62
1
100
AcDbSpline
 70
8
 71
3
 72
8
 73
4
 74
0
 40
0
 40
0
 40
0
 40
0
 40
1
 40
1
 40
1
 40
1
 10
204.549646
 20
183.829333
 30
0.0
 10
204.549928
 20
184.365450
 30
0.0
 10
204.264147
 20
184.860985
 30
0.0
 10
203.799911
 20
185.129138
 30
0.0
  0
SPLINE
  5
101
100
AcDbEntity
  8
0
 62
1
100
AcDbSpline
 70
8
 71
3
 72
8
 73
4
 74
0
 40
0
 40
0
 40
0
 40
0
 40
1
 40
1
 40
1
 40
1
 10
203.799911
 20
185.129138
 30
0.0
 10
203.335676
 20
185.397292
 30
0.0
 10
202.763617
 20
185.397292
 30
0.0
 10
202.299381
 20
185.129138
 30
0.0
  0
SPLINE
  5
102
100
AcDbEntity
  8
0
 62
1
100
AcDbSpline
 70
8
 71
3
 72
8
 73
4
 74
0
 40
0
 40
0
 40
0
 40
0
 40
1
 40
1
 40
1
 40
1
 10
202.299381
 20
185.129138
 30
0.0
 10
201.835145
 20
184.860985
 30
0.0
 10
201.549316
 20
184.365450
 30
0.0
 10
201.549646
 20
183.829333
 30
0.0
  0
SPLINE
  5
103
100
AcDbEntity
  8
0
 62
1
100
AcDbSpline
 70
8
 71
3
 72
8
 73
4
 74
0
 40
0
 40
0
 40
0
 40
0
 40
1
 40
1
 40
1
 40
1
 10
201.549646
 20
183.829333
 30
0.0
 10
201.549364
 20
183.293215
 30
0.0
 10
201.835145
 20
182.797681
 30
0.0
 10
202.299381
 20
182.529527
 30
0.0
  0
SPLINE
  5
104
100
AcDbEntity
  8
0
 62
1
100
AcDbSpline
 70
8
 71
3
 72
8
 73
4
 74
0
 40
0
 40
0
 40
0
 40
0
 40
1
 40
1
 40
1
 40
1
 10
202.299381
 20
182.529527
 30
0.0
 10
202.763617
 20
182.261374
 30
0.0
 10
203.335676
 20
182.261374
 30
0.0
 10
203.799911
 20
182.529527
 30
0.0
  0
SPLINE
  5
105
100
AcDbEntity
  8
0
 62
1
100
AcDbSpline
 70
8
 71
3
 72
8
 73
4
 74
0
 40
0
 40
0
 40
0
 40
0
 40
1
 40
1
 40
1
 40
1
 10
203.799911
 20
182.529527
 30
0.0
 10
204.264147
 20
182.797681
 30
0.0
 10
204.549976
 20
183.293215
 30
0.0
 10
204.549646
 20
183.829333
 30
0.0
  0
SPLINE
  5
106
100
AcDbEntity
  8
0
 62
1
100
AcDbSpline
 70
8
 71
3
 72
8
 73
4
 74
0
 40
0
 40
0
 40
0
 40
0
 40
1
 40
1
 40
1
 40
1
 10
94.660991
 20
163.643848
 30
0.0
 10
94.661273
 20
164.179966
 30
0.0
 10
94.375492
 20
164.675500
 30
0.0
 10
93.911256
 20
164.943654
 30
0.0
  0
SPLINE
  5
107
100
AcDbEntity
  8
0
 62
1
100
AcDbSpline
 70
8
 71
3
 72
8
 73
4
 74
0
 40
0
 40
0
 40
0
 40
0
 40
1
 40
1
 40
1
 40
1
 10
93.911256
 20
164.943654
 30
0.0
 10
93.447021
 20
165.211807
 30
0.0
 10
92.874962
 20
165.211807
 30
0.0
 10
92.410726
 20
164.943654
 30
0.0
  0
SPLINE
  5
108
100
AcDbEntity
  8
0
 62
1
100
AcDbSpline
 70
8
 71
3
 72
8
 73
4
 74
0
 40
0
 40
0
 40
0
 40
0
 40
1
 40
1
 40
1
 40
1
 10
92.410726
 20
164.943654
 30
0.0
 10
91.946490
 20
164.675500
 30
0.0
 10
91.660661
 20
164.179966
 30
0.0
 10
91.660991
 20
163.643848
 30
0.0
  0
SPLINE
  5
109
100
AcDbEntity
  8
0
 62
1
100
AcDbSpline
 70
8
 71
3
 72
8
 73
4
 74
0
 40
0
 40
0
 40
0
 40
0
 40
1
 40
1
 40
1
 40
1
 10
91.660991
 20
163.643848
 30
0.0
 10
91.660709
 20
163.107730
 30
0.0
 10
91.946490
 20
162.612196
 30
0.0
 10
92.410726
 20
162.344043
 30
0.0
  0
SPLINE
  5
10a
100
AcDbEntity
  8
0
 62
1
100
AcDbSpline
 70
8
 71
3
 72
8
 73
4
 74
0
 40
0
 40
0
 40
0
 40
0
 40
1
 40
1
 40
1
 40
1
 10
92.410726
 20
162.344043
 30
0.0
 10
92.874962
 20
162.075889
 30
0.0
 10
93.447021
 20
162.075889
 30
0.0
 10
93.911256
 20
162.344043
 30
0.0
  0
SPLINE
  5
10b
100
AcDbEntity
  8
0
 62
1
100
AcDbSpline
 70
8
 71
3
 72
8
 73
4
 74
0
 40
0
 40
0
 40
0
 40
0
 40
1
 40
1
 40
1
 40
1
 10
93.911256
 20
162.344043
 30
0.0
 10
94.375492
 20
162.612196
 30
0.0
 10
94.661321
 20
163.107730
 30
0.0
 10
94.660991
 20
163.643848
 30
0.0
  0
SPLINE
  5
10c
100
AcDbEntity
  8
0
 62
1
100
AcDbSpline
 70
8
 71
3
 72
8
 73
4
 74
0
 40
0
 40
0
 40
0
 40
0
 40
1
 40
1
 40
1
 40
1
 10
14.254985
 20
167.050225
 30
0.0
 10
14.255324
 20
167.586343
 30
0.0
 10
13.969488
 20
168.081877
 30
0.0
 10
13.505251
 20
168.350031
 30
0.0
  0
SPLINE
  5
10d
100
AcDbEntity
  8
0
 62
1
100
AcDbSpline
 70
8
 71
3
 72
8
 73
4
 74
0
 40
0
 40
0
 40
0
 40
0
 40
1
 40
1
 40
1
 40
1
 10
13.505251
 20
168.350031
 30
0.0
 10
13.041014
 20
168.618184
 30
0.0
 10
12.468956
 20
168.618184
 30
0.0
 10
12.004720
 20
168.350031
 30
0.0
  0
SPLINE
  5
10e
100
AcDbEntity
  8
0
 62
1
100
AcDbSpline
 70
8
 71
3
 72
8
 73
4
 74
0
 40
0
 40
0
 40
0
 40
0
 40
1
 40
1
 40
1
 40
1
 10
12.004720
 20
168.350031
 30
0.0
 10
11.540483
 20
168.081877
 30
0.0
 10
11.254657
 20
167.586343
 30
0.0
 10
11.254986
 20
167.050225
 30
0.0
  0
SPLINE
  5
10f
100
AcDbEntity
  8
0
 62
1
100
AcDbSpline
 70
8
 71
3
 72
8
 73
4
 74
0
 40
0
 40
0
 40
0
 40
0
 40
1
 40
1
 40
1
 40
1
 10
11.254986
 20
167.050225
 30
0.0
 10
11.255494
 20
166.222157
 30
0.0
 10
11.926917
 20
165.551145
 30
0.0
 10
12.754985
 20
165.551145
 30
0.0
  0
SPLINE
  5
110
100
AcDbEntity
  8
0
 62
1
100
AcDbSpline
 70
8
 71
3
 72
8
 73
4
 74
0
 40
0
 40
0
 40
0
 40
0
 40
1
 40
1
 40
1
 40
1
 10
12.754985
 20
165.551145
 30
0.0
 10
13.583053
 20
165.551145
 30
0.0
 10
14.254477
 20
166.222157
 30
0.0
 10
14.254985
 20
167.050225
 30
0.0
  0
LWPOLYLINE
  5
111
100
AcDbEntity
  8
0
 62
1
100
AcDbPolyline
 90
4
 70
1
 10
204.549646
 20
183.829333
 30
0.0
 10
204.549646
 20
183.829333
 30
0.0
 10
204.549646
 20
183.829333
 30
0.0
 10
204.549646
 20
183.829333
 30
0.0
  0
LWPOLYLINE
  5
112
100
AcDbEntity
  8
0
 62
1
100
AcDbPolyline
 90
4
 70
1
 10
94.660991
 20
163.643848
 30
0.0
 10
94.660991
 20
163.643848
 30
0.0
 10
94.660991
 20
163.643848
 30
0.0
 10
94.660991
 20
163.643848
 30
0.0
  0
LWPOLYLINE
  5
113
100
AcDbEntity
  8
0
 62
1
100
AcDbPolyline
 90
4
 70
1
 10
14.254985
 20
167.050225
 30
0.0
 10
14.254985
 20
167.050225
 30
0.0
 10
14.254985
 20
167.050225
 30
0.0
 10
14.254985
 20
167.050225
 30
0.0
  0
LWPOLYLINE
  5
114
100
AcDbEntity
  8
0
 62
1
100
AcDbPolyline
 90
2
 70
0
 10
6.491111
 20
166.198848
 30
0.0
 10
6.491111
 20
290.628852
 30
0.0
  0
LWPOLYLINE
  5
115
100
AcDbEntity
  8
0
 62
1
100
AcDbPolyline
 90
2
 70
0
 10
13.473871
 20
297.628852
 30
0.0
 10
540.745708
 20
297.628852
 30
0.0
  0
SPLINE
  5
116
100
AcDbEntity
  8
0
 62
1
100
AcDbSpline
 70
8
 71
3
 72
8
 73
4
 74
0
 40
0
 40
0
 40
0
 40
0
 40
1
 40
1
 40
1
 40
1
 10
14.254988
 20
291.364975
 30
0.0
 10
14.254988
 20
291.900874
 30
0.0
 10
13.969089
 20
292.396065
 30
0.0
 10
13.504987
 20
292.664014
 30
0.0
  0
SPLINE
  5
117
100
AcDbEntity
  8
0
 62
1
100
AcDbSpline
 70
8
 71
3
 72
8
 73
4
 74
0
 40
0
 40
0
 40
0
 40
0
 40
1
 40
1
 40
1
 40
1
 10
13.504987
 20
292.664014
 30
0.0
 10
13.040885
 20
292.931963
 30
0.0
 10
12.469088
 20
292.931963
 30
0.0
 10
12.004986
 20
292.664014
 30
0.0
  0
SPLINE
  5
118
100
AcDbEntity
  8
0
 62
1
100
AcDbSpline
 70
8
 71
3
 72
8
 73
4
 74
0
 40
0
 40
0
 40
0
 40
0
 40
1
 40
1
 40
1
 40
1
 10
12.004986
 20
292.664014
 30
0.0
 10
11.540884
 20
292.396065
 30
0.0
 10
11.254986
 20
291.900874
 30
0.0
 10
11.254986
 20
291.364975
 30
0.0
  0
SPLINE
  5
119
100
AcDbEntity
  8
0
 62
1
100
AcDbSpline
 70
8
 71
3
 72
8
 73
4
 74
0
 40
0
 40
0
 40
0
 40
0
 40
1
 40
1
 40
1
 40
1
 10
11.254986
 20
291.364975
 30
0.0
 10
11.254986
 20
290.829076
 30
0.0
 10
11.540884
 20
290.333885
 30
0.0
 10
12.004986
 20
290.065936
 30
0.0
  0
SPLINE
  5
11a
100
AcDbEntity
  8
0
 62
1
100
AcDbSpline
 70
8
 71
3
 72
8
 73
4
 74
0
 40
0
 40
0
 40
0
 40
0
 40
1
 40
1
 40
1
 40
1
 10
12.004986
 20
290.065936
 30
0.0
 10
12.469088
 20
289.797986
 30
0.0
 10
13.040885
 20
289.797986
 30
0.0
 10
13.504987
 20
290.065936
 30
0.0
  0
SPLINE
  5
11b
100
AcDbEntity
  8
0
 62
1
100
AcDbSpline
 70
8
 71
3
 72
8
 73
4
 74
0
 40
0
 40
0
 40
0
 40
0
 40
1
 40
1
 40
1
 40
1
 10
13.504987
 20
290.065936
 30
0.0
 10
13.969089
 20
290.333885
 30
0.0
 10
14.254988
 20
290.829076
 30
0.0
 10
14.254988
 20
291.364975
 30
0.0
  0
LWPOLYLINE
  5
11c
100
AcDbEntity
  8
0
 62
1
100
AcDbPolyline
 90
2
 70
0
 10
208.416071
 20
180.515222
 30
0.0
 10
182.451683
 20
124.833961
 30
0.0
  0
SPLINE
  5
11d
100
AcDbEntity
  8
0
 62
1
100
AcDbSpline
 70
8
 71
3
 72
8
 73
4
 74
0
 40
0
 40
0
 40
0
 40
0
 40
1
 40
1
 40
1
 40
1
 10
109.324411
 20
293.183852
 30
0.0
 10
109.324693
 20
293.719969
 30
0.0
 10
109.038912
 20
294.215503
 30
0.0
 10
108.574676
 20
294.483657
 30
0.0
  0
SPLINE
  5
11e
100
AcDbEntity
  8
0
 62
1
100
AcDbSpline
 70
8
 71
3
 72
8
 73
4
 74
0
 40
0
 40
0
 40
0
 40
0
 40
1
 40
1
 40
1
 40
1
 10
108.574676
 20
294.483657
 30
0.0
 10
108.110441
 20
294.751811
 30
0.0
 10
107.538382
 20
294.751811
 30
0.0
 10
107.074146
 20
294.483657
 30
0.0
  0
SPLINE
  5
11f
100
AcDbEntity
  8
0
 62
1
100
AcDbSpline
 70
8
 71
3
 72
8
 73
4
 74
0
 40
0
 40
0
 40
0
 40
0
 40
1
 40
1
 40
1
 40
1
 10
107.074146
 20
294.483657
 30
0.0
 10
106.609910
 20
294.215503
 30
0.0
 10
106.324081
 20
293.719969
 30
0.0
 10
106.324411
 20
293.183852
 30
0.0
  0
SPLINE
  5
120
100
AcDbEntity
  8
0
 62
1
100
AcDbSpline
 70
8
 71
3
 72
8
 73
4
 74
0
 40
0
 40
0
 40
0
 40
0
 40
1
 40
1
 40
1
 40
1
 10
106.324411
 20
293.183852
 30
0.0
 10
106.324129
 20
292.647734
 30
0.0
 10
106.609910
 20
292.152201
 30
0.0
 10
107.074146
 20
291.884047
 30
0.0
  0
SPLINE
  5
121
100
AcDbEntity
  8
0
 62
1
100
AcDbSpline
 70
8
 71
3
 72
8
 73
4
 74
0
 40
0
 40
0
 40
0
 40
0
 40
1
 40
1
 40
1
 40
1
 10
107.074146
 20
291.884047
 30
0.0
 10
107.538382
 20
291.615893
 30
0.0
 10
108.110441
 20
291.615893
 30
0.0
 10
108.574676
 20
291.884047
 30
0.0
  0
SPLINE
  5
122
100
AcDbEntity
  8
0
 62
1
100
AcDbSpline
 70
8
 71
3
 72
8
 73
4
 74
0
 40
0
 40
0
 40
0
 40
0
 40
1
 40
1
 40
1
 40
1
 10
108.574676
 20
291.884047
 30
0.0
 10
109.038912
 20
292.152201
 30
0.0
 10
109.324741
 20
292.647734
 30
0.0
 10
109.324411
 20
293.183852
 30
0.0
  0
LWPOLYLINE
  5
123
100
AcDbEntity
  8
0
 62
1
100
AcDbPolyline
 90
2
 70
0
 10
173.149700
 20
121.447887
 30
0.0
 10
93.581722
 20
158.543240
 30
0.0
  0
LWPOLYLINE
  5
124
100
AcDbEntity
  8
0
 62
1
100
AcDbPolyline
 90
4
 70
1
 10
14.254988
 20
291.364975
 30
0.0
 10
14.254988
 20
291.364975
 30
0.0
 10
14.254988
 20
291.364975
 30
0.0
 10
14.254988
 20
291.364975
 30
0.0
  0
SPLINE
  5
125
100
AcDbEntity
  8
0
 62
1
100
AcDbSpline
 70
8
 71
3
 72
8
 73
4
 74
0
 40
0
 40
0
 40
0
 40
0
 40
1
 40
1
 40
1
 40
1
 10
162.807687
 20
291.364975
 30
0.0
 10
162.807687
 20
291.900874
 30
0.0
 10
162.521787
 20
292.396065
 30
0.0
 10
162.057687
 20
292.664014
 30
0.0
  0
SPLINE
  5
126
100
AcDbEntity
  8
0
 62
1
100
AcDbSpline
 70
8
 71
3
 72
8
 73
4
 74
0
 40
0
 40
0
 40
0
 40
0
 40
1
 40
1
 40
1
 40
1
 10
162.057687
 20
292.664014
 30
0.0
 10
161.593584
 20
292.931964
 30
0.0
 10
161.021787
 20
292.931964
 30
0.0
 10
160.557684
 20
292.664014
 30
0.0
  0
SPLINE
  5
127
100
AcDbEntity
  8
0
 62
1
100
AcDbSpline
 70
8
 71
3
 72
8
 73
4
 74
0
 40
0
 40
0
 40
0
 40
0
 40
1
 40
1
 40
1
 40
1
 10
160.557684
 20
292.664014
 30
0.0
 10
160.093584
 20
292.396065
 30
0.0
 10
159.807684
 20
291.900874
 30
0.0
 10
159.807684
 20
291.364975
 30
0.0
  0
SPLINE
  5
128
100
AcDbEntity
  8
0
 62
1
100
AcDbSpline
 70
8
 71
3
 72
8
 73
4
 74
0
 40
0
 40
0
 40
0
 40
0
 40
1
 40
1
 40
1
 40
1
 10
159.807684
 20
291.364975
 30
0.0
 10
159.807684
 20
290.536547
 30
0.0
 10
160.479257
 20
289.864974
 30
0.0
 10
161.307684
 20
289.864974
 30
0.0
  0
SPLINE
  5
129
100
AcDbEntity
  8
0
 62
1
100
AcDbSpline
 70
8
 71
3
 72
8
 73
4
 74
0
 40
0
 40
0
 40
0
 40
0
 40
1
 40
1
 40
1
 40
1
 10
161.307684
 20
289.864974
 30
0.0
 10
162.136114
 20
289.864974
 30
0.0
 10
162.807687
 20
290.536547
 30
0.0
 10
162.807687
 20
291.364975
 30
0.0
  0
LWPOLYLINE
  5
12a
100
AcDbEntity
  8
0
 62
1
100
AcDbPolyline
 90
4
 70
1
 10
109.324411
 20
293.183852
 30
0.0
 10
109.324411
 20
293.183852
 30
0.0
 10
109.324411
 20
293.183852
 30
0.0
 10
109.324411
 20
293.183852
 30
0.0
  0
SPLINE
  5
12b
100
AcDbEntity
  8
0
 62
1
100
AcDbSpline
 70
8
 71
3
 72
8
 73
4
 74
0
 40
0
 40
0
 40
0
 40
0
 40
1
 40
1
 40
1
 40
1
 10
13.491111
 20
297.628852
 30
0.0
 10
11.634596
 20
297.628852
 30
0.0
 10
9.854118
 20
296.891354
 30
0.0
 10
8.541364
 20
295.578599
 30
0.0
  0
SPLINE
  5
12c
100
AcDbEntity
  8
0
 62
1
100
AcDbSpline
 70
8
 71
3
 72
8
 73
4
 74
0
 40
0
 40
0
 40
0
 40
0
 40
1
 40
1
 40
1
 40
1
 10
8.541364
 20
295.578599
 30
0.0
 10
7.228609
 20
294.265845
 30
0.0
 10
6.491111
 20
292.485367
 30
0.0
 10
6.491111
 20
290.628852
 30
0.0
  0
SPLINE
  5
12d
100
AcDbEntity
  8
0
 62
1
100
AcDbSpline
 70
8
 71
3
 72
8
 73
4
 74
0
 40
0
 40
0
 40
0
 40
0
 40
1
 40
1
 40
1
 40
1
 10
6.491111
 20
166.198848
 30
0.0
 10
6.491111
 20
164.342334
 30
0.0
 10
7.228609
 20
162.561856
 30
0.0
 10
8.541364
 20
161.249100
 30
0.0
  0
SPLINE
  5
12e
100
AcDbEntity
  8
0
 62
1
100
AcDbSpline
 70
8
 71
3
 72
8
 73
4
 74
0
 40
0
 40
0
 40
0
 40
0
 40
1
 40
1
 40
1
 40
1
 10
8.541364
 20
161.249100
 30
0.0
 10
9.854118
 20
159.936346
 30
0.0
 10
11.634596
 20
159.198848
 30
0.0
 10
13.491111
 20
159.198848
 30
0.0
  0
SPLINE
  5
12f
100
AcDbEntity
  8
0
 62
1
100
AcDbSpline
 70
8
 71
3
 72
8
 73
4
 74
0
 40
0
 40
0
 40
0
 40
0
 40
1
 40
1
 40
1
 40
1
 10
173.149700
 20
121.447887
 30
0.0
 10
176.653416
 20
119.814415
 30
0.0
 10
180.817941
 20
121.330369
 30
0.0
 10
182.451683
 20
124.833961
 30
0.0
  0
SPLINE
  5
130
100
AcDbEntity
  8
0
 62
1
100
AcDbSpline
 70
8
 71
3
 72
8
 73
4
 74
0
 40
0
 40
0
 40
0
 40
0
 40
1
 40
1
 40
1
 40
1
 10
93.581722
 20
158.543240
 30
0.0
 10
92.655461
 20
158.975071
 30
0.0
 10
91.645881
 20
159.198848
 30
0.0
 10
90.623904
 20
159.198848
 30
0.0
  0
LWPOLYLINE
  5
131
100
AcDbEntity
  8
0
 62
1
100
AcDbPolyline
 90
2
 70
0
 10
90.623904
 20
159.198848
 30
0.0
 10
13.491111
 20
159.198848
 30
0.0
  0
SPLINE
  5
132
100
AcDbEntity
  8
0
 62
1
100
AcDbSpline
 70
8
 71
3
 72
8
 73
4
 74
0
 40
0
 40
0
 40
0
 40
0
 40
1
 40
1
 40
1
 40
1
 10
177.963209
 20
126.813270
 30
0.0
 10
177.963491
 20
127.349387
 30
0.0
 10
177.677713
 20
127.844922
 30
0.0
 10
177.213474
 20
128.113075
 30
0.0
  0
SPLINE
  5
133
100
AcDbEntity
  8
0
 62
1
100
AcDbSpline
 70
8
 71
3
 72
8
 73
4
 74
0
 40
0
 40
0
 40
0
 40
0
 40
1
 40
1
 40
1
 40
1
 10
177.213474
 20
128.113075
 30
0.0
 10
176.749239
 20
128.381229
 30
0.0
 10
176.177180
 20
128.381229
 30
0.0
 10
175.712944
 20
128.113075
 30
0.0
  0
SPLINE
  5
134
100
AcDbEntity
  8
0
 62
1
100
AcDbSpline
 70
8
 71
3
 72
8
 73
4
 74
0
 40
0
 40
0
 40
0
 40
0
 40
1
 40
1
 40
1
 40
1
 10
175.712944
 20
128.113075
 30
0.0
 10
175.248705
 20
127.844922
 30
0.0
 10
174.962882
 20
127.349387
 30
0.0
 10
174.963209
 20
126.813270
 30
0.0
  0
SPLINE
  5
135
100
AcDbEntity
  8
0
 62
1
100
AcDbSpline
 70
8
 71
3
 72
8
 73
4
 74
0
 40
0
 40
0
 40
0
 40
0
 40
1
 40
1
 40
1
 40
1
 10
174.963209
 20
126.813270
 30
0.0
 10
174.962927
 20
126.277152
 30
0.0
 10
175.248705
 20
125.781618
 30
0.0
 10
175.712944
 20
125.513464
 30
0.0
  0
SPLINE
  5
136
100
AcDbEntity
  8
0
 62
1
100
AcDbSpline
 70
8
 71
3
 72
8
 73
4
 74
0
 40
0
 40
0
 40
0
 40
0
 40
1
 40
1
 40
1
 40
1
 10
175.712944
 20
125.513464
 30
0.0
 10
176.177180
 20
125.245311
 30
0.0
 10
176.749239
 20
125.245311
 30
0.0
 10
177.213474
 20
125.513464
 30
0.0
  0
SPLINE
  5
137
100
AcDbEntity
  8
0
 62
1
100
AcDbSpline
 70
8
 71
3
 72
8
 73
4
 74
0
 40
0
 40
0
 40
0
 40
0
 40
1
 40
1
 40
1
 40
1
 10
177.213474
 20
125.513464
 30
0.0
 10
177.677713
 20
125.781618
 30
0.0
 10
177.963539
 20
126.277152
 30
0.0
 10
177.963209
 20
126.813270
 30
0.0
  0
LWPOLYLINE
  5
138
100
AcDbEntity
  8
0
 62
1
100
AcDbPolyline
 90
4
 70
1
 10
162.807687
 20
291.364975
 30
0.0
 10
162.807687
 20
291.364975
 30
0.0
 10
162.807687
 20
291.364975
 30
0.0
 10
162.807687
 20
291.364975
 30
0.0
  0
LWPOLYLINE
  5
139
100
AcDbEntity
  8
0
 62
1
100
AcDbPolyline
 90
2
 70
0
 10
182.491112
 20
129.930866
 30
0.0
 10
182.491112
 20
129.930866
 30
0.0
  0
LWPOLYLINE
  5
13a
100
AcDbEntity
  8
0
 62
1
100
AcDbPolyline
 90
4
 70
1
 10
177.963209
 20
126.813270
 30
0.0
 10
177.963209
 20
126.813270
 30
0.0
 10
177.963209
 20
126.813270
 30
0.0
 10
177.963209
 20
126.813270
 30
0.0
  0
LWPOLYLINE
  5
13b
100
AcDbEntity
  8
0
 62
1
100
AcDbPolyline
 90
2
 70
0
 10
182.491112
 20
129.930866
 30
0.0
 10
182.491112
 20
129.930866
 30
0.0
  0
SPLINE
  5
13c
100
AcDbEntity
  8
0
 62
1
100
AcDbSpline
 70
8
 71
3
 72
8
 73
4
 74
0
 40
0
 40
0
 40
0
 40
0
 40
1
 40
1
 40
1
 40
1
 10
542.975856
 20
291.365003
 30
0.0
 10
542.975856
 20
291.901627
 30
0.0
 10
542.691292
 20
292.397956
 30
0.0
 10
542.226754
 20
292.666584
 30
0.0
  0
SPLINE
  5
13d
100
AcDbEntity
  8
0
 62
1
100
AcDbSpline
 70
8
 71
3
 72
8
 73
4
 74
0
 40
0
 40
0
 40
0
 40
0
 40
1
 40
1
 40
1
 40
1
 10
542.226754
 20
292.666584
 30
0.0
 10
541.762188
 20
292.935212
 30
0.0
 10
541.189531
 20
292.935212
 30
0.0
 10
540.724993
 20
292.666584
 30
0.0
  0
SPLINE
  5
13e
100
AcDbEntity
  8
0
 62
1
100
AcDbSpline
 70
8
 71
3
 72
8
 73
4
 74
0
 40
0
 40
0
 40
0
 40
0
 40
1
 40
1
 40
1
 40
1
 10
540.724993
 20
292.666584
 30
0.0
 10
540.260427
 20
292.397956
 30
0.0
 10
539.974762
 20
291.901627
 30
0.0
 10
539.975862
 20
291.365003
 30
0.0
  0
SPLINE
  5
13f
100
AcDbEntity
  8
0
 62
1
100
AcDbSpline
 70
8
 71
3
 72
8
 73
4
 74
0
 40
0
 40
0
 40
0
 40
0
 40
1
 40
1
 40
1
 40
1
 10
539.975862
 20
291.365003
 30
0.0
 10
539.975862
 20
290.828379
 30
0.0
 10
540.260427
 20
290.332050
 30
0.0
 10
540.724993
 20
290.063422
 30
0.0
  0
SPLINE
  5
140
100
AcDbEntity
  8
0
 62
1
100
AcDbSpline
 70
8
 71
3
 72
8
 73
4
 74
0
 40
0
 40
0
 40
0
 40
0
 40
1
 40
1
 40
1
 40
1
 10
540.724993
 20
290.063422
 30
0.0
 10
541.189531
 20
289.794794
 30
0.0
 10
541.762188
 20
289.794794
 30
0.0
 10
542.226754
 20
290.063422
 30
0.0
  0
SPLINE
  5
141
100
AcDbEntity
  8
0
 62
1
100
AcDbSpline
 70
8
 71
3
 72
8
 73
4
 74
0
 40
0
 40
0
 40
0
 40
0
 40
1
 40
1
 40
1
 40
1
 10
542.226754
 20
290.063422
 30
0.0
 10
542.691292
 20
290.332050
 30
0.0
 10
542.976957
 20
290.828379
 30
0.0
 10
542.975856
 20
291.365003
 30
0.0
  0
LWPOLYLINE
  5
142
100
AcDbEntity
  8
0
 62
1
100
AcDbPolyline
 90
2
 70
0
 10
345.814735
 20
180.515259
 30
0.0
 10
371.779151
 20
124.833961
 30
0.0
  0
SPLINE
  5
143
100
AcDbEntity
  8
0
 62
1
100
AcDbSpline
 70
8
 71
3
 72
8
 73
4
 74
0
 40
0
 40
0
 40
0
 40
0
 40
1
 40
1
 40
1
 40
1
 10
447.906394
 20
293.183880
 30
0.0
 10
447.909216
 20
293.721484
 30
0.0
 10
447.623636
 20
294.219357
 30
0.0
 10
447.158477
 20
294.488905
 30
0.0
  0
SPLINE
  5
144
100
AcDbEntity
  8
0
 62
1
100
AcDbSpline
 70
8
 71
3
 72
8
 73
4
 74
0
 40
0
 40
0
 40
0
 40
0
 40
1
 40
1
 40
1
 40
1
 10
447.158477
 20
294.488905
 30
0.0
 10
446.693318
 20
294.758454
 30
0.0
 10
446.119504
 20
294.758454
 30
0.0
 10
445.654345
 20
294.488905
 30
0.0
  0
SPLINE
  5
145
100
AcDbEntity
  8
0
 62
1
100
AcDbSpline
 70
8
 71
3
 72
8
 73
4
 74
0
 40
0
 40
0
 40
0
 40
0
 40
1
 40
1
 40
1
 40
1
 10
445.654345
 20
294.488905
 30
0.0
 10
445.189187
 20
294.219357
 30
0.0
 10
444.903860
 20
293.721484
 30
0.0
 10
444.906428
 20
293.183880
 30
0.0
  0
SPLINE
  5
146
100
AcDbEntity
  8
0
 62
1
100
AcDbSpline
 70
8
 71
3
 72
8
 73
4
 74
0
 40
0
 40
0
 40
0
 40
0
 40
1
 40
1
 40
1
 40
1
 10
444.906428
 20
293.183880
 30
0.0
 10
444.903606
 20
292.646276
 30
0.0
 10
445.189187
 20
292.148403
 30
0.0
 10
445.654345
 20
291.878855
 30
0.0
  0
SPLINE
  5
147
100
AcDbEntity
  8
0
 62
1
100
AcDbSpline
 70
8
 71
3
 72
8
 73
4
 74
0
 40
0
 40
0
 40
0
 40
0
 40
1
 40
1
 40
1
 40
1
 10
445.654345
 20
291.878855
 30
0.0
 10
446.119504
 20
291.609306
 30
0.0
 10
446.693318
 20
291.609306
 30
0.0
 10
447.158477
 20
291.878855
 30
0.0
  0
SPLINE
  5
148
100
AcDbEntity
  8
0
 62
1
100
AcDbSpline
 70
8
 71
3
 72
8
 73
4
 74
0
 40
0
 40
0
 40
0
 40
0
 40
1
 40
1
 40
1
 40
1
 10
447.158477
 20
291.878855
 30
0.0
 10
447.623636
 20
292.148403
 30
0.0
 10
447.908962
 20
292.646276
 30
0.0
 10
447.906394
 20
293.183880
 30
0.0
  0
LWPOLYLINE
  5
149
100
AcDbEntity
  8
0
 62
1
100
AcDbPolyline
 90
2
 70
0
 10
381.081111
 20
121.447858
 30
0.0
 10
460.649094
 20
158.543271
 30
0.0
  0
LWPOLYLINE
  5
14a
100
AcDbEntity
  8
0
 62
1
100
AcDbPolyline
 90
4
 70
1
 10
542.975856
 20
291.365003
 30
0.0
 10
542.975856
 20
291.365003
 30
0.0
 10
542.975856
 20
291.365003
 30
0.0
 10
542.975856
 20
291.365003
 30
0.0
  0
SPLINE
  5
14b
100
AcDbEntity
  8
0
 62
1
100
AcDbSpline
 70
8
 71
3
 72
8
 73
4
 74
0
 40
0
 40
0
 40
0
 40
0
 40
1
 40
1
 40
1
 40
1
 10
394.423166
 20
291.365003
 30
0.0
 10
394.423166
 20
291.900910
 30
0.0
 10
394.137275
 20
292.396109
 30
0.0
 10
393.673161
 20
292.664063
 30
0.0
  0
SPLINE
  5
14c
100
AcDbEntity
  8
0
 62
1
100
AcDbSpline
 70
8
 71
3
 72
8
 73
4
 74
0
 40
0
 40
0
 40
0
 40
0
 40
1
 40
1
 40
1
 40
1
 10
393.673161
 20
292.664063
 30
0.0
 10
393.209046
 20
292.932017
 30
0.0
 10
392.637236
 20
292.932017
 30
0.0
 10
392.173121
 20
292.664063
 30
0.0
  0
SPLINE
  5
14d
100
AcDbEntity
  8
0
 62
1
100
AcDbSpline
 70
8
 71
3
 72
8
 73
4
 74
0
 40
0
 40
0
 40
0
 40
0
 40
1
 40
1
 40
1
 40
1
 10
392.173121
 20
292.664063
 30
0.0
 10
391.709007
 20
292.396109
 30
0.0
 10
391.423116
 20
291.900910
 30
0.0
 10
391.423116
 20
291.365003
 30
0.0
  0
SPLINE
  5
14e
100
AcDbEntity
  8
0
 62
1
100
AcDbSpline
 70
8
 71
3
 72
8
 73
4
 74
0
 40
0
 40
0
 40
0
 40
0
 40
1
 40
1
 40
1
 40
1
 10
391.423116
 20
291.365003
 30
0.0
 10
391.423116
 20
290.829096
 30
0.0
 10
391.709007
 20
290.333897
 30
0.0
 10
392.173121
 20
290.065943
 30
0.0
  0
SPLINE
  5
14f
100
AcDbEntity
  8
0
 62
1
100
AcDbSpline
 70
8
 71
3
 72
8
 73
4
 74
0
 40
0
 40
0
 40
0
 40
0
 40
1
 40
1
 40
1
 40
1
 10
392.173121
 20
290.065943
 30
0.0
 10
392.637236
 20
289.797989
 30
0.0
 10
393.209046
 20
289.797989
 30
0.0
 10
393.673161
 20
290.065943
 30
0.0
  0
SPLINE
  5
150
100
AcDbEntity
  8
0
 62
1
100
AcDbSpline
 70
8
 71
3
 72
8
 73
4
 74
0
 40
0
 40
0
 40
0
 40
0
 40
1
 40
1
 40
1
 40
1
 10
393.673161
 20
290.065943
 30
0.0
 10
394.137275
 20
290.333897
 30
0.0
 10
394.423166
 20
290.829096
 30
0.0
 10
394.423166
 20
291.365003
 30
0.0
  0
LWPOLYLINE
  5
151
100
AcDbEntity
  8
0
 62
1
100
AcDbPolyline
 90
4
 70
1
 10
447.906394
 20
293.183880
 30
0.0
 10
447.906394
 20
293.183880
 30
0.0
 10
447.906394
 20
293.183880
 30
0.0
 10
447.906394
 20
293.183880
 30
0.0
  0
SPLINE
  5
152
100
AcDbEntity
  8
0
 62
1
100
AcDbSpline
 70
8
 71
3
 72
8
 73
4
 74
0
 40
0
 40
0
 40
0
 40
0
 40
1
 40
1
 40
1
 40
1
 10
547.739711
 20
290.628880
 30
0.0
 10
547.739711
 20
292.485398
 30
0.0
 10
547.002208
 20
294.265878
 30
0.0
 10
545.689451
 20
295.578633
 30
0.0
  0
SPLINE
  5
153
100
AcDbEntity
  8
0
 62
1
100
AcDbSpline
 70
8
 71
3
 72
8
 73
4
 74
0
 40
0
 40
0
 40
0
 40
0
 40
1
 40
1
 40
1
 40
1
 10
545.689451
 20
295.578633
 30
0.0
 10
544.376695
 20
296.891388
 30
0.0
 10
542.596211
 20
297.628884
 30
0.0
 10
540.739697
 20
297.628880
 30
0.0
  0
SPLINE
  5
154
100
AcDbEntity
  8
0
 62
1
100
AcDbSpline
 70
8
 71
3
 72
8
 73
4
 74
0
 40
0
 40
0
 40
0
 40
0
 40
1
 40
1
 40
1
 40
1
 10
540.739697
 20
159.198874
 30
0.0
 10
542.596211
 20
159.198871
 30
0.0
 10
544.376695
 20
159.936365
 30
0.0
 10
545.689451
 20
161.249116
 30
0.0
  0
SPLINE
  5
155
100
AcDbEntity
  8
0
 62
1
100
AcDbSpline
 70
8
 71
3
 72
8
 73
4
 74
0
 40
0
 40
0
 40
0
 40
0
 40
1
 40
1
 40
1
 40
1
 10
545.689451
 20
161.249116
 30
0.0
 10
547.002208
 20
162.561867
 30
0.0
 10
547.739711
 20
164.342345
 30
0.0
 10
547.739711
 20
166.198860
 30
0.0
  0
SPLINE
  5
156
100
AcDbEntity
  8
0
 62
1
100
AcDbSpline
 70
8
 71
3
 72
8
 73
4
 74
0
 40
0
 40
0
 40
0
 40
0
 40
1
 40
1
 40
1
 40
1
 10
371.779123
 20
124.833961
 30
0.0
 10
373.412851
 20
121.330355
 30
0.0
 10
377.577378
 20
119.814387
 30
0.0
 10
381.081111
 20
121.447858
 30
0.0
  0
SPLINE
  5
157
100
AcDbEntity
  8
0
 62
1
100
AcDbSpline
 70
8
 71
3
 72
8
 73
4
 74
0
 40
0
 40
0
 40
0
 40
0
 40
1
 40
1
 40
1
 40
1
 10
352.681145
 20
183.829366
 30
0.0
 10
352.683967
 20
184.366972
 30
0.0
 10
352.398386
 20
184.864843
 30
0.0
 10
351.933228
 20
185.134393
 30
0.0
  0
SPLINE
  5
158
100
AcDbEntity
  8
0
 62
1
100
AcDbSpline
 70
8
 71
3
 72
8
 73
4
 74
0
 40
0
 40
0
 40
0
 40
0
 40
1
 40
1
 40
1
 40
1
 10
351.933228
 20
185.134393
 30
0.0
 10
351.468069
 20
185.403941
 30
0.0
 10
350.894255
 20
185.403941
 30
0.0
 10
350.429096
 20
185.134393
 30
0.0
  0
SPLINE
  5
159
100
AcDbEntity
  8
0
 62
1
100
AcDbSpline
 70
8
 71
3
 72
8
 73
4
 74
0
 40
0
 40
0
 40
0
 40
0
 40
1
 40
1
 40
1
 40
1
 10
350.429096
 20
185.134393
 30
0.0
 10
349.963938
 20
184.864843
 30
0.0
 10
349.678611
 20
184.366972
 30
0.0
 10
349.681179
 20
183.829366
 30
0.0
  0
SPLINE
  5
15a
100
AcDbEntity
  8
0
 62
1
100
AcDbSpline
 70
8
 71
3
 72
8
 73
4
 74
0
 40
0
 40
0
 40
0
 40
0
 40
1
 40
1
 40
1
 40
1
 10
349.681179
 20
183.829366
 30
0.0
 10
349.685130
 20
183.003754
 30
0.0
 10
350.355549
 20
182.336555
 30
0.0
 10
351.181162
 20
182.336555
 30
0.0
  0
SPLINE
  5
15b
100
AcDbEntity
  8
0
 62
1
100
AcDbSpline
 70
8
 71
3
 72
8
 73
4
 74
0
 40
0
 40
0
 40
0
 40
0
 40
1
 40
1
 40
1
 40
1
 10
351.181162
 20
182.336555
 30
0.0
 10
352.006775
 20
182.336555
 30
0.0
 10
352.677194
 20
183.003754
 30
0.0
 10
352.681145
 20
183.829366
 30
0.0
  0
LWPOLYLINE
  5
15c
100
AcDbEntity
  8
0
 62
1
100
AcDbPolyline
 90
2
 70
0
 10
463.606896
 20
159.198874
 30
0.0
 10
540.739697
 20
159.198874
 30
0.0
  0
SPLINE
  5
15d
100
AcDbEntity
  8
0
 62
1
100
AcDbSpline
 70
8
 71
3
 72
8
 73
4
 74
0
 40
0
 40
0
 40
0
 40
0
 40
1
 40
1
 40
1
 40
1
 10
463.606896
 20
159.198874
 30
0.0
 10
462.584913
 20
159.198874
 30
0.0
 10
461.575348
 20
158.975100
 30
0.0
 10
460.649094
 20
158.543271
 30
0.0
  0
SPLINE
  5
15e
100
AcDbEntity
  8
0
 62
1
100
AcDbSpline
 70
8
 71
3
 72
8
 73
4
 74
0
 40
0
 40
0
 40
0
 40
0
 40
1
 40
1
 40
1
 40
1
 10
379.267607
 20
126.813270
 30
0.0
 10
379.270429
 20
127.350928
 30
0.0
 10
378.984962
 20
127.848890
 30
0.0
 10
378.519775
 20
128.118488
 30
0.0
  0
SPLINE
  5
15f
100
AcDbEntity
  8
0
 62
1
100
AcDbSpline
 70
8
 71
3
 72
8
 73
4
 74
0
 40
0
 40
0
 40
0
 40
0
 40
1
 40
1
 40
1
 40
1
 10
378.519775
 20
128.118488
 30
0.0
 10
378.054588
 20
128.388089
 30
0.0
 10
377.480661
 20
128.388089
 30
0.0
 10
377.015474
 20
128.118488
 30
0.0
  0
SPLINE
  5
160
100
AcDbEntity
  8
0
 62
1
100
AcDbSpline
 70
8
 71
3
 72
8
 73
4
 74
0
 40
0
 40
0
 40
0
 40
0
 40
1
 40
1
 40
1
 40
1
 10
377.015474
 20
128.118488
 30
0.0
 10
376.550287
 20
127.848890
 30
0.0
 10
376.264988
 20
127.350928
 30
0.0
 10
376.267641
 20
126.813270
 30
0.0
  0
SPLINE
  5
161
100
AcDbEntity
  8
0
 62
1
100
AcDbSpline
 70
8
 71
3
 72
8
 73
4
 74
0
 40
0
 40
0
 40
0
 40
0
 40
1
 40
1
 40
1
 40
1
 10
376.267641
 20
126.813270
 30
0.0
 10
376.271592
 20
125.987747
 30
0.0
 10
376.942096
 20
125.320687
 30
0.0
 10
377.767624
 20
125.320687
 30
0.0
  0
SPLINE
  5
162
100
AcDbEntity
  8
0
 62
1
100
AcDbSpline
 70
8
 71
3
 72
8
 73
4
 74
0
 40
0
 40
0
 40
0
 40
0
 40
1
 40
1
 40
1
 40
1
 10
377.767624
 20
125.320687
 30
0.0
 10
378.593152
 20
125.320687
 30
0.0
 10
379.263515
 20
125.987747
 30
0.0
 10
379.267607
 20
126.813270
 30
0.0
  0
LWPOLYLINE
  5
163
100
AcDbEntity
  8
0
 62
1
100
AcDbPolyline
 90
4
 70
1
 10
394.423166
 20
291.365003
 30
0.0
 10
394.423166
 20
291.365003
 30
0.0
 10
394.423166
 20
291.365003
 30
0.0
 10
394.423166
 20
291.365003
 30
0.0
  0
SPLINE
  5
164
100
AcDbEntity
  8
0
 62
1
100
AcDbSpline
 70
8
 71
3
 72
8
 73
4
 74
0
 40
0
 40
0
 40
0
 40
0
 40
1
 40
1
 40
1
 40
1
 10
462.569842
 20
163.643874
 30
0.0
 10
462.569842
 20
164.180499
 30
0.0
 10
462.285278
 20
164.676827
 30
0.0
 10
461.820740
 20
164.945454
 30
0.0
  0
SPLINE
  5
165
100
AcDbEntity
  8
0
 62
1
100
AcDbSpline
 70
8
 71
3
 72
8
 73
4
 74
0
 40
0
 40
0
 40
0
 40
0
 40
1
 40
1
 40
1
 40
1
 10
461.820740
 20
164.945454
 30
0.0
 10
461.356174
 20
165.214082
 30
0.0
 10
460.783517
 20
165.214082
 30
0.0
 10
460.318951
 20
164.945454
 30
0.0
  0
SPLINE
  5
166
100
AcDbEntity
  8
0
 62
1
100
AcDbSpline
 70
8
 71
3
 72
8
 73
4
 74
0
 40
0
 40
0
 40
0
 40
0
 40
1
 40
1
 40
1
 40
1
 10
460.318951
 20
164.945454
 30
0.0
 10
459.854413
 20
164.676827
 30
0.0
 10
459.568748
 20
164.180499
 30
0.0
 10
459.569848
 20
163.643874
 30
0.0
  0
SPLINE
  5
167
100
AcDbEntity
  8
0
 62
1
100
AcDbSpline
 70
8
 71
3
 72
8
 73
4
 74
0
 40
0
 40
0
 40
0
 40
0
 40
1
 40
1
 40
1
 40
1
 10
459.569848
 20
163.643874
 30
0.0
 10
459.569848
 20
163.107251
 30
0.0
 10
459.854413
 20
162.610921
 30
0.0
 10
460.318951
 20
162.342293
 30
0.0
  0
SPLINE
  5
168
100
AcDbEntity
  8
0
 62
1
100
AcDbSpline
 70
8
 71
3
 72
8
 73
4
 74
0
 40
0
 40
0
 40
0
 40
0
 40
1
 40
1
 40
1
 40
1
 10
460.318951
 20
162.342293
 30
0.0
 10
460.783517
 20
162.073665
 30
0.0
 10
461.356174
 20
162.073665
 30
0.0
 10
461.820740
 20
162.342293
 30
0.0
  0
SPLINE
  5
169
100
AcDbEntity
  8
0
 62
1
100
AcDbSpline
 70
8
 71
3
 72
8
 73
4
 74
0
 40
0
 40
0
 40
0
 40
0
 40
1
 40
1
 40
1
 40
1
 10
461.820740
 20
162.342293
 30
0.0
 10
462.285278
 20
162.610921
 30
0.0
 10
462.570943
 20
163.107251
 30
0.0
 10
462.569842
 20
163.643874
 30
0.0
  0
LWPOLYLINE
  5
16a
100
AcDbEntity
  8
0
 62
1
100
AcDbPolyline
 90
4
 70
1
 10
352.681145
 20
183.829366
 30
0.0
 10
352.681145
 20
183.829366
 30
0.0
 10
352.681145
 20
183.829366
 30
0.0
 10
352.681145
 20
183.829366
 30
0.0
  0
SPLINE
  5
16b
100
AcDbEntity
  8
0
 62
1
100
AcDbSpline
 70
8
 71
3
 72
8
 73
4
 74
0
 40
0
 40
0
 40
0
 40
0
 40
1
 40
1
 40
1
 40
1
 10
542.975856
 20
167.050239
 30
0.0
 10
542.975856
 20
167.586862
 30
0.0
 10
542.691292
 20
168.083192
 30
0.0
 10
542.226754
 20
168.351820
 30
0.0
  0
SPLINE
  5
16c
100
AcDbEntity
  8
0
 62
1
100
AcDbSpline
 70
8
 71
3
 72
8
 73
4
 74
0
 40
0
 40
0
 40
0
 40
0
 40
1
 40
1
 40
1
 40
1
 10
542.226754
 20
168.351820
 30
0.0
 10
541.762188
 20
168.620448
 30
0.0
 10
541.189531
 20
168.620448
 30
0.0
 10
540.724993
 20
168.351820
 30
0.0
  0
SPLINE
  5
16d
100
AcDbEntity
  8
0
 62
1
100
AcDbSpline
 70
8
 71
3
 72
8
 73
4
 74
0
 40
0
 40
0
 40
0
 40
0
 40
1
 40
1
 40
1
 40
1
 10
540.724993
 20
168.351820
 30
0.0
 10
540.260427
 20
168.083192
 30
0.0
 10
539.974762
 20
167.586862
 30
0.0
 10
539.975862
 20
167.050239
 30
0.0
  0
SPLINE
  5
16e
100
AcDbEntity
  8
0
 62
1
100
AcDbSpline
 70
8
 71
3
 72
8
 73
4
 74
0
 40
0
 40
0
 40
0
 40
0
 40
1
 40
1
 40
1
 40
1
 10
539.975862
 20
167.050239
 30
0.0
 10
539.975862
 20
166.513616
 30
0.0
 10
540.260427
 20
166.017286
 30
0.0
 10
540.724993
 20
165.748659
 30
0.0
  0
SPLINE
  5
16f
100
AcDbEntity
  8
0
 62
1
100
AcDbSpline
 70
8
 71
3
 72
8
 73
4
 74
0
 40
0
 40
0
 40
0
 40
0
 40
1
 40
1
 40
1
 40
1
 10
540.724993
 20
165.748659
 30
0.0
 10
541.189531
 20
165.480031
 30
0.0
 10
541.762188
 20
165.480031
 30
0.0
 10
542.226754
 20
165.748659
 30
0.0
  0
SPLINE
  5
170
100
AcDbEntity
  8
0
 62
1
100
AcDbSpline
 70
8
 71
3
 72
8
 73
4
 74
0
 40
0
 40
0
 40
0
 40
0
 40
1
 40
1
 40
1
 40
1
 10
542.226754
 20
165.748659
 30
0.0
 10
542.691292
 20
166.017286
 30
0.0
 10
542.976957
 20
166.513616
 30
0.0
 10
542.975856
 20
167.050239
 30
0.0
  0
LWPOLYLINE
  5
171
100
AcDbEntity
  8
0
 62
1
100
AcDbPolyline
 90
4
 70
1
 10
379.267607
 20
126.813270
 30
0.0
 10
379.267607
 20
126.813270
 30
0.0
 10
379.267607
 20
126.813270
 30
0.0
 10
379.267607
 20
126.813270
 30
0.0
  0
LWPOLYLINE
  5
172
100
AcDbEntity
  8
0
 62
1
100
AcDbPolyline
 90
4
 70
1
 10
462.569842
 20
163.643874
 30
0.0
 10
462.569842
 20
163.643874
 30
0.0
 10
462.569842
 20
163.643874
 30
0.0
 10
462.569842
 20
163.643874
 30
0.0
  0
LWPOLYLINE
  5
173
100
AcDbEntity
  8
0
 62
1
100
AcDbPolyline
 90
4
 70
1
 10
542.975856
 20
167.050239
 30
0.0
 10
542.975856
 20
167.050239
 30
0.0
 10
542.975856
 20
167.050239
 30
0.0
 10
542.975856
 20
167.050239
 30
0.0
  0
SPLINE
  5
174
100
AcDbEntity
  8
0
 62
1
100
AcDbSpline
 70
8
 71
3
 72
8
 73
4
 74
0
 40
0
 40
0
 40
0
 40
0
 40
1
 40
1
 40
1
 40
1
 10
214.756915
 20
184.551946
 30
0.0
 10
212.036414
 20
184.551946
 30
0.0
 10
209.562316
 20
182.975715
 30
0.0
 10
208.412664
 20
180.510066
 30
0.0
  0
SPLINE
  5
175
100
AcDbEntity
  8
0
 62
1
100
AcDbSpline
 70
8
 71
3
 72
8
 73
4
 74
0
 40
0
 40
0
 40
0
 40
0
 40
1
 40
1
 40
1
 40
1
 10
345.815920
 20
180.508189
 30
0.0
 10
344.666260
 20
182.973855
 30
0.0
 10
342.192158
 20
184.550094
 30
0.0
 10
339.471649
 20
184.550091
 30
0.0
  0
LWPOLYLINE
  5
176
100
AcDbEntity
  8
0
 62
1
100
AcDbPolyline
 90
2
 70
0
 10
371.739696
 20
129.930866
 30
0.0
 10
371.739696
 20
129.930866
 30
0.0
  0
SPLINE
  5
177
100
AcDbEntity
  8
0
 62
1
100
AcDbSpline
 70
8
 71
3
 72
8
 73
4
 74
0
 40
0
 40
0
 40
0
 40
0
 40
1
 40
1
 40
1
 40
1
 10
16.381125
 20
263.711444
 30
0.0
 10
15.828841
 20
263.711444
 30
0.0
 10
15.381126
 20
263.263729
 30
0.0
 10
15.381125
 20
262.711446
 30
0.0
  0
SPLINE
  5
178
100
AcDbEntity
  8
0
 62
1
100
AcDbSpline
 70
8
 71
3
 72
8
 73
4
 74
0
 40
0
 40
0
 40
0
 40
0
 40
1
 40
1
 40
1
 40
1
 10
15.381125
 20
188.003444
 30
0.0
 10
15.381124
 20
187.738226
 30
0.0
 10
15.486481
 20
187.483873
 30
0.0
 10
15.674018
 20
187.296337
 30
0.0
  0
SPLINE
  5
179
100
AcDbEntity
  8
0
 62
1
100
AcDbSpline
 70
8
 71
3
 72
8
 73
4
 74
0
 40
0
 40
0
 40
0
 40
0
 40
1
 40
1
 40
1
 40
1
 10
15.674018
 20
187.296337
 30
0.0
 10
15.861554
 20
187.108800
 30
0.0
 10
16.115909
 20
187.003444
 30
0.0
 10
16.381125
 20
187.003444
 30
0.0
  0
LWPOLYLINE
  5
17a
100
AcDbEntity
  8
0
 62
1
100
AcDbPolyline
 90
2
 70
0
 10
547.739711
 20
166.198860
 30
0.0
 10
547.739711
 20
290.628880
 30
0.0
  0
LWPOLYLINE
  5
17b
100
AcDbEntity
  8
0
 62
1
100
AcDbPolyline
 90
2
 70
0
 10
339.487482
 20
184.552829
 30
0.0
 10
214.732035
 20
184.552829
 30
0.0
  0
SPLINE
  5
17c
100
AcDbEntity
  8
0
 62
1
100
AcDbSpline
 70
8
 71
3
 72
8
 73
4
 74
0
 40
0
 40
0
 40
0
 40
0
 40
1
 40
1
 40
1
 40
1
 10
145.099868
 20
188.908444
 30
0.0
 10
144.623480
 20
188.908441
 30
0.0
 10
144.211063
 20
188.577442
 30
0.0
 10
144.107956
 20
188.112346
 30
0.0
  0
SPLINE
  5
17d
100
AcDbEntity
  8
0
 62
1
100
AcDbSpline
 70
8
 71
3
 72
8
 73
4
 74
0
 40
0
 40
0
 40
0
 40
0
 40
1
 40
1
 40
1
 40
1
 10
144.107956
 20
188.112346
 30
0.0
 10
144.004846
 20
187.647252
 30
0.0
 10
144.238734
 20
187.172969
 30
0.0
 10
144.670486
 20
186.971634
 30
0.0
  0
LWPOLYLINE
  5
17e
100
AcDbEntity
  8
0
 62
1
100
AcDbPolyline
 90
2
 70
0
 10
15.381125
 20
188.003444
 30
0.0
 10
15.381125
 20
262.711446
 30
0.0
  0
SPLINE
  5
17f
100
AcDbEntity
  8
0
 62
1
100
AcDbSpline
 70
8
 71
3
 72
8
 73
4
 74
0
 40
0
 40
0
 40
0
 40
0
 40
1
 40
1
 40
1
 40
1
 10
155.132360
 20
182.093183
 30
0.0
 10
155.498679
 20
181.922366
 30
0.0
 10
155.917855
 20
181.904063
 30
0.0
 10
156.297670
 20
182.042304
 30
0.0
  0
SPLINE
  5
180
100
AcDbEntity
  8
0
 62
1
100
AcDbSpline
 70
8
 71
3
 72
8
 73
4
 74
0
 40
0
 40
0
 40
0
 40
0
 40
1
 40
1
 40
1
 40
1
 10
156.297670
 20
182.042304
 30
0.0
 10
156.677484
 20
182.180545
 30
0.0
 10
156.986825
 20
182.464006
 30
0.0
 10
157.157643
 20
182.830325
 30
0.0
  0
LWPOLYLINE
  5
181
100
AcDbEntity
  8
0
 62
1
100
AcDbPolyline
 90
2
 70
0
 10
158.675268
 20
264.600444
 30
0.0
 10
158.687911
 20
199.284253
 30
0.0
  0
SPLINE
  5
182
100
AcDbEntity
  8
0
 62
1
100
AcDbSpline
 70
8
 71
3
 72
8
 73
4
 74
0
 40
0
 40
0
 40
0
 40
0
 40
1
 40
1
 40
1
 40
1
 10
165.485259
 20
198.284896
 30
0.0
 10
164.976708
 20
198.522036
 30
0.0
 10
164.372211
 20
198.302027
 30
0.0
 10
164.135071
 20
197.793465
 30
0.0
  0
LWPOLYLINE
  5
183
100
AcDbEntity
  8
0
 62
1
100
AcDbPolyline
 90
2
 70
0
 10
144.670486
 20
186.971634
 30
0.0
 10
155.132360
 20
182.093183
 30
0.0
  0
SPLINE
  5
184
100
AcDbEntity
  8
0
 62
1
100
AcDbSpline
 70
8
 71
3
 72
8
 73
4
 74
0
 40
0
 40
0
 40
0
 40
0
 40
1
 40
1
 40
1
 40
1
 10
199.125800
 20
181.477022
 30
0.0
 10
199.239680
 20
181.721234
 30
0.0
 10
199.251880
 20
182.000685
 30
0.0
 10
199.159721
 20
182.253895
 30
0.0
  0
SPLINE
  5
185
100
AcDbEntity
  8
0
 62
1
100
AcDbSpline
 70
8
 71
3
 72
8
 73
4
 74
0
 40
0
 40
0
 40
0
 40
0
 40
1
 40
1
 40
1
 40
1
 10
199.159721
 20
182.253895
 30
0.0
 10
199.067558
 20
182.507105
 30
0.0
 10
198.878585
 20
182.713333
 30
0.0
 10
198.634373
 20
182.827212
 30
0.0
  0
LWPOLYLINE
  5
186
100
AcDbEntity
  8
0
 62
1
100
AcDbPolyline
 90
2
 70
0
 10
157.157643
 20
182.830325
 30
0.0
 10
164.135071
 20
197.793465
 30
0.0
  0
SPLINE
  5
187
100
AcDbEntity
  8
0
 62
1
100
AcDbSpline
 70
8
 71
3
 72
8
 73
4
 74
0
 40
0
 40
0
 40
0
 40
0
 40
1
 40
1
 40
1
 40
1
 10
174.267049
 20
130.571315
 30
0.0
 10
174.511262
 20
130.457439
 30
0.0
 10
174.790712
 20
130.445235
 30
0.0
 10
175.043922
 20
130.537398
 30
0.0
  0
SPLINE
  5
188
100
AcDbEntity
  8
0
 62
1
100
AcDbSpline
 70
8
 71
3
 72
8
 73
4
 74
0
 40
0
 40
0
 40
0
 40
0
 40
1
 40
1
 40
1
 40
1
 10
175.043922
 20
130.537398
 30
0.0
 10
175.297132
 20
130.629558
 30
0.0
 10
175.503360
 20
130.818531
 30
0.0
 10
175.617240
 20
131.062743
 30
0.0
  0
LWPOLYLINE
  5
189
100
AcDbEntity
  8
0
 62
1
100
AcDbPolyline
 90
2
 70
0
 10
165.485259
 20
198.284896
 30
0.0
 10
198.634373
 20
182.827212
 30
0.0
  0
SPLINE
  5
18a
100
AcDbEntity
  8
0
 62
1
100
AcDbSpline
 70
8
 71
3
 72
8
 73
4
 74
0
 40
0
 40
0
 40
0
 40
0
 40
1
 40
1
 40
1
 40
1
 10
123.361343
 20
155.430070
 30
0.0
 10
123.124203
 20
154.921519
 30
0.0
 10
123.344212
 20
154.317019
 30
0.0
 10
123.852773
 20
154.079882
 30
0.0
  0
LWPOLYLINE
  5
18b
100
AcDbEntity
  8
0
 62
1
100
AcDbPolyline
 90
2
 70
0
 10
199.125800
 20
181.477022
 30
0.0
 10
175.617240
 20
131.062743
 30
0.0
  0
SPLINE
  5
18c
100
AcDbEntity
  8
0
 62
1
100
AcDbSpline
 70
8
 71
3
 72
8
 73
4
 74
0
 40
0
 40
0
 40
0
 40
0
 40
1
 40
1
 40
1
 40
1
 10
137.961579
 20
186.740376
 30
0.0
 10
138.181670
 20
187.212364
 30
0.0
 10
138.145509
 20
187.764064
 30
0.0
 10
137.865691
 20
188.203286
 30
0.0
  0
SPLINE
  5
18d
100
AcDbEntity
  8
0
 62
1
100
AcDbSpline
 70
8
 71
3
 72
8
 73
4
 74
0
 40
0
 40
0
 40
0
 40
0
 40
1
 40
1
 40
1
 40
1
 10
137.865691
 20
188.203286
 30
0.0
 10
137.585876
 20
188.642511
 30
0.0
 10
137.101148
 20
188.908441
 30
0.0
 10
136.580366
 20
188.908444
 30
0.0
  0
LWPOLYLINE
  5
18e
100
AcDbEntity
  8
0
 62
1
100
AcDbPolyline
 90
2
 70
0
 10
174.267049
 20
130.571315
 30
0.0
 10
123.852773
 20
154.079882
 30
0.0
  0
SPLINE
  5
18f
100
AcDbEntity
  8
0
 62
1
100
AcDbSpline
 70
8
 71
3
 72
8
 73
4
 74
0
 40
0
 40
0
 40
0
 40
0
 40
1
 40
1
 40
1
 40
1
 10
122.099268
 20
188.908444
 30
0.0
 10
121.695077
 20
188.908444
 30
0.0
 10
121.307442
 20
188.747879
 30
0.0
 10
121.021636
 20
188.462072
 30
0.0
  0
SPLINE
  5
190
100
AcDbEntity
  8
0
 62
1
100
AcDbSpline
 70
8
 71
3
 72
8
 73
4
 74
0
 40
0
 40
0
 40
0
 40
0
 40
1
 40
1
 40
1
 40
1
 10
121.021636
 20
188.462072
 30
0.0
 10
120.735832
 20
188.176269
 30
0.0
 10
120.575268
 20
187.788631
 30
0.0
 10
120.575268
 20
187.384444
 30
0.0
  0
LWPOLYLINE
  5
191
100
AcDbEntity
  8
0
 62
1
100
AcDbPolyline
 90
2
 70
0
 10
123.361343
 20
155.430070
 30
0.0
 10
137.961579
 20
186.740376
 30
0.0
  0
SPLINE
  5
192
100
AcDbEntity
  8
0
 62
1
100
AcDbSpline
 70
8
 71
3
 72
8
 73
4
 74
0
 40
0
 40
0
 40
0
 40
0
 40
1
 40
1
 40
1
 40
1
 10
119.559268
 20
171.128444
 30
0.0
 10
119.828728
 20
171.128444
 30
0.0
 10
120.087150
 20
171.235485
 30
0.0
 10
120.277687
 20
171.426022
 30
0.0
  0
SPLINE
  5
193
100
AcDbEntity
  8
0
 62
1
100
AcDbSpline
 70
8
 71
3
 72
8
 73
4
 74
0
 40
0
 40
0
 40
0
 40
0
 40
1
 40
1
 40
1
 40
1
 10
120.277687
 20
171.426022
 30
0.0
 10
120.468223
 20
171.616558
 30
0.0
 10
120.575268
 20
171.874983
 30
0.0
 10
120.575268
 20
172.144444
 30
0.0
  0
LWPOLYLINE
  5
194
100
AcDbEntity
  8
0
 62
1
100
AcDbPolyline
 90
2
 70
0
 10
136.580366
 20
188.908444
 30
0.0
 10
122.099268
 20
188.908444
 30
0.0
  0
SPLINE
  5
195
100
AcDbEntity
  8
0
 62
1
100
AcDbSpline
 70
8
 71
3
 72
8
 73
4
 74
0
 40
0
 40
0
 40
0
 40
0
 40
1
 40
1
 40
1
 40
1
 10
100.906052
 20
171.763444
 30
0.0
 10
101.061303
 20
171.379650
 30
0.0
 10
101.433904
 20
171.128444
 30
0.0
 10
101.847910
 20
171.128444
 30
0.0
  0
SPLINE
  5
196
100
AcDbEntity
  8
0
 62
1
100
AcDbSpline
 70
8
 71
3
 72
8
 73
4
 74
0
 40
0
 40
0
 40
0
 40
0
 40
1
 40
1
 40
1
 40
1
 10
100.906052
 20
171.763444
 30
0.0
 10
100.673174
 20
172.339132
 30
0.0
 10
100.114275
 20
172.715941
 30
0.0
 10
99.493268
 20
172.715944
 30
0.0
  0
LWPOLYLINE
  5
197
100
AcDbEntity
  8
0
 62
1
100
AcDbPolyline
 90
2
 70
0
 10
120.575268
 20
187.384444
 30
0.0
 10
120.575268
 20
172.144444
 30
0.0
  0
SPLINE
  5
198
100
AcDbEntity
  8
0
 62
1
100
AcDbSpline
 70
8
 71
3
 72
8
 73
4
 74
0
 40
0
 40
0
 40
0
 40
0
 40
1
 40
1
 40
1
 40
1
 10
83.999268
 20
172.715944
 30
0.0
 10
83.378257
 20
172.715944
 30
0.0
 10
82.819359
 20
172.339135
 30
0.0
 10
82.586480
 20
171.763444
 30
0.0
  0
SPLINE
  5
199
100
AcDbEntity
  8
0
 62
1
100
AcDbSpline
 70
8
 71
3
 72
8
 73
4
 74
0
 40
0
 40
0
 40
0
 40
0
 40
1
 40
1
 40
1
 40
1
 10
81.644625
 20
171.128444
 30
0.0
 10
82.058629
 20
171.128444
 30
0.0
 10
82.431227
 20
171.379650
 30
0.0
 10
82.586480
 20
171.763444
 30
0.0
  0
LWPOLYLINE
  5
19a
100
AcDbEntity
  8
0
 62
1
100
AcDbPolyline
 90
2
 70
0
 10
119.559268
 20
171.128444
 30
0.0
 10
101.847910
 20
171.128444
 30
0.0
  0
SPLINE
  5
19b
100
AcDbEntity
  8
0
 62
1
100
AcDbSpline
 70
8
 71
3
 72
8
 73
4
 74
0
 40
0
 40
0
 40
0
 40
0
 40
1
 40
1
 40
1
 40
1
 10
64.949268
 20
171.128444
 30
0.0
 10
64.107585
 20
171.128444
 30
0.0
 10
63.425268
 20
170.446123
 30
0.0
 10
63.425268
 20
169.604444
 30
0.0
  0
LWPOLYLINE
  5
19c
100
AcDbEntity
  8
0
 62
1
100
AcDbPolyline
 90
2
 70
0
 10
99.493268
 20
172.715944
 30
0.0
 10
83.999268
 20
172.715944
 30
0.0
  0
SPLINE
  5
19d
100
AcDbEntity
  8
0
 62
1
100
AcDbSpline
 70
8
 71
3
 72
8
 73
4
 74
0
 40
0
 40
0
 40
0
 40
0
 40
1
 40
1
 40
1
 40
1
 10
62.409268
 20
167.953444
 30
0.0
 10
62.678728
 20
167.953444
 30
0.0
 10
62.937150
 20
168.060485
 30
0.0
 10
63.127687
 20
168.251022
 30
0.0
  0
SPLINE
  5
19e
100
AcDbEntity
  8
0
 62
1
100
AcDbSpline
 70
8
 71
3
 72
8
 73
4
 74
0
 40
0
 40
0
 40
0
 40
0
 40
1
 40
1
 40
1
 40
1
 10
63.127687
 20
168.251022
 30
0.0
 10
63.318223
 20
168.441558
 30
0.0
 10
63.425268
 20
168.699983
 30
0.0
 10
63.425268
 20
168.969444
 30
0.0
  0
LWPOLYLINE
  5
19f
100
AcDbEntity
  8
0
 62
1
100
AcDbPolyline
 90
2
 70
0
 10
81.644625
 20
171.128444
 30
0.0
 10
64.949268
 20
171.128444
 30
0.0
  0
SPLINE
  5
1a0
100
AcDbEntity
  8
0
 62
1
100
AcDbSpline
 70
8
 71
3
 72
8
 73
4
 74
0
 40
0
 40
0
 40
0
 40
0
 40
1
 40
1
 40
1
 40
1
 10
24.817267
 20
168.969444
 30
0.0
 10
24.817267
 20
168.699983
 30
0.0
 10
24.924310
 20
168.441558
 30
0.0
 10
25.114847
 20
168.251022
 30
0.0
  0
SPLINE
  5
1a1
100
AcDbEntity
  8
0
 62
1
100
AcDbSpline
 70
8
 71
3
 72
8
 73
4
 74
0
 40
0
 40
0
 40
0
 40
0
 40
1
 40
1
 40
1
 40
1
 10
25.114847
 20
168.251022
 30
0.0
 10
25.305383
 20
168.060485
 30
0.0
 10
25.563807
 20
167.953444
 30
0.0
 10
25.833267
 20
167.953444
 30
0.0
  0
LWPOLYLINE
  5
1a2
100
AcDbEntity
  8
0
 62
1
100
AcDbPolyline
 90
2
 70
0
 10
63.425268
 20
169.604444
 30
0.0
 10
63.425268
 20
168.969444
 30
0.0
  0
SPLINE
  5
1a3
100
AcDbEntity
  8
0
 62
1
100
AcDbSpline
 70
8
 71
3
 72
8
 73
4
 74
0
 40
0
 40
0
 40
0
 40
0
 40
1
 40
1
 40
1
 40
1
 10
24.817267
 20
185.479444
 30
0.0
 10
24.817267
 20
185.883631
 30
0.0
 10
24.656703
 20
186.271269
 30
0.0
 10
24.370898
 20
186.557072
 30
0.0
  0
SPLINE
  5
1a4
100
AcDbEntity
  8
0
 62
1
100
AcDbSpline
 70
8
 71
3
 72
8
 73
4
 74
0
 40
0
 40
0
 40
0
 40
0
 40
1
 40
1
 40
1
 40
1
 10
24.370898
 20
186.557072
 30
0.0
 10
24.085092
 20
186.842879
 30
0.0
 10
23.697457
 20
187.003444
 30
0.0
 10
23.293267
 20
187.003444
 30
0.0
  0
LWPOLYLINE
  5
1a5
100
AcDbEntity
  8
0
 62
1
100
AcDbPolyline
 90
2
 70
0
 10
62.409268
 20
167.953444
 30
0.0
 10
25.833267
 20
167.953444
 30
0.0
  0
LWPOLYLINE
  5
1a6
100
AcDbEntity
  8
0
 62
1
100
AcDbPolyline
 90
2
 70
0
 10
24.817267
 20
168.969444
 30
0.0
 10
24.817267
 20
185.479444
 30
0.0
  0
SPLINE
  5
1a7
100
AcDbEntity
  8
0
 62
1
100
AcDbSpline
 70
8
 71
3
 72
8
 73
4
 74
0
 40
0
 40
0
 40
0
 40
0
 40
1
 40
1
 40
1
 40
1
 10
61.393268
 20
263.711444
 30
0.0
 10
61.797458
 20
263.711444
 30
0.0
 10
62.185093
 20
263.872005
 30
0.0
 10
62.470899
 20
264.157812
 30
0.0
  0
SPLINE
  5
1a8
100
AcDbEntity
  8
0
 62
1
100
AcDbSpline
 70
8
 71
3
 72
8
 73
4
 74
0
 40
0
 40
0
 40
0
 40
0
 40
1
 40
1
 40
1
 40
1
 10
62.470899
 20
264.157812
 30
0.0
 10
62.756703
 20
264.443618
 30
0.0
 10
62.917268
 20
264.831253
 30
0.0
 10
62.917268
 20
265.235444
 30
0.0
  0
LWPOLYLINE
  5
1a9
100
AcDbEntity
  8
0
 62
1
100
AcDbPolyline
 90
2
 70
0
 10
23.293267
 20
187.003444
 30
0.0
 10
16.381125
 20
187.003444
 30
0.0
  0
SPLINE
  5
1aa
100
AcDbEntity
  8
0
 62
1
100
AcDbSpline
 70
8
 71
3
 72
8
 73
4
 74
0
 40
0
 40
0
 40
0
 40
0
 40
1
 40
1
 40
1
 40
1
 10
63.933268
 20
266.886444
 30
0.0
 10
63.663807
 20
266.886444
 30
0.0
 10
63.405382
 20
266.779400
 30
0.0
 10
63.214845
 20
266.588863
 30
0.0
  0
SPLINE
  5
1ab
100
AcDbEntity
  8
0
 62
1
100
AcDbSpline
 70
8
 71
3
 72
8
 73
4
 74
0
 40
0
 40
0
 40
0
 40
0
 40
1
 40
1
 40
1
 40
1
 10
63.214845
 20
266.588863
 30
0.0
 10
63.024309
 20
266.398326
 30
0.0
 10
62.917268
 20
266.139901
 30
0.0
 10
62.917268
 20
265.870444
 30
0.0
  0
LWPOLYLINE
  5
1ac
100
AcDbEntity
  8
0
 62
1
100
AcDbPolyline
 90
2
 70
0
 10
16.381125
 20
263.711444
 30
0.0
 10
61.393268
 20
263.711444
 30
0.0
  0
SPLINE
  5
1ad
100
AcDbEntity
  8
0
 62
1
100
AcDbSpline
 70
8
 71
3
 72
8
 73
4
 74
0
 40
0
 40
0
 40
0
 40
0
 40
1
 40
1
 40
1
 40
1
 10
80.443268
 20
266.886444
 30
0.0
 10
81.064275
 20
266.886444
 30
0.0
 10
81.623174
 20
267.263253
 30
0.0
 10
81.856052
 20
267.838944
 30
0.0
  0
SPLINE
  5
1ae
100
AcDbEntity
  8
0
 62
1
100
AcDbSpline
 70
8
 71
3
 72
8
 73
4
 74
0
 40
0
 40
0
 40
0
 40
0
 40
1
 40
1
 40
1
 40
1
 10
82.797910
 20
268.473944
 30
0.0
 10
82.383904
 20
268.473944
 30
0.0
 10
82.011303
 20
268.222738
 30
0.0
 10
81.856052
 20
267.838944
 30
0.0
  0
LWPOLYLINE
  5
1af
100
AcDbEntity
  8
0
 62
1
100
AcDbPolyline
 90
2
 70
0
 10
62.917268
 20
265.235444
 30
0.0
 10
62.917268
 20
265.870444
 30
0.0
  0
SPLINE
  5
1b0
100
AcDbEntity
  8
0
 62
1
100
AcDbSpline
 70
8
 71
3
 72
8
 73
4
 74
0
 40
0
 40
0
 40
0
 40
0
 40
1
 40
1
 40
1
 40
1
 10
101.636480
 20
267.838944
 30
0.0
 10
101.481227
 20
268.222735
 30
0.0
 10
101.108629
 20
268.473941
 30
0.0
 10
100.694625
 20
268.473944
 30
0.0
  0
SPLINE
  5
1b1
100
AcDbEntity
  8
0
 62
1
100
AcDbSpline
 70
8
 71
3
 72
8
 73
4
 74
0
 40
0
 40
0
 40
0
 40
0
 40
1
 40
1
 40
1
 40
1
 10
101.636480
 20
267.838944
 30
0.0
 10
101.869359
 20
267.263253
 30
0.0
 10
102.428257
 20
266.886441
 30
0.0
 10
103.049268
 20
266.886444
 30
0.0
  0
LWPOLYLINE
  5
1b2
100
AcDbEntity
  8
0
 62
1
100
AcDbPolyline
 90
2
 70
0
 10
63.933268
 20
266.886444
 30
0.0
 10
80.443268
 20
266.886444
 30
0.0
  0
SPLINE
  5
1b3
100
AcDbEntity
  8
0
 62
1
100
AcDbSpline
 70
8
 71
3
 72
8
 73
4
 74
0
 40
0
 40
0
 40
0
 40
0
 40
1
 40
1
 40
1
 40
1
 10
120.779444
 20
266.378444
 30
0.0
 10
120.597953
 20
266.692794
 30
0.0
 10
120.262543
 20
266.886444
 30
0.0
 10
119.899563
 20
266.886444
 30
0.0
  0
SPLINE
  5
1b4
100
AcDbEntity
  8
0
 62
1
100
AcDbSpline
 70
8
 71
3
 72
8
 73
4
 74
0
 40
0
 40
0
 40
0
 40
0
 40
1
 40
1
 40
1
 40
1
 10
120.779444
 20
266.378444
 30
0.0
 10
121.051681
 20
265.906915
 30
0.0
 10
121.554793
 20
265.616444
 30
0.0
 10
122.099268
 20
265.616444
 30
0.0
  0
LWPOLYLINE
  5
1b5
100
AcDbEntity
  8
0
 62
1
100
AcDbPolyline
 90
2
 70
0
 10
82.797910
 20
268.473944
 30
0.0
 10
100.694625
 20
268.473944
 30
0.0
  0
SPLINE
  5
1b6
100
AcDbEntity
  8
0
 62
1
100
AcDbSpline
 70
8
 71
3
 72
8
 73
4
 74
0
 40
0
 40
0
 40
0
 40
0
 40
1
 40
1
 40
1
 40
1
 10
158.675268
 20
264.600444
 30
0.0
 10
158.675268
 20
264.869901
 30
0.0
 10
158.568223
 20
265.128326
 30
0.0
 10
158.377687
 20
265.318863
 30
0.0
  0
SPLINE
  5
1b7
100
AcDbEntity
  8
0
 62
1
100
AcDbSpline
 70
8
 71
3
 72
8
 73
4
 74
0
 40
0
 40
0
 40
0
 40
0
 40
1
 40
1
 40
1
 40
1
 10
158.377687
 20
265.318863
 30
0.0
 10
158.187150
 20
265.509400
 30
0.0
 10
157.928728
 20
265.616444
 30
0.0
 10
157.659268
 20
265.616444
 30
0.0
  0
LWPOLYLINE
  5
1b8
100
AcDbEntity
  8
0
 62
1
100
AcDbPolyline
 90
2
 70
0
 10
103.049268
 20
266.886444
 30
0.0
 10
119.899563
 20
266.886444
 30
0.0
  0
SPLINE
  5
1b9
100
AcDbEntity
  8
0
 62
1
100
AcDbSpline
 70
8
 71
3
 72
8
 73
4
 74
0
 40
0
 40
0
 40
0
 40
0
 40
1
 40
1
 40
1
 40
1
 10
157.659268
 20
188.908444
 30
0.0
 10
157.928728
 20
188.908444
 30
0.0
 10
158.187150
 20
189.015485
 30
0.0
 10
158.377687
 20
189.206022
 30
0.0
  0
SPLINE
  5
1ba
100
AcDbEntity
  8
0
 62
1
100
AcDbSpline
 70
8
 71
3
 72
8
 73
4
 74
0
 40
0
 40
0
 40
0
 40
0
 40
1
 40
1
 40
1
 40
1
 10
158.377687
 20
189.206022
 30
0.0
 10
158.568223
 20
189.396558
 30
0.0
 10
158.675268
 20
189.654983
 30
0.0
 10
158.675268
 20
189.924444
 30
0.0
  0
LWPOLYLINE
  5
1bb
100
AcDbEntity
  8
0
 62
1
100
AcDbPolyline
 90
2
 70
0
 10
122.099268
 20
265.616444
 30
0.0
 10
157.659268
 20
265.616444
 30
0.0
  0
LWPOLYLINE
  5
1bc
100
AcDbEntity
  8
0
 62
1
100
AcDbPolyline
 90
2
 70
0
 10
158.675268
 20
264.600444
 30
0.0
 10
158.675268
 20
189.924444
 30
0.0
  0
LWPOLYLINE
  5
1bd
100
AcDbEntity
  8
0
 62
1
100
AcDbPolyline
 90
2
 70
0
 10
157.659268
 20
188.908444
 30
0.0
 10
145.099868
 20
188.908444
 30
0.0
  0
SPLINE
  5
1be
100
AcDbEntity
  8
0
 62
1
100
AcDbSpline
 70
8
 71
3
 72
8
 73
4
 74
0
 40
0
 40
0
 40
0
 40
0
 40
1
 40
1
 40
1
 40
1
 10
409.560353
 20
187.018243
 30
0.0
 10
409.992096
 20
187.219572
 30
0.0
 10
410.226002
 20
187.693858
 30
0.0
 10
410.122878
 20
188.158955
 30
0.0
  0
SPLINE
  5
1bf
100
AcDbEntity
  8
0
 62
1
100
AcDbSpline
 70
8
 71
3
 72
8
 73
4
 74
0
 40
0
 40
0
 40
0
 40
0
 40
1
 40
1
 40
1
 40
1
 10
410.122878
 20
188.158955
 30
0.0
 10
410.019782
 20
188.624051
 30
0.0
 10
409.607371
 20
188.955053
 30
0.0
 10
409.130980
 20
188.955053
 30
0.0
  0
LWPOLYLINE
  5
1c0
100
AcDbEntity
  8
0
 62
1
100
AcDbPolyline
 90
2
 70
0
 10
538.849711
 20
188.050053
 30
0.0
 10
538.849711
 20
262.758049
 30
0.0
  0
SPLINE
  5
1c1
100
AcDbEntity
  8
0
 62
1
100
AcDbSpline
 70
8
 71
3
 72
8
 73
4
 74
0
 40
0
 40
0
 40
0
 40
0
 40
1
 40
1
 40
1
 40
1
 10
397.073205
 20
182.876934
 30
0.0
 10
397.428918
 20
182.114110
 30
0.0
 10
398.335641
 20
181.784079
 30
0.0
 10
399.098488
 20
182.139792
 30
0.0
  0
LWPOLYLINE
  5
1c2
100
AcDbEntity
  8
0
 62
1
100
AcDbPolyline
 90
2
 70
0
 10
395.555583
 20
264.647053
 30
0.0
 10
395.542883
 20
199.330862
 30
0.0
  0
SPLINE
  5
1c3
100
AcDbEntity
  8
0
 62
1
100
AcDbSpline
 70
8
 71
3
 72
8
 73
4
 74
0
 40
0
 40
0
 40
0
 40
0
 40
1
 40
1
 40
1
 40
1
 10
390.095768
 20
197.840074
 30
0.0
 10
389.858617
 20
198.348625
 30
0.0
 10
389.254125
 20
198.568642
 30
0.0
 10
388.745589
 20
198.331502
 30
0.0
  0
LWPOLYLINE
  5
1c4
100
AcDbEntity
  8
0
 62
1
100
AcDbPolyline
 90
2
 70
0
 10
409.560353
 20
187.018243
 30
0.0
 10
399.098488
 20
182.139792
 30
0.0
  0
SPLINE
  5
1c5
100
AcDbEntity
  8
0
 62
1
100
AcDbSpline
 70
8
 71
3
 72
8
 73
4
 74
0
 40
0
 40
0
 40
0
 40
0
 40
1
 40
1
 40
1
 40
1
 10
355.596472
 20
182.873818
 30
0.0
 10
355.087908
 20
182.636678
 30
0.0
 10
354.867887
 20
182.032178
 30
0.0
 10
355.105039
 20
181.523631
 30
0.0
  0
LWPOLYLINE
  5
1c6
100
AcDbEntity
  8
0
 62
1
100
AcDbPolyline
 90
2
 70
0
 10
397.073205
 20
182.876934
 30
0.0
 10
390.095768
 20
197.840074
 30
0.0
  0
SPLINE
  5
1c7
100
AcDbEntity
  8
0
 62
1
100
AcDbSpline
 70
8
 71
3
 72
8
 73
4
 74
0
 40
0
 40
0
 40
0
 40
0
 40
1
 40
1
 40
1
 40
1
 10
378.613585
 20
131.109352
 30
0.0
 10
378.850737
 20
130.600802
 30
0.0
 10
379.455228
 20
130.380784
 30
0.0
 10
379.963793
 20
130.617924
 30
0.0
  0
LWPOLYLINE
  5
1c8
100
AcDbEntity
  8
0
 62
1
100
AcDbPolyline
 90
2
 70
0
 10
388.745589
 20
198.331502
 30
0.0
 10
355.596472
 20
182.873818
 30
0.0
  0
SPLINE
  5
1c9
100
AcDbEntity
  8
0
 62
1
100
AcDbSpline
 70
8
 71
3
 72
8
 73
4
 74
0
 40
0
 40
0
 40
0
 40
0
 40
1
 40
1
 40
1
 40
1
 10
430.378080
 20
154.126485
 30
0.0
 10
430.886616
 20
154.363628
 30
0.0
 10
431.106636
 20
154.968125
 30
0.0
 10
430.869485
 20
155.476676
 30
0.0
  0
LWPOLYLINE
  5
1ca
100
AcDbEntity
  8
0
 62
1
100
AcDbPolyline
 90
2
 70
0
 10
355.105039
 20
181.523631
 30
0.0
 10
378.613585
 20
131.109352
 30
0.0
  0
SPLINE
  5
1cb
100
AcDbEntity
  8
0
 62
1
100
AcDbSpline
 70
8
 71
3
 72
8
 73
4
 74
0
 40
0
 40
0
 40
0
 40
0
 40
1
 40
1
 40
1
 40
1
 10
417.650478
 20
188.955053
 30
0.0
 10
417.129694
 20
188.955053
 30
0.0
 10
416.644949
 20
188.689120
 30
0.0
 10
416.365154
 20
188.249895
 30
0.0
  0
SPLINE
  5
1cc
100
AcDbEntity
  8
0
 62
1
100
AcDbSpline
 70
8
 71
3
 72
8
 73
4
 74
0
 40
0
 40
0
 40
0
 40
0
 40
1
 40
1
 40
1
 40
1
 10
416.365154
 20
188.249895
 30
0.0
 10
416.085330
 20
187.810670
 30
0.0
 10
416.049178
 20
187.258970
 30
0.0
 10
416.269255
 20
186.786979
 30
0.0
  0
LWPOLYLINE
  5
1cd
100
AcDbEntity
  8
0
 62
1
100
AcDbPolyline
 90
2
 70
0
 10
379.963793
 20
130.617924
 30
0.0
 10
430.378080
 20
154.126485
 30
0.0
  0
SPLINE
  5
1ce
100
AcDbEntity
  8
0
 62
1
100
AcDbSpline
 70
8
 71
3
 72
8
 73
4
 74
0
 40
0
 40
0
 40
0
 40
0
 40
1
 40
1
 40
1
 40
1
 10
433.655583
 20
187.431053
 30
0.0
 10
433.655583
 20
187.835243
 30
0.0
 10
433.494998
 20
188.222875
 30
0.0
 10
433.209192
 20
188.508681
 30
0.0
  0
SPLINE
  5
1cf
100
AcDbEntity
  8
0
 62
1
100
AcDbSpline
 70
8
 71
3
 72
8
 73
4
 74
0
 40
0
 40
0
 40
0
 40
0
 40
1
 40
1
 40
1
 40
1
 10
433.209192
 20
188.508681
 30
0.0
 10
432.923386
 20
188.794488
 30
0.0
 10
432.535753
 20
188.955053
 30
0.0
 10
432.131583
 20
188.955053
 30
0.0
  0
LWPOLYLINE
  5
1d0
100
AcDbEntity
  8
0
 62
1
100
AcDbPolyline
 90
2
 70
0
 10
430.869485
 20
155.476676
 30
0.0
 10
416.269255
 20
186.786979
 30
0.0
  0
SPLINE
  5
1d1
100
AcDbEntity
  8
0
 62
1
100
AcDbSpline
 70
8
 71
3
 72
8
 73
4
 74
0
 40
0
 40
0
 40
0
 40
0
 40
1
 40
1
 40
1
 40
1
 10
433.655583
 20
172.191053
 30
0.0
 10
433.655583
 20
171.921592
 30
0.0
 10
433.762602
 20
171.663167
 30
0.0
 10
433.953158
 20
171.472631
 30
0.0
  0
SPLINE
  5
1d2
100
AcDbEntity
  8
0
 62
1
100
AcDbSpline
 70
8
 71
3
 72
8
 73
4
 74
0
 40
0
 40
0
 40
0
 40
0
 40
1
 40
1
 40
1
 40
1
 10
433.953158
 20
171.472631
 30
0.0
 10
434.143686
 20
171.282094
 30
0.0
 10
434.402117
 20
171.175053
 30
0.0
 10
434.671583
 20
171.175053
 30
0.0
  0
LWPOLYLINE
  5
1d3
100
AcDbEntity
  8
0
 62
1
100
AcDbPolyline
 90
2
 70
0
 10
417.650478
 20
188.955053
 30
0.0
 10
432.131583
 20
188.955053
 30
0.0
  0
SPLINE
  5
1d4
100
AcDbEntity
  8
0
 62
1
100
AcDbSpline
 70
8
 71
3
 72
8
 73
4
 74
0
 40
0
 40
0
 40
0
 40
0
 40
1
 40
1
 40
1
 40
1
 10
452.382918
 20
171.175053
 30
0.0
 10
452.796938
 20
171.175053
 30
0.0
 10
453.169528
 20
171.426259
 30
0.0
 10
453.324778
 20
171.810053
 30
0.0
  0
SPLINE
  5
1d5
100
AcDbEntity
  8
0
 62
1
100
AcDbSpline
 70
8
 71
3
 72
8
 73
4
 74
0
 40
0
 40
0
 40
0
 40
0
 40
1
 40
1
 40
1
 40
1
 10
454.737583
 20
172.762553
 30
0.0
 10
454.116553
 20
172.762550
 30
0.0
 10
453.557668
 20
172.385741
 30
0.0
 10
453.324778
 20
171.810053
 30
0.0
  0
LWPOLYLINE
  5
1d6
100
AcDbEntity
  8
0
 62
1
100
AcDbPolyline
 90
2
 70
0
 10
433.655583
 20
187.431053
 30
0.0
 10
433.655583
 20
172.191053
 30
0.0
  0
SPLINE
  5
1d7
100
AcDbEntity
  8
0
 62
1
100
AcDbSpline
 70
8
 71
3
 72
8
 73
4
 74
0
 40
0
 40
0
 40
0
 40
0
 40
1
 40
1
 40
1
 40
1
 10
471.644359
 20
171.810053
 30
0.0
 10
471.411469
 20
172.385744
 30
0.0
 10
470.852585
 20
172.762553
 30
0.0
 10
470.231583
 20
172.762553
 30
0.0
  0
SPLINE
  5
1d8
100
AcDbEntity
  8
0
 62
1
100
AcDbSpline
 70
8
 71
3
 72
8
 73
4
 74
0
 40
0
 40
0
 40
0
 40
0
 40
1
 40
1
 40
1
 40
1
 10
471.644359
 20
171.810053
 30
0.0
 10
471.799610
 20
171.426259
 30
0.0
 10
472.172199
 20
171.175053
 30
0.0
 10
472.586219
 20
171.175053
 30
0.0
  0
LWPOLYLINE
  5
1d9
100
AcDbEntity
  8
0
 62
1
100
AcDbPolyline
 90
2
 70
0
 10
434.671583
 20
171.175053
 30
0.0
 10
452.382918
 20
171.175053
 30
0.0
  0
SPLINE
  5
1da
100
AcDbEntity
  8
0
 62
1
100
AcDbSpline
 70
8
 71
3
 72
8
 73
4
 74
0
 40
0
 40
0
 40
0
 40
0
 40
1
 40
1
 40
1
 40
1
 10
490.805583
 20
169.651053
 30
0.0
 10
490.805583
 20
170.055243
 30
0.0
 10
490.644998
 20
170.442875
 30
0.0
 10
490.359192
 20
170.728681
 30
0.0
  0
SPLINE
  5
1db
100
AcDbEntity
  8
0
 62
1
100
AcDbSpline
 70
8
 71
3
 72
8
 73
4
 74
0
 40
0
 40
0
 40
0
 40
0
 40
1
 40
1
 40
1
 40
1
 10
490.359192
 20
170.728681
 30
0.0
 10
490.073386
 20
171.014488
 30
0.0
 10
489.685753
 20
171.175053
 30
0.0
 10
489.281583
 20
171.175053
 30
0.0
  0
LWPOLYLINE
  5
1dc
100
AcDbEntity
  8
0
 62
1
100
AcDbPolyline
 90
2
 70
0
 10
454.737583
 20
172.762553
 30
0.0
 10
470.231583
 20
172.762553
 30
0.0
  0
SPLINE
  5
1dd
100
AcDbEntity
  8
0
 62
1
100
AcDbSpline
 70
8
 71
3
 72
8
 73
4
 74
0
 40
0
 40
0
 40
0
 40
0
 40
1
 40
1
 40
1
 40
1
 10
490.805583
 20
169.016053
 30
0.0
 10
490.805583
 20
168.746592
 30
0.0
 10
490.912602
 20
168.488167
 30
0.0
 10
491.103158
 20
168.297631
 30
0.0
  0
SPLINE
  5
1de
100
AcDbEntity
  8
0
 62
1
100
AcDbSpline
 70
8
 71
3
 72
8
 73
4
 74
0
 40
0
 40
0
 40
0
 40
0
 40
1
 40
1
 40
1
 40
1
 10
491.103158
 20
168.297631
 30
0.0
 10
491.293686
 20
168.107094
 30
0.0
 10
491.552117
 20
168.000053
 30
0.0
 10
491.821583
 20
168.000053
 30
0.0
  0
LWPOLYLINE
  5
1df
100
AcDbEntity
  8
0
 62
1
100
AcDbPolyline
 90
2
 70
0
 10
472.586219
 20
171.175053
 30
0.0
 10
489.281583
 20
171.175053
 30
0.0
  0
SPLINE
  5
1e0
100
AcDbEntity
  8
0
 62
1
100
AcDbSpline
 70
8
 71
3
 72
8
 73
4
 74
0
 40
0
 40
0
 40
0
 40
0
 40
1
 40
1
 40
1
 40
1
 10
528.397583
 20
168.000053
 30
0.0
 10
528.667020
 20
168.000053
 30
0.0
 10
528.925451
 20
168.107094
 30
0.0
 10
529.115980
 20
168.297631
 30
0.0
  0
SPLINE
  5
1e1
100
AcDbEntity
  8
0
 62
1
100
AcDbSpline
 70
8
 71
3
 72
8
 73
4
 74
0
 40
0
 40
0
 40
0
 40
0
 40
1
 40
1
 40
1
 40
1
 10
529.115980
 20
168.297631
 30
0.0
 10
529.306536
 20
168.488167
 30
0.0
 10
529.413583
 20
168.746592
 30
0.0
 10
529.413583
 20
169.016053
 30
0.0
  0
LWPOLYLINE
  5
1e2
100
AcDbEntity
  8
0
 62
1
100
AcDbPolyline
 90
2
 70
0
 10
490.805583
 20
169.651053
 30
0.0
 10
490.805583
 20
169.016053
 30
0.0
  0
SPLINE
  5
1e3
100
AcDbEntity
  8
0
 62
1
100
AcDbSpline
 70
8
 71
3
 72
8
 73
4
 74
0
 40
0
 40
0
 40
0
 40
0
 40
1
 40
1
 40
1
 40
1
 10
530.937583
 20
187.050053
 30
0.0
 10
530.533384
 20
187.050053
 30
0.0
 10
530.145752
 20
186.889488
 30
0.0
 10
529.859946
 20
186.603681
 30
0.0
  0
SPLINE
  5
1e4
100
AcDbEntity
  8
0
 62
1
100
AcDbSpline
 70
8
 71
3
 72
8
 73
4
 74
0
 40
0
 40
0
 40
0
 40
0
 40
1
 40
1
 40
1
 40
1
 10
529.859946
 20
186.603681
 30
0.0
 10
529.574139
 20
186.317875
 30
0.0
 10
529.413583
 20
185.930243
 30
0.0
 10
529.413583
 20
185.526053
 30
0.0
  0
LWPOLYLINE
  5
1e5
100
AcDbEntity
  8
0
 62
1
100
AcDbPolyline
 90
2
 70
0
 10
491.821583
 20
168.000053
 30
0.0
 10
528.397583
 20
168.000053
 30
0.0
  0
LWPOLYLINE
  5
1e6
100
AcDbEntity
  8
0
 62
1
100
AcDbPolyline
 90
2
 70
0
 10
529.413583
 20
169.016053
 30
0.0
 10
529.413583
 20
185.526053
 30
0.0
  0
SPLINE
  5
1e7
100
AcDbEntity
  8
0
 62
1
100
AcDbSpline
 70
8
 71
3
 72
8
 73
4
 74
0
 40
0
 40
0
 40
0
 40
0
 40
1
 40
1
 40
1
 40
1
 10
491.313583
 20
265.282053
 30
0.0
 10
491.313583
 20
264.877862
 30
0.0
 10
491.474139
 20
264.490227
 30
0.0
 10
491.759946
 20
264.204421
 30
0.0
  0
SPLINE
  5
1e8
100
AcDbEntity
  8
0
 62
1
100
AcDbSpline
 70
8
 71
3
 72
8
 73
4
 74
0
 40
0
 40
0
 40
0
 40
0
 40
1
 40
1
 40
1
 40
1
 10
491.759946
 20
264.204421
 30
0.0
 10
492.045752
 20
263.918614
 30
0.0
 10
492.433384
 20
263.758053
 30
0.0
 10
492.837583
 20
263.758053
 30
0.0
  0
LWPOLYLINE
  5
1e9
100
AcDbEntity
  8
0
 62
1
100
AcDbPolyline
 90
2
 70
0
 10
530.937583
 20
187.050053
 30
0.0
 10
537.849713
 20
187.050053
 30
0.0
  0
SPLINE
  5
1ea
100
AcDbEntity
  8
0
 62
1
100
AcDbSpline
 70
8
 71
3
 72
8
 73
4
 74
0
 40
0
 40
0
 40
0
 40
0
 40
1
 40
1
 40
1
 40
1
 10
491.313583
 20
265.917053
 30
0.0
 10
491.313583
 20
266.186513
 30
0.0
 10
491.206536
 20
266.444935
 30
0.0
 10
491.015980
 20
266.635472
 30
0.0
  0
SPLINE
  5
1eb
100
AcDbEntity
  8
0
 62
1
100
AcDbSpline
 70
8
 71
3
 72
8
 73
4
 74
0
 40
0
 40
0
 40
0
 40
0
 40
1
 40
1
 40
1
 40
1
 10
491.015980
 20
266.635472
 30
0.0
 10
490.825451
 20
266.826009
 30
0.0
 10
490.567020
 20
266.933053
 30
0.0
 10
490.297583
 20
266.933053
 30
0.0
  0
LWPOLYLINE
  5
1ec
100
AcDbEntity
  8
0
 62
1
100
AcDbPolyline
 90
2
 70
0
 10
537.849713
 20
263.758053
 30
0.0
 10
492.837583
 20
263.758053
 30
0.0
  0
SPLINE
  5
1ed
100
AcDbEntity
  8
0
 62
1
100
AcDbSpline
 70
8
 71
3
 72
8
 73
4
 74
0
 40
0
 40
0
 40
0
 40
0
 40
1
 40
1
 40
1
 40
1
 10
472.374778
 20
267.885553
 30
0.0
 10
472.607668
 20
267.309862
 30
0.0
 10
473.166553
 20
266.933053
 30
0.0
 10
473.787583
 20
266.933053
 30
0.0
  0
SPLINE
  5
1ee
100
AcDbEntity
  8
0
 62
1
100
AcDbSpline
 70
8
 71
3
 72
8
 73
4
 74
0
 40
0
 40
0
 40
0
 40
0
 40
1
 40
1
 40
1
 40
1
 10
472.374778
 20
267.885553
 30
0.0
 10
472.219528
 20
268.269347
 30
0.0
 10
471.846938
 20
268.520553
 30
0.0
 10
471.432918
 20
268.520553
 30
0.0
  0
LWPOLYLINE
  5
1ef
100
AcDbEntity
  8
0
 62
1
100
AcDbPolyline
 90
2
 70
0
 10
491.313583
 20
265.282053
 30
0.0
 10
491.313583
 20
265.917053
 30
0.0
  0
SPLINE
  5
1f0
100
AcDbEntity
  8
0
 62
1
100
AcDbSpline
 70
8
 71
3
 72
8
 73
4
 74
0
 40
0
 40
0
 40
0
 40
0
 40
1
 40
1
 40
1
 40
1
 10
453.536219
 20
268.520553
 30
0.0
 10
453.122199
 20
268.520553
 30
0.0
 10
452.749610
 20
268.269347
 30
0.0
 10
452.594359
 20
267.885553
 30
0.0
  0
SPLINE
  5
1f1
100
AcDbEntity
  8
0
 62
1
100
AcDbSpline
 70
8
 71
3
 72
8
 73
4
 74
0
 40
0
 40
0
 40
0
 40
0
 40
1
 40
1
 40
1
 40
1
 10
451.181583
 20
266.933053
 30
0.0
 10
451.802585
 20
266.933050
 30
0.0
 10
452.361469
 20
267.309862
 30
0.0
 10
452.594359
 20
267.885553
 30
0.0
  0
LWPOLYLINE
  5
1f2
100
AcDbEntity
  8
0
 62
1
100
AcDbPolyline
 90
2
 70
0
 10
490.297583
 20
266.933053
 30
0.0
 10
473.787583
 20
266.933053
 30
0.0
  0
SPLINE
  5
1f3
100
AcDbEntity
  8
0
 62
1
100
AcDbSpline
 70
8
 71
3
 72
8
 73
4
 74
0
 40
0
 40
0
 40
0
 40
0
 40
1
 40
1
 40
1
 40
1
 10
434.331279
 20
266.933053
 30
0.0
 10
433.968285
 20
266.933053
 30
0.0
 10
433.632892
 20
266.739403
 30
0.0
 10
433.451395
 20
266.425053
 30
0.0
  0
SPLINE
  5
1f4
100
AcDbEntity
  8
0
 62
1
100
AcDbSpline
 70
8
 71
3
 72
8
 73
4
 74
0
 40
0
 40
0
 40
0
 40
0
 40
1
 40
1
 40
1
 40
1
 10
432.131583
 20
265.663053
 30
0.0
 10
432.676046
 20
265.663053
 30
0.0
 10
433.179164
 20
265.953524
 30
0.0
 10
433.451395
 20
266.425053
 30
0.0
  0
LWPOLYLINE
  5
1f5
100
AcDbEntity
  8
0
 62
1
100
AcDbPolyline
 90
2
 70
0
 10
471.432918
 20
268.520553
 30
0.0
 10
453.536219
 20
268.520553
 30
0.0
  0
SPLINE
  5
1f6
100
AcDbEntity
  8
0
 62
1
100
AcDbSpline
 70
8
 71
3
 72
8
 73
4
 74
0
 40
0
 40
0
 40
0
 40
0
 40
1
 40
1
 40
1
 40
1
 10
396.571583
 20
265.663053
 30
0.0
 10
396.302117
 20
265.663053
 30
0.0
 10
396.043686
 20
265.556009
 30
0.0
 10
395.853158
 20
265.365472
 30
0.0
  0
SPLINE
  5
1f7
100
AcDbEntity
  8
0
 62
1
100
AcDbSpline
 70
8
 71
3
 72
8
 73
4
 74
0
 40
0
 40
0
 40
0
 40
0
 40
1
 40
1
 40
1
 40
1
 10
395.853158
 20
265.365472
 30
0.0
 10
395.662602
 20
265.174935
 30
0.0
 10
395.555583
 20
264.916513
 30
0.0
 10
395.555583
 20
264.647053
 30
0.0
  0
LWPOLYLINE
  5
1f8
100
AcDbEntity
  8
0
 62
1
100
AcDbPolyline
 90
2
 70
0
 10
451.181583
 20
266.933053
 30
0.0
 10
434.331279
 20
266.933053
 30
0.0
  0
SPLINE
  5
1f9
100
AcDbEntity
  8
0
 62
1
100
AcDbSpline
 70
8
 71
3
 72
8
 73
4
 74
0
 40
0
 40
0
 40
0
 40
0
 40
1
 40
1
 40
1
 40
1
 10
395.555583
 20
189.971053
 30
0.0
 10
395.555583
 20
189.701592
 30
0.0
 10
395.662602
 20
189.443167
 30
0.0
 10
395.853158
 20
189.252631
 30
0.0
  0
SPLINE
  5
1fa
100
AcDbEntity
  8
0
 62
1
100
AcDbSpline
 70
8
 71
3
 72
8
 73
4
 74
0
 40
0
 40
0
 40
0
 40
0
 40
1
 40
1
 40
1
 40
1
 10
395.853158
 20
189.252631
 30
0.0
 10
396.043686
 20
189.062094
 30
0.0
 10
396.302117
 20
188.955053
 30
0.0
 10
396.571583
 20
188.955053
 30
0.0
  0
LWPOLYLINE
  5
1fb
100
AcDbEntity
  8
0
 62
1
100
AcDbPolyline
 90
2
 70
0
 10
432.131583
 20
265.663053
 30
0.0
 10
396.571583
 20
265.663053
 30
0.0
  0
SPLINE
  5
1fc
100
AcDbEntity
  8
0
 62
1
100
AcDbSpline
 70
8
 71
3
 72
8
 73
4
 74
0
 40
0
 40
0
 40
0
 40
0
 40
1
 40
1
 40
1
 40
1
 10
538.849711
 20
262.758049
 30
0.0
 10
538.849711
 20
263.023267
 30
0.0
 10
538.744358
 20
263.277620
 30
0.0
 10
538.556821
 20
263.465160
 30
0.0
  0
SPLINE
  5
1fd
100
AcDbEntity
  8
0
 62
1
100
AcDbSpline
 70
8
 71
3
 72
8
 73
4
 74
0
 40
0
 40
0
 40
0
 40
0
 40
1
 40
1
 40
1
 40
1
 10
538.556821
 20
263.465160
 30
0.0
 10
538.369284
 20
263.652693
 30
0.0
 10
538.114917
 20
263.758053
 30
0.0
 10
537.849713
 20
263.758053
 30
0.0
  0
SPLINE
  5
1fe
100
AcDbEntity
  8
0
 62
1
100
AcDbSpline
 70
8
 71
3
 72
8
 73
4
 74
0
 40
0
 40
0
 40
0
 40
0
 40
1
 40
1
 40
1
 40
1
 10
537.849713
 20
187.050053
 30
0.0
 10
538.114917
 20
187.050053
 30
0.0
 10
538.369284
 20
187.155409
 30
0.0
 10
538.556821
 20
187.342946
 30
0.0
  0
SPLINE
  5
1ff
100
AcDbEntity
  8
0
 62
1
100
AcDbSpline
 70
8
 71
3
 72
8
 73
4
 74
0
 40
0
 40
0
 40
0
 40
0
 40
1
 40
1
 40
1
 40
1
 10
538.556821
 20
187.342946
 30
0.0
 10
538.744358
 20
187.530482
 30
0.0
 10
538.849711
 20
187.784835
 30
0.0
 10
538.849711
 20
188.050053
 30
0.0
  0
SPLINE
  5
200
100
AcDbEntity
  8
0
 62
1
100
AcDbSpline
 70
8
 71
3
 72
8
 73
4
 74
0
 40
0
 40
0
 40
0
 40
0
 40
1
 40
1
 40
1
 40
1
 10
521.639715
 20
279.628860
 30
0.0
 10
521.639715
 20
280.164977
 30
0.0
 10
521.354219
 20
280.660511
 30
0.0
 10
520.889964
 20
280.928665
 30
0.0
  0
SPLINE
  5
201
100
AcDbEntity
  8
0
 62
1
100
AcDbSpline
 70
8
 71
3
 72
8
 73
4
 74
0
 40
0
 40
0
 40
0
 40
0
 40
1
 40
1
 40
1
 40
1
 10
520.889964
 20
280.928665
 30
0.0
 10
520.425736
 20
281.196819
 30
0.0
 10
519.853672
 20
281.196819
 30
0.0
 10
519.389445
 20
280.928665
 30
0.0
  0
SPLINE
  5
202
100
AcDbEntity
  8
0
 62
1
100
AcDbSpline
 70
8
 71
3
 72
8
 73
4
 74
0
 40
0
 40
0
 40
0
 40
0
 40
1
 40
1
 40
1
 40
1
 10
519.389445
 20
280.928665
 30
0.0
 10
518.925217
 20
280.660511
 30
0.0
 10
518.639383
 20
280.164977
 30
0.0
 10
518.639721
 20
279.628860
 30
0.0
  0
SPLINE
  5
203
100
AcDbEntity
  8
0
 62
1
100
AcDbSpline
 70
8
 71
3
 72
8
 73
4
 74
0
 40
0
 40
0
 40
0
 40
0
 40
1
 40
1
 40
1
 40
1
 10
518.639721
 20
279.628860
 30
0.0
 10
518.639721
 20
279.092742
 30
0.0
 10
518.925217
 20
278.597209
 30
0.0
 10
519.389445
 20
278.329055
 30
0.0
  0
SPLINE
  5
204
100
AcDbEntity
  8
0
 62
1
100
AcDbSpline
 70
8
 71
3
 72
8
 73
4
 74
0
 40
0
 40
0
 40
0
 40
0
 40
1
 40
1
 40
1
 40
1
 10
519.389445
 20
278.329055
 30
0.0
 10
519.853672
 20
278.060901
 30
0.0
 10
520.425736
 20
278.060901
 30
0.0
 10
520.889964
 20
278.329055
 30
0.0
  0
SPLINE
  5
205
100
AcDbEntity
  8
0
 62
1
100
AcDbSpline
 70
8
 71
3
 72
8
 73
4
 74
0
 40
0
 40
0
 40
0
 40
0
 40
1
 40
1
 40
1
 40
1
 10
520.889964
 20
278.329055
 30
0.0
 10
521.354219
 20
278.597209
 30
0.0
 10
521.640026
 20
279.092742
 30
0.0
 10
521.639715
 20
279.628860
 30
0.0
  0
LWPOLYLINE
  5
206
100
AcDbEntity
  8
0
 62
1
100
AcDbPolyline
 90
2
 70
0
 10
395.555583
 20
264.647053
 30
0.0
 10
395.555583
 20
189.971053
 30
0.0
  0
LWPOLYLINE
  5
207
100
AcDbEntity
  8
0
 62
1
100
AcDbPolyline
 90
2
 70
0
 10
396.571583
 20
188.955053
 30
0.0
 10
409.130980
 20
188.955053
 30
0.0
  0
LWPOLYLINE
  5
208
100
AcDbEntity
  8
0
 62
1
100
AcDbPolyline
 90
4
 70
1
 10
521.639715
 20
279.628860
 30
0.0
 10
521.639715
 20
279.628860
 30
0.0
 10
521.639715
 20
279.628860
 30
0.0
 10
521.639715
 20
279.628860
 30
0.0
  0
ENDSEC
  0
SECTION
  2
OBJECTS
  0
DICTIONARY
  5
C
330
0
100
AcDbDictionary
  3
ACAD_GROUP
350
D
  3
ACAD_MLINESTYLE
350
17
  0
DICTIONARY
  5
D
330
C
100
AcDbDictionary
  0
DICTIONARY
  5
1A
330
C
100
AcDbDictionary
  0
DICTIONARY
  5
17
330
C
100
AcDbDictionary
  3
STANDARD
350
18
  0
DICTIONARY
  5
19
330
C
100
AcDbDictionary
  0
ENDSEC
  0
EOF
