<?xml version="1.0" encoding="UTF-8" standalone="no"?>
<svg
   xmlns:dc="http://purl.org/dc/elements/1.1/"
   xmlns:cc="http://creativecommons.org/ns#"
   xmlns:rdf="http://www.w3.org/1999/02/22-rdf-syntax-ns#"
   xmlns:svg="http://www.w3.org/2000/svg"
   xmlns="http://www.w3.org/2000/svg"
   version="1.1"
   id="svg2"
   height="12in"
   width="24in">
  <metadata
     id="metadata554">
    <rdf:RDF>
      <cc:Work
         rdf:about="">
        <dc:format>image/svg+xml</dc:format>
        <dc:type
           rdf:resource="http://purl.org/dc/dcmitype/StillImage" />
        <dc:title></dc:title>
      </cc:Work>
    </rdf:RDF>
  </metadata>
  <desc
     id="desc4">/Users/jordan/code/personal/ergodox/case/dxf/joined/layer_1_top_joined.dxf - scale = 1.000000, origin = (0.000000, 0.000000), auto = False</desc>
  <defs
     id="defs6">
    <marker
       style="overflow:visible"
       refY="0"
       refX="0"
       orient="auto"
       id="DistanceX">
      <path
         id="path9"
         style="stroke:#000000;stroke-width:0.5"
         d="M 3,-3 -3,3 M 0,-5 0,5" />
    </marker>
    <pattern
       y="0"
       x="0"
       width="8"
       patternUnits="userSpaceOnUse"
       id="Hatch"
       height="8">
      <path
         id="path12"
         stroke-width="0.25"
         stroke="#000000"
         linecap="square"
         d="M8 4 l-4,4" />
      <path
         id="path14"
         stroke-width="0.25"
         stroke="#000000"
         linecap="square"
         d="M6 2 l-4,4" />
      <path
         id="path16"
         stroke-width="0.25"
         stroke="#000000"
         linecap="square"
         d="M4 0 l-4,4" />
    </pattern>
    <symbol
       id="*MODEL_SPACE" />
    <symbol
       id="*PAPER_SPACE" />
    <marker
       id="DistanceX-3"
       orient="auto"
       refX="0.0"
       refY="0.0"
       style="overflow:visible">
      <path
         d="M 3,-3 L -3,3 M 0,-5 L  0,5"
         style="stroke:#000000; stroke-width:0.5"
         id="path3946" />
    </marker>
    <pattern
       height="8"
       id="Hatch-5"
       patternUnits="userSpaceOnUse"
       width="8"
       x="0"
       y="0">
      <path
         d="M8 4 l-4,4"
         linecap="square"
         stroke="#000000"
         stroke-width="0.25"
         id="path3949" />
      <path
         d="M6 2 l-4,4"
         linecap="square"
         stroke="#000000"
         stroke-width="0.25"
         id="path3951" />
      <path
         d="M4 0 l-4,4"
         linecap="square"
         stroke="#000000"
         stroke-width="0.25"
         id="path3953" />
    </pattern>
    <symbol
       id="*MODEL_SPACE-9" />
    <symbol
       id="*PAPER_SPACE-5" />
  </defs>
  <g
     transform="translate(0,27.637833)"
     id="g20">
    <path
       id="path22"
       style="fill:none;stroke:#ff0000"
       d="m 724.78221,400.99843 c 0.001,-1.89963 -1.01161,-3.65546 -2.65654,-4.60561" />
    <path
       id="path24"
       style="fill:none;stroke:#ff0000"
       d="m 722.12567,396.39282 c -1.64493,-0.95015 -3.67191,-0.95015 -5.31684,0" />
    <path
       id="path26"
       style="fill:none;stroke:#ff0000"
       d="m 716.80883,396.39282 c -1.64493,0.95015 -2.65771,2.70598 -2.65654,4.60561" />
    <path
       id="path28"
       style="fill:none;stroke:#ff0000"
       d="m 714.15229,400.99843 c -10e-4,1.89963 1.01161,3.65546 2.65654,4.60561" />
    <path
       id="path30"
       style="fill:none;stroke:#ff0000"
       d="m 716.80883,405.60404 c 1.64493,0.95015 3.67191,0.95015 5.31684,0" />
    <path
       id="path32"
       style="fill:none;stroke:#ff0000"
       d="m 722.12567,405.60404 c 1.64493,-0.95015 2.65771,-2.70598 2.65654,-4.60561" />
    <path
       id="path34"
       style="fill:none;stroke:#ff0000"
       d="m 335.41296,472.5218 c 10e-4,-1.89963 -1.01161,-3.65546 -2.65654,-4.60561" />
    <path
       id="path36"
       style="fill:none;stroke:#ff0000"
       d="m 332.75642,467.91619 c -1.64493,-0.95015 -3.67191,-0.95015 -5.31684,0" />
    <path
       id="path38"
       style="fill:none;stroke:#ff0000"
       d="m 327.43958,467.91619 c -1.64493,0.95015 -2.65771,2.70598 -2.65654,4.60561" />
    <path
       id="path40"
       style="fill:none;stroke:#ff0000"
       d="m 324.78304,472.5218 c -0.001,1.89963 1.01161,3.65546 2.65654,4.60561" />
    <path
       id="path42"
       style="fill:none;stroke:#ff0000"
       d="m 327.43958,477.12741 c 1.64493,0.95015 3.67191,0.95015 5.31684,0" />
    <path
       id="path44"
       style="fill:none;stroke:#ff0000"
       d="m 332.75642,477.12741 c 1.64493,-0.95015 2.65771,-2.70598 2.65654,-4.60561" />
    <path
       id="path46"
       style="fill:none;stroke:#ff0000"
       d="m 50.509789,460.45196 c 0.0012,-1.89963 -1.011603,-3.65546 -2.656537,-4.60561" />
    <path
       id="path48"
       style="fill:none;stroke:#ff0000"
       d="m 47.853252,455.84635 c -1.644935,-0.95015 -3.671912,-0.95015 -5.316843,0" />
    <path
       id="path50"
       style="fill:none;stroke:#ff0000"
       d="m 42.536409,455.84635 c -1.644934,0.95015 -2.657703,2.70598 -2.656537,4.60561" />
    <path
       id="path52"
       style="fill:none;stroke:#ff0000"
       d="m 39.879872,460.45196 c 0.0018,2.9341 2.380858,5.3117 5.314957,5.3117" />
    <path
       id="path54"
       style="fill:none;stroke:#ff0000"
       d="m 45.194829,465.76366 c 2.934099,0 5.31316,-2.3776 5.31496,-5.3117" />
    <path
       id="path56"
       style="fill:none;stroke:#ff0000"
       d="m 724.78221,400.99843 0,0 0,0 0,0 0,0 z" />
    <path
       id="path58"
       style="fill:none;stroke:#ff0000"
       d="m 335.41296,472.5218 0,0 0,0 0,0 0,0 z" />
    <path
       id="path60"
       style="fill:none;stroke:#ff0000"
       d="m 50.509789,460.45196 0,0 0,0 0,0 0,0 z" />
    <path
       id="path62"
       style="fill:none;stroke:#ff0000"
       d="M 23,463.46865 23,22.574934" />
    <path
       id="path64"
       style="fill:none;stroke:#ff0000"
       d="m 47.742063,-2.228216 2070.341837,0" />
    <path
       id="path66"
       style="fill:none;stroke:#ff0000"
       d="m 50.5098,19.966624 c 0,-1.898855 -1.013028,-3.653468 -2.657484,-4.602894" />
    <path
       id="path68"
       style="fill:none;stroke:#ff0000"
       d="m 47.852316,15.36373 c -1.644456,-0.949426 -3.670508,-0.949426 -5.314964,0" />
    <path
       id="path70"
       style="fill:none;stroke:#ff0000"
       d="m 42.537352,15.36373 c -1.644456,0.949426 -2.65748,2.704039 -2.65748,4.602894" />
    <path
       id="path72"
       style="fill:none;stroke:#ff0000"
       d="m 39.879872,19.966624 c 0,1.898855 1.013024,3.653469 2.65748,4.602894" />
    <path
       id="path74"
       style="fill:none;stroke:#ff0000"
       d="m 42.537352,24.569518 c 1.644456,0.949429 3.670508,0.949429 5.314964,0" />
    <path
       id="path76"
       style="fill:none;stroke:#ff0000"
       d="M 47.852316,24.569518 C 49.496772,23.620093 50.5098,21.865479 50.5098,19.966624" />
    <path
       id="path78"
       style="fill:none;stroke:#ff0000"
       d="m 738.48214,412.74134 -91.9998,197.29581" />
    <path
       id="path80"
       style="fill:none;stroke:#ff0000"
       d="m 387.36996,13.521784 c 0.001,-1.899627 -1.01161,-3.655456 -2.65654,-4.605608" />
    <path
       id="path82"
       style="fill:none;stroke:#ff0000"
       d="m 384.71342,8.916176 c -1.64493,-0.950152 -3.67191,-0.950152 -5.31684,0" />
    <path
       id="path84"
       style="fill:none;stroke:#ff0000"
       d="m 379.39658,8.916176 c -1.64493,0.950152 -2.65771,2.705981 -2.65654,4.605608" />
    <path
       id="path86"
       style="fill:none;stroke:#ff0000"
       d="m 376.74004,13.521784 c -0.001,1.899631 1.01161,3.655457 2.65654,4.605609" />
    <path
       id="path88"
       style="fill:none;stroke:#ff0000"
       d="m 379.39658,18.127393 c 1.64493,0.950151 3.67191,0.950151 5.31684,0" />
    <path
       id="path90"
       style="fill:none;stroke:#ff0000"
       d="m 384.71342,18.127393 c 1.64493,-0.950152 2.65771,-2.705978 2.65654,-4.605609" />
    <path
       id="path92"
       style="fill:none;stroke:#ff0000"
       d="M 613.52256,622.03505 331.58878,490.59482" />
    <path
       id="path94"
       style="fill:none;stroke:#ff0000"
       d="m 50.5098,19.966624 0,0 0,0 0,0 0,0 z" />
    <path
       id="path96"
       style="fill:none;stroke:#ff0000"
       d="m 576.87763,19.966624 c 0,-1.898855 -1.01303,-3.653468 -2.65748,-4.602894" />
    <path
       id="path98"
       style="fill:none;stroke:#ff0000"
       d="m 574.22015,15.36373 c -1.64446,-0.949429 -3.67051,-0.949429 -5.31497,0" />
    <path
       id="path100"
       style="fill:none;stroke:#ff0000"
       d="m 568.90518,15.36373 c -1.64445,0.949426 -2.65748,2.704039 -2.65748,4.602894" />
    <path
       id="path102"
       style="fill:none;stroke:#ff0000"
       d="m 566.2477,19.966624 c 0,2.935375 2.37959,5.314964 5.31496,5.314964" />
    <path
       id="path104"
       style="fill:none;stroke:#ff0000"
       d="m 571.56266,25.281588 c 2.93538,0 5.31497,-2.379589 5.31497,-5.314964" />
    <path
       id="path106"
       style="fill:none;stroke:#ff0000"
       d="m 387.36996,13.521784 0,0 0,0 0,0 0,0 z" />
    <path
       id="path108"
       style="fill:none;stroke:#ff0000"
       d="m 47.803149,-2.228216 c -6.578203,0 -12.886983,2.613182 -17.538473,7.264676" />
    <path
       id="path110"
       style="fill:none;stroke:#ff0000"
       d="M 30.264676,5.03646 C 25.613181,9.687951 23,15.996731 23,22.574934" />
    <path
       id="path112"
       style="fill:none;stroke:#ff0000"
       d="m 23,463.46865 c 0,6.5782 2.613181,12.88698 7.264676,17.53848" />
    <path
       id="path114"
       style="fill:none;stroke:#ff0000"
       d="m 30.264676,481.00713 c 4.65149,4.65149 10.96027,7.26467 17.538473,7.26467" />
    <path
       id="path116"
       style="fill:none;stroke:#ff0000"
       d="m 613.52256,622.03505 c 12.41474,5.78789 27.17093,0.4164 32.95978,-11.9979" />
    <path
       id="path118"
       style="fill:none;stroke:#ff0000"
       d="m 331.58878,490.59482 c -3.28203,-1.53011 -6.85928,-2.32302 -10.48046,-2.32302" />
    <path
       id="path120"
       style="fill:none;stroke:#ff0000"
       d="m 321.10832,488.2718 -273.305171,0" />
    <path
       id="path122"
       style="fill:none;stroke:#ff0000"
       d="m 630.5783,603.02385 c 10e-4,-1.89963 -1.0116,-3.65546 -2.65654,-4.60561" />
    <path
       id="path124"
       style="fill:none;stroke:#ff0000"
       d="m 627.92176,598.41824 c -1.64493,-0.95015 -3.67191,-0.95015 -5.31684,0" />
    <path
       id="path126"
       style="fill:none;stroke:#ff0000"
       d="m 622.60492,598.41824 c -1.64494,0.95015 -2.6577,2.70598 -2.65654,4.60561" />
    <path
       id="path128"
       style="fill:none;stroke:#ff0000"
       d="m 619.94838,603.02385 c -0.001,1.89963 1.0116,3.65546 2.65654,4.60561" />
    <path
       id="path130"
       style="fill:none;stroke:#ff0000"
       d="m 622.60492,607.62946 c 1.64493,0.95015 3.67191,0.95015 5.31684,0" />
    <path
       id="path132"
       style="fill:none;stroke:#ff0000"
       d="m 627.92176,607.62946 c 1.64494,-0.95015 2.65771,-2.70598 2.65654,-4.60561" />
    <path
       id="path134"
       style="fill:none;stroke:#ff0000"
       d="m 576.87763,19.966624 0,0 0,0 0,0 0,0 z" />
    <path
       id="path136"
       style="fill:none;stroke:#ff0000"
       d="m 646.62205,591.97725 0,0" />
    <path
       id="path138"
       style="fill:none;stroke:#ff0000"
       d="m 630.5783,603.02385 0,0 0,0 0,0 0,0 z" />
    <path
       id="path140"
       style="fill:none;stroke:#ff0000"
       d="m 646.62205,591.97725 0,0" />
    <path
       id="path142"
       style="fill:none;stroke:#ff0000"
       d="m 2125.9302,19.966525 c 0,-1.901424 -1.0083,-3.66007 -2.6543,-4.611901" />
    <path
       id="path144"
       style="fill:none;stroke:#ff0000"
       d="m 2123.2759,15.354624 c -1.6461,-0.951832 -3.6752,-0.951832 -5.3212,0" />
    <path
       id="path146"
       style="fill:none;stroke:#ff0000"
       d="m 2117.9547,15.354624 c -1.6461,0.951831 -2.6583,2.710477 -2.6544,4.611901" />
    <path
       id="path148"
       style="fill:none;stroke:#ff0000"
       d="m 2115.3003,19.966525 c 0,1.901423 1.0083,3.660069 2.6544,4.611901" />
    <path
       id="path150"
       style="fill:none;stroke:#ff0000"
       d="m 2117.9547,24.578426 c 1.646,0.951831 3.6751,0.951831 5.3212,0" />
    <path
       id="path152"
       style="fill:none;stroke:#ff0000"
       d="m 2123.2759,24.578426 c 1.646,-0.951832 2.6582,-2.710478 2.6543,-4.611901" />
    <path
       id="path154"
       style="fill:none;stroke:#ff0000"
       d="m 1427.3278,412.74121 91.9999,197.29594" />
    <path
       id="path156"
       style="fill:none;stroke:#ff0000"
       d="m 1789.0699,13.521685 c 0.01,-1.904896 -1.0019,-3.669013 -2.6501,-4.624104" />
    <path
       id="path158"
       style="fill:none;stroke:#ff0000"
       d="m 1786.4198,8.897581 c -1.6482,-0.955095 -3.6814,-0.955095 -5.3296,0" />
    <path
       id="path160"
       style="fill:none;stroke:#ff0000"
       d="m 1781.0902,8.897581 c -1.6482,0.955091 -2.6592,2.719208 -2.6501,4.624104" />
    <path
       id="path162"
       style="fill:none;stroke:#ff0000"
       d="m 1778.4401,13.521685 c -0.01,1.904896 1.0019,3.669013 2.6501,4.624104" />
    <path
       id="path164"
       style="fill:none;stroke:#ff0000"
       d="m 1781.0902,18.145789 c 1.6482,0.955095 3.6814,0.955095 5.3296,0" />
    <path
       id="path166"
       style="fill:none;stroke:#ff0000"
       d="m 1786.4198,18.145789 c 1.6482,-0.955091 2.6592,-2.719208 2.6501,-4.624104" />
    <path
       id="path168"
       style="fill:none;stroke:#ff0000"
       d="M 1552.2874,622.03515 1834.2212,490.59471" />
    <path
       id="path170"
       style="fill:none;stroke:#ff0000"
       d="m 2125.9302,19.966525 0,0 0,0 0,0 0,0 z" />
    <path
       id="path172"
       style="fill:none;stroke:#ff0000"
       d="m 1599.5624,19.966525 c 0,-1.898883 -1.013,-3.653525 -2.6575,-4.602969" />
    <path
       id="path174"
       style="fill:none;stroke:#ff0000"
       d="m 1596.9049,15.363556 c -1.6445,-0.949443 -3.6706,-0.949443 -5.3151,0" />
    <path
       id="path176"
       style="fill:none;stroke:#ff0000"
       d="m 1591.5898,15.363556 c -1.6445,0.949444 -2.6575,2.704086 -2.6575,4.602969" />
    <path
       id="path178"
       style="fill:none;stroke:#ff0000"
       d="m 1588.9323,19.966525 c 0,1.898883 1.013,3.653525 2.6575,4.602968" />
    <path
       id="path180"
       style="fill:none;stroke:#ff0000"
       d="m 1591.5898,24.569493 c 1.6445,0.949444 3.6706,0.949444 5.3151,0" />
    <path
       id="path182"
       style="fill:none;stroke:#ff0000"
       d="m 1596.9049,24.569493 c 1.6445,-0.949443 2.6575,-2.704085 2.6575,-4.602968" />
    <path
       id="path184"
       style="fill:none;stroke:#ff0000"
       d="m 1789.0699,13.521685 0,0 0,0 0,0 0,0 z" />
    <path
       id="path186"
       style="fill:none;stroke:#ff0000"
       d="m 2142.81,22.574835 c 0,-6.578214 -2.6132,-12.887001 -7.2647,-17.538495" />
    <path
       id="path188"
       style="fill:none;stroke:#ff0000"
       d="m 2135.5453,5.03634 c -4.6515,-4.651494 -10.9603,-7.264669 -17.5385,-7.264655" />
    <path
       id="path190"
       style="fill:none;stroke:#ff0000"
       d="m 2118.0068,488.27171 c 6.5782,1e-5 12.887,-2.61316 17.5385,-7.26464" />
    <path
       id="path192"
       style="fill:none;stroke:#ff0000"
       d="m 2135.5453,481.00707 c 4.6515,-4.65148 7.2647,-10.96026 7.2647,-17.53846" />
    <path
       id="path194"
       style="fill:none;stroke:#ff0000"
       d="m 1519.3276,610.03715 c 5.7888,12.41435 20.545,17.78589 32.9598,11.998" />
    <path
       id="path196"
       style="fill:none;stroke:#ff0000"
       d="m 1451.6576,400.99831 c 0.01,-1.9049 -1.0019,-3.66901 -2.6501,-4.62411" />
    <path
       id="path198"
       style="fill:none;stroke:#ff0000"
       d="m 1449.0075,396.3742 c -1.6482,-0.95509 -3.6814,-0.95509 -5.3296,0" />
    <path
       id="path200"
       style="fill:none;stroke:#ff0000"
       d="m 1443.6779,396.3742 c -1.6482,0.9551 -2.6592,2.71921 -2.6501,4.62411" />
    <path
       id="path202"
       style="fill:none;stroke:#ff0000"
       d="m 1441.0278,400.99831 c 0.014,2.9254 2.3895,5.28949 5.3149,5.28949" />
    <path
       id="path204"
       style="fill:none;stroke:#ff0000"
       d="m 1446.3427,406.2878 c 2.9254,0 5.3009,-2.36409 5.3149,-5.28949" />
    <path
       id="path206"
       style="fill:none;stroke:#ff0000"
       d="m 1844.7016,488.27171 273.3052,0" />
    <path
       id="path208"
       style="fill:none;stroke:#ff0000"
       d="m 1844.7016,488.27171 c -3.6212,0 -7.1984,0.7929 -10.4804,2.323" />
    <path
       id="path210"
       style="fill:none;stroke:#ff0000"
       d="m 1545.8616,603.02385 c 0.01,-1.90509 -1.0015,-3.66952 -2.6498,-4.62479" />
    <path
       id="path212"
       style="fill:none;stroke:#ff0000"
       d="m 1543.2118,598.39906 c -1.6483,-0.95528 -3.6819,-0.95528 -5.3302,0" />
    <path
       id="path214"
       style="fill:none;stroke:#ff0000"
       d="m 1537.8816,598.39906 c -1.6483,0.95527 -2.6592,2.7197 -2.6498,4.62479" />
    <path
       id="path216"
       style="fill:none;stroke:#ff0000"
       d="m 1535.2318,603.02385 c 0.014,2.92508 2.3898,5.28868 5.3149,5.28868" />
    <path
       id="path218"
       style="fill:none;stroke:#ff0000"
       d="m 1540.5467,608.31253 c 2.9251,0 5.3004,-2.3636 5.3149,-5.28868" />
    <path
       id="path220"
       style="fill:none;stroke:#ff0000"
       d="m 1599.5624,19.966525 0,0 0,0 0,0 0,0 z" />
    <path
       id="path222"
       style="fill:none;stroke:#ff0000"
       d="m 1841.027,472.52171 c 0,-1.90143 -1.0083,-3.66007 -2.6543,-4.6119" />
    <path
       id="path224"
       style="fill:none;stroke:#ff0000"
       d="m 1838.3727,467.90981 c -1.6461,-0.95183 -3.6752,-0.95183 -5.3213,0" />
    <path
       id="path226"
       style="fill:none;stroke:#ff0000"
       d="m 1833.0514,467.90981 c -1.646,0.95183 -2.6582,2.71047 -2.6543,4.6119" />
    <path
       id="path228"
       style="fill:none;stroke:#ff0000"
       d="m 1830.3971,472.52171 c 0,1.90142 1.0083,3.66007 2.6543,4.6119" />
    <path
       id="path230"
       style="fill:none;stroke:#ff0000"
       d="m 1833.0514,477.13361 c 1.6461,0.95183 3.6752,0.95183 5.3213,0" />
    <path
       id="path232"
       style="fill:none;stroke:#ff0000"
       d="m 1838.3727,477.13361 c 1.646,-0.95183 2.6582,-2.71048 2.6543,-4.6119" />
    <path
       id="path234"
       style="fill:none;stroke:#ff0000"
       d="m 1451.6576,400.99831 0,0 0,0 0,0 0,0 z" />
    <path
       id="path236"
       style="fill:none;stroke:#ff0000"
       d="m 2125.9302,460.45191 c 0,-1.90142 -1.0083,-3.66007 -2.6543,-4.6119" />
    <path
       id="path238"
       style="fill:none;stroke:#ff0000"
       d="m 2123.2759,455.84001 c -1.6461,-0.95183 -3.6752,-0.95183 -5.3212,0" />
    <path
       id="path240"
       style="fill:none;stroke:#ff0000"
       d="m 2117.9547,455.84001 c -1.6461,0.95183 -2.6583,2.71048 -2.6544,4.6119" />
    <path
       id="path242"
       style="fill:none;stroke:#ff0000"
       d="m 2115.3003,460.45191 c 0,1.90142 1.0083,3.66007 2.6544,4.6119" />
    <path
       id="path244"
       style="fill:none;stroke:#ff0000"
       d="m 2117.9547,465.06381 c 1.646,0.95183 3.6751,0.95183 5.3212,0" />
    <path
       id="path246"
       style="fill:none;stroke:#ff0000"
       d="m 2123.2759,465.06381 c 1.646,-0.95183 2.6582,-2.71048 2.6543,-4.6119" />
    <path
       id="path248"
       style="fill:none;stroke:#ff0000"
       d="m 1545.8616,603.02385 0,0 0,0 0,0 0,0 z" />
    <path
       id="path250"
       style="fill:none;stroke:#ff0000"
       d="m 1841.027,472.52171 0,0 0,0 0,0 0,0 z" />
    <path
       id="path252"
       style="fill:none;stroke:#ff0000"
       d="m 2125.9302,460.45191 0,0 0,0 0,0 0,0 z" />
    <path
       id="path254"
       style="fill:none;stroke:#ff0000"
       d="m 760.9497,398.43799 c -9.63957,0 -18.40606,5.58507 -22.47963,14.32162" />
    <path
       id="path256"
       style="fill:none;stroke:#ff0000"
       d="m 1427.332,412.76626 c -4.0736,-8.73661 -12.8401,-14.32171 -22.4797,-14.3217" />
    <path
       id="path258"
       style="fill:none;stroke:#ff0000"
       d="m 1519.1879,591.97725 0,0" />
    <path
       id="path266"
       style="fill:none;stroke:#ff0000"
       d="m 2142.81,463.46861 0,-440.893775" />
    <path
       id="path268"
       style="fill:none;stroke:#ff0000"
       d="m 1405.2428,398.43486 -644.38126,4e-5" />
  </g>
</svg>
