<?xml version="1.0" encoding="UTF-8" standalone="no"?>
<svg
   xmlns:dc="http://purl.org/dc/elements/1.1/"
   xmlns:cc="http://creativecommons.org/ns#"
   xmlns:rdf="http://www.w3.org/1999/02/22-rdf-syntax-ns#"
   xmlns:svg="http://www.w3.org/2000/svg"
   xmlns="http://www.w3.org/2000/svg"
   version="1.1"
   id="svg5142"
   height="1052.36220472"
   width="744.094488189">
  <metadata
     id="metadata5486">
    <rdf:RDF>
      <cc:Work
         rdf:about="">
        <dc:format>image/svg+xml</dc:format>
        <dc:type
           rdf:resource="http://purl.org/dc/dcmitype/StillImage" />
        <dc:title></dc:title>
      </cc:Work>
    </rdf:RDF>
  </metadata>
  <desc
     id="desc5144">/Users/jordan/code/personal/ergodox/case/dxf/joined/layer_5_bottom_joined.dxf - scale = 1.000000, origin = (0.000000, 0.000000), auto = False</desc>
  <defs
     id="defs5146">
    <marker
       style="overflow:visible"
       refY="0.0"
       refX="0.0"
       orient="auto"
       id="DistanceX">
      <path
         id="path5149"
         style="stroke:#000000; stroke-width:0.5"
         d="M 3,-3 L -3,3 M 0,-5 L  0,5" />
    </marker>
    <pattern
       y="0"
       x="0"
       width="8"
       patternUnits="userSpaceOnUse"
       id="Hatch"
       height="8">
      <path
         id="path5152"
         stroke-width="0.25"
         stroke="#000000"
         linecap="square"
         d="M8 4 l-4,4" />
      <path
         id="path5154"
         stroke-width="0.25"
         stroke="#000000"
         linecap="square"
         d="M6 2 l-4,4" />
      <path
         id="path5156"
         stroke-width="0.25"
         stroke="#000000"
         linecap="square"
         d="M4 0 l-4,4" />
    </pattern>
    <symbol
       id="*MODEL_SPACE" />
    <symbol
       id="*PAPER_SPACE" />
  </defs>
  <g
     id="g5160">
    <path
       id="path5162"
       style="stroke:#FF0000;fill:none"
       d="M 724.782210,400.998391 C 724.783376,399.098760 723.770603,397.342931 722.125672,396.392783" />
    <path
       id="path5164"
       style="stroke:#FF0000;fill:none"
       d="M 722.125672,396.392783 C 720.480738,395.442631 718.453761,395.442631 716.808827,396.392783" />
    <path
       id="path5166"
       style="stroke:#FF0000;fill:none"
       d="M 716.808827,396.392783 C 715.163896,397.342931 714.151123,399.098760 714.152289,400.998391" />
    <path
       id="path5168"
       style="stroke:#FF0000;fill:none"
       d="M 714.152289,400.998391 C 714.151123,402.898018 715.163896,404.653847 716.808827,405.603999" />
    <path
       id="path5170"
       style="stroke:#FF0000;fill:none"
       d="M 716.808827,405.603999 C 718.453761,406.554148 720.480738,406.554148 722.125672,405.603999" />
    <path
       id="path5172"
       style="stroke:#FF0000;fill:none"
       d="M 722.125672,405.603999 C 723.770603,404.653847 724.783376,402.898018 724.782210,400.998391" />
    <path
       id="path5174"
       style="stroke:#FF0000;fill:none"
       d="M 335.412960,472.521759 C 335.414126,470.622132 334.401353,468.866303 332.756422,467.916151" />
    <path
       id="path5176"
       style="stroke:#FF0000;fill:none"
       d="M 332.756422,467.916151 C 331.111488,466.965999 329.084511,466.965999 327.439577,467.916151" />
    <path
       id="path5178"
       style="stroke:#FF0000;fill:none"
       d="M 327.439577,467.916151 C 325.794646,468.866303 324.781873,470.622132 324.783039,472.521759" />
    <path
       id="path5180"
       style="stroke:#FF0000;fill:none"
       d="M 324.783039,472.521759 C 324.781873,474.421390 325.794646,476.177216 327.439577,477.127368" />
    <path
       id="path5182"
       style="stroke:#FF0000;fill:none"
       d="M 327.439577,477.127368 C 329.084511,478.077520 331.111488,478.077520 332.756422,477.127368" />
    <path
       id="path5184"
       style="stroke:#FF0000;fill:none"
       d="M 332.756422,477.127368 C 334.401353,476.177216 335.414126,474.421390 335.412960,472.521759" />
    <path
       id="path5186"
       style="stroke:#FF0000;fill:none"
       d="M 724.782210,400.998391 L 724.782210,400.998391 L 724.782210,400.998391 z" />
    <path
       id="path5188"
       style="stroke:#FF0000;fill:none"
       d="M 50.509789,460.451920 C 50.510955,458.552293 49.498186,456.796463 47.853252,455.846311" />
    <path
       id="path5190"
       style="stroke:#FF0000;fill:none"
       d="M 47.853252,455.846311 C 46.208317,454.896159 44.181340,454.896159 42.536409,455.846311" />
    <path
       id="path5192"
       style="stroke:#FF0000;fill:none"
       d="M 42.536409,455.846311 C 40.891475,456.796463 39.878706,458.552293 39.879872,460.451920" />
    <path
       id="path5194"
       style="stroke:#FF0000;fill:none"
       d="M 39.879872,460.451920 C 39.881668,463.386019 42.260730,465.763620 45.194829,465.763620" />
    <path
       id="path5196"
       style="stroke:#FF0000;fill:none"
       d="M 45.194829,465.763620 C 48.128928,465.763620 50.507989,463.386019 50.509789,460.451920" />
    <path
       id="path5198"
       style="stroke:#FF0000;fill:none"
       d="M 335.412960,472.521759 L 335.412960,472.521759 L 335.412960,472.521759 z" />
    <path
       id="path5200"
       style="stroke:#FF0000;fill:none"
       d="M 50.509789,460.451920 L 50.509789,460.451920 L 50.509789,460.451920 z" />
    <path
       id="path5202"
       style="stroke:#FF0000;fill:none"
       d="M 23.000000,463.468610 L 23.000000,22.574895" />
    <path
       id="path5204"
       style="stroke:#FF0000;fill:none"
       d="M 47.742063,-2.228255 L 1916.028099,-2.228255" />
    <path
       id="path5206"
       style="stroke:#FF0000;fill:none"
       d="M 738.482141,412.741300 L 646.482341,610.037111" />
    <path
       id="path5208"
       style="stroke:#FF0000;fill:none"
       d="M 50.509800,19.966585 C 50.509800,18.067730 49.496772,16.313117 47.852316,15.363691" />
    <path
       id="path5210"
       style="stroke:#FF0000;fill:none"
       d="M 47.852316,15.363691 C 46.207860,14.414265 44.181808,14.414265 42.537352,15.363691" />
    <path
       id="path5212"
       style="stroke:#FF0000;fill:none"
       d="M 42.537352,15.363691 C 40.892896,16.313117 39.879872,18.067730 39.879872,19.966585" />
    <path
       id="path5214"
       style="stroke:#FF0000;fill:none"
       d="M 39.879872,19.966585 C 39.879872,21.865440 40.892896,23.620054 42.537352,24.569479" />
    <path
       id="path5216"
       style="stroke:#FF0000;fill:none"
       d="M 42.537352,24.569479 C 44.181808,25.518908 46.207860,25.518908 47.852316,24.569479" />
    <path
       id="path5218"
       style="stroke:#FF0000;fill:none"
       d="M 47.852316,24.569479 C 49.496772,23.620054 50.509800,21.865440 50.509800,19.966585" />
    <path
       id="path5220"
       style="stroke:#FF0000;fill:none"
       d="M 613.522559,622.035011 L 331.588779,490.594780" />
    <path
       id="path5222"
       style="stroke:#FF0000;fill:none"
       d="M 387.369960,13.521745 C 387.371126,11.622118 386.358353,9.866289 384.713422,8.916137" />
    <path
       id="path5224"
       style="stroke:#FF0000;fill:none"
       d="M 384.713422,8.916137 C 383.068488,7.965985 381.041511,7.965985 379.396577,8.916137" />
    <path
       id="path5226"
       style="stroke:#FF0000;fill:none"
       d="M 379.396577,8.916137 C 377.751646,9.866289 376.738873,11.622118 376.740039,13.521745" />
    <path
       id="path5228"
       style="stroke:#FF0000;fill:none"
       d="M 376.740039,13.521745 C 376.738873,15.421376 377.751646,17.177202 379.396577,18.127354" />
    <path
       id="path5230"
       style="stroke:#FF0000;fill:none"
       d="M 379.396577,18.127354 C 381.041511,19.077506 383.068488,19.077506 384.713422,18.127354" />
    <path
       id="path5232"
       style="stroke:#FF0000;fill:none"
       d="M 384.713422,18.127354 C 386.358353,17.177202 387.371126,15.421376 387.369960,13.521745" />
    <path
       id="path5234"
       style="stroke:#FF0000;fill:none"
       d="M 50.509800,19.966585 L 50.509800,19.966585 L 50.509800,19.966585 z" />
    <path
       id="path5236"
       style="stroke:#FF0000;fill:none"
       d="M 387.369960,13.521745 L 387.369960,13.521745 L 387.369960,13.521745 z" />
    <path
       id="path5238"
       style="stroke:#FF0000;fill:none"
       d="M 576.877631,19.966585 C 576.877631,18.067730 575.864603,16.313117 574.220147,15.363691" />
    <path
       id="path5240"
       style="stroke:#FF0000;fill:none"
       d="M 574.220147,15.363691 C 572.575691,14.414262 570.549639,14.414262 568.905183,15.363691" />
    <path
       id="path5242"
       style="stroke:#FF0000;fill:none"
       d="M 568.905183,15.363691 C 567.260727,16.313117 566.247699,18.067730 566.247699,19.966585" />
    <path
       id="path5244"
       style="stroke:#FF0000;fill:none"
       d="M 566.247699,19.966585 C 566.247699,22.901960 568.627292,25.281549 571.562663,25.281549" />
    <path
       id="path5246"
       style="stroke:#FF0000;fill:none"
       d="M 571.562663,25.281549 C 574.498038,25.281549 576.877631,22.901960 576.877631,19.966585" />
    <path
       id="path5248"
       style="stroke:#FF0000;fill:none"
       d="M 321.108321,488.271759 L 47.803149,488.271759" />
    <path
       id="path5250"
       style="stroke:#FF0000;fill:none"
       d="M 47.803149,-2.228255 C 41.224946,-2.228255 34.916166,0.384927 30.264676,5.036421" />
    <path
       id="path5252"
       style="stroke:#FF0000;fill:none"
       d="M 30.264676,5.036421 C 25.613181,9.687912 23.000000,15.996692 23.000000,22.574895" />
    <path
       id="path5254"
       style="stroke:#FF0000;fill:none"
       d="M 23.000000,463.468610 C 23.000000,470.046813 25.613181,476.355593 30.264676,481.007087" />
    <path
       id="path5256"
       style="stroke:#FF0000;fill:none"
       d="M 30.264676,481.007087 C 34.916166,485.658578 41.224946,488.271759 47.803149,488.271759" />
    <path
       id="path5258"
       style="stroke:#FF0000;fill:none"
       d="M 613.522559,622.035011 C 625.937304,627.822896 640.693488,622.451406 646.482341,610.037111" />
    <path
       id="path5260"
       style="stroke:#FF0000;fill:none"
       d="M 331.588779,490.594780 C 328.306755,489.064667 324.729496,488.271759 321.108321,488.271759" />
    <path
       id="path5262"
       style="stroke:#FF0000;fill:none"
       d="M 576.877631,19.966585 L 576.877631,19.966585 L 576.877631,19.966585 z" />
    <path
       id="path5264"
       style="stroke:#FF0000;fill:none"
       d="M 630.578300,603.023811 C 630.579465,601.124180 629.566696,599.368351 627.921762,598.418203" />
    <path
       id="path5266"
       style="stroke:#FF0000;fill:none"
       d="M 627.921762,598.418203 C 626.276828,597.468051 624.249850,597.468051 622.604920,598.418203" />
    <path
       id="path5268"
       style="stroke:#FF0000;fill:none"
       d="M 622.604920,598.418203 C 620.959985,599.368351 619.947216,601.124180 619.948378,603.023811" />
    <path
       id="path5270"
       style="stroke:#FF0000;fill:none"
       d="M 619.948378,603.023811 C 619.947216,604.923438 620.959985,606.679267 622.604920,607.629419" />
    <path
       id="path5272"
       style="stroke:#FF0000;fill:none"
       d="M 622.604920,607.629419 C 624.249850,608.579568 626.276828,608.579568 627.921762,607.629419" />
    <path
       id="path5274"
       style="stroke:#FF0000;fill:none"
       d="M 627.921762,607.629419 C 629.566696,606.679267 630.579465,604.923438 630.578300,603.023811" />
    <path
       id="path5276"
       style="stroke:#FF0000;fill:none"
       d="M 646.622050,591.977211 L 646.622050,591.977211" />
    <path
       id="path5278"
       style="stroke:#FF0000;fill:none"
       d="M 630.578300,603.023811 L 630.578300,603.023811 L 630.578300,603.023811 z" />
    <path
       id="path5290"
       style="stroke:#FF0000;fill:none"
       d="M 646.622050,591.977211 L 646.622050,591.977211" />
    <path
       id="path5320"
       style="stroke:#FF0000;fill:none"
       d="M 1225.327801,412.741169 L 1317.327700,610.037111" />
    <path
       id="path5322"
       style="stroke:#FF0000;fill:none"
       d="M 1923.930198,19.966486 C 1923.934068,18.065062 1922.921890,16.306416 1921.275850,15.354585" />
    <path
       id="path5324"
       style="stroke:#FF0000;fill:none"
       d="M 1921.275850,15.354585 C 1919.629811,14.402753 1917.600690,14.402753 1915.954650,15.354585" />
    <path
       id="path5326"
       style="stroke:#FF0000;fill:none"
       d="M 1915.954650,15.354585 C 1914.308607,16.306416 1913.296433,18.065062 1913.300298,19.966486" />
    <path
       id="path5328"
       style="stroke:#FF0000;fill:none"
       d="M 1913.300298,19.966486 C 1913.296433,21.867909 1914.308607,23.626556 1915.954650,24.578387" />
    <path
       id="path5330"
       style="stroke:#FF0000;fill:none"
       d="M 1915.954650,24.578387 C 1917.600690,25.530219 1919.629811,25.530219 1921.275850,24.578387" />
    <path
       id="path5332"
       style="stroke:#FF0000;fill:none"
       d="M 1921.275850,24.578387 C 1922.921890,23.626556 1923.934068,21.867909 1923.930198,19.966486" />
    <path
       id="path5334"
       style="stroke:#FF0000;fill:none"
       d="M 1350.287401,622.035110 L 1632.221199,490.594670" />
    <path
       id="path5336"
       style="stroke:#FF0000;fill:none"
       d="M 1587.069900,13.521646 C 1587.079028,11.616750 1586.068012,9.852633 1584.419829,8.897542" />
    <path
       id="path5338"
       style="stroke:#FF0000;fill:none"
       d="M 1584.419829,8.897542 C 1582.771642,7.942447 1580.738357,7.942447 1579.090170,8.897542" />
    <path
       id="path5340"
       style="stroke:#FF0000;fill:none"
       d="M 1579.090170,8.897542 C 1577.441987,9.852633 1576.430975,11.616750 1576.440099,13.521646" />
    <path
       id="path5342"
       style="stroke:#FF0000;fill:none"
       d="M 1576.440099,13.521646 C 1576.430975,15.426542 1577.441987,17.190659 1579.090170,18.145750" />
    <path
       id="path5344"
       style="stroke:#FF0000;fill:none"
       d="M 1579.090170,18.145750 C 1580.738357,19.100845 1582.771642,19.100845 1584.419829,18.145750" />
    <path
       id="path5346"
       style="stroke:#FF0000;fill:none"
       d="M 1584.419829,18.145750 C 1586.068012,17.190659 1587.079028,15.426542 1587.069900,13.521646" />
    <path
       id="path5348"
       style="stroke:#FF0000;fill:none"
       d="M 1923.930198,19.966486 L 1923.930198,19.966486 L 1923.930198,19.966486 z" />
    <path
       id="path5350"
       style="stroke:#FF0000;fill:none"
       d="M 1587.069900,13.521646 L 1587.069900,13.521646 L 1587.069900,13.521646 z" />
    <path
       id="path5352"
       style="stroke:#FF0000;fill:none"
       d="M 1397.562399,19.966486 C 1397.562399,18.067603 1396.549357,16.312961 1394.904876,15.363517" />
    <path
       id="path5354"
       style="stroke:#FF0000;fill:none"
       d="M 1394.904876,15.363517 C 1393.260392,14.414074 1391.234308,14.414074 1389.589824,15.363517" />
    <path
       id="path5356"
       style="stroke:#FF0000;fill:none"
       d="M 1389.589824,15.363517 C 1387.945343,16.312961 1386.932301,18.067603 1386.932301,19.966486" />
    <path
       id="path5358"
       style="stroke:#FF0000;fill:none"
       d="M 1386.932301,19.966486 C 1386.932301,21.865369 1387.945343,23.620011 1389.589824,24.569454" />
    <path
       id="path5360"
       style="stroke:#FF0000;fill:none"
       d="M 1389.589824,24.569454 C 1391.234308,25.518898 1393.260392,25.518898 1394.904876,24.569454" />
    <path
       id="path5362"
       style="stroke:#FF0000;fill:none"
       d="M 1394.904876,24.569454 C 1396.549357,23.620011 1397.562399,21.865369 1397.562399,19.966486" />
    <path
       id="path5364"
       style="stroke:#FF0000;fill:none"
       d="M 1642.701600,488.271671 L 1916.006800,488.271671" />
    <path
       id="path5366"
       style="stroke:#FF0000;fill:none"
       d="M 1940.810000,22.574796 C 1940.810000,15.996582 1938.196811,9.687795 1933.545309,5.036301" />
    <path
       id="path5368"
       style="stroke:#FF0000;fill:none"
       d="M 1933.545309,5.036301 C 1928.893805,0.384807 1922.585014,-2.228368 1916.006800,-2.228354" />
    <path
       id="path5370"
       style="stroke:#FF0000;fill:none"
       d="M 1916.006800,488.271671 C 1922.585003,488.271681 1928.893787,485.658514 1933.545292,481.007030" />
    <path
       id="path5372"
       style="stroke:#FF0000;fill:none"
       d="M 1933.545292,481.007030 C 1938.196793,476.355547 1940.809985,470.046774 1940.810000,463.468571" />
    <path
       id="path5374"
       style="stroke:#FF0000;fill:none"
       d="M 1317.327601,610.037111 C 1323.116415,622.451456 1337.872620,627.822996 1350.287401,622.035110" />
    <path
       id="path5376"
       style="stroke:#FF0000;fill:none"
       d="M 1249.657600,400.998270 C 1249.666728,399.093371 1248.655713,397.329257 1247.007529,396.374163" />
    <path
       id="path5378"
       style="stroke:#FF0000;fill:none"
       d="M 1247.007529,396.374163 C 1245.359342,395.419071 1243.326058,395.419071 1241.677871,396.374163" />
    <path
       id="path5380"
       style="stroke:#FF0000;fill:none"
       d="M 1241.677871,396.374163 C 1240.029687,397.329257 1239.018672,399.093371 1239.027800,400.998270" />
    <path
       id="path5382"
       style="stroke:#FF0000;fill:none"
       d="M 1239.027800,400.998270 C 1239.041817,403.923667 1241.417268,406.287765 1244.342700,406.287765" />
    <path
       id="path5384"
       style="stroke:#FF0000;fill:none"
       d="M 1244.342700,406.287765 C 1247.268132,406.287765 1249.643583,403.923667 1249.657600,400.998270" />
    <path
       id="path5386"
       style="stroke:#FF0000;fill:none"
       d="M 1397.562399,19.966486 L 1397.562399,19.966486 L 1397.562399,19.966486 z" />
    <path
       id="path5388"
       style="stroke:#FF0000;fill:none"
       d="M 1642.701600,488.271671 C 1639.080443,488.271671 1635.503209,489.064574 1632.221199,490.594670" />
    <path
       id="path5390"
       style="stroke:#FF0000;fill:none"
       d="M 1343.861600,603.023811 C 1343.871021,601.118717 1342.860073,599.354295 1341.211766,598.399016" />
    <path
       id="path5392"
       style="stroke:#FF0000;fill:none"
       d="M 1341.211766,598.399016 C 1339.563462,597.443740 1337.529940,597.443740 1335.881633,598.399016" />
    <path
       id="path5394"
       style="stroke:#FF0000;fill:none"
       d="M 1335.881633,598.399016 C 1334.233325,599.354295 1333.222377,601.118717 1333.231799,603.023811" />
    <path
       id="path5396"
       style="stroke:#FF0000;fill:none"
       d="M 1333.231799,603.023811 C 1333.246266,605.948889 1335.621586,608.312487 1338.546699,608.312487" />
    <path
       id="path5398"
       style="stroke:#FF0000;fill:none"
       d="M 1338.546699,608.312487 C 1341.471813,608.312487 1343.847132,605.948889 1343.861600,603.023811" />
    <path
       id="path5400"
       style="stroke:#FF0000;fill:none"
       d="M 1249.657600,400.998270 L 1249.657600,400.998270 L 1249.657600,400.998270 z" />
    <path
       id="path5402"
       style="stroke:#FF0000;fill:none"
       d="M 1639.026999,472.521671 C 1639.030869,470.620244 1638.018691,468.861598 1636.372651,467.909770" />
    <path
       id="path5404"
       style="stroke:#FF0000;fill:none"
       d="M 1636.372651,467.909770 C 1634.726611,466.957938 1632.697487,466.957938 1631.051447,467.909770" />
    <path
       id="path5406"
       style="stroke:#FF0000;fill:none"
       d="M 1631.051447,467.909770 C 1629.405407,468.861598 1628.393230,470.620244 1628.397099,472.521671" />
    <path
       id="path5408"
       style="stroke:#FF0000;fill:none"
       d="M 1628.397099,472.521671 C 1628.393230,474.423094 1629.405407,476.181741 1631.051447,477.133572" />
    <path
       id="path5410"
       style="stroke:#FF0000;fill:none"
       d="M 1631.051447,477.133572 C 1632.697487,478.085404 1634.726611,478.085404 1636.372651,477.133572" />
    <path
       id="path5412"
       style="stroke:#FF0000;fill:none"
       d="M 1636.372651,477.133572 C 1638.018691,476.181741 1639.030869,474.423094 1639.026999,472.521671" />
    <path
       id="path5414"
       style="stroke:#FF0000;fill:none"
       d="M 1343.861600,603.023811 L 1343.861600,603.023811 L 1343.861600,603.023811 z" />
    <path
       id="path5416"
       style="stroke:#FF0000;fill:none"
       d="M 1923.930198,460.451870 C 1923.934068,458.550446 1922.921890,456.791800 1921.275850,455.839969" />
    <path
       id="path5418"
       style="stroke:#FF0000;fill:none"
       d="M 1921.275850,455.839969 C 1919.629811,454.888137 1917.600690,454.888137 1915.954650,455.839969" />
    <path
       id="path5420"
       style="stroke:#FF0000;fill:none"
       d="M 1915.954650,455.839969 C 1914.308607,456.791800 1913.296433,458.550446 1913.300298,460.451870" />
    <path
       id="path5422"
       style="stroke:#FF0000;fill:none"
       d="M 1913.300298,460.451870 C 1913.296433,462.353294 1914.308607,464.111940 1915.954650,465.063771" />
    <path
       id="path5424"
       style="stroke:#FF0000;fill:none"
       d="M 1915.954650,465.063771 C 1917.600690,466.015603 1919.629811,466.015603 1921.275850,465.063771" />
    <path
       id="path5426"
       style="stroke:#FF0000;fill:none"
       d="M 1921.275850,465.063771 C 1922.921890,464.111940 1923.934068,462.353294 1923.930198,460.451870" />
    <path
       id="path5428"
       style="stroke:#FF0000;fill:none"
       d="M 1639.026999,472.521671 L 1639.026999,472.521671 L 1639.026999,472.521671 z" />
    <path
       id="path5430"
       style="stroke:#FF0000;fill:none"
       d="M 1923.930198,460.451870 L 1923.930198,460.451870 L 1923.930198,460.451870 z" />
    <path
       id="path5432"
       style="stroke:#FF0000;fill:none"
       d="M 1317.187899,591.977211 L 1317.187899,591.977211" />
    <path
       id="path5446"
       style="stroke:#FF0000;fill:none"
       d="M 1940.810000,463.468571 L 1940.810000,22.574796" />
    <path
       id="path5476"
       style="stroke:#FF0000;fill:none"
       d="M 760.949699,398.437951 C 751.310128,398.437951 742.543643,404.023018 738.470069,412.759570" />
    <path
       id="path5478"
       style="stroke:#FF0000;fill:none"
       d="M 1225.332000,412.766220 C 1221.258441,404.029612 1212.491916,398.444506 1202.852300,398.444520" />
    <path
       id="path5482"
       style="stroke:#FF0000;fill:none"
       d="M 1202.908401,398.434819 L 760.861541,398.434819" />
  </g>
</svg>
