<?xml version="1.0" encoding="UTF-8" standalone="no"?>
<svg
   xmlns:dc="http://purl.org/dc/elements/1.1/"
   xmlns:cc="http://creativecommons.org/ns#"
   xmlns:rdf="http://www.w3.org/1999/02/22-rdf-syntax-ns#"
   xmlns:svg="http://www.w3.org/2000/svg"
   xmlns="http://www.w3.org/2000/svg"
   version="1.1"
   id="svg4512"
   height="1052.36220472"
   width="744.094488189">
  <metadata
     id="metadata5064">
    <rdf:RDF>
      <cc:Work
         rdf:about="">
        <dc:format>image/svg+xml</dc:format>
        <dc:type
           rdf:resource="http://purl.org/dc/dcmitype/StillImage" />
        <dc:title></dc:title>
      </cc:Work>
    </rdf:RDF>
  </metadata>
  <desc
     id="desc4514">/Users/jordan/code/personal/ergodox/case/dxf/joined/layer_1_top_joined_wide.dxf - scale = 1.000000, origin = (0.000000, 0.000000), auto = False</desc>
  <defs
     id="defs4516">
    <marker
       style="overflow:visible"
       refY="0.0"
       refX="0.0"
       orient="auto"
       id="DistanceX">
      <path
         id="path4519"
         style="stroke:#000000; stroke-width:0.5"
         d="M 3,-3 L -3,3 M 0,-5 L  0,5" />
    </marker>
    <pattern
       y="0"
       x="0"
       width="8"
       patternUnits="userSpaceOnUse"
       id="Hatch"
       height="8">
      <path
         id="path4522"
         stroke-width="0.25"
         stroke="#000000"
         linecap="square"
         d="M8 4 l-4,4" />
      <path
         id="path4524"
         stroke-width="0.25"
         stroke="#000000"
         linecap="square"
         d="M6 2 l-4,4" />
      <path
         id="path4526"
         stroke-width="0.25"
         stroke="#000000"
         linecap="square"
         d="M4 0 l-4,4" />
    </pattern>
    <symbol
       id="*MODEL_SPACE" />
    <symbol
       id="*PAPER_SPACE" />
  </defs>
  <g
     id="g4530">
    <path
       id="path4532"
       style="stroke:#FF0000;fill:none"
       d="M 724.782210,400.998469 C 724.783209,399.098838 723.770600,397.343009 722.125669,396.392857" />
    <path
       id="path4534"
       style="stroke:#FF0000;fill:none"
       d="M 722.125669,396.392857 C 720.480742,395.442709 718.453761,395.442709 716.808830,396.392857" />
    <path
       id="path4536"
       style="stroke:#FF0000;fill:none"
       d="M 716.808830,396.392857 C 715.163900,397.343009 714.151120,399.098838 714.152289,400.998469" />
    <path
       id="path4538"
       style="stroke:#FF0000;fill:none"
       d="M 714.152289,400.998469 C 714.151290,402.898096 715.163900,404.653929 716.808830,405.604077" />
    <path
       id="path4540"
       style="stroke:#FF0000;fill:none"
       d="M 716.808830,405.604077 C 718.453761,406.554229 720.480742,406.554229 722.125669,405.604077" />
    <path
       id="path4542"
       style="stroke:#FF0000;fill:none"
       d="M 722.125669,405.604077 C 723.770600,404.653929 724.783380,402.898096 724.782210,400.998469" />
    <path
       id="path4544"
       style="stroke:#FF0000;fill:none"
       d="M 335.412960,472.521837 C 335.413959,470.622207 334.401350,468.866378 332.756419,467.916229" />
    <path
       id="path4546"
       style="stroke:#FF0000;fill:none"
       d="M 332.756419,467.916229 C 331.111492,466.966077 329.084511,466.966077 327.439580,467.916229" />
    <path
       id="path4548"
       style="stroke:#FF0000;fill:none"
       d="M 327.439580,467.916229 C 325.794650,468.866378 324.781870,470.622207 324.783039,472.521837" />
    <path
       id="path4550"
       style="stroke:#FF0000;fill:none"
       d="M 324.783039,472.521837 C 324.782040,474.421468 325.794650,476.177297 327.439580,477.127449" />
    <path
       id="path4552"
       style="stroke:#FF0000;fill:none"
       d="M 327.439580,477.127449 C 329.084511,478.077598 331.111492,478.077598 332.756419,477.127449" />
    <path
       id="path4554"
       style="stroke:#FF0000;fill:none"
       d="M 332.756419,477.127449 C 334.401350,476.177297 335.414130,474.421468 335.412960,472.521837" />
    <path
       id="path4556"
       style="stroke:#FF0000;fill:none"
       d="M 50.509789,460.451998 C 50.510991,458.552367 49.498186,456.796538 47.853252,455.846389" />
    <path
       id="path4558"
       style="stroke:#FF0000;fill:none"
       d="M 47.853252,455.846389 C 46.208317,454.896237 44.181340,454.896237 42.536409,455.846389" />
    <path
       id="path4560"
       style="stroke:#FF0000;fill:none"
       d="M 42.536409,455.846389 C 40.891475,456.796538 39.878706,458.552367 39.879872,460.451998" />
    <path
       id="path4562"
       style="stroke:#FF0000;fill:none"
       d="M 39.879872,460.451998 C 39.881672,463.386097 42.260730,465.763698 45.194829,465.763698" />
    <path
       id="path4564"
       style="stroke:#FF0000;fill:none"
       d="M 45.194829,465.763698 C 48.128928,465.763698 50.507989,463.386097 50.509789,460.451998" />
    <path
       id="path4566"
       style="stroke:#FF0000;fill:none"
       d="M 724.782210,400.998469 L 724.782210,400.998469 L 724.782210,400.998469 L 724.782210,400.998469 L 724.782210,400.998469 L 724.782210,400.998469 L 724.782210,400.998469 z" />
    <path
       id="path4568"
       style="stroke:#FF0000;fill:none"
       d="M 335.412960,472.521837 L 335.412960,472.521837 L 335.412960,472.521837 L 335.412960,472.521837 L 335.412960,472.521837 L 335.412960,472.521837 L 335.412960,472.521837 z" />
    <path
       id="path4570"
       style="stroke:#FF0000;fill:none"
       d="M 50.509789,460.451998 L 50.509789,460.451998 L 50.509789,460.451998 L 50.509789,460.451998 L 50.509789,460.451998 L 50.509789,460.451998 L 50.509789,460.451998 z" />
    <path
       id="path4572"
       style="stroke:#FF0000;fill:none"
       d="M 23.000000,463.468688 L 23.000000,22.574973" />
    <path
       id="path4574"
       style="stroke:#FF0000;fill:none"
       d="M 50.509800,19.966663 C 50.509800,18.067808 49.496772,16.313194 47.852316,15.363769" />
    <path
       id="path4576"
       style="stroke:#FF0000;fill:none"
       d="M 47.852316,15.363769 C 46.207860,14.414343 44.181808,14.414343 42.537352,15.363769" />
    <path
       id="path4578"
       style="stroke:#FF0000;fill:none"
       d="M 42.537352,15.363769 C 40.892896,16.313194 39.879872,18.067808 39.879872,19.966663" />
    <path
       id="path4580"
       style="stroke:#FF0000;fill:none"
       d="M 39.879872,19.966663 C 39.879872,21.865518 40.892896,23.620131 42.537352,24.569557" />
    <path
       id="path4582"
       style="stroke:#FF0000;fill:none"
       d="M 42.537352,24.569557 C 44.181808,25.518986 46.207860,25.518986 47.852316,24.569557" />
    <path
       id="path4584"
       style="stroke:#FF0000;fill:none"
       d="M 47.852316,24.569557 C 49.496772,23.620131 50.509800,21.865518 50.509800,19.966663" />
    <path
       id="path4586"
       style="stroke:#FF0000;fill:none"
       d="M 47.742063,-2.228177 L 2118.083900,-2.228177" />
    <path
       id="path4588"
       style="stroke:#FF0000;fill:none"
       d="M 387.369960,13.521823 C 387.370959,11.622196 386.358350,9.866367 384.713419,8.916215" />
    <path
       id="path4590"
       style="stroke:#FF0000;fill:none"
       d="M 384.713419,8.916215 C 383.068492,7.966063 381.041511,7.966063 379.396580,8.916215" />
    <path
       id="path4592"
       style="stroke:#FF0000;fill:none"
       d="M 379.396580,8.916215 C 377.751650,9.866367 376.738870,11.622196 376.740039,13.521823" />
    <path
       id="path4594"
       style="stroke:#FF0000;fill:none"
       d="M 376.740039,13.521823 C 376.739040,15.421454 377.751650,17.177280 379.396580,18.127431" />
    <path
       id="path4596"
       style="stroke:#FF0000;fill:none"
       d="M 379.396580,18.127431 C 381.041511,19.077583 383.068492,19.077583 384.713419,18.127431" />
    <path
       id="path4598"
       style="stroke:#FF0000;fill:none"
       d="M 384.713419,18.127431 C 386.358350,17.177280 387.371130,15.421454 387.369960,13.521823" />
    <path
       id="path4600"
       style="stroke:#FF0000;fill:none"
       d="M 738.482141,412.741378 L 646.482341,610.037189" />
    <path
       id="path4602"
       style="stroke:#FF0000;fill:none"
       d="M 613.522559,622.035089 L 331.588779,490.594858" />
    <path
       id="path4604"
       style="stroke:#FF0000;fill:none"
       d="M 576.877631,19.966663 C 576.877631,18.067808 575.864600,16.313194 574.220151,15.363769" />
    <path
       id="path4606"
       style="stroke:#FF0000;fill:none"
       d="M 574.220151,15.363769 C 572.575691,14.414340 570.549639,14.414340 568.905180,15.363769" />
    <path
       id="path4608"
       style="stroke:#FF0000;fill:none"
       d="M 568.905180,15.363769 C 567.260731,16.313194 566.247699,18.067808 566.247699,19.966663" />
    <path
       id="path4610"
       style="stroke:#FF0000;fill:none"
       d="M 566.247699,19.966663 C 566.247699,22.902038 568.627289,25.281627 571.562660,25.281627" />
    <path
       id="path4612"
       style="stroke:#FF0000;fill:none"
       d="M 571.562660,25.281627 C 574.498042,25.281627 576.877631,22.902038 576.877631,19.966663" />
    <path
       id="path4614"
       style="stroke:#FF0000;fill:none"
       d="M 50.509800,19.966663 L 50.509800,19.966663 L 50.509800,19.966663 L 50.509800,19.966663 L 50.509800,19.966663 L 50.509800,19.966663 L 50.509800,19.966663 z" />
    <path
       id="path4616"
       style="stroke:#FF0000;fill:none"
       d="M 47.803149,-2.228177 C 41.224946,-2.228177 34.916166,0.385005 30.264676,5.036499" />
    <path
       id="path4618"
       style="stroke:#FF0000;fill:none"
       d="M 30.264676,5.036499 C 25.613181,9.687990 23.000000,15.996770 23.000000,22.574973" />
    <path
       id="path4620"
       style="stroke:#FF0000;fill:none"
       d="M 23.000000,463.468688 C 23.000000,470.046887 25.613181,476.355667 30.264676,481.007169" />
    <path
       id="path4622"
       style="stroke:#FF0000;fill:none"
       d="M 30.264676,481.007169 C 34.916166,485.658659 41.224946,488.271837 47.803149,488.271837" />
    <path
       id="path4624"
       style="stroke:#FF0000;fill:none"
       d="M 613.522559,622.035089 C 625.937301,627.822978 640.693492,622.451487 646.482341,610.037189" />
    <path
       id="path4626"
       style="stroke:#FF0000;fill:none"
       d="M 331.588779,490.594858 C 328.306752,489.064748 324.729500,488.271837 321.108321,488.271837" />
    <path
       id="path4628"
       style="stroke:#FF0000;fill:none"
       d="M 387.369960,13.521823 L 387.369960,13.521823 L 387.369960,13.521823 L 387.369960,13.521823 L 387.369960,13.521823 L 387.369960,13.521823 L 387.369960,13.521823 z" />
    <path
       id="path4630"
       style="stroke:#FF0000;fill:none"
       d="M 630.578300,603.023889 C 630.579299,601.124258 629.566700,599.368429 627.921758,598.418277" />
    <path
       id="path4632"
       style="stroke:#FF0000;fill:none"
       d="M 627.921758,598.418277 C 626.276831,597.468129 624.249850,597.468129 622.604920,598.418277" />
    <path
       id="path4634"
       style="stroke:#FF0000;fill:none"
       d="M 622.604920,598.418277 C 620.959978,599.368429 619.947220,601.124258 619.948378,603.023889" />
    <path
       id="path4636"
       style="stroke:#FF0000;fill:none"
       d="M 619.948378,603.023889 C 619.947379,604.923516 620.959978,606.679349 622.604920,607.629497" />
    <path
       id="path4638"
       style="stroke:#FF0000;fill:none"
       d="M 622.604920,607.629497 C 624.249850,608.579649 626.276831,608.579649 627.921758,607.629497" />
    <path
       id="path4640"
       style="stroke:#FF0000;fill:none"
       d="M 627.921758,607.629497 C 629.566700,606.679349 630.579469,604.923516 630.578300,603.023889" />
    <path
       id="path4642"
       style="stroke:#FF0000;fill:none"
       d="M 321.108321,488.271837 L 47.803149,488.271837" />
    <path
       id="path4644"
       style="stroke:#FF0000;fill:none"
       d="M 576.877631,19.966663 L 576.877631,19.966663 L 576.877631,19.966663 L 576.877631,19.966663 L 576.877631,19.966663 L 576.877631,19.966663 L 576.877631,19.966663 z" />
    <path
       id="path4646"
       style="stroke:#FF0000;fill:none"
       d="M 646.622050,591.977289 L 646.622050,591.977289" />
    <path
       id="path4648"
       style="stroke:#FF0000;fill:none"
       d="M 630.578300,603.023889 L 630.578300,603.023889 L 630.578300,603.023889 L 630.578300,603.023889 L 630.578300,603.023889 L 630.578300,603.023889 L 630.578300,603.023889 z" />
    <path
       id="path4650"
       style="stroke:#FF0000;fill:none"
       d="M 2125.930199,19.966564 C 2125.930199,18.065140 2124.921901,16.306494 2123.275900,15.354663" />
    <path
       id="path4652"
       style="stroke:#FF0000;fill:none"
       d="M 2123.275900,15.354663 C 2121.629800,14.402831 2119.600701,14.402831 2117.954700,15.354663" />
    <path
       id="path4654"
       style="stroke:#FF0000;fill:none"
       d="M 2117.954700,15.354663 C 2116.308600,16.306494 2115.296401,18.065140 2115.300299,19.966564" />
    <path
       id="path4656"
       style="stroke:#FF0000;fill:none"
       d="M 2115.300299,19.966564 C 2115.300299,21.867987 2116.308600,23.626633 2117.954700,24.578465" />
    <path
       id="path4658"
       style="stroke:#FF0000;fill:none"
       d="M 2117.954700,24.578465 C 2119.600701,25.530296 2121.629800,25.530296 2123.275900,24.578465" />
    <path
       id="path4660"
       style="stroke:#FF0000;fill:none"
       d="M 2123.275900,24.578465 C 2124.921901,23.626633 2125.934100,21.867987 2125.930199,19.966564" />
    <path
       id="path4662"
       style="stroke:#FF0000;fill:none"
       d="M 646.622050,591.977289 L 646.622050,591.977289" />
    <path
       id="path4664"
       style="stroke:#FF0000;fill:none"
       d="M 1789.069900,13.521724 C 1789.079900,11.616828 1788.067998,9.852711 1786.419801,8.897620" />
    <path
       id="path4666"
       style="stroke:#FF0000;fill:none"
       d="M 1786.419801,8.897620 C 1784.771600,7.942525 1782.738400,7.942525 1781.090199,8.897620" />
    <path
       id="path4668"
       style="stroke:#FF0000;fill:none"
       d="M 1781.090199,8.897620 C 1779.442002,9.852711 1778.431000,11.616828 1778.440100,13.521724" />
    <path
       id="path4670"
       style="stroke:#FF0000;fill:none"
       d="M 1778.440100,13.521724 C 1778.430100,15.426620 1779.442002,17.190737 1781.090199,18.145828" />
    <path
       id="path4672"
       style="stroke:#FF0000;fill:none"
       d="M 1781.090199,18.145828 C 1782.738400,19.100923 1784.771600,19.100923 1786.419801,18.145828" />
    <path
       id="path4674"
       style="stroke:#FF0000;fill:none"
       d="M 1786.419801,18.145828 C 1788.067998,17.190737 1789.079000,15.426620 1789.069900,13.521724" />
    <path
       id="path4676"
       style="stroke:#FF0000;fill:none"
       d="M 1427.327802,412.741247 L 1519.327701,610.037189" />
    <path
       id="path4678"
       style="stroke:#FF0000;fill:none"
       d="M 1552.287402,622.035188 L 1834.221200,490.594748" />
    <path
       id="path4680"
       style="stroke:#FF0000;fill:none"
       d="M 1599.562400,19.966564 C 1599.562400,18.067681 1598.549400,16.313039 1596.904902,15.363595" />
    <path
       id="path4682"
       style="stroke:#FF0000;fill:none"
       d="M 1596.904902,15.363595 C 1595.260400,14.414152 1593.234301,14.414152 1591.589799,15.363595" />
    <path
       id="path4684"
       style="stroke:#FF0000;fill:none"
       d="M 1591.589799,15.363595 C 1589.945301,16.313039 1588.932301,18.067681 1588.932301,19.966564" />
    <path
       id="path4686"
       style="stroke:#FF0000;fill:none"
       d="M 1588.932301,19.966564 C 1588.932301,21.865447 1589.945301,23.620089 1591.589799,24.569532" />
    <path
       id="path4688"
       style="stroke:#FF0000;fill:none"
       d="M 1591.589799,24.569532 C 1593.234301,25.518976 1595.260400,25.518976 1596.904902,24.569532" />
    <path
       id="path4690"
       style="stroke:#FF0000;fill:none"
       d="M 1596.904902,24.569532 C 1598.549400,23.620089 1599.562400,21.865447 1599.562400,19.966564" />
    <path
       id="path4692"
       style="stroke:#FF0000;fill:none"
       d="M 2125.930199,19.966564 L 2125.930199,19.966564 L 2125.930199,19.966564 L 2125.930199,19.966564 L 2125.930199,19.966564 L 2125.930199,19.966564 L 2125.930199,19.966564 z" />
    <path
       id="path4694"
       style="stroke:#FF0000;fill:none"
       d="M 2142.810000,22.574874 C 2142.810000,15.996660 2140.196800,9.687873 2135.545299,5.036379" />
    <path
       id="path4696"
       style="stroke:#FF0000;fill:none"
       d="M 2135.545299,5.036379 C 2130.893802,0.384885 2124.585000,-2.228290 2118.006801,-2.228276" />
    <path
       id="path4698"
       style="stroke:#FF0000;fill:none"
       d="M 2118.006801,488.271749 C 2124.585000,488.271759 2130.893802,485.658588 2135.545299,481.007108" />
    <path
       id="path4700"
       style="stroke:#FF0000;fill:none"
       d="M 2135.545299,481.007108 C 2140.196800,476.355628 2142.810000,470.046848 2142.810000,463.468649" />
    <path
       id="path4702"
       style="stroke:#FF0000;fill:none"
       d="M 1519.327602,610.037189 C 1525.116402,622.451537 1539.872600,627.823077 1552.287402,622.035188" />
    <path
       id="path4704"
       style="stroke:#FF0000;fill:none"
       d="M 1451.657601,400.998348 C 1451.667600,399.093449 1450.655699,397.329339 1449.007501,396.374237" />
    <path
       id="path4706"
       style="stroke:#FF0000;fill:none"
       d="M 1449.007501,396.374237 C 1447.359300,395.419149 1445.326101,395.419149 1443.677900,396.374237" />
    <path
       id="path4708"
       style="stroke:#FF0000;fill:none"
       d="M 1443.677900,396.374237 C 1442.029698,397.329339 1441.018701,399.093449 1441.027800,400.998348" />
    <path
       id="path4710"
       style="stroke:#FF0000;fill:none"
       d="M 1441.027800,400.998348 C 1441.041800,403.923749 1443.417300,406.287836 1446.342700,406.287836" />
    <path
       id="path4712"
       style="stroke:#FF0000;fill:none"
       d="M 1446.342700,406.287836 C 1449.268101,406.287836 1451.643601,403.923749 1451.657601,400.998348" />
    <path
       id="path4714"
       style="stroke:#FF0000;fill:none"
       d="M 1789.069900,13.521724 L 1789.069900,13.521724 L 1789.069900,13.521724 L 1789.069900,13.521724 L 1789.069900,13.521724 L 1789.069900,13.521724 L 1789.069900,13.521724 z" />
    <path
       id="path4716"
       style="stroke:#FF0000;fill:none"
       d="M 1844.701600,488.271749 C 1841.080401,488.271749 1837.503198,489.064649 1834.221200,490.594748" />
    <path
       id="path4718"
       style="stroke:#FF0000;fill:none"
       d="M 1545.861600,603.023889 C 1545.871599,601.118798 1544.860098,599.354369 1543.211802,598.399097" />
    <path
       id="path4720"
       style="stroke:#FF0000;fill:none"
       d="M 1543.211802,598.399097 C 1541.563501,597.443818 1539.529902,597.443818 1537.881601,598.399097" />
    <path
       id="path4722"
       style="stroke:#FF0000;fill:none"
       d="M 1537.881601,598.399097 C 1536.233301,599.354369 1535.222399,601.118798 1535.231799,603.023889" />
    <path
       id="path4724"
       style="stroke:#FF0000;fill:none"
       d="M 1535.231799,603.023889 C 1535.245799,605.948967 1537.621600,608.312569 1540.546700,608.312569" />
    <path
       id="path4726"
       style="stroke:#FF0000;fill:none"
       d="M 1540.546700,608.312569 C 1543.471799,608.312569 1545.847101,605.948967 1545.861600,603.023889" />
    <path
       id="path4728"
       style="stroke:#FF0000;fill:none"
       d="M 1844.701600,488.271749 L 2118.006801,488.271749" />
    <path
       id="path4730"
       style="stroke:#FF0000;fill:none"
       d="M 1841.027000,472.521749 C 1841.027000,470.620318 1840.018698,468.861679 1838.372701,467.909848" />
    <path
       id="path4732"
       style="stroke:#FF0000;fill:none"
       d="M 1838.372701,467.909848 C 1836.726601,466.958016 1834.697502,466.958016 1833.051402,467.909848" />
    <path
       id="path4734"
       style="stroke:#FF0000;fill:none"
       d="M 1833.051402,467.909848 C 1831.405401,468.861679 1830.393198,470.620318 1830.397100,472.521749" />
    <path
       id="path4736"
       style="stroke:#FF0000;fill:none"
       d="M 1830.397100,472.521749 C 1830.397100,474.423169 1831.405401,476.181819 1833.051402,477.133646" />
    <path
       id="path4738"
       style="stroke:#FF0000;fill:none"
       d="M 1833.051402,477.133646 C 1834.697502,478.085478 1836.726601,478.085478 1838.372701,477.133646" />
    <path
       id="path4740"
       style="stroke:#FF0000;fill:none"
       d="M 1838.372701,477.133646 C 1840.018698,476.181819 1841.030901,474.423169 1841.027000,472.521749" />
    <path
       id="path4742"
       style="stroke:#FF0000;fill:none"
       d="M 1599.562400,19.966564 L 1599.562400,19.966564 L 1599.562400,19.966564 L 1599.562400,19.966564 L 1599.562400,19.966564 L 1599.562400,19.966564 L 1599.562400,19.966564 z" />
    <path
       id="path4744"
       style="stroke:#FF0000;fill:none"
       d="M 2125.930199,460.451948 C 2125.930199,458.550528 2124.921901,456.791878 2123.275900,455.840047" />
    <path
       id="path4746"
       style="stroke:#FF0000;fill:none"
       d="M 2123.275900,455.840047 C 2121.629800,454.888219 2119.600701,454.888219 2117.954700,455.840047" />
    <path
       id="path4748"
       style="stroke:#FF0000;fill:none"
       d="M 2117.954700,455.840047 C 2116.308600,456.791878 2115.296401,458.550528 2115.300299,460.451948" />
    <path
       id="path4750"
       style="stroke:#FF0000;fill:none"
       d="M 2115.300299,460.451948 C 2115.300299,462.353368 2116.308600,464.112018 2117.954700,465.063849" />
    <path
       id="path4752"
       style="stroke:#FF0000;fill:none"
       d="M 2117.954700,465.063849 C 2119.600701,466.015677 2121.629800,466.015677 2123.275900,465.063849" />
    <path
       id="path4754"
       style="stroke:#FF0000;fill:none"
       d="M 2123.275900,465.063849 C 2124.921901,464.112018 2125.934100,462.353368 2125.930199,460.451948" />
    <path
       id="path4756"
       style="stroke:#FF0000;fill:none"
       d="M 1451.657601,400.998348 L 1451.657601,400.998348 L 1451.657601,400.998348 L 1451.657601,400.998348 L 1451.657601,400.998348 L 1451.657601,400.998348 L 1451.657601,400.998348 z" />
    <path
       id="path4758"
       style="stroke:#FF0000;fill:none"
       d="M 1545.861600,603.023889 L 1545.861600,603.023889 L 1545.861600,603.023889 L 1545.861600,603.023889 L 1545.861600,603.023889 L 1545.861600,603.023889 L 1545.861600,603.023889 z" />
    <path
       id="path4760"
       style="stroke:#FF0000;fill:none"
       d="M 1841.027000,472.521749 L 1841.027000,472.521749 L 1841.027000,472.521749 L 1841.027000,472.521749 L 1841.027000,472.521749 L 1841.027000,472.521749 L 1841.027000,472.521749 z" />
    <path
       id="path4762"
       style="stroke:#FF0000;fill:none"
       d="M 760.949699,398.438029 C 751.310128,398.438029 742.543639,404.023096 738.470069,412.759648" />
    <path
       id="path4764"
       style="stroke:#FF0000;fill:none"
       d="M 1427.332000,412.766298 C 1423.258398,404.029687 1414.491899,398.444588 1404.852300,398.444598" />
    <path
       id="path4766"
       style="stroke:#FF0000;fill:none"
       d="M 2125.930199,460.451948 L 2125.930199,460.451948 L 2125.930199,460.451948 L 2125.930199,460.451948 L 2125.930199,460.451948 L 2125.930199,460.451948 L 2125.930199,460.451948 z" />
    <path
       id="path4768"
       style="stroke:#FF0000;fill:none"
       d="M 58.043356,117.951619 C 56.086444,117.951619 54.500053,119.538007 54.500049,121.494919" />
    <path
       id="path4770"
       style="stroke:#FF0000;fill:none"
       d="M 54.500049,386.208308 C 54.500046,387.148057 54.873358,388.049308 55.537859,388.713809" />
    <path
       id="path4772"
       style="stroke:#FF0000;fill:none"
       d="M 55.537859,388.713809 C 56.202357,389.378307 57.103615,389.751619 58.043356,389.751619" />
    <path
       id="path4774"
       style="stroke:#FF0000;fill:none"
       d="M 1519.187900,591.977289 L 1519.187900,591.977289" />
    <path
       id="path4776"
       style="stroke:#FF0000;fill:none"
       d="M 2142.810000,463.468649 L 2142.810000,22.574874" />
    <path
       id="path4778"
       style="stroke:#FF0000;fill:none"
       d="M 514.133391,383.001619 C 512.445402,383.001626 510.984081,384.174457 510.618742,385.822439" />
    <path
       id="path4780"
       style="stroke:#FF0000;fill:none"
       d="M 510.618742,385.822439 C 510.253391,387.470409 511.082128,389.150936 512.611958,389.864328" />
    <path
       id="path4782"
       style="stroke:#FF0000;fill:none"
       d="M 1405.242801,398.434897 L 760.861541,398.434939" />
    <path
       id="path4784"
       style="stroke:#FF0000;fill:none"
       d="M 549.681591,407.150178 C 550.979571,407.755439 552.464841,407.820288 553.810642,407.330458" />
    <path
       id="path4786"
       style="stroke:#FF0000;fill:none"
       d="M 553.810642,407.330458 C 555.156439,406.840628 556.252530,405.836238 556.857790,404.538257" />
    <path
       id="path4788"
       style="stroke:#FF0000;fill:none"
       d="M 54.500049,386.208308 L 54.500049,121.494919" />
    <path
       id="path4790"
       style="stroke:#FF0000;fill:none"
       d="M 586.365091,349.777967 C 584.563139,348.937707 582.421220,349.717266 581.580960,351.519257" />
    <path
       id="path4792"
       style="stroke:#FF0000;fill:none"
       d="M 562.235202,114.801619 L 562.280000,346.236938" />
    <path
       id="path4794"
       style="stroke:#FF0000;fill:none"
       d="M 705.563858,409.333429 C 705.967370,408.468107 706.010598,407.477927 705.684051,406.580726" />
    <path
       id="path4796"
       style="stroke:#FF0000;fill:none"
       d="M 705.684051,406.580726 C 705.357489,405.683529 704.687900,404.952796 703.822581,404.549288" />
    <path
       id="path4798"
       style="stroke:#FF0000;fill:none"
       d="M 512.611958,389.864328 L 549.681591,407.150178" />
    <path
       id="path4800"
       style="stroke:#FF0000;fill:none"
       d="M 617.481670,589.707978 C 618.346991,590.111479 619.337169,590.154718 620.234369,589.828156" />
    <path
       id="path4802"
       style="stroke:#FF0000;fill:none"
       d="M 620.234369,589.828156 C 621.131570,589.501609 621.862299,588.832019 622.265811,587.966698" />
    <path
       id="path4804"
       style="stroke:#FF0000;fill:none"
       d="M 556.857790,404.538257 L 581.580960,351.519257" />
    <path
       id="path4806"
       style="stroke:#FF0000;fill:none"
       d="M 437.107121,501.625779 C 436.266861,503.427728 437.046420,505.569657 438.848408,506.409909" />
    <path
       id="path4808"
       style="stroke:#FF0000;fill:none"
       d="M 586.365091,349.777967 L 703.822581,404.549288" />
    <path
       id="path4810"
       style="stroke:#FF0000;fill:none"
       d="M 488.840241,390.683746 C 489.620091,389.011348 489.491961,387.056509 488.500480,385.500207" />
    <path
       id="path4812"
       style="stroke:#FF0000;fill:none"
       d="M 488.500480,385.500207 C 487.509009,383.943898 485.791469,383.001626 483.946179,383.001619" />
    <path
       id="path4814"
       style="stroke:#FF0000;fill:none"
       d="M 705.563858,409.333429 L 622.265811,587.966698" />
    <path
       id="path4816"
       style="stroke:#FF0000;fill:none"
       d="M 432.635202,383.001619 C 431.203029,383.001619 429.829519,383.570546 428.816820,384.583248" />
    <path
       id="path4818"
       style="stroke:#FF0000;fill:none"
       d="M 428.816820,384.583248 C 427.804129,385.595936 427.235202,386.969457 427.235202,388.401619" />
    <path
       id="path4820"
       style="stroke:#FF0000;fill:none"
       d="M 617.481670,589.707978 L 438.848408,506.409909" />
    <path
       id="path4822"
       style="stroke:#FF0000;fill:none"
       d="M 423.635202,446.001619 C 424.589981,446.001619 425.505650,445.622336 426.180781,444.947209" />
    <path
       id="path4824"
       style="stroke:#FF0000;fill:none"
       d="M 426.180781,444.947209 C 426.855908,444.272078 427.235202,443.356398 427.235202,442.401619" />
    <path
       id="path4826"
       style="stroke:#FF0000;fill:none"
       d="M 437.107121,501.625779 L 488.840241,390.683746" />
    <path
       id="path4828"
       style="stroke:#FF0000;fill:none"
       d="M 357.541129,443.751619 C 358.091231,445.111519 359.411471,446.001619 360.878421,446.001619" />
    <path
       id="path4830"
       style="stroke:#FF0000;fill:none"
       d="M 357.541129,443.751619 C 356.715971,441.711776 354.735620,440.376626 352.535202,440.376619" />
    <path
       id="path4832"
       style="stroke:#FF0000;fill:none"
       d="M 483.946179,383.001619 L 432.635202,383.001619" />
    <path
       id="path4834"
       style="stroke:#FF0000;fill:none"
       d="M 297.635202,440.376619 C 295.434769,440.376619 293.454422,441.711769 292.629260,443.751619" />
    <path
       id="path4836"
       style="stroke:#FF0000;fill:none"
       d="M 289.291978,446.001619 C 290.758922,446.001619 292.079151,445.111519 292.629260,443.751619" />
    <path
       id="path4838"
       style="stroke:#FF0000;fill:none"
       d="M 427.235202,388.401619 L 427.235202,442.401619" />
    <path
       id="path4840"
       style="stroke:#FF0000;fill:none"
       d="M 230.135202,446.001619 C 227.152860,446.001619 224.735202,448.419288 224.735202,451.401619" />
    <path
       id="path4842"
       style="stroke:#FF0000;fill:none"
       d="M 423.635202,446.001619 L 360.878421,446.001619" />
    <path
       id="path4844"
       style="stroke:#FF0000;fill:none"
       d="M 221.135202,457.251619 C 222.089981,457.251619 223.005650,456.872336 223.680781,456.197209" />
    <path
       id="path4846"
       style="stroke:#FF0000;fill:none"
       d="M 223.680781,456.197209 C 224.355908,455.522078 224.735202,454.606398 224.735202,453.651619" />
    <path
       id="path4848"
       style="stroke:#FF0000;fill:none"
       d="M 352.535202,440.376619 L 297.635202,440.376619" />
    <path
       id="path4850"
       style="stroke:#FF0000;fill:none"
       d="M 87.935198,453.651619 C 87.935198,454.606398 88.314484,455.522078 88.989615,456.197209" />
    <path
       id="path4852"
       style="stroke:#FF0000;fill:none"
       d="M 88.989615,456.197209 C 89.664743,456.872336 90.580419,457.251619 91.535198,457.251619" />
    <path
       id="path4854"
       style="stroke:#FF0000;fill:none"
       d="M 289.291978,446.001619 L 230.135202,446.001619" />
    <path
       id="path4856"
       style="stroke:#FF0000;fill:none"
       d="M 87.935198,395.151619 C 87.935198,393.719457 87.366270,392.345936 86.353576,391.333248" />
    <path
       id="path4858"
       style="stroke:#FF0000;fill:none"
       d="M 86.353576,391.333248 C 85.340877,390.320546 83.967367,389.751619 82.535198,389.751619" />
    <path
       id="path4860"
       style="stroke:#FF0000;fill:none"
       d="M 224.735202,451.401619 L 224.735202,453.651619" />
    <path
       id="path4862"
       style="stroke:#FF0000;fill:none"
       d="M 221.135202,457.251619 L 91.535198,457.251619" />
    <path
       id="path4864"
       style="stroke:#FF0000;fill:none"
       d="M 217.535202,117.951619 C 218.967371,117.951619 220.340881,117.382698 221.353579,116.369996" />
    <path
       id="path4866"
       style="stroke:#FF0000;fill:none"
       d="M 221.353579,116.369996 C 222.366270,115.357298 222.935202,113.983788 222.935202,112.551619" />
    <path
       id="path4868"
       style="stroke:#FF0000;fill:none"
       d="M 87.935198,453.651619 L 87.935198,395.151619" />
    <path
       id="path4870"
       style="stroke:#FF0000;fill:none"
       d="M 226.535202,106.701619 C 225.580419,106.701619 224.664739,107.080909 223.989608,107.756036" />
    <path
       id="path4872"
       style="stroke:#FF0000;fill:none"
       d="M 223.989608,107.756036 C 223.314481,108.431167 222.935202,109.346846 222.935202,110.301619" />
    <path
       id="path4874"
       style="stroke:#FF0000;fill:none"
       d="M 82.535198,389.751619 L 58.043356,389.751619" />
    <path
       id="path4876"
       style="stroke:#FF0000;fill:none"
       d="M 285.035202,106.701619 C 287.235620,106.701619 289.215971,105.366469 290.041129,103.326619" />
    <path
       id="path4878"
       style="stroke:#FF0000;fill:none"
       d="M 293.378421,101.076619 C 291.911471,101.076619 290.591231,101.966719 290.041129,103.326619" />
    <path
       id="path4880"
       style="stroke:#FF0000;fill:none"
       d="M 58.043356,117.951619 L 217.535202,117.951619" />
    <path
       id="path4882"
       style="stroke:#FF0000;fill:none"
       d="M 360.129260,103.326619 C 359.579151,101.966726 358.258922,101.076626 356.791978,101.076619" />
    <path
       id="path4884"
       style="stroke:#FF0000;fill:none"
       d="M 360.129260,103.326619 C 360.954422,105.366469 362.934769,106.701626 365.135202,106.701619" />
    <path
       id="path4886"
       style="stroke:#FF0000;fill:none"
       d="M 222.935202,112.551619 L 222.935202,110.301619" />
    <path
       id="path4888"
       style="stroke:#FF0000;fill:none"
       d="M 427.958660,108.501619 C 427.315581,107.387777 426.127121,106.701619 424.840971,106.701619" />
    <path
       id="path4890"
       style="stroke:#FF0000;fill:none"
       d="M 427.958660,108.501619 C 428.923279,110.172387 430.705959,111.201619 432.635202,111.201619" />
    <path
       id="path4892"
       style="stroke:#FF0000;fill:none"
       d="M 226.535202,106.701619 L 285.035202,106.701619" />
    <path
       id="path4894"
       style="stroke:#FF0000;fill:none"
       d="M 562.235202,114.801619 C 562.235202,113.846846 561.855908,112.931167 561.180781,112.256036" />
    <path
       id="path4896"
       style="stroke:#FF0000;fill:none"
       d="M 561.180781,112.256036 C 560.505650,111.580909 559.589981,111.201619 558.635202,111.201619" />
    <path
       id="path4898"
       style="stroke:#FF0000;fill:none"
       d="M 293.378421,101.076619 L 356.791978,101.076619" />
    <path
       id="path4900"
       style="stroke:#FF0000;fill:none"
       d="M 558.635202,383.001619 C 559.589981,383.001619 560.505650,382.622336 561.180781,381.947209" />
    <path
       id="path4902"
       style="stroke:#FF0000;fill:none"
       d="M 561.180781,381.947209 C 561.855908,381.272078 562.235202,380.356398 562.235202,379.401619" />
    <path
       id="path4904"
       style="stroke:#FF0000;fill:none"
       d="M 365.135202,106.701619 L 424.840971,106.701619" />
    <path
       id="path4906"
       style="stroke:#FF0000;fill:none"
       d="M 432.635202,111.201619 L 558.635202,111.201619" />
    <path
       id="path4908"
       style="stroke:#FF0000;fill:none"
       d="M 562.235202,114.801619 L 562.235202,379.401619" />
    <path
       id="path4910"
       style="stroke:#FF0000;fill:none"
       d="M 1653.198102,389.699178 C 1654.727900,388.985807 1655.556700,387.305267 1655.191300,385.657289" />
    <path
       id="path4912"
       style="stroke:#FF0000;fill:none"
       d="M 1655.191300,385.657289 C 1654.826000,384.009307 1653.364701,382.836469 1651.676701,382.836469" />
    <path
       id="path4914"
       style="stroke:#FF0000;fill:none"
       d="M 558.635202,383.001619 L 514.133391,383.001619" />
    <path
       id="path4916"
       style="stroke:#FF0000;fill:none"
       d="M 1608.952302,404.373107 C 1610.212698,407.076027 1613.425500,408.245428 1616.128501,406.985028" />
    <path
       id="path4918"
       style="stroke:#FF0000;fill:none"
       d="M 2111.310000,386.043158 L 2111.310000,121.329787" />
    <path
       id="path4920"
       style="stroke:#FF0000;fill:none"
       d="M 1584.229100,351.354107 C 1583.388801,349.552159 1581.246900,348.772567 1579.445001,349.612827" />
    <path
       id="path4922"
       style="stroke:#FF0000;fill:none"
       d="M 1603.574901,114.636469 L 1603.529901,346.071788" />
    <path
       id="path4924"
       style="stroke:#FF0000;fill:none"
       d="M 1461.987500,404.384148 C 1460.185501,405.224408 1459.405899,407.366337 1460.246202,409.168279" />
    <path
       id="path4926"
       style="stroke:#FF0000;fill:none"
       d="M 1653.198102,389.699178 L 1616.128501,406.985028" />
    <path
       id="path4928"
       style="stroke:#FF0000;fill:none"
       d="M 1543.544199,587.801548 C 1544.384502,589.603496 1546.526399,590.383088 1548.328401,589.542828" />
    <path
       id="path4930"
       style="stroke:#FF0000;fill:none"
       d="M 1608.952302,404.373107 L 1584.229100,351.354107" />
    <path
       id="path4932"
       style="stroke:#FF0000;fill:none"
       d="M 1726.961701,506.244777 C 1728.763600,505.404507 1729.543199,503.262588 1728.702900,501.460639" />
    <path
       id="path4934"
       style="stroke:#FF0000;fill:none"
       d="M 1579.445001,349.612827 L 1461.987500,404.384148" />
    <path
       id="path4936"
       style="stroke:#FF0000;fill:none"
       d="M 1681.863899,382.836469 C 1680.018601,382.836469 1678.301001,383.778748 1677.309601,385.335057" />
    <path
       id="path4938"
       style="stroke:#FF0000;fill:none"
       d="M 1677.309601,385.335057 C 1676.318099,386.891369 1676.190001,388.846208 1676.969802,390.518617" />
    <path
       id="path4940"
       style="stroke:#FF0000;fill:none"
       d="M 1460.246202,409.168279 L 1543.544199,587.801548" />
    <path
       id="path4942"
       style="stroke:#FF0000;fill:none"
       d="M 1738.574901,388.236469 C 1738.574901,386.804296 1738.005899,385.430797 1736.993200,384.418098" />
    <path
       id="path4944"
       style="stroke:#FF0000;fill:none"
       d="M 1736.993200,384.418098 C 1735.980498,383.405396 1734.606999,382.836469 1733.174901,382.836469" />
    <path
       id="path4946"
       style="stroke:#FF0000;fill:none"
       d="M 1548.328401,589.542828 L 1726.961701,506.244777" />
    <path
       id="path4948"
       style="stroke:#FF0000;fill:none"
       d="M 1738.574901,442.236469 C 1738.574901,443.191248 1738.954098,444.106928 1739.629300,444.782059" />
    <path
       id="path4950"
       style="stroke:#FF0000;fill:none"
       d="M 1739.629300,444.782059 C 1740.304400,445.457186 1741.220100,445.836469 1742.174901,445.836469" />
    <path
       id="path4952"
       style="stroke:#FF0000;fill:none"
       d="M 1728.702900,501.460639 L 1676.969802,390.518617" />
    <path
       id="path4954"
       style="stroke:#FF0000;fill:none"
       d="M 1804.931600,445.836469 C 1806.398600,445.836469 1807.718800,444.946369 1808.268899,443.586469" />
    <path
       id="path4956"
       style="stroke:#FF0000;fill:none"
       d="M 1813.274901,440.211469 C 1811.074401,440.211476 1809.094100,441.546626 1808.268899,443.586469" />
    <path
       id="path4958"
       style="stroke:#FF0000;fill:none"
       d="M 1681.863899,382.836469 L 1733.174901,382.836469" />
    <path
       id="path4960"
       style="stroke:#FF0000;fill:none"
       d="M 1873.180800,443.586469 C 1872.355599,441.546619 1870.375302,440.211469 1868.174901,440.211469" />
    <path
       id="path4962"
       style="stroke:#FF0000;fill:none"
       d="M 1873.180800,443.586469 C 1873.730898,444.946369 1875.051099,445.836469 1876.518099,445.836469" />
    <path
       id="path4964"
       style="stroke:#FF0000;fill:none"
       d="M 1738.574901,388.236469 L 1738.574901,442.236469" />
    <path
       id="path4966"
       style="stroke:#FF0000;fill:none"
       d="M 1941.074901,451.236469 C 1941.074901,449.804296 1940.505899,448.430797 1939.493200,447.418098" />
    <path
       id="path4968"
       style="stroke:#FF0000;fill:none"
       d="M 1939.493200,447.418098 C 1938.480498,446.405396 1937.106999,445.836469 1935.674901,445.836469" />
    <path
       id="path4970"
       style="stroke:#FF0000;fill:none"
       d="M 1742.174901,445.836469 L 1804.931600,445.836469" />
    <path
       id="path4972"
       style="stroke:#FF0000;fill:none"
       d="M 1941.074901,453.486469 C 1941.074901,454.441248 1941.454098,455.356928 1942.129300,456.032059" />
    <path
       id="path4974"
       style="stroke:#FF0000;fill:none"
       d="M 1942.129300,456.032059 C 1942.804400,456.707186 1943.720100,457.086469 1944.674901,457.086469" />
    <path
       id="path4976"
       style="stroke:#FF0000;fill:none"
       d="M 1813.274901,440.211469 L 1868.174901,440.211469" />
    <path
       id="path4978"
       style="stroke:#FF0000;fill:none"
       d="M 2074.274901,457.086469 C 2075.229599,457.086469 2076.145299,456.707186 2076.820398,456.032059" />
    <path
       id="path4980"
       style="stroke:#FF0000;fill:none"
       d="M 2076.820398,456.032059 C 2077.495600,455.356928 2077.874901,454.441248 2077.874901,453.486469" />
    <path
       id="path4982"
       style="stroke:#FF0000;fill:none"
       d="M 1876.518099,445.836469 L 1935.674901,445.836469" />
    <path
       id="path4984"
       style="stroke:#FF0000;fill:none"
       d="M 2083.274901,389.586469 C 2081.842700,389.586469 2080.469200,390.155396 2079.456498,391.168098" />
    <path
       id="path4986"
       style="stroke:#FF0000;fill:none"
       d="M 2079.456498,391.168098 C 2078.443800,392.180797 2077.874901,393.554296 2077.874901,394.986469" />
    <path
       id="path4988"
       style="stroke:#FF0000;fill:none"
       d="M 1941.074901,451.236469 L 1941.074901,453.486469" />
    <path
       id="path4990"
       style="stroke:#FF0000;fill:none"
       d="M 1944.674901,457.086469 L 2074.274901,457.086469" />
    <path
       id="path4992"
       style="stroke:#FF0000;fill:none"
       d="M 1942.874901,112.386469 C 1942.874901,113.818638 1943.443800,115.192148 1944.456498,116.204846" />
    <path
       id="path4994"
       style="stroke:#FF0000;fill:none"
       d="M 1944.456498,116.204846 C 1945.469200,117.217548 1946.842700,117.786469 1948.274901,117.786469" />
    <path
       id="path4996"
       style="stroke:#FF0000;fill:none"
       d="M 2077.874901,453.486469 L 2077.874901,394.986469" />
    <path
       id="path4998"
       style="stroke:#FF0000;fill:none"
       d="M 1942.874901,110.136469 C 1942.874901,109.181689 1942.495600,108.266017 1941.820398,107.590886" />
    <path
       id="path5000"
       style="stroke:#FF0000;fill:none"
       d="M 1941.820398,107.590886 C 1941.145299,106.915759 1940.229599,106.536469 1939.274901,106.536469" />
    <path
       id="path5002"
       style="stroke:#FF0000;fill:none"
       d="M 2083.274901,389.586469 L 2107.766700,389.586469" />
    <path
       id="path5004"
       style="stroke:#FF0000;fill:none"
       d="M 1875.768899,103.161469 C 1876.594100,105.201319 1878.574401,106.536469 1880.774901,106.536469" />
    <path
       id="path5006"
       style="stroke:#FF0000;fill:none"
       d="M 1875.768899,103.161469 C 1875.218800,101.801569 1873.898600,100.911469 1872.431600,100.911469" />
    <path
       id="path5008"
       style="stroke:#FF0000;fill:none"
       d="M 2107.766700,117.786469 L 1948.274901,117.786469" />
    <path
       id="path5010"
       style="stroke:#FF0000;fill:none"
       d="M 1809.018099,100.911469 C 1807.551099,100.911469 1806.230898,101.801569 1805.680800,103.161469" />
    <path
       id="path5012"
       style="stroke:#FF0000;fill:none"
       d="M 1800.674901,106.536469 C 1802.875302,106.536476 1804.855599,105.201319 1805.680800,103.161469" />
    <path
       id="path5014"
       style="stroke:#FF0000;fill:none"
       d="M 1942.874901,112.386469 L 1942.874901,110.136469" />
    <path
       id="path5016"
       style="stroke:#FF0000;fill:none"
       d="M 1740.969099,106.536469 C 1739.682900,106.536469 1738.494500,107.222627 1737.851400,108.336469" />
    <path
       id="path5018"
       style="stroke:#FF0000;fill:none"
       d="M 1733.174901,111.036469 C 1735.104100,111.036469 1736.886798,110.007237 1737.851400,108.336469" />
    <path
       id="path5020"
       style="stroke:#FF0000;fill:none"
       d="M 1939.274901,106.536469 L 1880.774901,106.536469" />
    <path
       id="path5022"
       style="stroke:#FF0000;fill:none"
       d="M 1607.174901,111.036469 C 1606.220100,111.036469 1605.304400,111.415759 1604.629300,112.090886" />
    <path
       id="path5024"
       style="stroke:#FF0000;fill:none"
       d="M 1604.629300,112.090886 C 1603.954098,112.766017 1603.574901,113.681689 1603.574901,114.636469" />
    <path
       id="path5026"
       style="stroke:#FF0000;fill:none"
       d="M 1872.431600,100.911469 L 1809.018099,100.911469" />
    <path
       id="path5028"
       style="stroke:#FF0000;fill:none"
       d="M 1603.574901,379.236469 C 1603.574901,380.191248 1603.954098,381.106928 1604.629300,381.782059" />
    <path
       id="path5030"
       style="stroke:#FF0000;fill:none"
       d="M 1604.629300,381.782059 C 1605.304400,382.457186 1606.220100,382.836469 1607.174901,382.836469" />
    <path
       id="path5032"
       style="stroke:#FF0000;fill:none"
       d="M 1800.674901,106.536469 L 1740.969099,106.536469" />
    <path
       id="path5034"
       style="stroke:#FF0000;fill:none"
       d="M 2111.310000,121.329787 C 2111.310000,120.390038 2110.936698,119.488787 2110.272201,118.824279" />
    <path
       id="path5036"
       style="stroke:#FF0000;fill:none"
       d="M 2110.272201,118.824279 C 2109.607700,118.159788 2108.706399,117.786469 2107.766700,117.786469" />
    <path
       id="path5038"
       style="stroke:#FF0000;fill:none"
       d="M 2107.766700,389.586469 C 2108.706399,389.586469 2109.607700,389.213157 2110.272201,388.548659" />
    <path
       id="path5040"
       style="stroke:#FF0000;fill:none"
       d="M 2110.272201,388.548659 C 2110.936698,387.884158 2111.310000,386.982907 2111.310000,386.043158" />
    <path
       id="path5042"
       style="stroke:#FF0000;fill:none"
       d="M 2050.329699,61.551322 C 2050.329699,59.651695 2049.318099,57.895866 2047.673101,56.945714" />
    <path
       id="path5044"
       style="stroke:#FF0000;fill:none"
       d="M 2047.673101,56.945714 C 2046.028199,55.995562 2044.001200,55.995562 2042.356302,56.945714" />
    <path
       id="path5046"
       style="stroke:#FF0000;fill:none"
       d="M 2042.356302,56.945714 C 2040.711399,57.895866 2039.698602,59.651695 2039.699799,61.551322" />
    <path
       id="path5048"
       style="stroke:#FF0000;fill:none"
       d="M 2039.699799,61.551322 C 2039.699799,63.450953 2040.711399,65.206779 2042.356302,66.156931" />
    <path
       id="path5050"
       style="stroke:#FF0000;fill:none"
       d="M 2042.356302,66.156931 C 2044.001200,67.107083 2046.028199,67.107083 2047.673101,66.156931" />
    <path
       id="path5052"
       style="stroke:#FF0000;fill:none"
       d="M 2047.673101,66.156931 C 2049.318099,65.206779 2050.330801,63.450953 2050.329699,61.551322" />
    <path
       id="path5054"
       style="stroke:#FF0000;fill:none"
       d="M 1733.174901,111.036469 L 1607.174901,111.036469" />
    <path
       id="path5056"
       style="stroke:#FF0000;fill:none"
       d="M 1603.574901,114.636469 L 1603.574901,379.236469" />
    <path
       id="path5058"
       style="stroke:#FF0000;fill:none"
       d="M 1607.174901,382.836469 L 1651.676701,382.836469" />
    <path
       id="path5060"
       style="stroke:#FF0000;fill:none"
       d="M 2050.329699,61.551322 L 2050.329699,61.551322 L 2050.329699,61.551322 L 2050.329699,61.551322 L 2050.329699,61.551322 L 2050.329699,61.551322 L 2050.329699,61.551322 z" />
  </g>
</svg>
